<svg width="228" height="44" viewBox="0 0 228 44" fill="none" xmlns="http://www.w3.org/2000/svg">
    <path fill-rule="evenodd" clip-rule="evenodd" d="M0 0L43.6178 0L43.6178 43.6178L0 43.6178L0 0ZM29.8286 29.8383L19.129 29.8383V35.1906H29.8286V29.8383ZM8.42578 24.4866L8.42578 13.782L13.7756 13.782L13.7756 24.4866H8.42578ZM19.1277 24.4852L19.1277 13.7824L24.4775 13.7824L24.4775 19.1323L29.8292 19.1323V24.4846L24.4775 24.4846V24.4871H19.1278V29.8378H13.7778V24.4852H19.1277ZM29.8287 8.42627L24.4787 8.42627V13.7789L29.8287 13.7789V8.42627ZM29.8299 13.7791H35.1799V19.1316H29.8299L29.8299 13.7791Z" fill="white"/>
    <path d="M99.5874 13.7792V29.8379H104.938V35.1908H88.8867V29.8379H94.2371V13.7792L88.8867 13.7792V8.42627L104.938 8.42627V13.7792H99.5874Z" fill="white"/>
    <path d="M78.184 8.42627L67.4844 8.42627V13.7786L78.184 13.7786V8.42627Z" fill="white"/>
    <path d="M78.184 29.8384L67.4844 29.8384V35.1907H78.184V29.8384Z" fill="white"/>
    <path d="M126.338 29.8384L115.639 29.8384V35.1907H126.338V29.8384Z" fill="white"/>
    <path d="M126.338 8.42627L115.639 8.42627V13.7786L126.338 13.7786V8.42627Z" fill="white"/>
    <path d="M195.895 16.3569H190.545V21.7095H195.895V16.3569Z" fill="white"/>
    <path d="M201.247 21.7095H195.896V27.0621H201.247V21.7095Z" fill="white"/>
    <path d="M131.69 19.1323L120.99 19.1323V24.4847L131.69 24.4847V19.1323Z" fill="white"/>
    <path d="M62.1328 8.42837V35.1929H67.4832V8.42837H62.1328Z" fill="white"/>
    <path d="M110.287 13.7802V29.8398H115.638V13.7802H110.287Z" fill="white"/>
    <path d="M158.441 8.42784V29.8398H163.792V8.42784H158.441Z" fill="white"/>
    <path d="M179.844 8.42627V35.1908H163.793V29.8379L174.494 29.8379V8.42627L179.844 8.42627Z" fill="white"/>
    <path d="M185.193 8.42837V35.1929H190.544V8.42837H185.193Z" fill="white"/>
    <path d="M201.246 8.42837V35.1929H206.596V8.42837H201.246Z" fill="white"/>
    <path d="M126.338 24.4872V29.8398H131.688V24.4872H126.338Z" fill="white"/>
    <path d="M78.1836 13.7802V29.8398H83.5343V13.7802H78.1836Z" fill="white"/>
    <path d="M147.742 13.7792V29.8379H153.092V35.1908H137.041V29.8379H142.391V13.7792L137.041 13.7792V8.42627L153.092 8.42627V13.7792H147.742Z" fill="white"/>
    <path d="M222.65 13.7792V29.8379H228V35.1908H211.949V29.8379H217.3V13.7792L211.949 13.7792V8.42627L228 8.42627V13.7792H222.65Z" fill="white"/>
</svg>
