<svg width="1119" height="214" viewBox="0 0 1119 214" fill="none" xmlns="http://www.w3.org/2000/svg">
    <path fill-rule="evenodd" clip-rule="evenodd" d="M0 0L214 0L214 214L0 214L0 0ZM146.347 146.394H93.8518L93.8518 172.654H146.347V146.394ZM41.3402 120.137L41.3402 67.6172H67.5877V120.137H41.3402ZM93.8468 120.131V67.6199L120.094 67.6199V93.8678H146.351L146.351 120.128H120.094V120.14L93.8495 120.14V146.392L67.6008 146.392V120.131H93.8468ZM146.347 41.3411H120.098L120.098 67.6023H146.347V41.3411ZM146.354 67.6031L172.603 67.6031V93.8643L146.354 93.8643V67.6031Z" fill="#282836"/>
    <path d="M488.61 67.604V146.392L514.86 146.392V172.655L436.109 172.655V146.392H462.36V67.604H436.109V41.3413L514.86 41.3413V67.604L488.61 67.604Z" fill="#282836"/>
    <path d="M383.598 41.3413L331.104 41.3413V67.6012L383.598 67.6012V41.3413Z" fill="#282836"/>
    <path d="M383.598 146.395L331.104 146.395V172.654L383.598 172.654V146.395Z" fill="#282836"/>
    <path d="M619.848 146.395L567.354 146.395V172.654L619.848 172.654V146.395Z" fill="#282836"/>
    <path d="M619.848 41.3413L567.354 41.3413V67.6012L619.848 67.6012V41.3413Z" fill="#282836"/>
    <path d="M961.118 80.2515L934.869 80.2515V106.513H961.118V80.2515Z" fill="#282836"/>
    <path d="M987.374 106.512L961.125 106.512V132.773H987.374V106.512Z" fill="#282836"/>
    <path d="M646.11 93.8677L593.615 93.8677V120.128L646.11 120.128V93.8677Z" fill="#282836"/>
    <path d="M304.844 41.3526V172.666H331.094V41.3526H304.844Z" fill="#282836"/>
    <path d="M541.104 67.6086V146.401H567.355V67.6086L541.104 67.6086Z" fill="#282836"/>
    <path d="M777.357 41.3487V146.401H803.608V41.3487L777.357 41.3487Z" fill="#282836"/>
    <path d="M882.37 41.3413V172.655L803.619 172.655V146.392H856.12V41.3413L882.37 41.3413Z" fill="#282836"/>
    <path d="M908.613 41.3526V172.666H934.863V41.3526H908.613Z" fill="#282836"/>
    <path d="M987.367 41.3526V172.666H1013.62V41.3526H987.367Z" fill="#282836"/>
    <path d="M619.852 120.14V146.401H646.1V120.14H619.852Z" fill="#282836"/>
    <path d="M383.592 67.6086V146.401H409.844V67.6086L383.592 67.6086Z" fill="#282836"/>
    <path d="M724.86 67.604V146.392L751.11 146.392V172.655L672.359 172.655V146.392H698.61V67.604H672.359V41.3413L751.11 41.3413V67.604L724.86 67.604Z" fill="#282836"/>
    <path d="M1092.38 67.604V146.392L1118.63 146.392V172.655L1039.88 172.655V146.392H1066.13V67.604H1039.88V41.3413L1118.63 41.3413V67.604L1092.38 67.604Z" fill="#282836"/>
</svg>
