<?xml version="1.0" encoding="UTF-8"?>
<svg id="Layer_1" data-name="Layer 1" xmlns="http://www.w3.org/2000/svg" version="1.1" viewBox="0 0 408 506">
  <defs>
    <style>
      .cls-1 {
        fill-rule: evenodd;
      }

      .cls-1, .cls-2, .cls-3, .cls-4, .cls-5, .cls-6 {
        stroke-width: 0px;
      }

      .cls-1, .cls-6 {
        fill: #ffe72b;
      }

      .cls-2 {
        fill: #dee1fc;
      }

      .cls-3 {
        fill: #feffe6;
      }

      .cls-4 {
        fill: #aaaaad;
      }

      .cls-5 {
        fill: #16161d;
      }
    </style>
  </defs>
  <polygon class="cls-2" points="309 73 399 73 399 82 408 82 408 497 399 497 399 506 30 506 30 497 21 497 21 28 309 73"/>
  <g>
    <polygon class="cls-3" points="290 56 380 56 380 65 389 65 389 478 380 478 380 487 11 487 11 478 2 478 2 11 11 11 11 2 245 2 245 11 254 11 254 20 263 20 263 29 272 29 272 38 281 38 281 47 290 47 290 56"/>
    <path class="cls-5" d="M382,489H9v-9H0V9h9V0h238v9h9v9h9v9h9v9h9v9h9v9h90v9h9v417h-9v9ZM13,485h365v-9s9,0,9,0V67h-9v-9h-90v-9h-9v-9h-9v-9h-9v-9h-9v-9h-9V4H13v9H4v463h9v9Z"/>
  </g>
  <rect class="cls-2" x="46" y="126" width="180" height="37"/>
  <g>
    <path class="cls-5" d="M47.1,154.4h2.5v-20.6h-2.5v-1.9h24.2v1.9h-2.5v20.6h2.5v1.9h-9.2v-1.9h2.5v-20.5h-10.9v20.5h2.5v1.9h-9.2v-1.9Z"/>
    <path class="cls-5" d="M74.2,161.4h2.4v-20.5l-2.4-.5v-1.5l6.2-1.2v3.1h.2c.4-.8,1-1.6,1.8-2.2.8-.6,1.9-.9,3.3-.9s2.1.2,3,.6c.9.4,1.7,1.1,2.3,1.9.6.8,1.1,1.8,1.5,3,.3,1.2.5,2.5.5,4s-.2,2.8-.5,4c-.3,1.2-.8,2.2-1.5,3-.6.8-1.4,1.4-2.3,1.9s-1.9.6-3,.6-2.5-.3-3.3-.9c-.8-.6-1.4-1.4-1.8-2.2h-.2v7.8h3v1.9h-9.3v-1.9ZM84.5,154.2c1.3,0,2.4-.5,3.2-1.4.8-.9,1.2-2.2,1.2-3.8v-3.7c0-1.6-.4-2.9-1.2-3.8-.8-.9-1.8-1.4-3.2-1.4s-1,0-1.5.2c-.5.2-.9.4-1.3.7-.4.3-.7.7-.9,1.1-.2.4-.3.9-.3,1.4v7.1c0,.5.1,1,.3,1.4.2.4.5.8.9,1.1.4.3.8.5,1.3.7.5.2,1,.2,1.5.2Z"/>
    <path class="cls-5" d="M104.8,156.7c-1.3,0-2.4-.2-3.5-.7s-1.9-1.1-2.7-1.9c-.7-.8-1.3-1.8-1.7-3-.4-1.2-.6-2.5-.6-4s.2-2.8.6-4c.4-1.2,1-2.2,1.7-3,.7-.8,1.6-1.4,2.7-1.9,1-.4,2.2-.7,3.5-.7s2.4.2,3.5.7c1,.4,1.9,1.1,2.7,1.9.7.8,1.3,1.8,1.7,3,.4,1.2.6,2.5.6,4s-.2,2.8-.6,4c-.4,1.2-1,2.2-1.7,3-.7.8-1.6,1.4-2.7,1.9s-2.2.7-3.5.7ZM104.8,154.7c1.5,0,2.5-.5,3.2-1.4.7-.9,1-2.1,1-3.7v-4.9c0-1.5-.3-2.7-1-3.7-.7-.9-1.8-1.4-3.2-1.4s-2.5.5-3.2,1.4c-.7.9-1,2.1-1,3.7v4.9c0,1.5.3,2.7,1,3.7.7.9,1.8,1.4,3.2,1.4Z"/>
    <path class="cls-5" d="M116.2,154.4h2.4v-14.4h-2.4v-1.9h14.7v5.4h-2.7v-3.3h-5.8v14.3h3v1.9h-9.3v-1.9Z"/>
    <path class="cls-5" d="M133.3,161.4h2.4v-20.5l-2.4-.5v-1.5l6.2-1.2v3.1h.2c.4-.8,1-1.6,1.8-2.2.8-.6,1.9-.9,3.3-.9s2.1.2,3,.6c.9.4,1.7,1.1,2.3,1.9.6.8,1.1,1.8,1.5,3,.3,1.2.5,2.5.5,4s-.2,2.8-.5,4c-.3,1.2-.8,2.2-1.5,3-.6.8-1.4,1.4-2.3,1.9s-1.9.6-3,.6-2.5-.3-3.3-.9c-.8-.6-1.4-1.4-1.8-2.2h-.2v7.8h3v1.9h-9.3v-1.9ZM143.6,154.2c1.3,0,2.4-.5,3.2-1.4.8-.9,1.2-2.2,1.2-3.8v-3.7c0-1.6-.4-2.9-1.2-3.8-.8-.9-1.8-1.4-3.2-1.4s-1,0-1.5.2c-.5.2-.9.4-1.3.7-.4.3-.7.7-.9,1.1-.2.4-.3.9-.3,1.4v7.1c0,.5.1,1,.3,1.4.2.4.5.8.9,1.1.4.3.8.5,1.3.7.5.2,1,.2,1.5.2Z"/>
    <path class="cls-5" d="M160.9,156.7c-1.8,0-3.2-.4-4.1-1.3-.9-.9-1.4-2.1-1.4-3.7s.6-3.1,1.9-4c1.2-.9,3.3-1.4,6.1-1.4h2.5v-2.4c0-1.4-.3-2.5-.9-3.3-.6-.7-1.6-1.1-2.9-1.1s-2,.2-2.6.5h0c.3.3.5.5.7.8.2.3.3.7.3,1.2s-.2,1.2-.6,1.6c-.4.4-.9.6-1.6.6s-1.1-.2-1.5-.6c-.4-.4-.6-1-.6-1.7s.2-1.1.5-1.6c.3-.5.8-1,1.4-1.3.6-.4,1.3-.7,2.2-.9.9-.2,1.9-.4,3-.4,2.2,0,3.8.5,4.9,1.5,1.1,1,1.7,2.5,1.7,4.3v10.9h2.4v1.6c-.3.2-.7.3-1.2.5-.5.1-1.1.2-1.6.2-1.1,0-1.8-.3-2.3-.8-.5-.5-.7-1.3-.7-2.1v-.2h-.2c-.2.4-.4.8-.6,1.1-.3.4-.6.7-1,1-.4.3-.9.5-1.5.7-.6.2-1.3.3-2,.3ZM162.4,154.3c1,0,1.9-.2,2.5-.7.7-.5,1-1.3,1-2.4v-3.1h-2.1c-1.6,0-2.8.3-3.4.8-.6.5-1,1.3-1,2.3v.7c0,.8.3,1.5.8,1.9.5.4,1.3.6,2.2.6Z"/>
    <path class="cls-5" d="M174.7,154.4h2.4v-14.4h-2.4v-1.9h6.9l4.4,9h.1l4.4-9h6.9v1.9h-2.4v14.4h2.4v1.9h-8.6v-1.9h2.4v-12.8h-.1l-1.2,2.7-4.6,9.4-4.6-9.4-1.2-2.7h-.1v12.8h2.3v1.9h-6.9v-1.9Z"/>
    <path class="cls-5" d="M205.8,156.7c-1.8,0-3.2-.4-4.1-1.3-.9-.9-1.4-2.1-1.4-3.7s.6-3.1,1.9-4c1.2-.9,3.3-1.4,6.1-1.4h2.5v-2.4c0-1.4-.3-2.5-.9-3.3-.6-.7-1.6-1.1-2.9-1.1s-2,.2-2.6.5h0c.3.3.5.5.7.8.2.3.3.7.3,1.2s-.2,1.2-.6,1.6c-.4.4-.9.6-1.6.6s-1.1-.2-1.5-.6c-.4-.4-.6-1-.6-1.7s.2-1.1.5-1.6c.3-.5.8-1,1.4-1.3.6-.4,1.3-.7,2.2-.9.9-.2,1.9-.4,3-.4,2.2,0,3.8.5,4.9,1.5,1.1,1,1.7,2.5,1.7,4.3v10.9h2.4v1.6c-.3.2-.7.3-1.2.5-.5.1-1.1.2-1.6.2-1.1,0-1.8-.3-2.3-.8-.5-.5-.7-1.3-.7-2.1v-.2h-.2c-.2.4-.4.8-.6,1.1-.3.4-.6.7-1,1-.4.3-.9.5-1.5.7-.6.2-1.3.3-2,.3ZM207.4,154.3c1,0,1.9-.2,2.5-.7.7-.5,1-1.3,1-2.4v-3.1h-2.1c-1.6,0-2.8.3-3.4.8-.6.5-1,1.3-1,2.3v.7c0,.8.3,1.5.8,1.9.5.4,1.3.6,2.2.6Z"/>
    <path class="cls-5" d="M223.2,142.8c-.8,0-1.4-.2-1.9-.7-.5-.5-.7-1.1-.7-1.8v-.2c0-.7.2-1.3.7-1.8.5-.5,1.1-.7,1.9-.7s1.4.2,1.9.7c.5.5.7,1.1.7,1.8v.2c0,.7-.2,1.3-.7,1.8-.5.5-1.1.7-1.9.7ZM223.2,156.7c-.8,0-1.4-.2-1.9-.7-.5-.5-.7-1.1-.7-1.8v-.2c0-.7.2-1.3.7-1.8.5-.5,1.1-.7,1.9-.7s1.4.2,1.9.7c.5.5.7,1.1.7,1.8v.2c0,.7-.2,1.3-.7,1.8-.5.5-1.1.7-1.9.7Z"/>
  </g>
  <g>
    <path class="cls-5" d="M55,277.4c0-.7-.4-1.3-1-1.7-.6-.4-1.3-.6-2.2-.6s-1.2.1-1.7.3c-.5.2-.8.5-1.1.9-.3.4-.4.8-.4,1.2s0,.7.3,1,.4.5.7.7c.3.2.6.3.9.4.3.1.6.2.9.3l1.5.4c.4,0,.8.2,1.3.4.5.2.9.4,1.3.7.4.3.8.7,1.1,1.2.3.5.4,1,.4,1.7s-.2,1.5-.6,2.1c-.4.6-1,1.1-1.8,1.5s-1.7.6-2.8.6-1.9-.2-2.7-.5c-.8-.3-1.3-.8-1.8-1.4-.4-.6-.7-1.3-.7-2.1h1.8c0,.5.2,1,.6,1.4.3.4.7.6,1.2.8s1,.3,1.6.3,1.3-.1,1.8-.3.9-.5,1.3-.9c.3-.4.5-.9.5-1.4s-.1-.9-.4-1.2c-.3-.3-.6-.5-1.1-.7-.4-.2-.9-.4-1.4-.5l-1.8-.5c-1.1-.3-2-.8-2.7-1.4-.7-.6-1-1.4-1-2.4s.2-1.5.7-2.1c.4-.6,1-1.1,1.8-1.4.7-.3,1.6-.5,2.5-.5s1.8.2,2.5.5,1.3.8,1.7,1.4.6,1.2.7,2h-1.7Z"/>
    <path class="cls-5" d="M64.3,277.4v1.4h-5.6v-1.4h5.6ZM60.3,274.8h1.7v10.4c0,.5,0,.8.2,1.1s.3.4.5.5c.2,0,.4.1.7.1s.3,0,.5,0c.1,0,.2,0,.3,0l.3,1.5c-.1,0-.3,0-.5.1s-.5,0-.8,0c-.5,0-.9-.1-1.4-.3s-.8-.5-1.1-.9c-.3-.4-.4-.9-.4-1.6v-10.9Z"/>
    <path class="cls-5" d="M66.8,288.3v-10.9h1.6v1.6h.1c.2-.5.6-1,1.1-1.3s1.1-.5,1.7-.5.3,0,.5,0c.2,0,.3,0,.4,0v1.7c0,0-.2,0-.4,0-.2,0-.4,0-.6,0-.5,0-1,.1-1.4.3-.4.2-.7.5-1,.9-.2.4-.4.8-.4,1.3v6.9h-1.7Z"/>
    <path class="cls-5" d="M77.3,288.5c-.7,0-1.3-.1-1.9-.4-.6-.3-1-.6-1.3-1.1-.3-.5-.5-1.1-.5-1.8s.1-1.1.4-1.5.6-.7,1-.9c.4-.2.9-.4,1.4-.5s1-.2,1.5-.3c.7,0,1.2-.2,1.6-.2s.7-.1.9-.2.3-.3.3-.6h0c0-.8-.2-1.3-.6-1.7s-.9-.6-1.7-.6-1.4.2-1.9.5c-.5.4-.8.7-.9,1.1l-1.6-.6c.3-.7.7-1.2,1.1-1.6.5-.4,1-.6,1.5-.8.6-.1,1.1-.2,1.7-.2s.7,0,1.2.1c.5,0,.9.3,1.3.5.4.3.8.6,1.1,1.2s.4,1.2.4,2.1v7.2h-1.7v-1.5h0c-.1.2-.3.5-.6.8-.3.3-.6.5-1,.7s-1,.3-1.6.3ZM77.6,287c.7,0,1.2-.1,1.7-.4.5-.3.8-.6,1-1,.2-.4.3-.8.3-1.3v-1.5c0,0-.2.2-.5.2-.2,0-.5.1-.8.2-.3,0-.6,0-.9.1s-.5,0-.7,0c-.4,0-.8.1-1.2.3-.4.1-.7.3-.9.6-.2.2-.3.6-.3,1s.2,1,.6,1.3c.4.3,1,.4,1.6.4Z"/>
    <path class="cls-5" d="M86.9,281.7v6.6h-1.7v-10.9h1.6v1.7h.1c.3-.6.6-1,1.2-1.3s1.2-.5,2-.5,1.4.2,1.9.5,1,.8,1.3,1.4c.3.6.5,1.4.5,2.3v6.9h-1.7v-6.8c0-.9-.2-1.5-.7-2-.4-.5-1-.7-1.8-.7s-1,.1-1.4.3c-.4.2-.7.6-1,1-.2.4-.4,1-.4,1.6Z"/>
    <path class="cls-5" d="M101,288.5c-.9,0-1.7-.2-2.4-.7s-1.2-1.1-1.6-2-.6-1.8-.6-3,.2-2.1.6-3c.4-.8.9-1.5,1.6-2,.7-.5,1.5-.7,2.4-.7s1.3.1,1.7.4.7.5.9.8c.2.3.4.5.5.7h.1v-5.4h1.7v14.5h-1.6v-1.7h-.2c-.1.2-.3.4-.5.7s-.5.6-1,.8c-.4.2-1,.4-1.7.4ZM101.2,287c.7,0,1.2-.2,1.7-.5.5-.4.8-.8,1-1.5.2-.6.4-1.4.4-2.2s-.1-1.5-.4-2.1-.6-1.1-1-1.4-1-.5-1.7-.5-1.3.2-1.8.5c-.5.4-.8.9-1,1.5s-.3,1.3-.3,2.1.1,1.5.4,2.1c.2.6.6,1.1,1.1,1.5.5.4,1,.6,1.7.6Z"/>
    <path class="cls-5" d="M119.6,288.5c-.9,0-1.8-.2-2.5-.5-.7-.3-1.3-.8-1.7-1.3-.4-.6-.7-1.2-.7-2h1.8c0,.5.2.9.5,1.2s.6.6,1.1.8c.5.2,1,.3,1.5.3s1.2-.1,1.6-.3c.5-.2.9-.5,1.1-.9.3-.4.4-.8.4-1.3s-.1-1-.4-1.4c-.3-.4-.6-.7-1.2-1-.5-.2-1.1-.3-1.9-.3h-1.2v-1.6h1.2c.6,0,1.1-.1,1.5-.3s.8-.5,1-.9.4-.8.4-1.3-.1-.9-.3-1.3c-.2-.4-.5-.6-.9-.9-.4-.2-.9-.3-1.4-.3s-1,0-1.4.3c-.4.2-.8.4-1.1.8-.3.3-.4.8-.4,1.2h-1.7c0-.8.3-1.4.7-2,.4-.6,1-1,1.7-1.3s1.5-.5,2.3-.5,1.7.2,2.3.5c.6.4,1.1.8,1.5,1.4.3.6.5,1.2.5,1.9s-.2,1.5-.6,2.1-1,1-1.7,1.2h0c.9.3,1.6.7,2.1,1.3.5.6.8,1.4.8,2.3s-.2,1.5-.6,2.1-1,1.1-1.7,1.5c-.7.4-1.6.5-2.5.5Z"/>
    <path class="cls-5" d="M128.5,279.1c-.3,0-.6-.1-.9-.4s-.4-.6-.4-.9.1-.7.4-.9.5-.4.9-.4.6.1.9.4.4.6.4.9,0,.4-.2.6c-.1.2-.3.3-.5.5-.2.1-.4.2-.6.2ZM128.5,286.4c-.3,0-.6-.1-.9-.4-.2-.2-.4-.6-.4-.9s.1-.7.4-.9c.2-.3.5-.4.9-.4s.6.1.9.4c.2.2.4.6.4.9s0,.4-.2.6c-.1.2-.3.3-.5.5-.2.1-.4.2-.6.2Z"/>
    <path class="cls-5" d="M146.5,277.4c0-.7-.4-1.3-1-1.7-.6-.4-1.3-.6-2.2-.6s-1.2.1-1.7.3c-.5.2-.8.5-1.1.9-.3.4-.4.8-.4,1.2s0,.7.3,1,.4.5.7.7c.3.2.6.3.9.4.3.1.6.2.9.3l1.5.4c.4,0,.8.2,1.3.4.5.2.9.4,1.3.7.4.3.8.7,1.1,1.2.3.5.4,1,.4,1.7s-.2,1.5-.6,2.1c-.4.6-1,1.1-1.8,1.5s-1.7.6-2.8.6-1.9-.2-2.7-.5c-.8-.3-1.3-.8-1.8-1.4-.4-.6-.7-1.3-.7-2.1h1.8c0,.5.2,1,.6,1.4.3.4.7.6,1.2.8s1,.3,1.6.3,1.3-.1,1.8-.3.9-.5,1.3-.9c.3-.4.5-.9.5-1.4s-.1-.9-.4-1.2c-.3-.3-.6-.5-1.1-.7-.4-.2-.9-.4-1.4-.5l-1.8-.5c-1.1-.3-2-.8-2.7-1.4-.7-.6-1-1.4-1-2.4s.2-1.5.7-2.1c.4-.6,1-1.1,1.8-1.4.7-.3,1.6-.5,2.5-.5s1.8.2,2.5.5,1.3.8,1.7,1.4.6,1.2.7,2h-1.7Z"/>
    <path class="cls-5" d="M155.7,277.4v1.4h-5.6v-1.4h5.6ZM151.7,274.8h1.7v10.4c0,.5,0,.8.2,1.1s.3.4.5.5c.2,0,.4.1.7.1s.3,0,.5,0c.1,0,.2,0,.3,0l.3,1.5c-.1,0-.3,0-.5.1s-.5,0-.8,0c-.5,0-.9-.1-1.4-.3s-.8-.5-1.1-.9c-.3-.4-.4-.9-.4-1.6v-10.9Z"/>
    <path class="cls-5" d="M158.2,288.3v-10.9h1.6v1.6h.1c.2-.5.6-1,1.1-1.3s1.1-.5,1.7-.5.3,0,.5,0c.2,0,.3,0,.4,0v1.7c0,0-.2,0-.4,0-.2,0-.4,0-.6,0-.5,0-1,.1-1.4.3-.4.2-.7.5-1,.9-.2.4-.4.8-.4,1.3v6.9h-1.7Z"/>
    <path class="cls-5" d="M172.4,283.8v-6.4h1.7v10.9h-1.7v-1.8h-.1c-.3.6-.6,1-1.2,1.4-.5.4-1.2.6-2,.6s-1.3-.2-1.8-.5c-.5-.3-.9-.8-1.2-1.4s-.5-1.4-.5-2.3v-6.9h1.7v6.8c0,.8.2,1.4.7,1.9.4.5,1,.7,1.7.7s.8-.1,1.3-.3.8-.5,1.1-1c.3-.4.4-1,.4-1.7Z"/>
    <path class="cls-5" d="M181.4,288.5c-1,0-1.9-.2-2.6-.7-.7-.5-1.3-1.1-1.7-2-.4-.8-.6-1.8-.6-2.9s.2-2.1.6-2.9,1-1.5,1.7-2,1.6-.7,2.6-.7,1.4.1,2.1.4c.6.3,1.1.7,1.5,1.2.4.5.6,1.1.7,1.8h-1.7c-.1-.5-.4-.9-.8-1.3-.4-.4-1-.6-1.7-.6s-1.2.2-1.7.5c-.5.3-.9.8-1.1,1.4-.3.6-.4,1.3-.4,2.2s.1,1.6.4,2.2c.3.6.6,1.1,1.1,1.5.5.3,1.1.5,1.7.5s.8,0,1.2-.2c.4-.2.6-.4.9-.7.2-.3.4-.6.5-1h1.7c0,.6-.3,1.2-.7,1.7s-.9.9-1.5,1.2c-.6.3-1.3.5-2.1.5Z"/>
    <path class="cls-5" d="M192.8,277.4v1.4h-5.6v-1.4h5.6ZM188.8,274.8h1.7v10.4c0,.5,0,.8.2,1.1s.3.4.5.5c.2,0,.4.1.7.1s.3,0,.5,0c.1,0,.2,0,.3,0l.3,1.5c-.1,0-.3,0-.5.1s-.5,0-.8,0c-.5,0-.9-.1-1.4-.3s-.8-.5-1.1-.9c-.3-.4-.4-.9-.4-1.6v-10.9Z"/>
    <path class="cls-5" d="M202.1,283.8v-6.4h1.7v10.9h-1.7v-1.8h-.1c-.3.6-.6,1-1.2,1.4-.5.4-1.2.6-2,.6s-1.3-.2-1.8-.5c-.5-.3-.9-.8-1.2-1.4s-.5-1.4-.5-2.3v-6.9h1.7v6.8c0,.8.2,1.4.7,1.9.4.5,1,.7,1.7.7s.8-.1,1.3-.3.8-.5,1.1-1c.3-.4.4-1,.4-1.7Z"/>
    <path class="cls-5" d="M206.8,288.3v-10.9h1.6v1.6h.1c.2-.5.6-1,1.1-1.3s1.1-.5,1.7-.5.3,0,.5,0c.2,0,.3,0,.4,0v1.7c0,0-.2,0-.4,0-.2,0-.4,0-.6,0-.5,0-1,.1-1.4.3-.4.2-.7.5-1,.9-.2.4-.4.8-.4,1.3v6.9h-1.7Z"/>
    <path class="cls-5" d="M217.4,288.5c-.7,0-1.3-.1-1.9-.4-.6-.3-1-.6-1.3-1.1-.3-.5-.5-1.1-.5-1.8s.1-1.1.4-1.5.6-.7,1-.9c.4-.2.9-.4,1.4-.5s1-.2,1.5-.3c.7,0,1.2-.2,1.6-.2s.7-.1.9-.2.3-.3.3-.6h0c0-.8-.2-1.3-.6-1.7s-.9-.6-1.7-.6-1.4.2-1.9.5c-.5.4-.8.7-.9,1.1l-1.6-.6c.3-.7.7-1.2,1.1-1.6.5-.4,1-.6,1.5-.8.6-.1,1.1-.2,1.7-.2s.7,0,1.2.1c.5,0,.9.3,1.3.5.4.3.8.6,1.1,1.2s.4,1.2.4,2.1v7.2h-1.7v-1.5h0c-.1.2-.3.5-.6.8-.3.3-.6.5-1,.7s-1,.3-1.6.3ZM217.6,287c.7,0,1.2-.1,1.7-.4.5-.3.8-.6,1-1,.2-.4.3-.8.3-1.3v-1.5c0,0-.2.2-.5.2-.2,0-.5.1-.8.2-.3,0-.6,0-.9.1s-.5,0-.7,0c-.4,0-.8.1-1.2.3-.4.1-.7.3-.9.6-.2.2-.3.6-.3,1s.2,1,.6,1.3c.4.3,1,.4,1.6.4Z"/>
    <path class="cls-5" d="M227,273.7v14.5h-1.7v-14.5h1.7Z"/>
    <path class="cls-5" d="M235.6,288.3v-10.9h1.6v1.6h.1c.2-.5.6-1,1.1-1.3s1.1-.5,1.7-.5.3,0,.5,0c.2,0,.3,0,.4,0v1.7c0,0-.2,0-.4,0-.2,0-.4,0-.6,0-.5,0-1,.1-1.4.3-.4.2-.7.5-1,.9-.2.4-.4.8-.4,1.3v6.9h-1.7Z"/>
    <path class="cls-5" d="M247.2,288.5c-1,0-1.9-.2-2.7-.7-.8-.5-1.3-1.1-1.7-2-.4-.8-.6-1.8-.6-2.9s.2-2.1.6-3c.4-.9,1-1.5,1.7-2,.7-.5,1.6-.7,2.6-.7s1.1,0,1.7.3,1,.5,1.5.9c.4.4.8,1,1.1,1.7.3.7.4,1.6.4,2.6v.7h-8.3v-1.4h6.6c0-.6-.1-1.2-.4-1.6s-.6-.9-1-1.1-1-.4-1.6-.4-1.2.2-1.7.5c-.5.3-.8.8-1.1,1.3-.3.5-.4,1.1-.4,1.7v1c0,.8.1,1.5.4,2.1s.7,1,1.2,1.3c.5.3,1.1.4,1.8.4s.8,0,1.2-.2c.4-.1.7-.3.9-.6.3-.3.5-.6.6-.9l1.6.5c-.2.5-.5,1-.9,1.4s-.9.7-1.5,1c-.6.2-1.2.3-2,.3Z"/>
    <path class="cls-5" d="M259,277.4v1.4h-5.8v-1.4h5.8ZM254.9,288.3v-12.4c0-.6.1-1.1.4-1.6.3-.4.7-.7,1.1-.9.5-.2,1-.3,1.5-.3s.7,0,1,0c.3,0,.4.1.6.2l-.5,1.4c0,0-.2,0-.3-.1-.1,0-.3,0-.6,0-.5,0-.9.1-1.2.4-.2.3-.4.7-.4,1.2v12h-1.7Z"/>
    <path class="cls-5" d="M265.3,288.5c-1,0-1.8-.2-2.6-.7-.7-.5-1.3-1.1-1.7-2-.4-.8-.6-1.8-.6-3s.2-2.1.6-3,1-1.5,1.7-2c.7-.5,1.6-.7,2.6-.7s1.8.2,2.6.7c.7.5,1.3,1.1,1.7,2s.6,1.8.6,3-.2,2.1-.6,3c-.4.8-1,1.5-1.7,2-.7.5-1.6.7-2.6.7ZM265.3,287c.7,0,1.4-.2,1.8-.6.5-.4.8-.9,1.1-1.5.2-.6.3-1.3.3-2s-.1-1.4-.3-2c-.2-.6-.6-1.1-1.1-1.5-.5-.4-1.1-.6-1.8-.6s-1.4.2-1.8.6c-.5.4-.8.9-1.1,1.5-.2.6-.3,1.3-.3,2s.1,1.4.3,2c.2.6.6,1.1,1.1,1.5.5.4,1.1.6,1.8.6Z"/>
    <path class="cls-5" d="M272.7,288.3v-10.9h1.6v1.6h.1c.2-.5.6-1,1.1-1.3s1.1-.5,1.7-.5.3,0,.5,0c.2,0,.3,0,.4,0v1.7c0,0-.2,0-.4,0-.2,0-.4,0-.6,0-.5,0-1,.1-1.4.3-.4.2-.7.5-1,.9-.2.4-.4.8-.4,1.3v6.9h-1.7Z"/>
    <path class="cls-5" d="M280.1,288.3v-10.9h1.6v1.7h.1c.2-.6.6-1,1.1-1.4.5-.3,1.1-.5,1.8-.5s1.3.2,1.8.5.8.8,1.1,1.4h.1c.3-.6.7-1,1.2-1.3s1.2-.5,2-.5,1.8.3,2.4.9c.6.6.9,1.6.9,2.8v7.3h-1.7v-7.3c0-.8-.2-1.4-.7-1.7s-.9-.5-1.5-.5-1.3.2-1.8.7c-.4.5-.6,1-.6,1.8v7.1h-1.7v-7.5c0-.6-.2-1.1-.6-1.5-.4-.4-.9-.6-1.5-.6s-.8.1-1.2.3c-.4.2-.7.6-.9,1s-.3.9-.3,1.4v6.8h-1.7Z"/>
    <path class="cls-5" d="M46.9,321.4v-15h1.6v1.7h.2c.1-.2.3-.4.5-.7.2-.3.5-.6.9-.8s1-.4,1.7-.4,1.7.2,2.4.7c.7.5,1.2,1.1,1.6,2,.4.8.6,1.8.6,3s-.2,2.2-.6,3c-.4.8-.9,1.5-1.6,2-.7.5-1.5.7-2.4.7s-1.2-.1-1.7-.4c-.4-.2-.7-.5-1-.8-.2-.3-.4-.5-.5-.7h-.1v5.8h-1.7ZM48.6,311.8c0,.8.1,1.5.4,2.2.2.6.6,1.1,1,1.5.5.4,1,.5,1.7.5s1.3-.2,1.7-.6c.5-.4.8-.9,1.1-1.5.2-.6.4-1.3.4-2.1s-.1-1.5-.3-2.1c-.2-.6-.6-1.1-1-1.5-.5-.4-1.1-.5-1.8-.5s-1.2.2-1.7.5-.8.8-1,1.4-.4,1.3-.4,2.1Z"/>
    <path class="cls-5" d="M59,317.3v-10.9h1.6v1.6h.1c.2-.5.6-1,1.1-1.3s1.1-.5,1.7-.5.3,0,.5,0c.2,0,.3,0,.4,0v1.7c0,0-.2,0-.4,0-.2,0-.4,0-.6,0-.5,0-1,.1-1.4.3-.4.2-.7.5-1,.9-.2.4-.4.8-.4,1.3v6.9h-1.7Z"/>
    <path class="cls-5" d="M70.4,317.5c-1,0-1.8-.2-2.6-.7-.7-.5-1.3-1.1-1.7-2-.4-.8-.6-1.8-.6-3s.2-2.1.6-3c.4-.8,1-1.5,1.7-2,.7-.5,1.6-.7,2.6-.7s1.8.2,2.6.7c.7.5,1.3,1.1,1.7,2s.6,1.8.6,3-.2,2.1-.6,3c-.4.8-1,1.5-1.7,2-.7.5-1.6.7-2.6.7ZM70.4,316c.7,0,1.4-.2,1.8-.6.5-.4.8-.9,1.1-1.5.2-.6.3-1.3.3-2s-.1-1.4-.3-2c-.2-.6-.6-1.1-1.1-1.5-.5-.4-1.1-.6-1.8-.6s-1.4.2-1.8.6c-.5.4-.8.9-1.1,1.5-.2.6-.3,1.3-.3,2s.1,1.4.3,2c.2.6.6,1.1,1.1,1.5.5.4,1.1.6,1.8.6Z"/>
    <path class="cls-5" d="M77.8,306.4h1.7v11.7c0,.7-.1,1.3-.3,1.7-.2.5-.6.9-1,1.1s-1,.4-1.7.4h-.3v-1.6h.3c.5,0,.9-.2,1.1-.5.2-.3.4-.7.4-1.3v-11.7ZM78.7,304.6c-.3,0-.6-.1-.8-.3-.2-.2-.3-.5-.3-.8s.1-.6.3-.8c.2-.2.5-.3.8-.3s.6.1.8.3.3.5.3.8-.1.6-.3.8-.5.3-.8.3Z"/>
    <path class="cls-5" d="M87.1,317.5c-1,0-1.9-.2-2.7-.7s-1.3-1.1-1.7-2c-.4-.8-.6-1.8-.6-2.9s.2-2.1.6-3c.4-.9,1-1.5,1.7-2s1.6-.7,2.6-.7,1.1,0,1.7.3,1,.5,1.5.9c.5.4.8,1,1.1,1.7.3.7.4,1.6.4,2.6v.7h-8.3v-1.4h6.6c0-.6-.1-1.2-.4-1.6-.2-.5-.6-.9-1-1.1-.4-.3-1-.4-1.6-.4s-1.2.2-1.7.5c-.5.3-.8.8-1.1,1.3-.3.5-.4,1.1-.4,1.7v1c0,.8.1,1.5.4,2.1s.7,1,1.2,1.3c.5.3,1.1.4,1.8.4s.8,0,1.2-.2.7-.3.9-.6c.3-.3.5-.6.6-.9l1.6.5c-.2.5-.5,1-.9,1.4s-.9.7-1.5,1c-.6.2-1.2.3-2,.3Z"/>
    <path class="cls-5" d="M98.5,317.5c-1,0-1.9-.2-2.6-.7-.7-.5-1.3-1.1-1.7-2-.4-.8-.6-1.8-.6-2.9s.2-2.1.6-2.9,1-1.5,1.7-2,1.6-.7,2.6-.7,1.4.1,2.1.4c.6.3,1.1.7,1.5,1.2.4.5.6,1.1.7,1.8h-1.7c-.1-.5-.4-.9-.8-1.3-.4-.4-1-.6-1.7-.6s-1.2.2-1.7.5c-.5.3-.9.8-1.1,1.4-.3.6-.4,1.3-.4,2.2s.1,1.6.4,2.2c.3.6.6,1.1,1.1,1.5.5.3,1.1.5,1.7.5s.8,0,1.2-.2c.4-.2.6-.4.9-.7.2-.3.4-.6.5-1h1.7c0,.6-.3,1.2-.7,1.7s-.9.9-1.5,1.2c-.6.3-1.3.5-2.1.5Z"/>
    <path class="cls-5" d="M109.8,306.4v1.4h-5.6v-1.4h5.6ZM105.8,303.8h1.7v10.4c0,.5,0,.8.2,1.1s.3.4.5.5c.2,0,.4.1.7.1s.3,0,.5,0c.1,0,.2,0,.3,0l.3,1.5c-.1,0-.3,0-.5.1s-.5,0-.8,0c-.5,0-.9-.1-1.4-.3s-.8-.5-1.1-.9c-.3-.4-.4-.9-.4-1.6v-10.9Z"/>
    <path class="cls-5" d="M119.8,308.8l-1.5.4c0-.3-.2-.5-.4-.7-.2-.2-.4-.4-.7-.6-.3-.2-.7-.2-1.2-.2s-1.2.2-1.6.5c-.4.3-.7.7-.7,1.2s.1.7.4,1c.3.2.8.4,1.4.6l1.6.4c1,.2,1.7.6,2.2,1.1.5.5.7,1.1.7,1.9s-.2,1.2-.5,1.7c-.4.5-.8.9-1.5,1.2s-1.4.4-2.2.4-2-.2-2.7-.7c-.7-.5-1.2-1.2-1.4-2.1l1.6-.4c.1.6.4,1,.9,1.3.4.3,1,.4,1.6.4s1.4-.2,1.8-.5c.5-.3.7-.7.7-1.2s-.1-.7-.4-1c-.3-.3-.7-.5-1.2-.6l-1.8-.4c-1-.2-1.7-.6-2.2-1.1-.5-.5-.7-1.1-.7-1.9s.2-1.2.5-1.6c.3-.5.8-.8,1.4-1.1s1.3-.4,2-.4,1.9.2,2.5.7c.6.5,1,1.1,1.3,1.9Z"/>
    <path class="cls-5" d="M128.6,310c0-1.8.2-3.4.7-4.9.5-1.5,1.1-2.9,2-4.2h1.5c-.3.5-.7,1-.9,1.7s-.5,1.4-.8,2.3c-.2.8-.4,1.7-.5,2.5s-.2,1.7-.2,2.6.1,2.3.3,3.4c.2,1.2.5,2.2.9,3.2.4,1,.8,1.8,1.2,2.4h-1.5c-.9-1.3-1.5-2.6-2-4.2-.5-1.5-.7-3.1-.7-4.9Z"/>
    <path class="cls-5" d="M135.4,317.3v-14.5h8.7v1.6h-6.9v4.9h6.5v1.6h-6.5v4.9h7.1v1.6h-8.8Z"/>
    <path class="cls-5" d="M147,321.4v-15h1.6v1.7h.2c.1-.2.3-.4.5-.7.2-.3.5-.6.9-.8s1-.4,1.7-.4,1.7.2,2.4.7c.7.5,1.2,1.1,1.6,2,.4.8.6,1.8.6,3s-.2,2.2-.6,3c-.4.8-.9,1.5-1.6,2-.7.5-1.5.7-2.4.7s-1.2-.1-1.7-.4c-.4-.2-.7-.5-1-.8-.2-.3-.4-.5-.5-.7h-.1v5.8h-1.7ZM148.7,311.8c0,.8.1,1.5.4,2.2.2.6.6,1.1,1,1.5.5.4,1,.5,1.7.5s1.3-.2,1.7-.6c.5-.4.8-.9,1.1-1.5.2-.6.4-1.3.4-2.1s-.1-1.5-.3-2.1c-.2-.6-.6-1.1-1-1.5-.5-.4-1.1-.5-1.8-.5s-1.2.2-1.7.5-.8.8-1,1.4-.4,1.3-.4,2.1Z"/>
    <path class="cls-5" d="M162.3,317.5c-.7,0-1.3-.1-1.9-.4-.6-.3-1-.6-1.3-1.1-.3-.5-.5-1.1-.5-1.8s.1-1.1.4-1.5.6-.7,1-.9c.4-.2.9-.4,1.4-.5s1-.2,1.5-.3c.7,0,1.2-.2,1.6-.2s.7-.1.9-.2.3-.3.3-.6h0c0-.8-.2-1.3-.6-1.7s-.9-.6-1.7-.6-1.4.2-1.9.5c-.5.4-.8.7-.9,1.1l-1.6-.6c.3-.7.7-1.2,1.1-1.6.5-.4,1-.6,1.5-.8.6-.1,1.1-.2,1.7-.2s.7,0,1.2.1c.5,0,.9.3,1.3.5.4.3.8.6,1.1,1.2s.4,1.2.4,2.1v7.2h-1.7v-1.5h0c-.1.2-.3.5-.6.8-.3.3-.6.5-1,.7s-1,.3-1.6.3ZM162.5,316c.7,0,1.2-.1,1.7-.4.5-.3.8-.6,1-1,.2-.4.3-.8.3-1.3v-1.5c0,0-.2.2-.5.2-.2,0-.5.1-.8.2-.3,0-.6,0-.9.1s-.5,0-.7,0c-.4,0-.8.1-1.2.3-.4.1-.7.3-.9.6-.2.2-.3.6-.3,1s.2,1,.6,1.3c.4.3,1,.4,1.6.4Z"/>
    <path class="cls-5" d="M174.7,317.5c-1,0-1.9-.2-2.6-.7-.7-.5-1.3-1.1-1.7-2-.4-.8-.6-1.8-.6-2.9s.2-2.1.6-2.9,1-1.5,1.7-2,1.6-.7,2.6-.7,1.4.1,2.1.4c.6.3,1.1.7,1.5,1.2.4.5.6,1.1.7,1.8h-1.7c-.1-.5-.4-.9-.8-1.3-.4-.4-1-.6-1.7-.6s-1.2.2-1.7.5c-.5.3-.9.8-1.1,1.4-.3.6-.4,1.3-.4,2.2s.1,1.6.4,2.2c.3.6.6,1.1,1.1,1.5.5.3,1.1.5,1.7.5s.8,0,1.2-.2c.4-.2.6-.4.9-.7.2-.3.4-.6.5-1h1.7c0,.6-.3,1.2-.7,1.7s-.9.9-1.5,1.2c-.6.3-1.3.5-2.1.5Z"/>
    <path class="cls-5" d="M183,306.4v10.9h-1.7v-10.9h1.7ZM187.2,315l3.8-8.6h1.6l-4.7,10.9h-1.4l-4.6-10.9h1.5l3.7,8.6ZM191.5,317.3v-10.9h1.7v10.9h-1.7Z"/>
    <path class="cls-5" d="M196.9,321.4c-.3,0-.5,0-.8,0-.2,0-.4,0-.5-.1l.4-1.5c.4.1.8.1,1.1.1.3,0,.6-.2.8-.4.2-.2.5-.6.7-1.2l.3-.9-4-11h1.8l3,8.7h.1l3-8.7h1.8l-4.6,12.5c-.2.6-.5,1-.8,1.4s-.7.6-1.1.8-.9.3-1.4.3Z"/>
    <path class="cls-5" d="M210.8,317.5c-1,0-1.9-.2-2.6-.7-.7-.5-1.3-1.1-1.7-2-.4-.8-.6-1.8-.6-2.9s.2-2.1.6-2.9,1-1.5,1.7-2,1.6-.7,2.6-.7,1.4.1,2.1.4c.6.3,1.1.7,1.5,1.2.4.5.6,1.1.7,1.8h-1.7c-.1-.5-.4-.9-.8-1.3-.4-.4-1-.6-1.7-.6s-1.2.2-1.7.5c-.5.3-.9.8-1.1,1.4-.3.6-.4,1.3-.4,2.2s.1,1.6.4,2.2c.3.6.6,1.1,1.1,1.5.5.3,1.1.5,1.7.5s.8,0,1.2-.2c.4-.2.6-.4.9-.7.2-.3.4-.6.5-1h1.7c0,.6-.3,1.2-.7,1.7s-.9.9-1.5,1.2c-.6.3-1.3.5-2.1.5Z"/>
    <path class="cls-5" d="M217.8,312.4v-1.6h9.3v1.6h-9.3ZM221.7,316.3v-9.4h1.6v9.4h-1.6Z"/>
    <path class="cls-5" d="M242.3,309.2v1.6h-6.3v-1.6h6.3Z"/>
    <path class="cls-5" d="M251,317.3v-14.5h4.9c1.1,0,2.1.2,2.8.6.7.4,1.3,1,1.6,1.7.3.7.5,1.5.5,2.3s-.2,1.6-.5,2.3c-.3.7-.9,1.3-1.6,1.7-.7.4-1.6.6-2.8.6h-3.5v-1.6h3.4c.8,0,1.4-.1,1.9-.4s.8-.6,1-1.1c.2-.5.3-1,.3-1.6s-.1-1.1-.3-1.6-.6-.8-1-1.1c-.5-.3-1.1-.4-1.9-.4h-3.1v13h-1.7Z"/>
    <path class="cls-5" d="M267.6,317.5c-1,0-1.8-.2-2.6-.7s-1.3-1.1-1.7-2c-.4-.8-.6-1.8-.6-3s.2-2.1.6-3,1-1.5,1.7-2,1.6-.7,2.6-.7,1.8.2,2.6.7c.7.5,1.3,1.1,1.7,2s.6,1.8.6,3-.2,2.1-.6,3c-.4.8-1,1.5-1.7,2-.7.5-1.6.7-2.6.7ZM267.6,316c.7,0,1.3-.2,1.8-.6.5-.4.8-.9,1.1-1.5.2-.6.3-1.3.3-2s-.1-1.4-.3-2c-.2-.6-.6-1.1-1.1-1.5-.5-.4-1.1-.6-1.8-.6s-1.4.2-1.8.6c-.5.4-.8.9-1.1,1.5-.2.6-.3,1.3-.3,2s.1,1.4.3,2c.2.6.6,1.1,1.1,1.5.5.4,1.1.6,1.8.6Z"/>
    <path class="cls-5" d="M274.4,314.5h1.8c0,.5.3.9.7,1.1.4.3.9.4,1.6.4s1.2-.1,1.7-.4c.5-.3.7-.7.7-1.3s0-.7-.3-1c-.2-.3-.4-.5-.8-.6-.3-.2-.7-.2-1.1-.2h-1.9v-1.5h1.9c.7,0,1.1-.2,1.5-.5s.5-.7.5-1.1-.2-.9-.5-1.2c-.3-.3-.8-.4-1.5-.4s-1.2.1-1.6.4-.6.7-.7,1.1h-1.7c0-.6.2-1.1.5-1.6.3-.5.8-.8,1.4-1.1s1.2-.4,2-.4,1.4.1,2,.4c.6.3,1,.6,1.3,1.1.3.5.5,1,.5,1.6s-.2,1.1-.5,1.5c-.3.4-.8.6-1.3.8h0c.4.1.8.3,1.1.5s.5.5.7.9c.2.4.3.8.3,1.2,0,.7-.2,1.2-.5,1.7s-.8.9-1.4,1.1c-.6.3-1.3.4-2.1.4s-1.4-.1-2.1-.4c-.6-.3-1.1-.6-1.4-1.1-.4-.5-.5-1-.6-1.6Z"/>
    <path class="cls-5" d="M284.8,317.3v-10.9h4.4c1.2,0,2.1.3,2.8.8s1,1.2,1,2.1-.2,1.2-.6,1.5c-.4.4-.9.6-1.5.7.4,0,.8.2,1.2.4.4.2.7.5.9.9.2.4.4.9.4,1.5s-.1,1.1-.4,1.5c-.3.4-.7.8-1.2,1-.5.3-1.2.4-1.9.4h-5.1ZM286.4,311h2.8c.4,0,.8,0,1.1-.2.3-.1.6-.3.7-.5.2-.2.3-.5.3-.8,0-.5-.2-.8-.6-1.1-.4-.3-.9-.4-1.6-.4h-2.8v3ZM286.4,315.8h3.5c.6,0,1-.1,1.3-.4.3-.3.5-.6.5-1.1s-.2-1-.5-1.3c-.3-.3-.8-.5-1.3-.5h-3.5v3.4Z"/>
    <path class="cls-5" d="M297.6,314.8l5.2-8.4h1.9v10.9h-1.7v-8.4l-5.2,8.4h-1.9v-10.9h1.7v8.4Z"/>
    <path class="cls-5" d="M306.3,307.9v-1.6h8.8v1.6h-3.5v9.3h-1.7v-9.3h-3.6Z"/>
    <path class="cls-5" d="M321.3,317.5c-1,0-1.8-.2-2.6-.7-.7-.5-1.3-1.1-1.7-2-.4-.8-.6-1.8-.6-3s.2-2.1.6-3c.4-.8,1-1.5,1.7-2,.7-.5,1.6-.7,2.6-.7s1.8.2,2.6.7,1.3,1.1,1.7,2,.6,1.8.6,3-.2,2.1-.6,3c-.4.8-1,1.5-1.7,2s-1.6.7-2.6.7ZM321.3,316c.7,0,1.4-.2,1.8-.6.5-.4.8-.9,1.1-1.5.2-.6.3-1.3.3-2s-.1-1.4-.3-2c-.2-.6-.6-1.1-1.1-1.5-.5-.4-1.1-.6-1.8-.6s-1.3.2-1.8.6c-.5.4-.8.9-1.1,1.5-.2.6-.3,1.3-.3,2s.1,1.4.3,2c.2.6.6,1.1,1.1,1.5.5.4,1.1.6,1.8.6Z"/>
    <path class="cls-5" d="M328.7,317.3v-10.9h1.7v4.7h1.1l3.9-4.7h2.1l-4.4,5.3,4.4,5.7h-2.1l-3.5-4.6h-1.5v4.6h-1.7Z"/>
    <path class="cls-5" d="M46.9,346.3v-10.9h8.5v10.9h-1.7v-9.3h-5.2v9.3h-1.7Z"/>
    <path class="cls-5" d="M62.8,346.5c-1,0-1.8-.2-2.6-.7-.7-.5-1.3-1.1-1.7-2-.4-.8-.6-1.8-.6-3s.2-2.1.6-3c.4-.8,1-1.5,1.7-2,.7-.5,1.6-.7,2.6-.7s1.8.2,2.6.7c.7.5,1.3,1.1,1.7,2s.6,1.8.6,3-.2,2.1-.6,3c-.4.8-1,1.5-1.7,2-.7.5-1.6.7-2.6.7ZM62.8,345c.7,0,1.4-.2,1.8-.6.5-.4.8-.9,1.1-1.5.2-.6.3-1.3.3-2s-.1-1.4-.3-2c-.2-.6-.6-1.1-1.1-1.5-.5-.4-1.1-.6-1.8-.6s-1.4.2-1.8.6c-.5.4-.8.9-1.1,1.5-.2.6-.3,1.3-.3,2s.1,1.4.3,2c.2.6.6,1.1,1.1,1.5.5.4,1.1.6,1.8.6Z"/>
    <path class="cls-5" d="M68.9,336.9v-1.6h8.8v1.6h-3.5v9.3h-1.7v-9.3h-3.6Z"/>
    <path class="cls-5" d="M84,346.5c-1,0-1.9-.2-2.7-.7s-1.3-1.1-1.7-2c-.4-.8-.6-1.8-.6-2.9s.2-2.1.6-3c.4-.9,1-1.5,1.7-2s1.6-.7,2.6-.7,1.1,0,1.7.3,1,.5,1.5.9c.5.4.8,1,1.1,1.7.3.7.4,1.6.4,2.6v.7h-8.3v-1.4h6.6c0-.6-.1-1.2-.4-1.6-.2-.5-.6-.9-1-1.1-.4-.3-1-.4-1.6-.4s-1.2.2-1.7.5c-.5.3-.8.8-1.1,1.3-.3.5-.4,1.1-.4,1.7v1c0,.8.1,1.5.4,2.1s.7,1,1.2,1.3c.5.3,1.1.4,1.8.4s.8,0,1.2-.2.7-.3.9-.6c.3-.3.5-.6.6-.9l1.6.5c-.2.5-.5,1-.9,1.4s-.9.7-1.5,1c-.6.2-1.2.3-2,.3Z"/>
    <path class="cls-5" d="M92.7,335.4v10.9h-1.7v-10.9h1.7ZM98.3,340.1v1.6h-6v-1.6h6ZM99.5,335.4v10.9h-1.7v-10.9h1.7Z"/>
    <path class="cls-5" d="M111.1,335.4v9.3h1.5v5.1h-1.7v-3.5h-8.4v-10.9h1.7v9.3h5.2v-9.3h1.7Z"/>
    <path class="cls-5" d="M116,333.6c-.3,0-.6-.1-.8-.3s-.3-.5-.3-.8.1-.6.3-.8.5-.3.8-.3.6.1.8.3.3.5.3.8-.1.6-.3.8-.5.3-.8.3ZM115.1,346.3v-10.9h1.7v10.9h-1.7Z"/>
    <path class="cls-5" d="M123,346.5c-.7,0-1.3-.1-1.9-.4-.6-.3-1-.6-1.3-1.1-.3-.5-.5-1.1-.5-1.8s.1-1.1.4-1.5.6-.7,1-.9c.4-.2.9-.4,1.4-.5s1-.2,1.5-.3c.7,0,1.2-.2,1.6-.2s.7-.1.9-.2.3-.3.3-.6h0c0-.8-.2-1.3-.6-1.7s-.9-.6-1.7-.6-1.4.2-1.9.5c-.5.4-.8.7-.9,1.1l-1.6-.6c.3-.7.7-1.2,1.1-1.6.5-.4,1-.6,1.5-.8.6-.1,1.1-.2,1.7-.2s.7,0,1.2.1c.5,0,.9.3,1.3.5.4.3.8.6,1.1,1.2s.4,1.2.4,2.1v7.2h-1.7v-1.5h0c-.1.2-.3.5-.6.8-.3.3-.6.5-1,.7s-1,.3-1.6.3ZM123.3,345c.7,0,1.2-.1,1.7-.4.5-.3.8-.6,1-1,.2-.4.3-.8.3-1.3v-1.5c0,0-.2.2-.5.2-.2,0-.5.1-.8.2-.3,0-.6,0-.9.1s-.5,0-.7,0c-.4,0-.8.1-1.2.3-.4.1-.7.3-.9.6-.2.2-.3.6-.3,1s.2,1,.6,1.3c.4.3,1,.4,1.6.4Z"/>
    <path class="cls-5" d="M130,346.3v-1.6h.4c.3,0,.6,0,.8-.2.2-.1.4-.4.5-.7.1-.3.2-.8.3-1.4,0-.6.1-1.3.2-2.3l.2-4.8h7.2v10.9h-1.7v-9.3h-4l-.2,3.9c0,.9-.1,1.7-.2,2.4-.1.7-.3,1.2-.5,1.7-.2.5-.6.8-1,1s-.9.3-1.5.3h-.6Z"/>
    <path class="cls-5" d="M143.3,350.4c-.3,0-.5,0-.8,0-.2,0-.4,0-.5-.1l.4-1.5c.4.1.8.1,1.1.1.3,0,.6-.2.8-.4.2-.2.5-.6.7-1.2l.3-.9-4-11h1.8l3,8.7h.1l3-8.7h1.8l-4.6,12.5c-.2.6-.5,1-.8,1.4s-.7.6-1.1.8-.9.3-1.4.3Z"/>
    <path class="cls-5" d="M158.9,346.3v-10.9h4.4c1.2,0,2.1.3,2.8.8s1,1.2,1,2.1-.2,1.2-.6,1.5c-.4.4-.9.6-1.5.7.4,0,.8.2,1.2.4.4.2.7.5.9.9.2.4.4.9.4,1.5s-.1,1.1-.4,1.5c-.3.4-.7.8-1.2,1-.5.3-1.2.4-1.9.4h-5.1ZM160.4,340h2.8c.4,0,.8,0,1.1-.2.3-.1.6-.3.7-.5.2-.2.3-.5.3-.8,0-.5-.2-.8-.6-1.1-.4-.3-.9-.4-1.6-.4h-2.8v3ZM160.4,344.8h3.5c.6,0,1-.1,1.3-.4.3-.3.5-.6.5-1.1s-.2-1-.5-1.3c-.3-.3-.8-.5-1.3-.5h-3.5v3.4Z"/>
    <path class="cls-5" d="M171.6,343.8l5.2-8.4h1.9v10.9h-1.7v-8.4l-5.2,8.4h-1.9v-10.9h1.7v8.4Z"/>
    <path class="cls-5" d="M181.8,335.4h1.7v9.3h4.1v-9.3h1.7v9.3h4.1v-9.3h1.7v10.9h-13.1v-10.9ZM196.5,344.7l-.2,4.7h-1.7v-3.1h-1.4v-1.6h3.3Z"/>
    <path class="cls-5" d="M203.2,346.5c-1,0-1.8-.2-2.6-.7-.7-.5-1.3-1.1-1.7-2-.4-.8-.6-1.8-.6-3s.2-2.1.6-3c.4-.8,1-1.5,1.7-2,.7-.5,1.6-.7,2.6-.7s1.8.2,2.6.7c.7.5,1.3,1.1,1.7,2s.6,1.8.6,3-.2,2.1-.6,3c-.4.8-1,1.5-1.7,2-.7.5-1.6.7-2.6.7ZM203.2,345c.7,0,1.4-.2,1.8-.6.5-.4.8-.9,1.1-1.5.2-.6.3-1.3.3-2s-.1-1.4-.3-2c-.2-.6-.6-1.1-1.1-1.5-.5-.4-1.1-.6-1.8-.6s-1.4.2-1.8.6c-.5.4-.8.9-1.1,1.5-.2.6-.3,1.3-.3,2s.1,1.4.3,2c.2.6.6,1.1,1.1,1.5.5.4,1.1.6,1.8.6Z"/>
    <path class="cls-5" d="M209.5,333.6c-.3,0-.6-.1-.8-.3-.2-.2-.3-.5-.3-.8s.1-.6.3-.8c.2-.2.5-.3.8-.3s.6.1.8.3c.2.2.3.5.3.8s-.1.6-.3.8c-.2.2-.5.3-.8.3ZM210.6,346.3v-10.9h1.7v10.9h-1.7ZM213.5,333.6c-.3,0-.6-.1-.8-.3-.2-.2-.3-.5-.3-.8s.1-.6.3-.8c.2-.2.5-.3.8-.3s.6.1.8.3c.2.2.3.5.3.8s-.1.6-.3.8c-.2.2-.5.3-.8.3Z"/>
    <path class="cls-5" d="M225.3,346.5c-1,0-1.8-.2-2.6-.7-.7-.5-1.3-1.1-1.7-2-.4-.8-.6-1.8-.6-3s.2-2.1.6-3c.4-.8,1-1.5,1.7-2,.7-.5,1.6-.7,2.6-.7s1.8.2,2.6.7c.7.5,1.3,1.1,1.7,2s.6,1.8.6,3-.2,2.1-.6,3c-.4.8-1,1.5-1.7,2-.7.5-1.6.7-2.6.7ZM225.3,345c.7,0,1.4-.2,1.8-.6.5-.4.8-.9,1.1-1.5.2-.6.3-1.3.3-2s-.1-1.4-.3-2c-.2-.6-.6-1.1-1.1-1.5-.5-.4-1.1-.6-1.8-.6s-1.4.2-1.8.6c-.5.4-.8.9-1.1,1.5-.2.6-.3,1.3-.3,2s.1,1.4.3,2c.2.6.6,1.1,1.1,1.5.5.4,1.1.6,1.8.6Z"/>
    <path class="cls-5" d="M237.1,346.5c-1,0-1.9-.2-2.6-.7-.7-.5-1.3-1.1-1.7-2-.4-.8-.6-1.8-.6-2.9s.2-2.1.6-2.9,1-1.5,1.7-2,1.6-.7,2.6-.7,1.4.1,2.1.4c.6.3,1.1.7,1.5,1.2.4.5.6,1.1.7,1.8h-1.7c-.1-.5-.4-.9-.8-1.3-.4-.4-1-.6-1.7-.6s-1.2.2-1.7.5c-.5.3-.9.8-1.1,1.4-.3.6-.4,1.3-.4,2.2s.1,1.6.4,2.2c.3.6.6,1.1,1.1,1.5.5.3,1.1.5,1.7.5s.8,0,1.2-.2c.4-.2.6-.4.9-.7.2-.3.4-.6.5-1h1.7c0,.6-.3,1.2-.7,1.7-.4.5-.9.9-1.5,1.2s-1.3.5-2.1.5Z"/>
    <path class="cls-5" d="M243.8,346.3v-10.9h4.4c1.2,0,2.1.3,2.8.8s1,1.2,1,2.1-.2,1.2-.6,1.5c-.4.4-.9.6-1.5.7.4,0,.8.2,1.2.4.4.2.7.5.9.9.2.4.4.9.4,1.5s-.1,1.1-.4,1.5c-.3.4-.7.8-1.2,1-.5.3-1.2.4-1.9.4h-5.1ZM245.3,340h2.8c.4,0,.8,0,1.1-.2.3-.1.6-.3.7-.5.2-.2.3-.5.3-.8,0-.5-.2-.8-.6-1.1s-.9-.4-1.6-.4h-2.8v3ZM245.3,344.8h3.5c.6,0,1-.1,1.3-.4.3-.3.5-.6.5-1.1s-.2-1-.5-1.3c-.3-.3-.8-.5-1.3-.5h-3.5v3.4Z"/>
    <path class="cls-5" d="M255.7,333.6c-.3,0-.6-.1-.8-.3s-.3-.5-.3-.8.1-.6.3-.8.5-.3.8-.3.6.1.8.3c.2.2.3.5.3.8s-.1.6-.3.8c-.2.2-.5.3-.8.3ZM254.9,346.3v-10.9h1.7v10.9h-1.7Z"/>
    <path class="cls-5" d="M259,336.9v-1.6h8.8v1.6h-3.5v9.3h-1.7v-9.3h-3.6Z"/>
    <path class="cls-5" d="M271.8,343.8l5.2-8.4h1.9v10.9h-1.7v-8.4l-5.2,8.4h-1.9v-10.9h1.7v8.4Z"/>
    <path class="cls-5" d="M295.9,339.3v1.6h-9.9v-1.6h9.9Z"/>
    <path class="cls-5" d="M47.2,375.3v-14.5h1.7v6.5h7.7v-6.5h1.7v14.5h-1.7v-6.5h-7.7v6.5h-1.7Z"/>
    <path class="cls-5" d="M64.8,375.5c-.7,0-1.3-.1-1.9-.4-.6-.3-1-.6-1.3-1.1-.3-.5-.5-1.1-.5-1.8s.1-1.1.4-1.5.6-.7,1-.9c.4-.2.9-.4,1.4-.5s1-.2,1.5-.3c.7,0,1.2-.2,1.6-.2s.7-.1.9-.2.3-.3.3-.6h0c0-.8-.2-1.3-.6-1.7s-.9-.6-1.7-.6-1.4.2-1.9.5c-.5.4-.8.7-.9,1.1l-1.6-.6c.3-.7.7-1.2,1.1-1.6.5-.4,1-.6,1.5-.8.6-.1,1.1-.2,1.7-.2s.7,0,1.2.1c.5,0,.9.3,1.3.5.4.3.8.6,1.1,1.2s.4,1.2.4,2.1v7.2h-1.7v-1.5h0c-.1.2-.3.5-.6.8-.3.3-.6.5-1,.7s-1,.3-1.6.3ZM65,374c.7,0,1.2-.1,1.7-.4.5-.3.8-.6,1-1,.2-.4.3-.8.3-1.3v-1.5c0,0-.2.2-.5.2-.2,0-.5.1-.8.2-.3,0-.6,0-.9.1s-.5,0-.7,0c-.4,0-.8.1-1.2.3-.4.1-.7.3-.9.6-.2.2-.3.6-.3,1s.2,1,.6,1.3c.4.3,1,.4,1.6.4Z"/>
    <path class="cls-5" d="M72.7,375.3v-10.9h8.5v10.9h-1.7v-9.3h-5.2v9.3h-1.7Z"/>
    <path class="cls-5" d="M84.3,379.4v-15h1.6v1.7h.2c.1-.2.3-.4.5-.7.2-.3.5-.6.9-.8s1-.4,1.7-.4,1.7.2,2.4.7c.7.5,1.2,1.1,1.6,2,.4.8.6,1.8.6,3s-.2,2.2-.6,3c-.4.8-.9,1.5-1.6,2-.7.5-1.5.7-2.4.7s-1.2-.1-1.7-.4c-.4-.2-.7-.5-1-.8-.2-.3-.4-.5-.5-.7h-.1v5.8h-1.7ZM85.9,369.8c0,.8.1,1.5.4,2.2.2.6.6,1.1,1,1.5.5.4,1,.5,1.7.5s1.3-.2,1.7-.6c.5-.4.8-.9,1.1-1.5.2-.6.4-1.3.4-2.1s-.1-1.5-.3-2.1c-.2-.6-.6-1.1-1-1.5-.5-.4-1.1-.5-1.8-.5s-1.2.2-1.7.5-.8.8-1,1.4-.4,1.3-.4,2.1Z"/>
    <path class="cls-5" d="M95.6,375.3l3.1-5.4h1.8l-3.1,5.4h-1.8ZM102.8,375.3v-9.4h-2.9c-.6,0-1.2.2-1.5.5s-.6.7-.6,1.2.2.9.5,1.2.8.4,1.4.4h3.5v1.6h-3.5c-.7,0-1.4-.1-1.9-.4-.5-.3-.9-.6-1.2-1.1-.3-.5-.4-1.1-.4-1.7s.1-1.2.5-1.7c.3-.5.7-.9,1.3-1.1.6-.3,1.2-.4,2-.4h4.4v10.9h-1.6Z"/>
    <path class="cls-5" d="M109.1,364.4v10.9h-1.7v-10.9h1.7ZM113.4,373l3.8-8.6h1.6l-4.7,10.9h-1.4l-4.6-10.9h1.5l3.7,8.6ZM117.6,375.3v-10.9h1.7v10.9h-1.7Z"/>
    <path class="cls-5" d="M132.7,375.5c-.9,0-1.8-.2-2.5-.5-.7-.3-1.3-.8-1.7-1.3-.4-.6-.7-1.2-.7-2h1.8c0,.5.2.9.5,1.2s.6.6,1.1.8c.5.2,1,.3,1.5.3s1.2-.1,1.6-.3c.5-.2.9-.5,1.1-.9.3-.4.4-.8.4-1.3s-.1-1-.4-1.4c-.3-.4-.6-.7-1.2-1-.5-.2-1.1-.3-1.9-.3h-1.2v-1.6h1.2c.6,0,1.1-.1,1.5-.3s.8-.5,1-.9.4-.8.4-1.3-.1-.9-.3-1.3c-.2-.4-.5-.6-.9-.9-.4-.2-.9-.3-1.4-.3s-1,0-1.4.3c-.4.2-.8.4-1.1.8-.3.3-.4.8-.4,1.2h-1.7c0-.8.3-1.4.7-2,.4-.6,1-1,1.7-1.3s1.5-.5,2.3-.5,1.7.2,2.3.5c.6.4,1.1.8,1.5,1.4.3.6.5,1.2.5,1.9s-.2,1.5-.6,2.1-1,1-1.7,1.2h0c.9.3,1.6.7,2.1,1.3.5.6.8,1.4.8,2.3s-.2,1.5-.6,2.1-1,1.1-1.7,1.5c-.7.4-1.6.5-2.5.5Z"/>
    <path class="cls-5" d="M141.7,366.1c-.3,0-.6-.1-.9-.4s-.4-.6-.4-.9.1-.7.4-.9.5-.4.9-.4.6.1.9.4.4.6.4.9,0,.4-.2.6c-.1.2-.3.3-.5.5-.2.1-.4.2-.6.2ZM141.7,373.4c-.3,0-.6-.1-.9-.4-.2-.2-.4-.6-.4-.9s.1-.7.4-.9c.2-.3.5-.4.9-.4s.6.1.9.4c.2.2.4.6.4.9s0,.4-.2.6c-.1.2-.3.3-.5.5-.2.1-.4.2-.6.2Z"/>
    <path class="cls-5" d="M163.3,365.3h-1.7c-.1-.5-.3-1-.5-1.3-.3-.4-.6-.7-.9-1-.4-.3-.8-.5-1.2-.6s-.9-.2-1.4-.2c-.9,0-1.7.2-2.4.7s-1.3,1.1-1.7,2c-.4.9-.6,1.9-.6,3.2s.2,2.3.6,3.2c.4.9,1,1.5,1.7,2s1.5.7,2.4.7.9,0,1.4-.2.8-.3,1.2-.6.7-.6.9-1c.3-.4.4-.8.5-1.3h1.7c-.1.7-.4,1.4-.7,2-.3.6-.8,1.1-1.3,1.5-.5.4-1.1.7-1.7.9-.6.2-1.3.3-2,.3-1.2,0-2.3-.3-3.3-.9-1-.6-1.7-1.5-2.3-2.6s-.8-2.4-.8-4,.3-2.9.8-4,1.3-2,2.3-2.6c1-.6,2-.9,3.3-.9s1.4.1,2,.3c.6.2,1.2.5,1.7.9s.9.9,1.3,1.5c.3.6.6,1.3.7,2Z"/>
    <path class="cls-5" d="M165.3,365.9v-1.6h8.8v1.6h-3.5v9.3h-1.7v-9.3h-3.6Z"/>
    <path class="cls-5" d="M176.5,379.4v-15h1.6v1.7h.2c.1-.2.3-.4.5-.7.2-.3.5-.6.9-.8s1-.4,1.7-.4,1.7.2,2.4.7c.7.5,1.2,1.1,1.6,2,.4.8.6,1.8.6,3s-.2,2.2-.6,3c-.4.8-.9,1.5-1.6,2-.7.5-1.5.7-2.4.7s-1.2-.1-1.7-.4c-.4-.2-.7-.5-1-.8-.2-.3-.4-.5-.5-.7h-.1v5.8h-1.7ZM178.1,369.8c0,.8.1,1.5.4,2.2.2.6.6,1.1,1,1.5.5.4,1,.5,1.7.5s1.3-.2,1.7-.6c.5-.4.8-.9,1.1-1.5.2-.6.4-1.3.4-2.1s-.1-1.5-.3-2.1c-.2-.6-.6-1.1-1-1.5-.5-.4-1.1-.5-1.8-.5s-1.2.2-1.7.5-.8.8-1,1.4-.4,1.3-.4,2.1Z"/>
    <path class="cls-5" d="M189.2,379.4c-.3,0-.5,0-.8,0-.2,0-.4,0-.5-.1l.4-1.5c.4.1.8.1,1.1.1.3,0,.6-.2.8-.4.2-.2.5-.6.7-1.2l.3-.9-4-11h1.8l3,8.7h.1l3-8.7h1.8l-4.6,12.5c-.2.6-.5,1-.8,1.4s-.7.6-1.1.8-.9.3-1.4.3Z"/>
    <path class="cls-5" d="M199.2,375.3v-10.9h1.7v4.7h1.1l3.9-4.7h2.1l-4.4,5.3,4.4,5.7h-2.1l-3.5-4.6h-1.5v4.6h-1.7Z"/>
    <path class="cls-5" d="M209.2,365.9v-1.6h8.8v1.6h-3.5v9.3h-1.7v-9.3h-3.6Z"/>
    <path class="cls-5" d="M221.4,379.4c-.3,0-.5,0-.8,0-.2,0-.4,0-.5-.1l.4-1.5c.4.1.8.1,1.1.1.3,0,.6-.2.8-.4.2-.2.5-.6.7-1.2l.3-.9-4-11h1.8l3,8.7h.1l3-8.7h1.8l-4.6,12.5c-.2.6-.5,1-.8,1.4s-.7.6-1.1.8-.9.3-1.4.3Z"/>
    <path class="cls-5" d="M231.4,379.4v-15h1.6v1.7h.2c.1-.2.3-.4.5-.7.2-.3.5-.6.9-.8s1-.4,1.7-.4,1.7.2,2.4.7c.7.5,1.2,1.1,1.6,2,.4.8.6,1.8.6,3s-.2,2.2-.6,3c-.4.8-.9,1.5-1.6,2-.7.5-1.5.7-2.4.7s-1.2-.1-1.7-.4c-.4-.2-.7-.5-1-.8-.2-.3-.4-.5-.5-.7h-.1v5.8h-1.7ZM233,369.8c0,.8.1,1.5.4,2.2.2.6.6,1.1,1,1.5.5.4,1,.5,1.7.5s1.3-.2,1.7-.6c.5-.4.8-.9,1.1-1.5.2-.6.4-1.3.4-2.1s-.1-1.5-.3-2.1c-.2-.6-.6-1.1-1-1.5-.5-.4-1.1-.5-1.8-.5s-1.2.2-1.7.5-.8.8-1,1.4-.4,1.3-.4,2.1Z"/>
    <path class="cls-5" d="M245.1,364.4v10.9h-1.7v-10.9h1.7ZM250.7,369.1v1.6h-6v-1.6h6ZM252,364.4v10.9h-1.7v-10.9h1.7Z"/>
    <path class="cls-5" d="M255.8,362.6c-.3,0-.6-.1-.8-.3s-.3-.5-.3-.8.1-.6.3-.8.5-.3.8-.3.6.1.8.3c.2.2.3.5.3.8s-.1.6-.3.8c-.2.2-.5.3-.8.3ZM255,375.3v-10.9h1.7v10.9h-1.7Z"/>
    <path class="cls-5" d="M265.3,375.3v-10.9h8.5v10.9h-1.7v-9.3h-5.2v9.3h-1.7Z"/>
    <path class="cls-5" d="M276.8,379.4v-15h1.6v1.7h.2c.1-.2.3-.4.5-.7.2-.3.5-.6.9-.8s1-.4,1.7-.4,1.7.2,2.4.7c.7.5,1.2,1.1,1.6,2,.4.8.6,1.8.6,3s-.2,2.2-.6,3-.9,1.5-1.6,2-1.5.7-2.4.7-1.2-.1-1.7-.4c-.4-.2-.7-.5-1-.8s-.4-.5-.5-.7h-.1v5.8h-1.7ZM278.4,369.8c0,.8.1,1.5.4,2.2.2.6.6,1.1,1,1.5.5.4,1,.5,1.7.5s1.3-.2,1.7-.6c.5-.4.8-.9,1.1-1.5.2-.6.4-1.3.4-2.1s-.1-1.5-.3-2.1-.6-1.1-1-1.5c-.5-.4-1.1-.5-1.8-.5s-1.2.2-1.7.5-.8.8-1,1.4-.4,1.3-.4,2.1Z"/>
    <path class="cls-5" d="M293.2,375.5c-1,0-1.8-.2-2.6-.7-.7-.5-1.3-1.1-1.7-2-.4-.8-.6-1.8-.6-3s.2-2.1.6-3c.4-.8,1-1.5,1.7-2,.7-.5,1.6-.7,2.6-.7s1.8.2,2.6.7c.7.5,1.3,1.1,1.7,2s.6,1.8.6,3-.2,2.1-.6,3c-.4.8-1,1.5-1.7,2-.7.5-1.6.7-2.6.7ZM293.2,374c.7,0,1.3-.2,1.8-.6.5-.4.8-.9,1.1-1.5s.3-1.3.3-2-.1-1.4-.3-2-.6-1.1-1.1-1.5c-.5-.4-1.1-.6-1.8-.6s-1.3.2-1.8.6c-.5.4-.8.9-1.1,1.5s-.3,1.3-.3,2,.1,1.4.3,2,.6,1.1,1.1,1.5c.5.4,1.1.6,1.8.6Z"/>
    <path class="cls-5" d="M308.6,367.6h-1.7c-.1-.5-.4-.9-.8-1.3-.4-.4-1-.6-1.7-.6s-1.2.2-1.7.5-.9.8-1.1,1.4c-.3.6-.4,1.3-.4,2.2s.1,1.6.4,2.2.6,1.1,1.1,1.5,1.1.5,1.7.5.8,0,1.2-.2c.4-.2.6-.4.9-.7.2-.3.4-.6.5-1h1.7c0,.6-.3,1.2-.7,1.7-.4.5-.9.9-1.5,1.2s-1.3.5-2.1.5-1.9-.2-2.6-.7-1.3-1.1-1.7-2c-.4-.9-.6-1.8-.6-3s.2-2.1.6-2.9c.4-.8,1-1.5,1.7-2s1.6-.7,2.6-.7,1.4.1,2.1.4c.6.3,1.1.7,1.5,1.2.4.5.6,1.1.7,1.8ZM305.1,369.2v1.6h-5.3v-1.6h5.3Z"/>
    <path class="cls-5" d="M311.4,375.3v-10.9h1.7v4.7h1.1l3.9-4.7h2.1l-4.4,5.3,4.4,5.7h-2.1l-3.5-4.6h-1.5v4.6h-1.7Z"/>
    <path class="cls-5" d="M321.4,365.9v-1.6h8.8v1.6h-3.5v9.3h-1.7v-9.3h-3.6Z"/>
    <path class="cls-5" d="M334.2,372.8l5.2-8.4h1.9v10.9h-1.7v-8.4l-5.2,8.4h-1.9v-10.9h1.7v8.4Z"/>
    <path class="cls-5" d="M48.6,393.4v10.9h-1.7v-10.9h1.7ZM54.2,398.1v1.6h-6v-1.6h6ZM55.4,393.4v10.9h-1.7v-10.9h1.7Z"/>
    <path class="cls-5" d="M61.6,404.5c-.7,0-1.3-.1-1.9-.4-.6-.3-1-.6-1.3-1.1-.3-.5-.5-1.1-.5-1.8s.1-1.1.4-1.5.6-.7,1-.9c.4-.2.9-.4,1.4-.5s1-.2,1.5-.3c.7,0,1.2-.2,1.6-.2s.7-.1.9-.2.3-.3.3-.6h0c0-.8-.2-1.3-.6-1.7s-.9-.6-1.7-.6-1.4.2-1.9.5c-.5.4-.8.7-.9,1.1l-1.6-.6c.3-.7.7-1.2,1.1-1.6.5-.4,1-.6,1.5-.8.6-.1,1.1-.2,1.7-.2s.7,0,1.2.1c.5,0,.9.3,1.3.5.4.3.8.6,1.1,1.2s.4,1.2.4,2.1v7.2h-1.7v-1.5h0c-.1.2-.3.5-.6.8-.3.3-.6.5-1,.7s-1,.3-1.6.3ZM61.9,403c.7,0,1.2-.1,1.7-.4.5-.3.8-.6,1-1,.2-.4.3-.8.3-1.3v-1.5c0,0-.2.2-.5.2-.2,0-.5.1-.8.2-.3,0-.6,0-.9.1s-.5,0-.7,0c-.4,0-.8.1-1.2.3-.4.1-.7.3-.9.6-.2.2-.3.6-.3,1s.2,1,.6,1.3c.4.3,1,.4,1.6.4Z"/>
    <path class="cls-5" d="M75.2,404.3v-10.9h8.5v10.9h-1.7v-9.3h-5.2v9.3h-1.7Z"/>
    <path class="cls-5" d="M87.6,391.6c-.3,0-.6-.1-.8-.3s-.3-.5-.3-.8.1-.6.3-.8.5-.3.8-.3.6.1.8.3.3.5.3.8-.1.6-.3.8-.5.3-.8.3ZM86.7,404.3v-10.9h1.7v10.9h-1.7Z"/>
    <path class="cls-5" d="M90.3,407.4v-4.7h.9c.2-.2.4-.5.6-.8.2-.3.3-.6.4-1s.2-.8.3-1.4c0-.5.2-1.2.2-2l.4-4.3h6.9v9.3h1.7v4.7h-1.7v-3.1h-8v3.1h-1.7ZM93.1,402.7h5.2v-7.8h-3.7l-.3,2.8c-.1,1.1-.3,2.1-.4,3-.2.9-.4,1.5-.8,2Z"/>
    <path class="cls-5" d="M103.1,394.9v-1.6h8.8v1.6h-3.5v9.3h-1.7v-9.3h-3.6Z"/>
    <path class="cls-5" d="M114.3,408.4v-15h1.6v1.7h.2c.1-.2.3-.4.5-.7.2-.3.5-.6.9-.8s1-.4,1.7-.4,1.7.2,2.4.7c.7.5,1.2,1.1,1.6,2,.4.8.6,1.8.6,3s-.2,2.2-.6,3c-.4.8-.9,1.5-1.6,2-.7.5-1.5.7-2.4.7s-1.2-.1-1.7-.4c-.4-.2-.7-.5-1-.8-.2-.3-.4-.5-.5-.7h-.1v5.8h-1.7ZM116,398.8c0,.8.1,1.5.4,2.2.2.6.6,1.1,1,1.5.5.4,1,.5,1.7.5s1.3-.2,1.7-.6c.5-.4.8-.9,1.1-1.5.2-.6.4-1.3.4-2.1s-.1-1.5-.3-2.1c-.2-.6-.6-1.1-1-1.5-.5-.4-1.1-.5-1.8-.5s-1.2.2-1.7.5-.8.8-1,1.4-.4,1.3-.4,2.1Z"/>
    <path class="cls-5" d="M128.1,401.8l5.2-8.4h1.9v10.9h-1.7v-8.4l-5.2,8.4h-1.9v-10.9h1.7v8.4Z"/>
    <path class="cls-5" d="M139.9,393.4v10.9h-1.7v-10.9h1.7ZM144.1,402l3.8-8.6h1.6l-4.7,10.9h-1.4l-4.6-10.9h1.5l3.7,8.6ZM148.4,404.3v-10.9h1.7v10.9h-1.7Z"/>
    <path class="cls-5" d="M153.1,404.3v-10.9h1.7v4.7h1.1l3.9-4.7h2.1l-4.4,5.3,4.4,5.7h-2.1l-3.5-4.6h-1.5v4.6h-1.7Z"/>
    <path class="cls-5" d="M164.8,408.4c-.3,0-.5,0-.8,0-.2,0-.4,0-.5-.1l.4-1.5c.4.1.8.1,1.1.1.3,0,.6-.2.8-.4.2-.2.5-.6.7-1.2l.3-.9-4-11h1.8l3,8.7h.1l3-8.7h1.8l-4.6,12.5c-.2.6-.5,1-.8,1.4s-.7.6-1.1.8-.9.3-1.4.3Z"/>
    <path class="cls-5" d="M180.3,408.4v-15h1.6v1.7h.2c.1-.2.3-.4.5-.7.2-.3.5-.6.9-.8s1-.4,1.7-.4,1.7.2,2.4.7c.7.5,1.2,1.1,1.6,2,.4.8.6,1.8.6,3s-.2,2.2-.6,3c-.4.8-.9,1.5-1.6,2-.7.5-1.5.7-2.4.7s-1.2-.1-1.7-.4c-.4-.2-.7-.5-1-.8-.2-.3-.4-.5-.5-.7h-.1v5.8h-1.7ZM181.9,398.8c0,.8.1,1.5.4,2.2.2.6.6,1.1,1,1.5.5.4,1,.5,1.7.5s1.3-.2,1.7-.6c.5-.4.8-.9,1.1-1.5.2-.6.4-1.3.4-2.1s-.1-1.5-.3-2.1c-.2-.6-.6-1.1-1-1.5-.5-.4-1.1-.5-1.8-.5s-1.2.2-1.7.5-.8.8-1,1.4-.4,1.3-.4,2.1Z"/>
    <path class="cls-5" d="M196.9,404.5c-1,0-1.9-.2-2.7-.7s-1.3-1.1-1.7-2c-.4-.8-.6-1.8-.6-2.9s.2-2.1.6-3c.4-.9,1-1.5,1.7-2s1.6-.7,2.6-.7,1.1,0,1.7.3,1,.5,1.5.9c.5.4.8,1,1.1,1.7.3.7.4,1.6.4,2.6v.7h-8.3v-1.4h6.6c0-.6-.1-1.2-.4-1.6-.2-.5-.6-.9-1-1.1-.4-.3-1-.4-1.6-.4s-1.2.2-1.7.5c-.5.3-.8.8-1.1,1.3-.3.5-.4,1.1-.4,1.7v1c0,.8.1,1.5.4,2.1s.7,1,1.2,1.3c.5.3,1.1.4,1.8.4s.8,0,1.2-.2.7-.3.9-.6c.3-.3.5-.6.6-.9l1.6.5c-.2.5-.5,1-.9,1.4s-.9.7-1.5,1c-.6.2-1.2.3-2,.3Z"/>
    <path class="cls-5" d="M208.3,404.5c-.7,0-1.4-.1-2-.4-.6-.3-1.1-.6-1.5-1.1-.4-.5-.8-1.1-1-1.8-.2-.7-.4-1.5-.4-2.3s.1-1.6.4-2.3c.2-.7.6-1.3,1-1.8.4-.5.9-.9,1.5-1.1s1.3-.4,2-.4h.5v11.3h-.5ZM208.3,403h.3v-8.3h-.3c-.6,0-1,.1-1.4.3s-.7.5-1,.9c-.3.4-.5.8-.6,1.3s-.2,1-.2,1.6.1,1.4.3,2c.2.6.6,1.1,1.1,1.5.5.4,1.1.6,1.8.6ZM208.3,408v-18.3h1.7v18.3h-1.7ZM209.9,404.5h-.5v-11.3h.5c.7,0,1.4.1,2,.4s1.1.7,1.5,1.1c.4.5.8,1.1,1,1.8s.4,1.5.4,2.3-.1,1.6-.4,2.3-.6,1.3-1,1.8c-.4.5-.9.9-1.5,1.1-.6.3-1.3.4-2,.4ZM209.9,403c.6,0,1-.1,1.4-.3.4-.2.7-.5,1-.9.3-.4.5-.8.6-1.3.1-.5.2-1,.2-1.6s-.1-1.4-.3-2c-.2-.6-.6-1.1-1.1-1.5-.5-.4-1.1-.6-1.8-.6h-.3v8.3h.3Z"/>
    <path class="cls-5" d="M221.7,404.5c-1,0-1.8-.2-2.6-.7-.7-.5-1.3-1.1-1.7-2-.4-.8-.6-1.8-.6-3s.2-2.1.6-3c.4-.8,1-1.5,1.7-2,.7-.5,1.6-.7,2.6-.7s1.8.2,2.6.7c.7.5,1.3,1.1,1.7,2s.6,1.8.6,3-.2,2.1-.6,3c-.4.8-1,1.5-1.7,2-.7.5-1.6.7-2.6.7ZM221.7,403c.7,0,1.4-.2,1.8-.6.5-.4.8-.9,1.1-1.5.2-.6.3-1.3.3-2s-.1-1.4-.3-2c-.2-.6-.6-1.1-1.1-1.5-.5-.4-1.1-.6-1.8-.6s-1.4.2-1.8.6c-.5.4-.8.9-1.1,1.5-.2.6-.3,1.3-.3,2s.1,1.4.3,2c.2.6.6,1.1,1.1,1.5.5.4,1.1.6,1.8.6Z"/>
    <path class="cls-5" d="M229.2,408.4v-15h1.6v1.7h.2c.1-.2.3-.4.5-.7.2-.3.5-.6.9-.8s1-.4,1.7-.4,1.7.2,2.4.7c.7.5,1.2,1.1,1.6,2,.4.8.6,1.8.6,3s-.2,2.2-.6,3-.9,1.5-1.6,2-1.5.7-2.4.7-1.2-.1-1.7-.4c-.4-.2-.7-.5-1-.8-.2-.3-.4-.5-.5-.7h-.1v5.8h-1.7ZM230.8,398.8c0,.8.1,1.5.4,2.2.2.6.6,1.1,1,1.5.5.4,1,.5,1.7.5s1.3-.2,1.7-.6c.5-.4.8-.9,1.1-1.5.2-.6.4-1.3.4-2.1s-.1-1.5-.3-2.1-.6-1.1-1-1.5c-.5-.4-1.1-.5-1.8-.5s-1.2.2-1.7.5-.8.8-1,1.4-.4,1.3-.4,2.1Z"/>
    <path class="cls-5" d="M242.9,393.4v10.9h-1.7v-10.9h1.7ZM247.1,402l3.8-8.6h1.6l-4.7,10.9h-1.4l-4.6-10.9h1.5l3.7,8.6ZM251.4,404.3v-10.9h1.7v10.9h-1.7Z"/>
    <path class="cls-5" d="M259.6,398.2c0,1.8-.2,3.4-.7,4.9-.5,1.5-1.1,2.9-2,4.2h-1.5c.3-.5.7-1,.9-1.7.3-.7.5-1.4.8-2.3.2-.8.4-1.7.5-2.5.1-.9.2-1.7.2-2.6s-.1-2.3-.3-3.4c-.2-1.2-.5-2.2-.9-3.2s-.8-1.8-1.2-2.4h1.5c.9,1.3,1.5,2.6,2,4.2.5,1.5.7,3.1.7,4.9Z"/>
  </g>
  <rect class="cls-4" x="46.4" y="229.5" width="298.6" height="2"/>
  <g>
    <path class="cls-6" d="M56.2,53.2v20.4h-10.2v-20.4h10.2Z"/>
    <path class="cls-6" d="M86.8,94h-20.4v-10.2h20.4v10.2Z"/>
    <path class="cls-1" d="M66.4,73.6h20.4v-10.2h-10.2v-10.2h-10.2v10.2h0v10.2Z"/>
    <path class="cls-6" d="M66.4,73.6v10.2h-10.2v-10.2h10.2Z"/>
    <path class="cls-6" d="M97,53.2v10.2h-10.2v-10.2h10.2Z"/>
    <path class="cls-6" d="M86.8,43v10.2h-10.2v-10.2h10.2Z"/>
  </g>
</svg>