<svg width="228" height="44" viewBox="0 0 228 44" fill="none" xmlns="http://www.w3.org/2000/svg">
<path fill-rule="evenodd" clip-rule="evenodd" d="M0 0H43.6174V43.6174H0V0ZM29.8284 29.8382H19.1282V35.1908H29.8284V29.8382ZM8.42589 24.4868V13.7815H13.776V24.4868H8.42589ZM19.127 24.4869V13.7816H24.4771V19.1324H29.8284V24.485H24.4771V24.4869H19.127ZM13.5111 24.4889H18.8612V29.8415H13.5111V24.4889ZM29.8291 8.4261H24.479V13.7787H29.8291V8.4261ZM29.8293 13.7791H35.1794V19.1318H29.8293V13.7791Z" fill="white"/>
<path d="M99.5877 13.7791V29.8382H104.938V35.1912H88.8867V29.8382H94.2372V13.7791H88.8867V8.42603H104.938V13.7791H99.5877Z" fill="white"/>
<path d="M78.1855 8.42603H67.4854V13.7787H78.1855V8.42603Z" fill="white"/>
<path d="M78.1855 29.8381H67.4854V35.1908H78.1855V29.8381Z" fill="white"/>
<path d="M126.34 29.8381H115.64V35.1908H126.34V29.8381Z" fill="white"/>
<path d="M126.34 8.42603H115.64V13.7787H126.34V8.42603Z" fill="white"/>
<path d="M195.896 16.3567H190.546V21.7093H195.896V16.3567Z" fill="white"/>
<path d="M201.248 21.7097H195.897V27.0624H201.248V21.7097Z" fill="white"/>
<path d="M131.69 19.1321H120.99V24.4847H131.69V19.1321Z" fill="white"/>
<path d="M62.1328 8.42766V35.1929H67.4833V8.42766H62.1328Z" fill="white"/>
<path d="M110.288 13.7807V29.8398H115.639V13.7807H110.288Z" fill="white"/>
<path d="M158.441 8.42768V29.8398H163.792V8.42768H158.441Z" fill="white"/>
<path d="M179.845 8.42603V35.1912H163.794V29.8382H174.495V8.42603H179.845Z" fill="white"/>
<path d="M185.194 8.42766V35.1929H190.545V8.42766H185.194Z" fill="white"/>
<path d="M201.247 8.42766V35.1929H206.598V8.42766H201.247Z" fill="white"/>
<path d="M126.339 24.4872V29.8398H131.689V24.4872H126.339Z" fill="white"/>
<path d="M78.1846 13.7807V29.8398H83.5351V13.7807H78.1846Z" fill="white"/>
<path d="M147.743 13.7791V29.8382H153.093V35.1912H137.042V29.8382H142.392V13.7791H137.042V8.42603H153.093V13.7791H147.743Z" fill="white"/>
<path d="M222.65 13.7791V29.8382H228.001V35.1912H211.949V29.8382H217.3V13.7791H211.949V8.42603H228.001V13.7791H222.65Z" fill="white"/>
</svg>
