<svg width="209" height="40" viewBox="0 0 209 40" fill="none" xmlns="http://www.w3.org/2000/svg">
    <rect width="39.9825" height="40" fill="#2B48FF"/>
    <path d="M27.3417 27.3635H17.5332V32.2722H27.3417V27.3635Z" fill="#FFE72B"/>
    <path d="M7.72266 12.6386L7.72266 22.4561H12.6269V12.6386H7.72266Z" fill="#FFE72B"/>
    <path fill-rule="evenodd" clip-rule="evenodd" d="M17.5312 17.5454V12.6387H22.4355V17.5454H27.3397V22.4541H22.4355V22.4561H17.5312V22.4541V17.5454Z" fill="#FFE72B"/>
    <path d="M17.2871 22.4578H12.3828V27.3665H17.2871V22.4578Z" fill="#FFE72B"/>
    <path d="M27.3417 7.72729H22.4375V12.636H27.3417V7.72729Z" fill="#FFE72B"/>
    <path d="M32.248 12.6365H27.3438V17.5452H32.248V12.6365Z" fill="#FFE72B"/>
    <path d="M91.2877 12.6364V27.3637H96.1924V32.2728H81.4785V27.3637H86.3831V12.6364H81.4785V7.72729H96.1924V12.6364H91.2877Z" fill="black"/>
    <path d="M71.6698 7.72729H61.8613V12.636H71.6698V7.72729Z" fill="black"/>
    <path d="M71.6698 27.3635H61.8613V32.2722H71.6698V27.3635Z" fill="black"/>
    <path d="M115.812 27.3635H106.004V32.2722H115.812V27.3635Z" fill="black"/>
    <path d="M115.81 7.72729H106.002V12.636H115.81V7.72729Z" fill="black"/>
    <path d="M179.572 15.0002H174.668V19.909H179.572V15.0002Z" fill="black"/>
    <path d="M184.477 19.9094H179.572V24.8181H184.477V19.9094Z" fill="black"/>
    <path d="M120.715 17.5452H110.906V22.4539H120.715V17.5452Z" fill="black"/>
    <path d="M56.9551 7.72871V32.2742H61.8597V7.72871H56.9551Z" fill="black"/>
    <path d="M101.098 12.6377V27.365H106.002V12.6377H101.098Z" fill="black"/>
    <path d="M145.238 7.72862V27.365H150.143V7.72862H145.238Z" fill="black"/>
    <path d="M164.858 7.72729V32.2728H150.145V27.3637H159.954V7.72729H164.858Z" fill="black"/>
    <path d="M169.762 7.72871V32.2742H174.666V7.72871H169.762Z" fill="black"/>
    <path d="M184.477 7.72871V32.2742H189.381V7.72871H184.477Z" fill="black"/>
    <path d="M115.811 22.4563V27.365H120.715V22.4563H115.811Z" fill="black"/>
    <path d="M71.668 12.6377V27.365H76.5726V12.6377H71.668Z" fill="black"/>
    <path d="M135.43 12.6364V27.3637H140.335V32.2728H125.621V27.3637H130.526V12.6364H125.621V7.72729H140.335V12.6364H135.43Z" fill="black"/>
    <path d="M204.094 12.6364V27.3637H208.999V32.2728H194.285V27.3637H199.19V12.6364H194.285V7.72729H208.999V12.6364H204.094Z" fill="black"/>
</svg>
