<svg width="635" height="635" viewBox="0 0 635 635" fill="none" xmlns="http://www.w3.org/2000/svg">
    <g opacity="0.47">
        <path d="M23.5181 634.992L47.0371 634.992L47.0371 611.473L23.5181 611.473L23.5181 634.992Z" fill="#F1EBBF"/>
        <path d="M23.5147 540.919L70.5527 540.919L70.5527 517.4L23.5147 517.4L23.5147 540.919Z" fill="#F1EBBF"/>
        <path d="M94.0728 611.483L117.592 611.483L117.592 564.445L94.0728 564.445L94.0728 611.483Z" fill="#F1EBBF"/>
        <path d="M23.5273 587.955L23.5273 564.436L70.5653 564.436L70.5653 611.474L47.0463 611.474L47.0463 587.955L23.5273 587.955Z" fill="#F1EBBF"/>
        <path d="M0.00053215 611.475L23.5195 611.475L23.5195 587.956L0.000531122 587.956L0.00053215 611.475Z" fill="#F1EBBF"/>
        <path d="M70.5533 564.435L94.0723 564.435L94.0723 540.916L70.5533 540.916L70.5533 564.435Z" fill="#F1EBBF"/>
        <path d="M141.111 352.776L164.63 352.776L164.63 329.257L188.149 329.257L188.149 376.295L117.592 376.295L117.592 329.257L141.111 329.257L141.111 352.776Z" fill="#F1EBBF"/>
        <path d="M141.114 329.261L164.633 329.261L164.633 305.742L141.114 305.742L141.114 329.261Z" fill="#F1EBBF"/>
        <path d="M117.592 258.701L188.149 258.701L188.149 305.739L164.63 305.739L164.63 282.22L141.111 282.22L141.111 305.739L117.592 305.739L117.592 258.701Z" fill="#F1EBBF"/>
        <path d="M470.365 352.776L493.884 352.776L493.884 329.257L517.403 329.257L517.403 376.295L446.857 376.295L446.857 329.257L470.365 329.257L470.365 352.776Z" fill="#F1EBBF"/>
        <path d="M470.37 329.264L493.889 329.264L493.889 305.745L470.37 305.745L470.37 329.264Z" fill="#F1EBBF"/>
        <path d="M446.857 258.701L517.403 258.701L517.403 305.739L493.884 305.739L493.884 282.22L470.365 282.22L470.365 305.739L446.857 305.739L446.857 258.701Z" fill="#F1EBBF"/>
        <path d="M282.224 141.117L282.224 164.625L305.743 164.625L305.743 188.144L258.705 188.144L258.705 117.598L305.743 117.598L305.743 141.117L282.224 141.117Z" fill="#F1EBBF"/>
        <path d="M305.744 141.107L305.744 164.625L329.263 164.625L329.263 141.107L305.744 141.107Z" fill="#F1EBBF"/>
        <path d="M376.3 117.598L376.3 188.144L329.262 188.144L329.262 164.625L352.781 164.625L352.781 141.117L329.262 141.117L329.262 117.598L376.3 117.598Z" fill="#F1EBBF"/>
        <path d="M282.224 470.372L282.224 493.891L305.743 493.891L305.743 517.41L258.705 517.41L258.705 446.853L305.743 446.853L305.743 470.372L282.224 470.372Z" fill="#F1EBBF"/>
        <path d="M305.744 470.372L305.744 493.891L329.263 493.891L329.263 470.372L305.744 470.372Z" fill="#F1EBBF"/>
        <path d="M376.3 446.853L376.3 517.41L329.262 517.41L329.262 493.891L352.781 493.891L352.781 470.372L329.262 470.372L329.262 446.853L376.3 446.853Z" fill="#F1EBBF"/>
        <path d="M117.6 141.116L141.119 141.116L141.119 117.597L117.6 117.597L117.6 141.116Z" fill="#F1EBBF"/>
        <path d="M493.893 141.116L517.412 141.116L517.412 117.597L493.893 117.597L493.893 141.116Z" fill="#F1EBBF"/>
        <path d="M117.6 517.409L141.119 517.409L141.119 493.89L117.6 493.89L117.6 517.409Z" fill="#F1EBBF"/>
        <path d="M493.893 517.409L517.412 517.409L517.412 493.89L493.893 493.89L493.893 517.409Z" fill="#F1EBBF"/>
        <path d="M141.108 164.634L164.627 164.634L164.627 141.115L141.108 141.115L141.108 164.634Z" fill="#F1EBBF"/>
        <path d="M470.364 164.635L493.883 164.635L493.883 141.116L470.364 141.116L470.364 164.635Z" fill="#F1EBBF"/>
        <path d="M141.118 493.89L164.637 493.89L164.637 470.371L141.118 470.371L141.118 493.89Z" fill="#F1EBBF"/>
        <path d="M470.374 493.892L493.893 493.892L493.893 470.373L470.374 470.373L470.374 493.892Z" fill="#F1EBBF"/>
        <path d="M164.629 423.333L188.148 423.333L188.148 446.852L211.667 446.852L211.667 470.371L164.629 470.371L164.629 423.333Z" fill="#F1EBBF"/>
        <path d="M235.186 352.776L282.224 352.776L282.224 399.814L258.705 399.814L258.705 376.295L235.186 376.295L235.186 352.776Z" fill="#F1EBBF"/>
        <path d="M211.67 446.851L235.189 446.851L235.189 423.332L211.67 423.332L211.67 446.851Z" fill="#F1EBBF"/>
        <path d="M235.19 423.332L258.709 423.332L258.709 399.813L235.19 399.813L235.19 423.332Z" fill="#F1EBBF"/>
        <path d="M188.153 423.333L211.672 423.333L211.672 399.814L188.153 399.814L188.153 423.333Z" fill="#F1EBBF"/>
        <path d="M211.67 399.814L235.189 399.814L235.189 376.295L211.67 376.295L211.67 399.814Z" fill="#F1EBBF"/>
        <path d="M211.667 164.624L211.667 188.143L188.148 188.143L188.148 211.662L164.629 211.662L164.629 164.624L211.667 164.624Z" fill="#F1EBBF"/>
        <path d="M258.705 235.181L282.224 235.181L282.224 282.219L235.186 282.219L235.186 258.7L258.705 258.7L258.705 235.181Z" fill="#F1EBBF"/>
        <path d="M188.148 211.662L188.148 235.181L211.667 235.181L211.667 211.662L188.148 211.662Z" fill="#F1EBBF"/>
        <path d="M211.666 235.182L211.666 258.701L235.185 258.701L235.185 235.182L211.666 235.182Z" fill="#F1EBBF"/>
        <path d="M211.666 188.143L211.666 211.662L235.185 211.662L235.185 188.143L211.666 188.143Z" fill="#F1EBBF"/>
        <path d="M235.186 211.662L235.186 235.181L258.705 235.181L258.705 211.662L235.186 211.662Z" fill="#F1EBBF"/>
        <path d="M470.365 211.662L446.857 211.662L446.857 188.143L423.338 188.143L423.338 164.624L470.365 164.624L470.365 211.662Z" fill="#F1EBBF"/>
        <path d="M352.781 235.181L376.3 235.181L376.3 258.7L399.819 258.7L399.819 282.219L352.781 282.219L352.781 235.181Z" fill="#F1EBBF"/>
        <path d="M423.339 188.152L399.82 188.152L399.82 211.671L423.339 211.671L423.339 188.152Z" fill="#F1EBBF"/>
        <path d="M399.82 211.669L376.301 211.669L376.301 235.188L399.82 235.188L399.82 211.669Z" fill="#F1EBBF"/>
        <path d="M446.855 211.67L423.336 211.67L423.336 235.189L446.855 235.189L446.855 211.67Z" fill="#F1EBBF"/>
        <path d="M423.337 235.188L399.818 235.188L399.818 258.707L423.337 258.707L423.337 235.188Z" fill="#F1EBBF"/>
        <path d="M423.338 470.371L423.338 446.852L446.857 446.852L446.857 423.333L470.365 423.333L470.365 470.371L423.338 470.371Z" fill="#F1EBBF"/>
        <path d="M352.781 352.776L399.819 352.776L399.819 376.295L376.3 376.295L376.3 399.814L352.781 399.814L352.781 352.776Z" fill="#F1EBBF"/>
        <path d="M446.848 423.328L446.848 399.809L423.329 399.809L423.329 423.328L446.848 423.328Z" fill="#F1EBBF"/>
        <path d="M423.33 399.812L423.33 376.293L399.811 376.293L399.811 399.812L423.33 399.812Z" fill="#F1EBBF"/>
        <path d="M423.33 446.847L423.33 423.328L399.811 423.328L399.811 446.847L423.33 446.847Z" fill="#F1EBBF"/>
        <path d="M399.813 423.328L399.812 399.809L376.293 399.809L376.293 423.328L399.813 423.328Z" fill="#F1EBBF"/>
        <path d="M635 611.482L635 587.963L611.481 587.963L611.481 611.482L635 611.482Z" fill="#F1EBBF"/>
        <path d="M540.93 611.482L540.93 564.444L517.411 564.444L517.411 611.482L540.93 611.482Z" fill="#F1EBBF"/>
        <path d="M611.482 540.93L611.482 517.411L564.444 517.411L564.444 540.93L611.482 540.93Z" fill="#F1EBBF"/>
        <path d="M587.958 611.474L564.439 611.474L564.439 564.436L611.477 564.436L611.477 587.955L587.958 587.955L587.958 611.474Z" fill="#F1EBBF"/>
        <path d="M611.482 634.999L611.482 611.48L587.963 611.48L587.963 634.999L611.482 634.999Z" fill="#F1EBBF"/>
        <path d="M564.447 564.447L564.447 540.928L540.928 540.928L540.928 564.447L564.447 564.447Z" fill="#F1EBBF"/>
        <path d="M611.48 -8.25261e-06L587.961 0L587.961 23.519L611.48 23.519L611.48 -8.25261e-06Z" fill="#F1EBBF"/>
        <path d="M611.477 94.0715L564.439 94.0715L564.439 117.591L611.477 117.591L611.477 94.0715Z" fill="#F1EBBF"/>
        <path d="M540.923 23.5161L517.404 23.5161L517.404 70.5541L540.923 70.5541L540.923 23.5161Z" fill="#F1EBBF"/>
        <path d="M611.479 47.0413L611.479 70.5603L564.441 70.5603L564.441 23.5223L587.96 23.5223L587.96 47.0413L611.479 47.0413Z" fill="#F1EBBF"/>
        <path d="M634.998 23.5185L611.479 23.5186L611.479 47.0376L634.998 47.0376L634.998 23.5185Z" fill="#F1EBBF"/>
        <path d="M564.441 70.5535L540.922 70.5535L540.922 94.0724L564.441 94.0724L564.441 70.5535Z" fill="#F1EBBF"/>
        <path d="M0.00781147 23.5215L0.0078125 47.0405L23.5268 47.0405L23.5268 23.5215L0.00781147 23.5215Z" fill="#F1EBBF"/>
        <path d="M94.0723 23.5215L94.0723 70.5596L117.591 70.5596L117.591 23.5215L94.0723 23.5215Z" fill="#F1EBBF"/>
        <path d="M23.5273 94.0791L23.5273 117.598L70.5653 117.598L70.5653 94.0791L23.5273 94.0791Z" fill="#F1EBBF"/>
        <path d="M47.0463 23.5215L70.5653 23.5215L70.5653 70.5596L23.5273 70.5596L23.5273 47.0406L47.0463 47.0406L47.0463 23.5215Z" fill="#F1EBBF"/>
        <path d="M23.5273 0.00222397L23.5273 23.5212L47.0463 23.5212L47.0463 0.00222294L23.5273 0.00222397Z" fill="#F1EBBF"/>
        <path d="M70.5645 70.5602L70.5645 94.0791L94.0835 94.0791L94.0835 70.5602L70.5645 70.5602Z" fill="#F1EBBF"/>
        <path d="M23.9609 282.22L94.5068 282.22L94.5068 352.777L23.9609 352.777L23.9609 329.258L70.9989 329.258L70.9989 305.739L23.9609 305.739L23.9609 282.22Z" fill="#F1EBBF"/>
        <path d="M611.479 352.777L540.922 352.777L540.922 282.22L611.479 282.22L611.479 305.739L564.441 305.739L564.441 329.258L611.479 329.258L611.479 352.777Z" fill="#F1EBBF"/>
        <path d="M329.261 305.741L305.742 305.741L305.742 329.26L329.261 329.26L329.261 305.741Z" fill="#F1EBBF"/>
        <path d="M305.742 329.258L282.223 329.258L282.223 352.777L305.742 352.777L305.742 329.258Z" fill="#F1EBBF"/>
        <path d="M305.742 305.742L305.742 282.223L282.223 282.223L282.223 305.742L305.742 305.742Z" fill="#F1EBBF"/>
        <path d="M329.258 305.738L352.777 305.738L352.777 282.219L329.258 282.219L329.258 305.738Z" fill="#F1EBBF"/>
        <path d="M329.262 329.258L329.262 352.777L352.781 352.777L352.781 329.258L329.262 329.258Z" fill="#F1EBBF"/>
    </g>
</svg>
