<svg width="216" height="361" viewBox="0 0 216 361" fill="none" xmlns="http://www.w3.org/2000/svg">
<rect x="144" y="361" width="72" height="72" transform="rotate(-90 144 361)" fill="#FAFBD8"/>
<rect x="72" y="289" width="72" height="72" transform="rotate(-90 72 289)" fill="#F8F9DA"/>
<rect x="144" y="217" width="72" height="72" transform="rotate(-90 144 217)" fill="#F3F4E6"/>
<rect x="72" y="145" width="72" height="72" transform="rotate(-90 72 145)" fill="#FCFCF2"/>
<rect x="72" y="361" width="72" height="72" transform="rotate(-90 72 361)" fill="#FFFFF6"/>
<rect x="144" y="73" width="73" height="72" transform="rotate(-90 144 73)" fill="#FFFFF6"/>
<rect y="217" width="72" height="72" transform="rotate(-90 0 217)" fill="#FBFCD6"/>
<rect x="144" y="289" width="72" height="72" transform="rotate(-90 144 289)" fill="#F6F7CD"/>
<rect x="72" y="217" width="72" height="72" transform="rotate(-90 72 217)" fill="#FEFFE6"/>
<rect x="144" y="145" width="72" height="72" transform="rotate(-90 144 145)" fill="#F8F9DA"/>
</svg>
