<svg width="360" height="361" viewBox="0 0 360 361" fill="none" xmlns="http://www.w3.org/2000/svg">
<rect x="72" y="73" width="72" height="72" transform="rotate(90 72 73)" fill="#CCD2F8"/>
<rect x="72" y="217" width="72" height="72" transform="rotate(90 72 217)" fill="#AEB3D6"/>
<rect x="144" y="73" width="72" height="72" transform="rotate(90 144 73)" fill="#D0D6FC"/>
<rect x="288" y="73" width="72" height="72" transform="rotate(90 288 73)" fill="#D0D6FC"/>
<rect x="216" y="73" width="72" height="72" transform="rotate(90 216 73)" fill="#C9CFF2"/>
<rect x="144" y="145" width="72" height="72" transform="rotate(90 144 145)" fill="#E0E4FD"/>
<rect x="144" y="217" width="72" height="72" transform="rotate(90 144 217)" fill="#D0D6FC"/>
<rect x="72" width="73" height="72" transform="rotate(90 72 0)" fill="#AEB3D6"/>
<rect x="216" width="73" height="72" transform="rotate(90 216 0)" fill="#D0D6FC"/>
<rect x="360" width="73" height="72" transform="rotate(90 360 0)" fill="#D0D6FC"/>
<rect x="72" y="145" width="72" height="72" transform="rotate(90 72 145)" fill="#D2D7F5"/>
<rect x="72" y="289" width="72" height="72" transform="rotate(90 72 289)" fill="#DCE1FE"/>
<rect x="144" width="73" height="72" transform="rotate(90 144 0)" fill="#CCD2F8"/>
<rect x="288" width="73" height="72" transform="rotate(90 288 0)" fill="#E0E4FD"/>
</svg>
