<svg width="1440" height="31" viewBox="0 0 1440 31" fill="none" xmlns="http://www.w3.org/2000/svg">
<rect y="31" width="30.6383" height="30.6383" transform="rotate(-90 0 31)" fill="#E8E8D2"/>
<rect x="551.49" y="31" width="30.6383" height="30.6383" transform="rotate(-90 551.49 31)" fill="#E8E8D2"/>
<rect x="275.744" y="31" width="30.6383" height="30.6383" transform="rotate(-90 275.744 31)" fill="#E8E8D2"/>
<rect x="827.234" y="31" width="30.6383" height="30.6383" transform="rotate(-90 827.234 31)" fill="#E8E8D2"/>
<rect x="1256.17" y="31" width="30.6383" height="30.6383" transform="rotate(-90 1256.17 31)" fill="#E8E8D2"/>
<rect x="122.553" y="31" width="30.6383" height="30.6383" transform="rotate(-90 122.553 31)" fill="#E8E8D2"/>
<rect x="674.043" y="31" width="30.6383" height="30.6383" transform="rotate(-90 674.043 31)" fill="#E8E8D2"/>
<rect x="398.299" y="31" width="30.6383" height="30.6383" transform="rotate(-90 398.299 31)" fill="#FFE72B"/>
<rect x="949.787" y="31" width="30.6383" height="30.6383" transform="rotate(-90 949.787 31)" fill="#E8E8D2"/>
<rect x="1378.72" y="31" width="30.6383" height="30.6383" transform="rotate(-90 1378.72 31)" fill="#E8E8D2"/>
<rect x="1409.36" y="31" width="30.6383" height="30.6383" transform="rotate(-90 1409.36 31)" fill="#D9D9D9"/>
<rect x="1194.89" y="31" width="30.6383" height="30.6383" transform="rotate(-90 1194.89 31)" fill="#E8E8D2"/>
<rect x="61.2773" y="31" width="30.6383" height="30.6383" transform="rotate(-90 61.2773 31)" fill="#F1EBBF"/>
<rect x="612.766" y="31" width="30.6383" height="30.6383" transform="rotate(-90 612.766 31)" fill="#FFFFF6"/>
<rect x="337.021" y="31" width="30.6383" height="30.6383" transform="rotate(-90 337.021 31)" fill="#F1EBBF"/>
<rect x="888.51" y="31" width="30.6383" height="30.6383" transform="rotate(-90 888.51 31)" fill="#FCFCF2"/>
<rect x="1317.45" y="31" width="30.6383" height="30.6383" transform="rotate(-90 1317.45 31)" fill="#FCFCF2"/>
<rect x="1133.62" y="31" width="30.6383" height="30.6383" transform="rotate(-90 1133.62 31)" fill="#F1EBBF"/>
<rect x="153" y="31" width="30.6383" height="30.6383" transform="rotate(-90 153 31)" fill="#CCCDD6"/>
<rect x="735.318" y="31" width="30.6383" height="30.6383" transform="rotate(-90 735.318 31)" fill="#CCCDD6"/>
<rect x="459.574" y="31" width="30.6383" height="30.6383" transform="rotate(-90 459.574 31)" fill="#CCCDD6"/>
<rect x="1011.06" y="31" width="30.6383" height="30.6383" transform="rotate(-90 1011.06 31)" fill="#CCCDD6"/>
<rect x="30.6387" y="31" width="30.6383" height="30.6383" transform="rotate(-90 30.6387 31)" fill="#F4F4AF"/>
<rect x="582.127" y="31" width="30.6383" height="30.6383" transform="rotate(-90 582.127 31)" fill="#F4F4AF"/>
<rect x="306.383" y="31" width="30.6383" height="30.6383" transform="rotate(-90 306.383 31)" fill="#F4F4AF"/>
<rect x="857.873" y="31" width="30.6383" height="30.6383" transform="rotate(-90 857.873 31)" fill="#F4F4AF"/>
<rect x="1286.81" y="31" width="30.6383" height="30.6383" transform="rotate(-90 1286.81 31)" fill="#F4F4AF"/>
<rect x="1102.98" y="31" width="30.6383" height="30.6383" transform="rotate(-90 1102.98 31)" fill="#FFFF99"/>
<rect x="183" y="31" width="30.6383" height="30.6383" transform="rotate(-90 183 31)" fill="#DEE1FC"/>
<rect x="704.682" y="31" width="30.6383" height="30.6383" transform="rotate(-90 704.682 31)" fill="#DEE1FC"/>
<rect x="428.936" y="31" width="30.6383" height="30.6383" transform="rotate(-90 428.936 31)" fill="#DEE1FC"/>
<rect x="980.426" y="31" width="30.6383" height="30.6383" transform="rotate(-90 980.426 31)" fill="#A3AFFF"/>
<rect x="1225.53" y="31" width="30.6383" height="30.6383" transform="rotate(-90 1225.53 31)" fill="#DEE1FC"/>
<rect x="91.9141" y="31" width="30.6383" height="30.6383" transform="rotate(-90 91.9141 31)" fill="#F8F8EB"/>
<rect x="643.404" y="31" width="30.6383" height="30.6383" transform="rotate(-90 643.404 31)" fill="#F8F8EB"/>
<rect x="367.66" y="31" width="30.6383" height="30.6383" transform="rotate(-90 367.66 31)" fill="#F8F8EB"/>
<rect x="919.148" y="31" width="30.6383" height="30.6383" transform="rotate(-90 919.148 31)" fill="#F8F8EB"/>
<rect x="1348.09" y="31" width="30.6383" height="30.6383" transform="rotate(-90 1348.09 31)" fill="#DEE1FC"/>
<rect x="1164.26" y="31" width="30.6383" height="30.6383" transform="rotate(-90 1164.26 31)" fill="#F8F8EB"/>
<rect x="214.469" y="31" width="30.6383" height="30.6383" transform="rotate(-90 214.469 31)" fill="#F8F8EB"/>
<rect x="765.957" y="31" width="30.6383" height="30.6383" transform="rotate(-90 765.957 31)" fill="#F8F9DA"/>
<rect x="490.213" y="31" width="30.6383" height="30.6383" transform="rotate(-90 490.213 31)" fill="#F8F8EB"/>
<rect x="1041.7" y="31" width="30.6383" height="30.6383" transform="rotate(-90 1041.7 31)" fill="#F8F8EB"/>
<rect x="245.105" y="31" width="30.6383" height="30.6383" transform="rotate(-90 245.105 31)" fill="#D2D8FF"/>
<rect x="796.596" y="31" width="30.6383" height="30.6383" transform="rotate(-90 796.596 31)" fill="#D2D8FF"/>
<rect x="520.852" y="31" width="30.6383" height="30.6383" transform="rotate(-90 520.852 31)" fill="#D2D8FF"/>
<rect x="1072.34" y="31" width="30.6383" height="30.6383" transform="rotate(-90 1072.34 31)" fill="#D2D8FF"/>
</svg>
