<?xml version="1.0" encoding="UTF-8"?>
<svg id="Layer_1" data-name="Layer 1" xmlns="http://www.w3.org/2000/svg" version="1.1" viewBox="0 0 406.2 453.5">
  <defs>
    <style>
      .cls-1 {
        fill: #dee1fc;
      }

      .cls-1, .cls-2, .cls-3, .cls-4 {
        stroke-width: 0px;
      }

      .cls-2 {
        fill: #feffe6;
      }

      .cls-3 {
        fill: #aaaaad;
      }

      .cls-4 {
        fill: #16161d;
      }
    </style>
  </defs>
  <polygon class="cls-1" points="397.2 20.5 397.2 29.5 406.2 29.5 406.2 444.5 397.2 444.5 397.2 453.5 28.2 453.5 28.2 444.5 19.2 444.5 19.2 30.5 28.2 30.5 28.2 21.5 397.2 20.5"/>
  <g>
    <polygon class="cls-2" points="380 2 380 11 389 11 389 426 380 426 380 435 11 435 11 426 2 426 2 12 11 12 11 3 380 2"/>
    <path class="cls-4" d="M382,437H9v-9H0V10h9V1L382,0v9h9v419h-9v9ZM13,433h365v-9s9,0,9,0V13h-9V4L13,5v9H4v410h9v9Z"/>
  </g>
  <rect class="cls-1" x="46" y="74" width="102" height="37"/>
  <rect class="cls-2" x="46" y="115" width="154" height="37"/>
  <rect class="cls-1" x="46" y="115" width="154" height="37"/>
  <g>
    <path class="cls-4" d="M57.6,104.7c-1.6,0-3.1-.3-4.3-.9-1.3-.6-2.4-1.5-3.3-2.6-.9-1.1-1.6-2.4-2.1-4-.5-1.6-.7-3.3-.7-5.1s.3-3.8.8-5.4c.5-1.6,1.2-2.9,2.1-4,.9-1.1,2-1.9,3.2-2.4,1.2-.5,2.6-.8,4-.8s2.7.3,3.6.8c.9.5,1.5,1.1,1.9,1.8h.2v-2.1h3.2v7.4h-3.2v-1.7c0-1.2-.5-2.2-1.4-2.9-.9-.7-2.2-1.1-3.7-1.1s-1.9.2-2.7.5-1.4.9-1.9,1.5c-.5.7-.9,1.5-1.1,2.4-.3.9-.4,1.9-.4,3v5.5c0,2.4.6,4.3,1.8,5.5,1.2,1.3,2.8,1.9,4.9,1.9s2.9-.4,4-1.2c1.1-.8,1.9-1.9,2.4-3.2l1.6.9c-.3.8-.6,1.5-1.1,2.3-.5.7-1.1,1.4-1.9,2-.7.6-1.6,1.1-2.6,1.4-1,.4-2,.5-3.2.5Z"/>
    <path class="cls-4" d="M73,102.4h2.8v-14.3h-4v3.3h-2.6v-5.4h17v5.4h-2.6v-3.3h-4v14.3h2.8v1.9h-9.4v-1.9Z"/>
    <path class="cls-4" d="M94.2,104.7c-1.8,0-3.2-.4-4.1-1.3-.9-.9-1.4-2.1-1.4-3.7s.6-3.1,1.9-4c1.2-.9,3.3-1.4,6.1-1.4h2.5v-2.4c0-1.4-.3-2.5-.9-3.3-.6-.7-1.6-1.1-2.9-1.1s-2,.2-2.6.5h0c.3.3.5.5.7.8.2.3.3.7.3,1.2s-.2,1.2-.6,1.6c-.4.4-.9.6-1.6.6s-1.1-.2-1.5-.6c-.4-.4-.6-1-.6-1.7s.2-1.1.5-1.6c.3-.5.8-1,1.4-1.3.6-.4,1.3-.7,2.2-.9.9-.2,1.9-.4,3-.4,2.2,0,3.8.5,4.9,1.5,1.1,1,1.7,2.5,1.7,4.3v10.9h2.4v1.6c-.3.2-.7.3-1.2.5-.5.1-1.1.2-1.6.2-1.1,0-1.8-.3-2.3-.8-.5-.5-.7-1.3-.7-2.1v-.2h-.2c-.2.4-.4.8-.6,1.1-.3.4-.6.7-1,1-.4.3-.9.5-1.5.7-.6.2-1.3.3-2,.3ZM95.7,102.3c1,0,1.9-.2,2.5-.7.7-.5,1-1.3,1-2.4v-3.1h-2.1c-1.6,0-2.8.3-3.4.8-.6.5-1,1.3-1,2.3v.7c0,.8.3,1.5.8,1.9.5.4,1.3.6,2.2.6Z"/>
    <path class="cls-4" d="M107.7,109.4h2.4v-20.5l-2.4-.5v-1.5l6.2-1.2v3.1h.2c.4-.8,1-1.6,1.8-2.2.8-.6,1.9-.9,3.3-.9s2.1.2,3,.6c.9.4,1.7,1.1,2.3,1.9.6.8,1.1,1.8,1.5,3,.3,1.2.5,2.5.5,4s-.2,2.8-.5,4c-.3,1.2-.8,2.2-1.5,3-.6.8-1.4,1.4-2.3,1.9s-1.9.6-3,.6-2.5-.3-3.3-.9c-.8-.6-1.4-1.4-1.8-2.2h-.2v7.8h3v1.9h-9.3v-1.9ZM117.9,102.2c1.3,0,2.4-.5,3.2-1.4.8-.9,1.2-2.2,1.2-3.8v-3.7c0-1.6-.4-2.9-1.2-3.8-.8-.9-1.8-1.4-3.2-1.4s-1,0-1.5.2c-.5.2-.9.4-1.3.7-.4.3-.7.7-.9,1.1-.2.4-.3.9-.3,1.4v7.1c0,.5.1,1,.3,1.4.2.4.5.8.9,1.1.4.3.8.5,1.3.7.5.2,1,.2,1.5.2Z"/>
    <path class="cls-4" d="M132.8,102.4h2.8v-14.3h-4v3.3h-2.6v-5.4h17v5.4h-2.6v-3.3h-4v14.3h2.8v1.9h-9.4v-1.9Z"/>
    <path class="cls-4" d="M46.9,141.4h2.4v-14.4h-2.4v-1.9h20.1v1.9h-2.4v14.4h2.4v1.9h-8.5v-1.9h2.3v-14.3h-7.6v14.3h2.3v1.9h-8.5v-1.9Z"/>
    <path class="cls-4" d="M69.7,148.4h2.4v-20.5l-2.4-.5v-1.5l6.2-1.2v3.1h.2c.4-.8,1-1.6,1.8-2.2.8-.6,1.9-.9,3.3-.9s2.1.2,3,.6c.9.4,1.7,1.1,2.3,1.9.6.8,1.1,1.8,1.5,3,.3,1.2.5,2.5.5,4s-.2,2.8-.5,4c-.3,1.2-.8,2.2-1.5,3-.6.8-1.4,1.4-2.3,1.9s-1.9.6-3,.6-2.5-.3-3.3-.9c-.8-.6-1.4-1.4-1.8-2.2h-.2v7.8h3v1.9h-9.3v-1.9ZM80,141.2c1.3,0,2.4-.5,3.2-1.4.8-.9,1.2-2.2,1.2-3.8v-3.7c0-1.6-.4-2.9-1.2-3.8-.8-.9-1.8-1.4-3.2-1.4s-1,0-1.5.2c-.5.2-.9.4-1.3.7-.4.3-.7.7-.9,1.1-.2.4-.3.9-.3,1.4v7.1c0,.5.1,1,.3,1.4.2.4.5.8.9,1.1.4.3.8.5,1.3.7.5.2,1,.2,1.5.2Z"/>
    <path class="cls-4" d="M100.3,143.7c-1.3,0-2.4-.2-3.5-.7s-1.9-1.1-2.7-1.9c-.7-.8-1.3-1.8-1.7-3-.4-1.2-.6-2.5-.6-4s.2-2.8.6-4c.4-1.2,1-2.2,1.7-3,.7-.8,1.6-1.4,2.7-1.9,1-.4,2.2-.7,3.5-.7s2.4.2,3.5.7c1,.4,1.9,1.1,2.7,1.9.7.8,1.3,1.8,1.7,3,.4,1.2.6,2.5.6,4s-.2,2.8-.6,4c-.4,1.2-1,2.2-1.7,3-.7.8-1.6,1.4-2.7,1.9s-2.2.7-3.5.7ZM100.3,141.7c1.5,0,2.5-.5,3.2-1.4.7-.9,1-2.1,1-3.7v-4.9c0-1.5-.3-2.7-1-3.7-.7-.9-1.8-1.4-3.2-1.4s-2.5.5-3.2,1.4c-.7.9-1,2.1-1,3.7v4.9c0,1.5.3,2.7,1,3.7.7.9,1.8,1.4,3.2,1.4Z"/>
    <path class="cls-4" d="M120.7,143.7c-1.4,0-2.6-.2-3.7-.6-1.1-.4-2-1.1-2.7-1.9-.8-.8-1.3-1.8-1.7-3-.4-1.2-.6-2.5-.6-4s.2-2.8.6-4c.4-1.2,1-2.2,1.7-3,.7-.8,1.6-1.5,2.6-1.9,1-.4,2.1-.6,3.3-.6s2,.2,2.7.6c.7.4,1.2.9,1.5,1.5h.1v-1.6h2.6v5.5h-2.6v-.9c0-1-.3-1.8-1-2.3s-1.6-.8-2.7-.8-2.5.5-3.3,1.5c-.8,1-1.2,2.5-1.2,4.4v.5h6.5v2h-6.5v.9c0,1.9.4,3.3,1.3,4.4.9,1.1,2.2,1.6,3.9,1.6s1.3,0,1.9-.2c.5-.1.9-.3,1.3-.5h0c-.4-.3-.7-.6-.9-.9-.2-.4-.3-.8-.3-1.2s.2-1.1.6-1.5c.4-.4.9-.6,1.6-.6s1.2.2,1.6.6c.4.4.6,1,.6,1.8s-.2,1.1-.5,1.6c-.3.5-.8,1-1.4,1.4-.6.4-1.3.7-2.2,1-.9.2-1.9.4-3,.4Z"/>
    <path class="cls-4" d="M130.6,141.4h2.4v-14.4h-2.4v-1.9h8.5v1.9h-2.3v6.1h2.5l1.7-3.9c.7-1.7,1.5-2.8,2.3-3.5.8-.7,1.6-1,2.6-1s1.5.2,1.9.7c.5.5.7,1.1.7,1.8s-.2,1.4-.6,1.8c-.4.5-1,.7-1.6.7s-1.1-.2-1.5-.5c-.4-.4-.6-.9-.7-1.5h-.1c-.2.3-.4.6-.7,1-.2.4-.5.9-.7,1.4l-1.6,3.6c.7,0,1.4.3,1.9.6.5.3.9.9,1.3,1.6l3.2,5.5h1.7v1.9h-5.1l-4.7-8.3h-2.5v6.4h2.3v1.9h-8.5v-1.9Z"/>
    <path class="cls-4" d="M154.8,141.4h2.8v-14.3h-4v3.3h-2.6v-5.4h17v5.4h-2.6v-3.3h-4v14.3h2.8v1.9h-9.4v-1.9Z"/>
    <path class="cls-4" d="M173.6,150.7c-1.2,0-2.2-.3-2.8-.9-.6-.6-1-1.3-1-2.2s.2-1.3.6-1.7c.4-.4.9-.6,1.6-.6s1.1.2,1.5.6c.4.4.5.9.5,1.5s0,.7-.2.9c-.2.3-.3.5-.5.6h0c.1.2.2.2.3.2h.4c1.2,0,2.3-1.2,3.2-3.6l.6-1.6-6.6-17.1h-1.7v-1.9h8.2v1.9h-2.3l4.3,12.1h.2l4.3-12.1h-2.3v-1.9h6.3v1.9h-1.7l-7.2,18.8c-.3.6-.5,1.2-.9,1.8-.3.6-.7,1.1-1.2,1.6-.5.5-1,.8-1.5,1.1-.6.3-1.2.4-2,.4Z"/>
    <path class="cls-4" d="M193.4,129.9c-.8,0-1.4-.2-1.9-.7-.5-.5-.7-1.1-.7-1.8v-.2c0-.7.2-1.3.7-1.8.5-.5,1.1-.7,1.9-.7s1.4.2,1.9.7c.5.5.7,1.1.7,1.8v.2c0,.7-.2,1.3-.7,1.8-.5.5-1.1.7-1.9.7ZM193.4,143.7c-.8,0-1.4-.2-1.9-.7-.5-.5-.7-1.1-.7-1.8v-.2c0-.7.2-1.3.7-1.8.5-.5,1.1-.7,1.9-.7s1.4.2,1.9.7c.5.5.7,1.1.7,1.8v.2c0,.7-.2,1.3-.7,1.8-.5.5-1.1.7-1.9.7Z"/>
  </g>
  <rect class="cls-3" x="46.4" y="177.5" width="298.6" height="2"/>
  <g>
    <path class="cls-4" d="M47.8,241.1v-14.5h5c1,0,1.8.2,2.5.5.7.3,1.1.8,1.5,1.4.3.6.5,1.2.5,1.9s-.1,1.1-.3,1.5c-.2.4-.5.7-.9,1-.4.2-.7.4-1.1.5h0c.4.2.9.3,1.3.6.4.3.8.7,1.1,1.2s.5,1.2.5,1.9-.2,1.4-.5,2-.8,1-1.6,1.4c-.7.3-1.6.5-2.8.5h-5.2ZM49.5,233h3.2c.5,0,1-.1,1.4-.3.4-.2.8-.5,1-.9.3-.4.4-.8.4-1.3s-.2-1.2-.7-1.6c-.4-.4-1.1-.7-2.1-.7h-3.3v4.8ZM49.5,239.6h3.5c1.1,0,1.9-.2,2.4-.7.5-.4.7-1,.7-1.6s-.1-.9-.4-1.4-.6-.8-1.1-1c-.5-.3-1-.4-1.6-.4h-3.5v5.1Z"/>
    <path class="cls-4" d="M60.4,241.1v-10.9h8.5v10.9h-1.7v-9.3h-5.2v9.3h-1.7Z"/>
    <path class="cls-4" d="M76.5,241.4c-1,0-1.9-.2-2.7-.7-.8-.5-1.3-1.1-1.7-2s-.6-1.8-.6-2.9.2-2.1.6-3c.4-.9,1-1.5,1.7-2s1.6-.7,2.6-.7,1.1,0,1.7.3,1,.5,1.5.9c.5.4.8,1,1.1,1.7.3.7.4,1.6.4,2.6v.7h-8.3v-1.4h6.6c0-.6-.1-1.2-.4-1.6-.2-.5-.6-.9-1-1.1-.4-.3-1-.4-1.6-.4s-1.2.2-1.7.5-.8.8-1.1,1.3c-.3.5-.4,1.1-.4,1.7v1c0,.8.1,1.5.4,2.1.3.6.7,1,1.2,1.3.5.3,1.1.4,1.8.4s.8,0,1.2-.2.7-.3.9-.6c.3-.3.5-.6.6-.9l1.6.5c-.2.5-.5,1-.9,1.4-.4.4-.9.7-1.5,1s-1.2.3-2,.3Z"/>
    <path class="cls-4" d="M83.5,245.2v-15h1.6v1.7h.2c.1-.2.3-.4.5-.7.2-.3.5-.6.9-.8s1-.4,1.7-.4,1.7.2,2.4.7,1.2,1.1,1.6,2c.4.8.6,1.8.6,3s-.2,2.2-.6,3c-.4.8-.9,1.5-1.6,2-.7.5-1.5.7-2.4.7s-1.2-.1-1.7-.4c-.4-.2-.7-.5-1-.8-.2-.3-.4-.6-.5-.8h-.1v5.8h-1.7ZM85.1,235.7c0,.8.1,1.5.4,2.2.2.6.6,1.1,1,1.5s1,.5,1.7.5,1.3-.2,1.7-.6c.5-.4.8-.9,1.1-1.5s.4-1.3.4-2.1-.1-1.5-.3-2.1c-.2-.6-.6-1.1-1-1.5-.5-.4-1.1-.5-1.8-.5s-1.2.2-1.7.5c-.5.3-.8.8-1,1.4s-.4,1.3-.4,2.1Z"/>
    <path class="cls-4" d="M95.6,230.2h1.7v9.3h4.1v-9.3h1.7v9.3h4.1v-9.3h1.7v10.9h-13.1v-10.9Z"/>
    <path class="cls-4" d="M116.3,241.4c-1,0-1.9-.2-2.7-.7-.8-.5-1.3-1.1-1.7-2s-.6-1.8-.6-2.9.2-2.1.6-3c.4-.9,1-1.5,1.7-2s1.6-.7,2.6-.7,1.1,0,1.7.3,1,.5,1.5.9c.5.4.8,1,1.1,1.7.3.7.4,1.6.4,2.6v.7h-8.3v-1.4h6.6c0-.6-.1-1.2-.4-1.6-.2-.5-.6-.9-1-1.1-.4-.3-1-.4-1.6-.4s-1.2.2-1.7.5-.8.8-1.1,1.3c-.3.5-.4,1.1-.4,1.7v1c0,.8.1,1.5.4,2.1.3.6.7,1,1.2,1.3.5.3,1.1.4,1.8.4s.8,0,1.2-.2.7-.3.9-.6c.3-.3.5-.6.6-.9l1.6.5c-.2.5-.5,1-.9,1.4-.4.4-.9.7-1.5,1s-1.2.3-2,.3Z"/>
    <path class="cls-4" d="M128.8,241.1v-10.9h8.5v10.9h-1.7v-9.3h-5.2v9.3h-1.7Z"/>
    <path class="cls-4" d="M140.4,245.2v-15h1.6v1.7h.2c.1-.2.3-.4.5-.7.2-.3.5-.6.9-.8s1-.4,1.7-.4,1.7.2,2.4.7,1.2,1.1,1.6,2c.4.8.6,1.8.6,3s-.2,2.2-.6,3c-.4.8-.9,1.5-1.6,2-.7.5-1.5.7-2.4.7s-1.2-.1-1.7-.4c-.4-.2-.7-.5-1-.8-.2-.3-.4-.6-.5-.8h-.1v5.8h-1.7ZM142,235.7c0,.8.1,1.5.4,2.2.2.6.6,1.1,1,1.5s1,.5,1.7.5,1.3-.2,1.7-.6c.5-.4.8-.9,1.1-1.5s.4-1.3.4-2.1-.1-1.5-.3-2.1c-.2-.6-.6-1.1-1-1.5-.5-.4-1.1-.5-1.8-.5s-1.2.2-1.7.5c-.5.3-.8.8-1,1.4s-.4,1.3-.4,2.1Z"/>
    <path class="cls-4" d="M156.8,241.4c-1,0-1.8-.2-2.6-.7-.7-.5-1.3-1.1-1.7-2-.4-.8-.6-1.8-.6-3s.2-2.1.6-3c.4-.8,1-1.5,1.7-2,.7-.5,1.6-.7,2.6-.7s1.8.2,2.6.7c.7.5,1.3,1.1,1.7,2s.6,1.8.6,3-.2,2.1-.6,3-1,1.5-1.7,2c-.7.5-1.6.7-2.6.7ZM156.8,239.9c.7,0,1.4-.2,1.8-.6.5-.4.8-.9,1.1-1.5.2-.6.3-1.3.3-2s-.1-1.4-.3-2c-.2-.6-.6-1.1-1.1-1.5-.5-.4-1.1-.6-1.8-.6s-1.4.2-1.8.6c-.5.4-.8.9-1.1,1.5-.2.6-.3,1.3-.3,2s.1,1.4.3,2c.2.6.6,1.1,1.1,1.5.5.4,1.1.6,1.8.6Z"/>
    <path class="cls-4" d="M172.2,233.5h-1.7c-.1-.5-.4-.9-.8-1.3s-1-.6-1.7-.6-1.2.2-1.7.5c-.5.3-.9.8-1.1,1.4s-.4,1.3-.4,2.2.1,1.6.4,2.2c.3.6.6,1.1,1.1,1.5.5.3,1.1.5,1.7.5s.8,0,1.2-.2.6-.4.9-.7c.2-.3.4-.6.5-1h1.7c0,.6-.3,1.2-.7,1.7s-.9.9-1.5,1.2c-.6.3-1.3.5-2.1.5s-1.9-.2-2.6-.7-1.3-1.1-1.7-2c-.4-.9-.6-1.8-.6-3s.2-2.1.6-2.9,1-1.5,1.7-2,1.6-.7,2.6-.7,1.4.1,2.1.4,1.1.7,1.5,1.2c.4.5.6,1.1.7,1.8ZM168.6,235.1v1.6h-5.3v-1.6h5.3Z"/>
    <path class="cls-4" d="M174.9,241.1v-10.9h1.7v4.7h1.1l3.9-4.7h2.1l-4.4,5.3,4.4,5.7h-2.1l-3.5-4.6h-1.5v4.6h-1.7Z"/>
    <path class="cls-4" d="M185,231.8v-1.6h8.8v1.6h-3.5v9.3h-1.7v-9.3h-3.6Z"/>
    <path class="cls-4" d="M209.7,226.1l.8,1c-.3.3-.7.5-1.1.7-.4.1-.9.2-1.5.2-.5,0-1.1,0-1.8,0-.8,0-1.4.2-1.9.6-.5.3-.9.8-1.1,1.5-.3.6-.4,1.4-.5,2.4h.1c.4-.7.9-1.2,1.5-1.5.6-.3,1.3-.5,2.1-.5s1.6.2,2.3.6c.7.4,1.2,1,1.6,1.8.4.8.6,1.7.6,2.9s-.2,2.1-.6,3c-.4.8-1,1.5-1.7,1.9-.7.4-1.6.7-2.5.7s-1.8-.2-2.5-.7c-.7-.5-1.3-1.1-1.7-2.1-.4-.9-.6-2-.6-3.4v-1.2c0-2.4.4-4.3,1.2-5.5.8-1.3,2-1.9,3.7-1.9.6,0,1.1,0,1.6,0,.5,0,.9,0,1.2,0,.3,0,.6-.2.9-.4ZM206,239.9c.7,0,1.2-.2,1.7-.5.5-.3.8-.8,1.1-1.4.3-.6.4-1.3.4-2.1s-.1-1.5-.4-2-.6-1-1.1-1.3c-.5-.3-1-.4-1.7-.4s-.9,0-1.3.2c-.4.2-.7.4-1,.7-.3.3-.5.7-.6,1.2-.1.5-.2,1-.2,1.6,0,1.2.3,2.2.9,2.9.6.7,1.3,1.1,2.3,1.1Z"/>
    <path class="cls-4" d="M214.5,245.2c-.3,0-.5,0-.8,0-.2,0-.4,0-.5-.1l.4-1.5c.4.1.8.1,1.1.1.3,0,.6-.2.8-.4.2-.2.5-.6.7-1.2l.3-.9-4-11h1.8l3,8.7h.1l3-8.7h1.8l-4.6,12.5c-.2.6-.5,1-.8,1.4-.3.4-.7.6-1.1.8-.4.2-.9.3-1.4.3Z"/>
    <path class="cls-4" d="M222.6,241.1v-1.6h.4c.3,0,.6,0,.8-.2.2-.1.4-.4.5-.7.1-.3.2-.8.3-1.4,0-.6.1-1.3.2-2.3l.2-4.8h7.2v10.9h-1.7v-9.3h-4l-.2,3.9c0,.9-.1,1.7-.2,2.4-.1.7-.3,1.2-.5,1.7-.2.5-.6.8-1,1-.4.2-.9.3-1.5.3h-.6Z"/>
    <path class="cls-4" d="M239.6,241.4c-1,0-1.8-.2-2.6-.7-.7-.5-1.3-1.1-1.7-2-.4-.8-.6-1.8-.6-3s.2-2.1.6-3c.4-.8,1-1.5,1.7-2,.7-.5,1.6-.7,2.6-.7s1.8.2,2.6.7c.7.5,1.3,1.1,1.7,2s.6,1.8.6,3-.2,2.1-.6,3-1,1.5-1.7,2c-.7.5-1.6.7-2.6.7ZM239.6,239.9c.7,0,1.4-.2,1.8-.6.5-.4.8-.9,1.1-1.5.2-.6.3-1.3.3-2s-.1-1.4-.3-2c-.2-.6-.6-1.1-1.1-1.5-.5-.4-1.1-.6-1.8-.6s-1.4.2-1.8.6c-.5.4-.8.9-1.1,1.5-.2.6-.3,1.3-.3,2s.1,1.4.3,2c.2.6.6,1.1,1.1,1.5.5.4,1.1.6,1.8.6Z"/>
    <path class="cls-4" d="M47.6,270.1v-10.9h8.5v10.9h-1.7v-9.3h-5.2v9.3h-1.7Z"/>
    <path class="cls-4" d="M59.1,274.2v-15h1.6v1.7h.2c.1-.2.3-.4.5-.7.2-.3.5-.6.9-.8s1-.4,1.7-.4,1.7.2,2.4.7,1.2,1.1,1.6,2c.4.8.6,1.8.6,3s-.2,2.2-.6,3c-.4.8-.9,1.5-1.6,2-.7.5-1.5.7-2.4.7s-1.2-.1-1.7-.4c-.4-.2-.7-.5-1-.8-.2-.3-.4-.6-.5-.8h-.1v5.8h-1.7ZM60.7,264.7c0,.8.1,1.5.4,2.2.2.6.6,1.1,1,1.5s1,.5,1.7.5,1.3-.2,1.7-.6c.5-.4.8-.9,1.1-1.5s.4-1.3.4-2.1-.1-1.5-.3-2.1c-.2-.6-.6-1.1-1-1.5-.5-.4-1.1-.5-1.8-.5s-1.2.2-1.7.5c-.5.3-.8.8-1,1.4s-.4,1.3-.4,2.1Z"/>
    <path class="cls-4" d="M75.7,270.4c-1,0-1.9-.2-2.7-.7-.8-.5-1.3-1.1-1.7-2s-.6-1.8-.6-2.9.2-2.1.6-3c.4-.9,1-1.5,1.7-2s1.6-.7,2.6-.7,1.1,0,1.7.3,1,.5,1.5.9c.5.4.8,1,1.1,1.7.3.7.4,1.6.4,2.6v.7h-8.3v-1.4h6.6c0-.6-.1-1.2-.4-1.6-.2-.5-.6-.9-1-1.1-.4-.3-1-.4-1.6-.4s-1.2.2-1.7.5-.8.8-1.1,1.3c-.3.5-.4,1.1-.4,1.7v1c0,.8.1,1.5.4,2.1.3.6.7,1,1.2,1.3.5.3,1.1.4,1.8.4s.8,0,1.2-.2.7-.3.9-.6c.3-.3.5-.6.6-.9l1.6.5c-.2.5-.5,1-.9,1.4-.4.4-.9.7-1.5,1s-1.2.3-2,.3Z"/>
    <path class="cls-4" d="M82,267.3h1.8c0,.5.3.9.7,1.1.4.3.9.4,1.6.4s1.2-.1,1.7-.4c.5-.3.7-.7.7-1.3s0-.7-.3-1-.4-.5-.8-.6c-.3-.2-.7-.2-1.1-.2h-1.9v-1.5h1.9c.7,0,1.1-.2,1.5-.5s.5-.7.5-1.1-.2-.9-.5-1.2c-.3-.3-.8-.4-1.5-.4s-1.2.1-1.6.4c-.4.3-.6.7-.7,1.1h-1.7c0-.6.2-1.1.5-1.6s.8-.8,1.4-1.1,1.2-.4,2-.4,1.4.1,2,.4,1,.6,1.3,1.1c.3.5.5,1,.5,1.6s-.2,1.1-.5,1.5c-.3.4-.8.6-1.3.8h0c.4.1.8.3,1.1.5s.5.5.7.9c.2.4.3.8.3,1.2,0,.7-.2,1.2-.5,1.7s-.8.9-1.4,1.1c-.6.3-1.3.4-2.1.4s-1.4-.1-2.1-.4c-.6-.3-1.1-.6-1.4-1.1s-.5-1-.6-1.6Z"/>
    <path class="cls-4" d="M97,270.4c-1,0-1.9-.2-2.7-.7-.8-.5-1.3-1.1-1.7-2s-.6-1.8-.6-2.9.2-2.1.6-3c.4-.9,1-1.5,1.7-2s1.6-.7,2.6-.7,1.1,0,1.7.3,1,.5,1.5.9c.5.4.8,1,1.1,1.7.3.7.4,1.6.4,2.6v.7h-8.3v-1.4h6.6c0-.6-.1-1.2-.4-1.6-.2-.5-.6-.9-1-1.1-.4-.3-1-.4-1.6-.4s-1.2.2-1.7.5-.8.8-1.1,1.3c-.3.5-.4,1.1-.4,1.7v1c0,.8.1,1.5.4,2.1.3.6.7,1,1.2,1.3.5.3,1.1.4,1.8.4s.8,0,1.2-.2.7-.3.9-.6c.3-.3.5-.6.6-.9l1.6.5c-.2.5-.5,1-.9,1.4-.4.4-.9.7-1.5,1s-1.2.3-2,.3Z"/>
    <path class="cls-4" d="M105.7,259.2v10.9h-1.7v-10.9h1.7ZM111.2,263.9v1.6h-6v-1.6h6ZM112.5,259.2v10.9h-1.7v-10.9h1.7Z"/>
    <path class="cls-4" d="M114.1,260.8v-1.6h8.8v1.6h-3.5v9.3h-1.7v-9.3h-3.6Z"/>
    <path class="cls-4" d="M129.1,270.4c-1,0-1.8-.2-2.6-.7-.7-.5-1.3-1.1-1.7-2-.4-.8-.6-1.8-.6-3s.2-2.1.6-3c.4-.8,1-1.5,1.7-2,.7-.5,1.6-.7,2.6-.7s1.8.2,2.6.7c.7.5,1.3,1.1,1.7,2s.6,1.8.6,3-.2,2.1-.6,3-1,1.5-1.7,2c-.7.5-1.6.7-2.6.7ZM129.1,268.9c.7,0,1.4-.2,1.8-.6.5-.4.8-.9,1.1-1.5.2-.6.3-1.3.3-2s-.1-1.4-.3-2c-.2-.6-.6-1.1-1.1-1.5-.5-.4-1.1-.6-1.8-.6s-1.4.2-1.8.6c-.5.4-.8.9-1.1,1.5-.2.6-.3,1.3-.3,2s.1,1.4.3,2c.2.6.6,1.1,1.1,1.5.5.4,1.1.6,1.8.6Z"/>
    <path class="cls-4" d="M136.5,270.1v-10.9h4.4c1.2,0,2.1.3,2.8.8s1,1.2,1,2.1-.2,1.2-.6,1.5-.9.6-1.5.7c.4,0,.8.2,1.2.4.4.2.7.5.9.9s.4.9.4,1.5-.1,1.1-.4,1.5-.7.8-1.2,1-1.2.4-1.9.4h-5.1ZM138.1,263.8h2.8c.4,0,.8,0,1.1-.2.3-.1.6-.3.7-.5.2-.2.3-.5.3-.8,0-.5-.2-.8-.6-1.1-.4-.3-.9-.4-1.6-.4h-2.8v3ZM138.1,268.6h3.5c.6,0,1-.1,1.3-.4.3-.3.5-.6.5-1.1s-.2-1-.5-1.3c-.3-.3-.8-.5-1.3-.5h-3.5v3.4Z"/>
    <path class="cls-4" d="M150.8,270.4c-.7,0-1.3-.1-1.9-.4-.6-.3-1-.6-1.3-1.1-.3-.5-.5-1.1-.5-1.8s.1-1.1.4-1.5.6-.7,1-.9.9-.4,1.4-.5,1-.2,1.5-.3c.7,0,1.2-.2,1.6-.2s.7-.1.9-.2c.2-.1.3-.3.3-.6h0c0-.8-.2-1.3-.6-1.7-.4-.4-.9-.6-1.7-.6s-1.4.2-1.9.5c-.5.4-.8.7-.9,1.1l-1.6-.6c.3-.7.7-1.2,1.1-1.6.5-.4,1-.6,1.5-.8.6-.1,1.1-.2,1.7-.2s.7,0,1.2.1c.5,0,.9.3,1.3.5.4.3.8.6,1.1,1.2.3.5.4,1.2.4,2.1v7.2h-1.7v-1.5h0c-.1.2-.3.5-.6.8-.3.3-.6.5-1,.7s-1,.3-1.6.3ZM151.1,268.9c.7,0,1.2-.1,1.7-.4.5-.3.8-.6,1-1,.2-.4.3-.8.3-1.3v-1.5c0,0-.2.2-.5.2-.2,0-.5.1-.8.2-.3,0-.6,0-.9.1-.3,0-.5,0-.7,0-.4,0-.8.1-1.2.3-.4.1-.7.3-.9.6-.2.2-.3.6-.3,1s.2,1,.6,1.3c.4.3,1,.4,1.6.4Z"/>
    <path class="cls-4" d="M160.5,259.2v10.9h-1.7v-10.9h1.7ZM166,263.9v1.6h-6v-1.6h6ZM167.3,259.2v10.9h-1.7v-10.9h1.7Z"/>
    <path class="cls-4" d="M174.7,270.4c-1,0-1.8-.2-2.6-.7-.7-.5-1.3-1.1-1.7-2-.4-.8-.6-1.8-.6-3s.2-2.1.6-3c.4-.8,1-1.5,1.7-2,.7-.5,1.6-.7,2.6-.7s1.8.2,2.6.7c.7.5,1.3,1.1,1.7,2s.6,1.8.6,3-.2,2.1-.6,3-1,1.5-1.7,2c-.7.5-1.6.7-2.6.7ZM174.7,268.9c.7,0,1.4-.2,1.8-.6.5-.4.8-.9,1.1-1.5.2-.6.3-1.3.3-2s-.1-1.4-.3-2c-.2-.6-.6-1.1-1.1-1.5-.5-.4-1.1-.6-1.8-.6s-1.4.2-1.8.6c-.5.4-.8.9-1.1,1.5-.2.6-.3,1.3-.3,2s.1,1.4.3,2c.2.6.6,1.1,1.1,1.5.5.4,1.1.6,1.8.6Z"/>
    <path class="cls-4" d="M183.4,262.1c-.3,0-.6-.1-.9-.4s-.4-.6-.4-.9.1-.7.4-.9c.2-.2.5-.4.9-.4s.6.1.9.4c.2.3.4.6.4.9s0,.4-.2.6c-.1.2-.3.3-.5.5-.2.1-.4.2-.6.2ZM183.4,270.2c-.3,0-.6-.1-.9-.4s-.4-.6-.4-.9.1-.7.4-.9.5-.4.9-.4.6.1.9.4.4.6.4.9,0,.4-.2.6c-.1.2-.3.3-.5.5-.2.1-.4.2-.6.2Z"/>
  </g>
  <g>
    <path class="cls-4" d="M50,342.4h8.9v-30.1l-9.4,3.6-1.3-2.9,12.3-6.4h6.1v35.7h8.6v3.4h-25.2v-3.4Z"/>
    <path class="cls-4" d="M82.4,342.4h8.9v-30.1l-9.4,3.6-1.3-2.9,12.3-6.4h6.1v35.7h8.6v3.4h-25.2v-3.4Z"/>
    <path class="cls-4" d="M125.8,303.9h4.5l-15.7,49.9h-4.5l15.7-49.9Z"/>
    <path class="cls-4" d="M136.6,342.4h8.9v-30.1l-9.4,3.6-1.3-2.9,12.3-6.4h6.1v35.7h8.6v3.4h-25.2v-3.4Z"/>
    <path class="cls-4" d="M180.7,346.4c-4.8,0-8.4-1.7-10.8-5.2-2.4-3.5-3.6-8.5-3.6-15s1.2-11.5,3.6-15c2.4-3.5,6-5.2,10.8-5.2s8.4,1.7,10.8,5.2c2.4,3.5,3.6,8.5,3.6,15s-1.2,11.5-3.6,15c-2.4,3.5-6,5.2-10.8,5.2ZM180.7,342.8c1.3,0,2.4-.3,3.2-.8.8-.6,1.4-1.4,1.9-2.4.4-1.1.7-2.4.9-3.9.1-1.5.2-3.3.2-5.3v-8.2c0-2,0-3.7-.2-5.3-.1-1.5-.4-2.9-.9-3.9s-1.1-1.9-1.9-2.4c-.8-.6-1.9-.8-3.2-.8s-2.4.3-3.2.8c-.8.6-1.4,1.4-1.9,2.4-.4,1.1-.7,2.4-.9,3.9-.1,1.5-.2,3.3-.2,5.3v8.2c0,2,0,3.7.2,5.3.1,1.5.4,2.9.9,3.9.4,1.1,1.1,1.9,1.9,2.4.8.6,1.9.8,3.2.8Z"/>
    <path class="cls-4" d="M212.4,303.9h4.5l-15.7,49.9h-4.5l15.7-49.9Z"/>
    <path class="cls-4" d="M221.6,340.3l11.5-11.5c1.7-1.8,3.1-3.5,4.2-5.3s1.6-3.8,1.6-5.9v-1.5c0-2.2-.6-3.9-1.8-5.1-1.2-1.2-2.8-1.8-4.8-1.8s-3,.2-4,.7v.3c.6.3,1.1.7,1.5,1.3.4.6.6,1.3.6,2.1,0,1.2-.4,2.2-1.1,3-.7.8-1.7,1.2-3,1.2s-2.3-.4-3.1-1.2c-.8-.8-1.1-1.9-1.1-3.2s.3-2,.8-2.9c.5-.9,1.3-1.7,2.3-2.4,1-.7,2.2-1.2,3.7-1.6,1.4-.4,3.1-.6,4.9-.6,4.2,0,7.5.9,9.9,2.8,2.3,1.9,3.5,4.5,3.5,7.9s-.3,3.1-.8,4.4c-.5,1.3-1.3,2.6-2.2,3.7-.9,1.1-2,2.2-3.1,3.2-1.2,1-2.4,2-3.7,3.1l-10.1,8v.2h17.6v-5.1h3.7v11.5h-26.8v-5.4Z"/>
    <path class="cls-4" d="M267.3,346.4c-4.8,0-8.4-1.7-10.8-5.2-2.4-3.5-3.6-8.5-3.6-15s1.2-11.5,3.6-15c2.4-3.5,6-5.2,10.8-5.2s8.4,1.7,10.8,5.2c2.4,3.5,3.6,8.5,3.6,15s-1.2,11.5-3.6,15c-2.4,3.5-6,5.2-10.8,5.2ZM267.3,342.8c1.3,0,2.4-.3,3.2-.8.8-.6,1.4-1.4,1.9-2.4.4-1.1.7-2.4.9-3.9.1-1.5.2-3.3.2-5.3v-8.2c0-2,0-3.7-.2-5.3-.1-1.5-.4-2.9-.9-3.9s-1.1-1.9-1.9-2.4c-.8-.6-1.9-.8-3.2-.8s-2.4.3-3.2.8c-.8.6-1.4,1.4-1.9,2.4-.4,1.1-.7,2.4-.9,3.9-.1,1.5-.2,3.3-.2,5.3v8.2c0,2,0,3.7.2,5.3.1,1.5.4,2.9.9,3.9.4,1.1,1.1,1.9,1.9,2.4.8.6,1.9.8,3.2.8Z"/>
    <path class="cls-4" d="M286.4,340.3l11.5-11.5c1.7-1.8,3.1-3.5,4.2-5.3s1.6-3.8,1.6-5.9v-1.5c0-2.2-.6-3.9-1.8-5.1-1.2-1.2-2.8-1.8-4.8-1.8s-3,.2-4,.7v.3c.6.3,1.1.7,1.5,1.3.4.6.6,1.3.6,2.1,0,1.2-.4,2.2-1.1,3-.7.8-1.7,1.2-3,1.2s-2.3-.4-3.1-1.2c-.8-.8-1.1-1.9-1.1-3.2s.3-2,.8-2.9c.5-.9,1.3-1.7,2.3-2.4,1-.7,2.2-1.2,3.7-1.6,1.4-.4,3.1-.6,4.9-.6,4.2,0,7.5.9,9.9,2.8,2.3,1.9,3.5,4.5,3.5,7.9s-.3,3.1-.8,4.4c-.5,1.3-1.3,2.6-2.2,3.7-.9,1.1-2,2.2-3.1,3.2-1.2,1-2.4,2-3.7,3.1l-10.1,8v.2h17.6v-5.1h3.7v11.5h-26.8v-5.4Z"/>
    <path class="cls-4" d="M330.3,346.4c-1.9,0-3.6-.2-5.2-.6-1.5-.4-2.8-.9-3.8-1.6-1-.7-1.8-1.5-2.4-2.4-.6-.9-.8-1.8-.8-2.9s.4-2.4,1.1-3.2c.8-.8,1.8-1.2,3.1-1.2s2.3.4,3,1.2c.7.8,1.1,1.8,1.1,3s-.2,1.4-.6,2.1c-.4.6-.9,1.1-1.5,1.3v.3c.6.3,1.3.4,2.1.6.8.1,1.6.2,2.4.2,2.6,0,4.6-.5,6-1.6,1.3-1.1,2-2.9,2-5.4v-1.8c0-2.4-.7-4.1-2-5.3-1.3-1.2-3.4-1.8-6.2-1.8h-3.7v-3.8h3.6c2.7,0,4.6-.6,5.8-1.7,1.2-1.2,1.9-2.7,1.9-4.6v-1.6c0-2-.6-3.6-1.8-4.6-1.2-1.1-2.8-1.6-4.8-1.6s-3.2.2-4.3.7v.3c.6.3,1.1.7,1.5,1.3.4.6.6,1.3.6,2.1,0,1.2-.4,2.2-1.1,3-.7.8-1.7,1.2-3,1.2s-2.3-.4-3.1-1.2c-.8-.8-1.1-1.9-1.1-3.2s.3-1.9.8-2.8c.5-.9,1.3-1.7,2.3-2.4s2.2-1.2,3.7-1.6c1.5-.4,3.1-.6,5-.6,4.4,0,7.7.8,10.1,2.4,2.4,1.6,3.5,4,3.5,7.2s-.3,2.4-.9,3.5c-.6,1.1-1.3,2-2.2,2.8-.9.8-2,1.5-3.1,2-1.2.5-2.4.9-3.6,1.1v.3c1.3.2,2.6.5,3.8,1,1.3.5,2.4,1.1,3.4,1.9,1,.8,1.8,1.7,2.4,2.9.6,1.1.9,2.5.9,4,0,3.5-1.3,6.3-3.8,8.3-2.5,2.1-6.2,3.1-11,3.1Z"/>
  </g>
</svg>