<svg width="342" height="72" viewBox="0 0 342 72" fill="none" xmlns="http://www.w3.org/2000/svg">
<path fill-rule="evenodd" clip-rule="evenodd" d="M14.4212 14.4045L14.4212 6.30316e-07L28.8413 0L28.8413 14.3542H43.185L43.185 28.7618H43.2565V43.1518H57.5802V14.3795L72.0002 14.3795V43.1884H57.6479V57.5562H43.2278V43.1662H14.4165L14.4165 28.7853H0V14.3809L14.42 14.3809L14.42 28.7618H28.765L28.765 14.4044L14.4212 14.4045ZM43.2321 72.0001H14.3921L14.3921 57.5956H43.2321V72.0001Z" fill="#C3C8EC"/>
<path fill-rule="evenodd" clip-rule="evenodd" d="M104.421 14.4045L104.421 6.30316e-07L118.841 0L118.841 14.3542H133.185V28.7618H133.257V43.1518H147.58V14.3795L162 14.3795V43.1884H147.648V57.5562H133.228V43.1662H104.416L104.416 28.7853H90L90 14.3809L104.42 14.3809L104.42 28.7618H118.765L118.765 14.4044L104.421 14.4045ZM133.232 72.0001H104.392L104.392 57.5956H133.232V72.0001Z" fill="#C3C8EC"/>
<path fill-rule="evenodd" clip-rule="evenodd" d="M194.421 14.4045L194.421 6.30316e-07L208.841 0L208.841 14.3541H223.185L223.185 28.7618H223.257V43.1518H237.58V14.3795L252 14.3795V43.1884H237.648V57.5562H223.228V43.1662H194.416L194.416 28.7851H180L180 14.3807L194.42 14.3807L194.42 28.7618H208.765L208.765 14.4044L194.421 14.4045ZM223.231 72.0001H194.391L194.391 57.5956H223.231V72.0001Z" fill="#C3C8EC"/>
<path fill-rule="evenodd" clip-rule="evenodd" d="M284.421 14.4045L284.421 6.30316e-07L298.841 0L298.841 14.3541H313.185L313.185 28.7618H313.257V43.1518H327.58V14.3795L342 14.3795V43.1884H327.648V57.5562H313.228V43.1662H284.416L284.416 28.7851H270L270 14.3807L284.42 14.3807L284.42 28.7618H298.765L298.765 14.4044L284.421 14.4045ZM313.231 72.0001H284.391L284.391 57.5956H313.231V72.0001Z" fill="#C3C8EC"/>
</svg>
