<svg width="1399" height="144" viewBox="0 0 1399 144" fill="none" xmlns="http://www.w3.org/2000/svg">
<path fill-rule="evenodd" clip-rule="evenodd" d="M28.7331 28.6997L28.7331 1.25586e-06L57.4639 0V28.5994H86.042L86.042 57.3054H86.1854V85.9762H114.724V28.6498L143.455 28.6498V86.0493H114.858V114.676H86.1271V86.0052H28.7238V57.3522H0V28.6525L28.7308 28.6525L28.7308 57.3054H57.3112L57.3112 28.6997L28.7331 28.6997ZM86.136 143.454H28.6744V114.755H86.136V143.454Z" fill="#C4CCF3"/>
<path fill-rule="evenodd" clip-rule="evenodd" d="M566.689 28.6997L566.689 1.25586e-06L595.419 0V28.5994H623.997V57.3054H624.14V85.9762H652.678V28.6498L681.409 28.6498V86.0493H652.813V114.676H624.082V86.0052H566.679V57.3522H537.955L537.955 28.6524L566.686 28.6524V57.3054H595.266L595.266 28.6997L566.689 28.6997ZM624.091 143.454H566.63V114.755H624.091V143.454Z" fill="#C4CCF3"/>
<path fill-rule="evenodd" clip-rule="evenodd" d="M1104.64 28.6997L1104.64 0H1133.37V28.5994H1161.95L1161.95 57.3054H1162.1V85.9762H1190.63V28.6498L1219.36 28.6498V86.0493H1190.77V114.676H1162.04V86.0052H1104.63V57.3522H1075.91V28.6525L1104.64 28.6525V57.3054H1133.22L1133.22 28.6997L1104.64 28.6997ZM1162.05 143.454H1104.58V114.755H1162.05V143.454Z" fill="#C4CCF3"/>
<path fill-rule="evenodd" clip-rule="evenodd" d="M208.051 28.6997L208.051 1.25586e-06L236.782 0V28.5994H265.36V57.3054H265.503V85.9762H294.042V28.6498L322.772 28.6498V86.0493H294.176V114.676H265.445V86.0052H208.042V57.3522H179.318L179.318 28.6525L208.049 28.6525L208.049 57.3054H236.63L236.63 28.6997L208.051 28.6997ZM265.454 143.454H207.993V114.755H265.454V143.454Z" fill="#C4CCF3"/>
<path fill-rule="evenodd" clip-rule="evenodd" d="M746.007 28.6997L746.007 0H774.738V28.5994H803.315L803.315 57.3054H803.459V85.9762H831.996V28.6498L860.727 28.6498V86.0493H832.131V114.676H803.401V86.0052H745.997V57.3522H717.273V28.6524L746.004 28.6524V57.3054H774.584L774.584 28.6997L746.007 28.6997ZM803.41 143.454H745.948V114.755H803.41V143.454Z" fill="#C4CCF3"/>
<path fill-rule="evenodd" clip-rule="evenodd" d="M1283.96 28.6997L1283.96 0H1312.69V28.5994H1341.27L1341.27 57.3054H1341.41V85.9762H1369.95V28.6498L1398.68 28.6498V86.0493H1370.09V114.676H1341.35V86.0052H1283.95V57.3522H1255.23V28.6525L1283.96 28.6525V57.3054H1312.54L1312.54 28.6997L1283.96 28.6997ZM1341.36 143.454H1283.9V114.755H1341.36V143.454Z" fill="#C4CCF3"/>
<path fill-rule="evenodd" clip-rule="evenodd" d="M387.369 28.6997L387.369 0H416.1V28.5994H444.678V57.3054H444.822V85.9762H473.36V28.6498L502.09 28.6498V86.0493H473.495V114.676H444.764V86.0052H387.361V57.3522H358.637V28.6524L387.368 28.6524V57.3054H415.947L415.947 28.6997L387.369 28.6997ZM444.772 143.454H387.311V114.755H444.772V143.454Z" fill="#C4CCF3"/>
<path fill-rule="evenodd" clip-rule="evenodd" d="M925.323 28.6997L925.323 1.25586e-06L954.054 0V28.5994H982.631V57.3054H982.775V85.9762H1011.31V28.6498L1040.04 28.6498V86.0493H1011.45V114.676H982.717V86.0052H925.314V57.3522H896.59L896.59 28.6524L925.321 28.6524L925.321 57.3054H953.901L953.901 28.6997L925.323 28.6997ZM982.726 143.454H925.265V114.755H982.726V143.454Z" fill="#C4CCF3"/>
</svg>
