<svg xmlns="http://www.w3.org/2000/svg" width="144" height="737" viewBox="0 0 144 737" fill="none">    <g clip-path="url(#clip0_1182_525)">        <path d="M-6.29205e-06 593.055L0 737L144 737L144 593.055L-6.29205e-06 593.055Z" fill="#2B48FF"/>        <path d="M46.0801 518.203L97.9201 518.203L97.9201 483.656L115.2 483.656L115.2 535.477L28.8 535.477L28.8 483.656L46.0801 483.656L46.0801 518.203Z" fill="#16161D"/>        <path d="M46.0801 414.562L97.9201 414.562L97.9201 397.289L115.2 397.289L115.2 449.109L97.9201 449.109L97.9201 431.836L46.0801 431.836L46.0801 449.109L28.8 449.109L28.8 397.289L46.0801 397.289L46.0801 414.562Z" fill="#16161D"/>        <path d="M28.8 328.195L28.8 362.742L46.0801 362.742L46.0801 328.195L28.8 328.195Z" fill="#16161D"/>        <path d="M63.3601 310.922L97.9201 310.922L97.9201 328.195L80.6401 328.195L80.6401 345.469L63.3601 345.469L63.3601 310.922Z" fill="#16161D"/>        <path d="M97.9199 328.195L97.9199 362.742L115.2 362.742L115.2 328.195L97.9199 328.195Z" fill="#16161D"/>        <path d="M46.0801 466.383L46.0801 483.656L97.9201 483.656L97.9201 466.383L46.0801 466.383Z" fill="#16161D"/>        <path d="M46.0801 259.102L97.9201 259.102L97.9201 241.828L115.2 241.828L115.2 293.648L97.9201 293.648L97.9201 276.375L46.0801 276.375L46.0801 293.648L28.8 293.648L28.8 241.828L46.0801 241.828L46.0801 259.102Z" fill="#16161D"/>        <path d="M46.0801 17.2734L97.9201 17.2734L97.9201 -3.02133e-06L115.2 -3.77666e-06L115.2 51.8203L97.9201 51.8203L97.9201 34.5469L46.0801 34.5469L46.0801 51.8203L28.8 51.8203L28.8 0L46.0801 -7.55333e-07L46.0801 17.2734Z" fill="#16161D"/>        <path d="M28.8 207.281L28.8 224.555L97.9201 224.555L97.9201 207.281L28.8 207.281Z" fill="#16161D"/>        <path d="M57.6001 103.641L74.8801 103.641L74.8801 120.914L115.2 120.914L115.2 138.187L28.8 138.188L28.8 120.914L57.6001 120.914L57.6001 103.641Z" fill="#16161D"/>        <path d="M28.8 69.0938L115.2 69.0937L115.2 86.3672L92.1601 86.3672L92.1601 103.641L74.8801 103.641L74.8801 86.3672L28.8 86.3672L28.8 69.0938Z" fill="#16161D"/>        <path d="M28.8 155.461L115.2 155.461L115.2 207.281L97.9201 207.281L97.9201 172.734L28.8 172.734L28.8 155.461Z" fill="#16161D"/>        <path d="M46.0801 362.742L46.0801 380.016L97.9201 380.016L97.9201 362.742L46.0801 362.742Z" fill="#16161D"/>        <path d="M46.0801 690.938L46.0801 708.211L80.6401 708.211L80.6401 690.937L46.0801 690.938Z" fill="#FFE72B"/>        <path d="M63.3601 639.117L80.6401 639.117L80.6401 673.664L46.0801 673.664L46.0801 656.391L63.3601 656.391L63.3601 639.117Z" fill="#FFE72B"/>        <path d="M80.6401 673.664L80.6401 690.938L97.9201 690.937L97.9201 673.664L80.6401 673.664Z" fill="#FFE72B"/>        <path d="M28.8 639.117L28.8 656.391L46.0801 656.391L46.0801 639.117L28.8 639.117Z" fill="#FFE72B"/>        <path d="M46.0801 621.844L46.0801 639.117L63.3601 639.117L63.3601 621.844L46.0801 621.844Z" fill="#FFE72B"/>        <path d="M97.9202 639.117L97.9202 673.664L115.2 673.664L115.2 639.117L97.9202 639.117Z" fill="#FFE72B"/>    </g>    <defs>        <clipPath id="clip0_1182_525">            <rect width="737" height="144" fill="white" transform="translate(0 737) rotate(-90)"/>        </clipPath>    </defs></svg>