<svg width="230" height="118" viewBox="0 0 230 118" fill="none" xmlns="http://www.w3.org/2000/svg">
    <path d="M158.555 41.876C156.467 41.876 154.592 41.6633 152.929 41.238C151.305 40.8513 149.933 40.31 148.811 39.614C147.729 38.918 146.897 38.106 146.317 37.178C145.737 36.2113 145.447 35.1867 145.447 34.104C145.447 32.596 145.873 31.3973 146.723 30.508C147.613 29.58 148.753 29.116 150.145 29.116C151.653 29.116 152.813 29.58 153.625 30.508C154.437 31.3973 154.843 32.4993 154.843 33.814C154.843 34.4713 154.631 35.1093 154.205 35.728C153.819 36.3467 153.355 36.888 152.813 37.352V37.7C153.973 38.048 155.269 38.222 156.699 38.222C159.329 38.222 161.281 37.7193 162.557 36.714C163.833 35.67 164.471 33.8333 164.471 31.204V29.29C164.471 26.8927 163.814 25.0947 162.499 23.896C161.185 22.6973 159.058 22.098 156.119 22.098H152.581V17.806H156.119C158.903 17.806 160.895 17.2453 162.093 16.124C163.331 14.964 163.949 13.398 163.949 11.426V10.034C163.949 7.946 163.35 6.36067 162.151 5.278C160.953 4.15667 159.367 3.596 157.395 3.596C156.661 3.596 155.965 3.63467 155.307 3.712C154.689 3.78933 154.167 3.92466 153.741 4.118V4.466C154.36 4.77534 154.863 5.25867 155.249 5.916C155.675 6.57333 155.887 7.28867 155.887 8.062C155.887 9.37667 155.481 10.498 154.669 11.426C153.896 12.3153 152.755 12.76 151.247 12.76C149.817 12.76 148.657 12.3153 147.767 11.426C146.917 10.498 146.491 9.28 146.491 7.772C146.491 6.728 146.762 5.742 147.303 4.814C147.845 3.84734 148.657 3.016 149.739 2.32C150.822 1.58534 152.137 1.02467 153.683 0.637999C155.269 0.212666 157.086 0 159.135 0C168.995 0 173.925 3.26733 173.925 9.802C173.925 11.1167 173.597 12.3347 172.939 13.456C172.321 14.5773 171.489 15.5633 170.445 16.414C169.401 17.2647 168.222 17.9607 166.907 18.502C165.593 19.0433 164.278 19.3913 162.963 19.546V20.01C164.394 20.1647 165.805 20.474 167.197 20.938C168.589 21.402 169.807 22.04 170.851 22.852C171.934 23.664 172.804 24.6693 173.461 25.868C174.119 27.028 174.447 28.4007 174.447 29.986C174.447 33.582 173.113 36.4627 170.445 38.628C167.816 40.7933 163.853 41.876 158.555 41.876Z" fill="black"/>
    <path d="M110.555 34.8L122.039 23.432C123.817 21.692 125.267 19.9133 126.389 18.096C127.549 16.2787 128.129 14.2873 128.129 12.122V10.44C128.129 8.19734 127.529 6.496 126.331 5.336C125.171 4.176 123.605 3.596 121.633 3.596C120.318 3.596 119.197 3.77 118.269 4.118V4.466C118.887 4.89133 119.39 5.394 119.777 5.974C120.163 6.554 120.357 7.25 120.357 8.062C120.357 9.338 119.97 10.44 119.197 11.368C118.423 12.296 117.263 12.76 115.717 12.76C114.325 12.76 113.184 12.3153 112.295 11.426C111.405 10.498 110.961 9.28 110.961 7.772C110.961 6.68933 111.231 5.684 111.773 4.756C112.353 3.78933 113.165 2.958 114.209 2.262C115.291 1.566 116.606 1.02467 118.153 0.637999C119.699 0.212666 121.459 0 123.431 0C128.148 0 131.763 0.966668 134.277 2.9C136.829 4.83334 138.105 7.598 138.105 11.194C138.105 12.818 137.795 14.3067 137.177 15.66C136.597 16.9747 135.804 18.212 134.799 19.372C133.832 20.532 132.711 21.634 131.435 22.678C130.159 23.6833 128.825 24.708 127.433 25.752L117.109 33.408V33.64H135.147V28.536H139.323V41.18H110.555V34.8Z" fill="black"/>
    <path d="M90.8577 37.7C92.1337 37.7 93.139 37.4293 93.8737 36.888C94.6084 36.3467 95.1497 35.554 95.4977 34.51C95.8457 33.4273 96.0584 32.1127 96.1357 30.566C96.2517 29.0193 96.3097 27.2213 96.3097 25.172V16.704C96.3097 14.6933 96.2517 12.9147 96.1357 11.368C96.0584 9.78267 95.8457 8.468 95.4977 7.424C95.1497 6.34134 94.6084 5.52933 93.8737 4.988C93.139 4.44667 92.1337 4.176 90.8577 4.176C89.5817 4.176 88.5764 4.44667 87.8417 4.988C87.107 5.52933 86.5657 6.34134 86.2177 7.424C85.8697 8.468 85.6377 9.78267 85.5217 11.368C85.4444 12.9147 85.4057 14.6933 85.4057 16.704V25.172C85.4057 27.2213 85.4444 29.0193 85.5217 30.566C85.6377 32.1127 85.8697 33.4273 86.2177 34.51C86.5657 35.554 87.107 36.3467 87.8417 36.888C88.5764 37.4293 89.5817 37.7 90.8577 37.7ZM90.8577 41.876C85.6764 41.876 81.8097 40.078 79.2577 36.482C76.7057 32.8473 75.4297 27.666 75.4297 20.938C75.4297 14.21 76.7057 9.048 79.2577 5.452C81.8097 1.81733 85.6764 0 90.8577 0C96.039 0 99.9057 1.81733 102.458 5.452C105.01 9.048 106.286 14.21 106.286 20.938C106.286 27.666 105.01 32.8473 102.458 36.482C99.9057 40.078 96.039 41.876 90.8577 41.876Z" fill="black"/>
    <path d="M41 34.8L52.484 23.432C54.2627 21.692 55.7127 19.9133 56.834 18.096C57.994 16.2787 58.574 14.2873 58.574 12.122V10.44C58.574 8.19734 57.9747 6.496 56.776 5.336C55.616 4.176 54.05 3.596 52.078 3.596C50.7633 3.596 49.642 3.77 48.714 4.118V4.466C49.3327 4.89133 49.8353 5.394 50.222 5.974C50.6087 6.554 50.802 7.25 50.802 8.062C50.802 9.338 50.4153 10.44 49.642 11.368C48.8687 12.296 47.7087 12.76 46.162 12.76C44.77 12.76 43.6293 12.3153 42.74 11.426C41.8507 10.498 41.406 9.28 41.406 7.772C41.406 6.68933 41.6767 5.684 42.218 4.756C42.798 3.78933 43.61 2.958 44.654 2.262C45.7367 1.566 47.0513 1.02467 48.598 0.637999C50.1447 0.212666 51.904 0 53.876 0C58.5933 0 62.2087 0.966668 64.722 2.9C67.274 4.83334 68.55 7.598 68.55 11.194C68.55 12.818 68.2407 14.3067 67.622 15.66C67.042 16.9747 66.2493 18.212 65.244 19.372C64.2773 20.532 63.156 21.634 61.88 22.678C60.604 23.6833 59.27 24.708 57.878 25.752L47.554 33.408V33.64H65.592V28.536H69.768V41.18H41V34.8Z" fill="black"/>
    <path d="M206.533 115.956H209.789V89.336L206.533 88.764V87.268L213.397 85.948V89.908H213.573C214.072 88.8227 214.864 87.8987 215.949 87.136C217.035 86.344 218.472 85.948 220.261 85.948C223.077 85.948 225.321 86.9747 226.993 89.028C228.695 91.052 229.545 93.9853 229.545 97.828C229.545 101.671 228.695 104.619 226.993 106.672C225.321 108.696 223.077 109.708 220.261 109.708C218.501 109.708 217.064 109.327 215.949 108.564C214.864 107.801 214.072 106.877 213.573 105.792H213.397V115.956H217.533V117.98H206.533V115.956ZM219.205 107.2C221.229 107.2 222.799 106.525 223.913 105.176C225.057 103.797 225.629 101.964 225.629 99.676V95.98C225.629 93.692 225.057 91.8733 223.913 90.524C222.799 89.1453 221.229 88.456 219.205 88.456C218.501 88.456 217.797 88.5587 217.093 88.764C216.389 88.9693 215.759 89.2627 215.201 89.644C214.673 90.0253 214.233 90.5093 213.881 91.096C213.559 91.6533 213.397 92.284 213.397 92.988V102.668C213.397 103.372 213.559 104.017 213.881 104.604C214.233 105.161 214.673 105.631 215.201 106.012C215.759 106.393 216.389 106.687 217.093 106.892C217.797 107.097 218.501 107.2 219.205 107.2Z" fill="black"/>
    <path d="M179.549 115.956H182.805V89.336L179.549 88.764V87.268L186.413 85.948V89.908H186.589C187.088 88.8227 187.879 87.8987 188.965 87.136C190.05 86.344 191.488 85.948 193.277 85.948C196.093 85.948 198.337 86.9747 200.009 89.028C201.71 91.052 202.561 93.9853 202.561 97.828C202.561 101.671 201.71 104.619 200.009 106.672C198.337 108.696 196.093 109.708 193.277 109.708C191.517 109.708 190.079 109.327 188.965 108.564C187.879 107.801 187.088 106.877 186.589 105.792H186.413V115.956H190.549V117.98H179.549V115.956ZM192.221 107.2C194.245 107.2 195.814 106.525 196.929 105.176C198.073 103.797 198.645 101.964 198.645 99.676V95.98C198.645 93.692 198.073 91.8733 196.929 90.524C195.814 89.1453 194.245 88.456 192.221 88.456C191.517 88.456 190.813 88.5587 190.109 88.764C189.405 88.9693 188.774 89.2627 188.217 89.644C187.689 90.0253 187.249 90.5093 186.897 91.096C186.574 91.6533 186.413 92.284 186.413 92.988V102.668C186.413 103.372 186.574 104.017 186.897 104.604C187.249 105.161 187.689 105.631 188.217 106.012C188.774 106.393 189.405 106.687 190.109 106.892C190.813 107.097 191.517 107.2 192.221 107.2Z" fill="black"/>
    <path d="M169.055 77.164H150.785V83.196H146.551V68.696H174.507V75.83L161.399 109.18H152.293L169.055 77.164Z" fill="black"/>
    <path d="M110.555 102.8L122.039 91.432C123.817 89.692 125.267 87.9133 126.389 86.096C127.549 84.2787 128.129 82.2873 128.129 80.122V78.44C128.129 76.1973 127.529 74.496 126.331 73.336C125.171 72.176 123.605 71.596 121.633 71.596C120.318 71.596 119.197 71.77 118.269 72.118V72.466C118.887 72.8913 119.39 73.394 119.777 73.974C120.163 74.554 120.357 75.25 120.357 76.062C120.357 77.338 119.97 78.44 119.197 79.368C118.423 80.296 117.263 80.76 115.717 80.76C114.325 80.76 113.184 80.3153 112.295 79.426C111.405 78.498 110.961 77.28 110.961 75.772C110.961 74.6893 111.231 73.684 111.773 72.756C112.353 71.7893 113.165 70.958 114.209 70.262C115.291 69.566 116.606 69.0247 118.153 68.638C119.699 68.2127 121.459 68 123.431 68C128.148 68 131.763 68.9667 134.277 70.9C136.829 72.8333 138.105 75.598 138.105 79.194C138.105 80.818 137.795 82.3067 137.177 83.66C136.597 84.9747 135.804 86.212 134.799 87.372C133.832 88.532 132.711 89.634 131.435 90.678C130.159 91.6833 128.825 92.708 127.433 93.752L117.109 101.408V101.64H135.147V96.536H139.323V109.18H110.555V102.8Z" fill="black"/>
    <path d="M90.8577 105.7C92.1337 105.7 93.139 105.429 93.8737 104.888C94.6084 104.347 95.1497 103.554 95.4977 102.51C95.8457 101.427 96.0584 100.113 96.1357 98.566C96.2517 97.0193 96.3097 95.2213 96.3097 93.172V84.704C96.3097 82.6933 96.2517 80.9147 96.1357 79.368C96.0584 77.7827 95.8457 76.468 95.4977 75.424C95.1497 74.3413 94.6084 73.5293 93.8737 72.988C93.139 72.4467 92.1337 72.176 90.8577 72.176C89.5817 72.176 88.5764 72.4467 87.8417 72.988C87.107 73.5293 86.5657 74.3413 86.2177 75.424C85.8697 76.468 85.6377 77.7827 85.5217 79.368C85.4444 80.9147 85.4057 82.6933 85.4057 84.704V93.172C85.4057 95.2213 85.4444 97.0193 85.5217 98.566C85.6377 100.113 85.8697 101.427 86.2177 102.51C86.5657 103.554 87.107 104.347 87.8417 104.888C88.5764 105.429 89.5817 105.7 90.8577 105.7ZM90.8577 109.876C85.6764 109.876 81.8097 108.078 79.2577 104.482C76.7057 100.847 75.4297 95.666 75.4297 88.938C75.4297 82.21 76.7057 77.048 79.2577 73.452C81.8097 69.8173 85.6764 68 90.8577 68C96.039 68 99.9057 69.8173 102.458 73.452C105.01 77.048 106.286 82.21 106.286 88.938C106.286 95.666 105.01 100.847 102.458 104.482C99.9057 108.078 96.039 109.876 90.8577 109.876Z" fill="black"/>
    <path d="M41 102.8L52.484 91.432C54.2627 89.692 55.7127 87.9133 56.834 86.096C57.994 84.2787 58.574 82.2873 58.574 80.122V78.44C58.574 76.1973 57.9747 74.496 56.776 73.336C55.616 72.176 54.05 71.596 52.078 71.596C50.7633 71.596 49.642 71.77 48.714 72.118V72.466C49.3327 72.8913 49.8353 73.394 50.222 73.974C50.6087 74.554 50.802 75.25 50.802 76.062C50.802 77.338 50.4153 78.44 49.642 79.368C48.8687 80.296 47.7087 80.76 46.162 80.76C44.77 80.76 43.6293 80.3153 42.74 79.426C41.8507 78.498 41.406 77.28 41.406 75.772C41.406 74.6893 41.6767 73.684 42.218 72.756C42.798 71.7893 43.61 70.958 44.654 70.262C45.7367 69.566 47.0513 69.0247 48.598 68.638C50.1447 68.2127 51.904 68 53.876 68C58.5933 68 62.2087 68.9667 64.722 70.9C67.274 72.8333 68.55 75.598 68.55 79.194C68.55 80.818 68.2407 82.3067 67.622 83.66C67.042 84.9747 66.2493 86.212 65.244 87.372C64.2773 88.532 63.156 89.634 61.88 90.678C60.604 91.6833 59.27 92.708 57.878 93.752L47.554 101.408V101.64H65.592V96.536H69.768V109.18H41V102.8Z" fill="black"/>
    <path d="M7 10L7 111" stroke="#C3C6E3"/>
    <rect x="6" y="111" width="2" height="2" fill="#C3C6E3"/>
    <rect x="4" y="109" width="2" height="2" fill="#C3C6E3"/>
    <rect x="2" y="107" width="2" height="2" fill="#C3C6E3"/>
    <rect y="105" width="2" height="2" fill="#C3C6E3"/>
    <rect x="8" y="111" width="2" height="2" transform="rotate(90 8 111)" fill="#C3C6E3"/>
    <rect x="10" y="109" width="2" height="2" transform="rotate(90 10 109)" fill="#C3C6E3"/>
    <rect x="12" y="107" width="2" height="2" transform="rotate(90 12 107)" fill="#C3C6E3"/>
    <rect x="14" y="105" width="2" height="2" transform="rotate(90 14 105)" fill="#C3C6E3"/>
    <rect x="6.94922" y="1.70711" width="6" height="6" transform="rotate(45 6.94922 1.70711)" stroke="#C3C6E3"/>
</svg>