<svg width="21" height="21" viewBox="0 0 21 21" fill="none" xmlns="http://www.w3.org/2000/svg">
<g clip-path="url(#clip0_242_2323)">
<path d="M17.8125 0.5H2.8125C1.43375 0.5 0.3125 1.62125 0.3125 3V18C0.3125 19.3788 1.43375 20.5 2.8125 20.5H10.3125V13.625H7.8125V10.5H10.3125V8C10.3125 7.00544 10.7076 6.05161 11.4108 5.34835C12.1141 4.64509 13.0679 4.25 14.0625 4.25H16.5625V7.375H15.3125C14.6225 7.375 14.0625 7.31 14.0625 8V10.5H17.1875L15.9375 13.625H14.0625V20.5H17.8125C19.1913 20.5 20.3125 19.3788 20.3125 18V3C20.3125 1.62125 19.1913 0.5 17.8125 0.5Z" fill="#16161D"/>
</g>
<defs>
<clipPath id="clip0_242_2323">
<rect width="20" height="20" fill="white" transform="translate(0.3125 0.5)"/>
</clipPath>
</defs>
</svg>
