<svg width="74" height="63" viewBox="0 0 74 63" fill="none" xmlns="http://www.w3.org/2000/svg">
<g clip-path="url(#clip0_842_185)">
<path d="M59.0594 40.8246V38.103H61.7691V11.7937H64.9304V41.2782H62.2207V43.9999H15.2529V40.8246H59.0594Z" fill="black" fill-opacity="0.2"/>
<path d="M61.7694 38.1031H59.0597V40.8247H11.6403V38.1031H8.93066V2.76701L11.6403 2.72165V0H44.6081V2.72165H14.35V5.4433H11.6403V35.3814H14.35V38.1031H56.35V35.3814H59.0597V11.3402H56.35V8.16495H47.3178V5.4433H59.0597V8.61856H61.7694V38.1031Z" fill="#E5CE1B"/>
<path d="M59.06 35.3815H56.3503V38.1031H14.3503V35.3815H11.6406V5.44333H14.3503V2.72168H47.318V8.16498H56.3503V11.3402H59.06V35.3815Z" fill="#FFE72B"/>
<path fill-rule="evenodd" clip-rule="evenodd" d="M36.2987 18.5978C36.2084 20.7298 36.7955 22.8617 38.0149 24.7215C38.1052 24.8576 38.1955 24.9937 38.2407 25.1298L38.8729 24.9937C39.0084 24.9937 39.1891 24.903 39.3245 24.8123C39.46 24.7215 39.5503 24.6308 39.6407 24.4947C39.731 24.3586 39.7762 24.2226 39.8213 24.0865C39.8213 23.9504 39.8213 23.8143 39.8213 23.6782C39.8213 23.5422 39.731 23.4061 39.6407 23.27C39.5503 23.1339 39.4149 23.0432 39.2794 22.9978C39.1439 22.9071 39.0084 22.8617 38.8278 22.8617C38.6923 22.8617 38.5116 22.8617 38.3762 22.8617L38.9633 18.1896C39.0987 17.1009 39.5503 16.0576 40.2278 15.1504C40.9052 14.2432 41.8084 13.5174 42.8923 12.9731V28.804H38.8278C38.5568 30.2556 37.6987 31.5257 36.4342 32.3875C36.0729 32.569 35.802 32.8411 35.6213 33.1586C35.4407 32.8411 35.1245 32.569 34.8084 32.3875C33.5439 31.4803 32.731 30.2102 32.4149 28.804H28.3955V12.9731C29.4794 13.5174 30.3826 14.2432 31.06 15.1504C31.7374 16.0576 32.1439 17.1009 32.3245 18.1896L32.9116 22.8617C32.7762 22.8617 32.5955 22.8617 32.46 22.8617C32.3245 22.8617 32.1439 22.9525 32.0084 22.9978C31.8729 23.0885 31.7374 23.1793 31.6471 23.27C31.5568 23.4061 31.5116 23.5422 31.4665 23.6782C31.4665 23.8143 31.4665 23.9504 31.4665 24.0865C31.4665 24.2226 31.5568 24.3586 31.6471 24.4947C31.7374 24.6308 31.8278 24.7215 31.9633 24.8123C32.0987 24.903 32.2342 24.9483 32.4149 24.9937L33.0471 25.1298C33.1374 24.9937 33.1826 24.8576 33.2729 24.7215C34.4471 22.8617 35.0342 20.7298 34.9891 18.5978L34.8084 13.6535C34.8084 12.7916 35.1245 11.9751 35.7116 11.3401C36.3439 11.9751 36.66 12.7916 36.6149 13.6535L36.4342 18.5978H36.2987ZM32.46 26.1277L32.0084 26.037C31.5116 25.9463 31.06 25.7195 30.7439 25.3566C30.4729 25.0844 30.2923 24.7669 30.202 24.4494H29.5245V27.7153H32.2342C32.2342 27.171 32.3245 26.6267 32.46 26.1277ZM33.4536 27.7153C33.4536 27.2617 33.5439 26.8081 33.6794 26.3545H33.8149C34.131 26.4452 34.4471 26.6267 34.6729 26.8535C34.8987 27.0803 34.9891 27.3978 34.9891 27.7153H33.4987H33.4536ZM33.5891 28.8494C33.8149 29.7112 34.2665 30.5277 34.9439 31.1628V28.8494H33.5891ZM35.5762 26.1731C35.2149 25.7648 34.7181 25.4473 34.131 25.3566C34.131 25.3566 34.131 25.3112 34.1762 25.2659C34.7633 24.3133 35.26 23.3607 35.5762 22.3174C35.8923 23.3607 36.3439 24.3586 36.9762 25.2659C36.9762 25.2659 36.9762 25.3112 37.0213 25.3566C36.4342 25.4927 35.9374 25.7648 35.5762 26.1731ZM29.5245 23.3607V15.2411C30.3374 16.103 30.8794 17.1916 31.0149 18.3257L31.5116 21.9545C31.06 22.136 30.6987 22.4535 30.4729 22.8617C30.3826 23.0432 30.2923 23.1793 30.2471 23.3607H29.5697H29.5245ZM36.1633 31.1174V28.804H37.5181C37.2923 29.6659 36.8407 30.4824 36.1633 31.1174ZM36.1633 27.7153H37.6536C37.6536 27.2617 37.5633 26.8081 37.4278 26.3545H37.2923C36.9762 26.4452 36.66 26.6267 36.4342 26.8535C36.2084 27.0803 36.1181 27.3978 36.1181 27.7153H36.1633ZM38.6471 26.1277C38.8278 26.6267 38.8729 27.171 38.8729 27.7153H41.5826V24.4494H40.9052C40.8149 24.7669 40.6342 25.0844 40.3633 25.3566C40.0471 25.6741 39.5955 25.9463 39.0987 26.037L38.6471 26.1277ZM41.6278 15.2411V23.3607H40.9503C40.9052 23.1793 40.8149 22.9978 40.7245 22.8617C40.4987 22.4535 40.0923 22.136 39.6858 21.9545L40.1826 18.3257C40.3181 17.1916 40.86 16.1483 41.6729 15.2411H41.6278Z" fill="#E5CE1B"/>
<path d="M47.3181 2.72168H44.6084V5.44333H47.3181V2.72168Z" fill="#E5CE1B"/>
</g>
<path d="M71.1374 62.52C70.4654 62.52 69.8854 62.412 69.3974 62.196C68.9174 61.98 68.5294 61.692 68.2334 61.332L69.0374 60.612C69.3094 60.908 69.6134 61.136 69.9494 61.296C70.2934 61.448 70.6974 61.524 71.1614 61.524C71.5854 61.524 71.9254 61.452 72.1814 61.308C72.4454 61.164 72.5774 60.94 72.5774 60.636C72.5774 60.508 72.5534 60.4 72.5054 60.312C72.4574 60.224 72.3894 60.152 72.3014 60.096C72.2134 60.04 72.1094 59.996 71.9894 59.964C71.8774 59.932 71.7574 59.908 71.6294 59.892L70.6454 59.736C70.4054 59.704 70.1614 59.652 69.9134 59.58C69.6654 59.508 69.4414 59.408 69.2414 59.28C69.0494 59.144 68.8894 58.972 68.7614 58.764C68.6414 58.556 68.5814 58.292 68.5814 57.972C68.5814 57.34 68.8214 56.86 69.3014 56.532C69.7894 56.204 70.4294 56.04 71.2214 56.04C71.7974 56.04 72.2934 56.128 72.7094 56.304C73.1334 56.472 73.4854 56.708 73.7654 57.012L73.0334 57.78C72.8734 57.596 72.6454 57.428 72.3494 57.276C72.0534 57.116 71.6614 57.036 71.1734 57.036C70.3014 57.036 69.8654 57.312 69.8654 57.864C69.8654 58.128 69.9574 58.312 70.1414 58.416C70.3334 58.512 70.5574 58.576 70.8134 58.608L71.7974 58.764C72.0454 58.804 72.2894 58.856 72.5294 58.92C72.7774 58.984 72.9974 59.084 73.1894 59.22C73.3894 59.348 73.5494 59.516 73.6694 59.724C73.7974 59.932 73.8614 60.196 73.8614 60.516C73.8614 61.14 73.6174 61.632 73.1294 61.992C72.6494 62.344 71.9854 62.52 71.1374 62.52Z" fill="black"/>
<path d="M61.6016 61.3201H63.2456V57.2401H61.6016V56.1841H64.5536V57.8281H64.6256C64.6816 57.6121 64.7616 57.4041 64.8656 57.2041C64.9696 57.0041 65.1016 56.8321 65.2616 56.6881C65.4216 56.5361 65.6176 56.4161 65.8496 56.3281C66.0816 56.2321 66.3536 56.1841 66.6656 56.1841H67.4096V57.4321H66.1856C65.7056 57.4321 65.3136 57.5761 65.0096 57.8641C64.7056 58.1441 64.5536 58.5241 64.5536 59.0041V61.3201H66.7976V62.3761H61.6016V61.3201Z" fill="black"/>
<path d="M57.5862 62.52C57.1142 62.52 56.6902 62.444 56.3142 62.292C55.9382 62.14 55.6222 61.924 55.3662 61.644C55.1102 61.364 54.9142 61.028 54.7782 60.636C54.6422 60.236 54.5742 59.788 54.5742 59.292C54.5742 58.796 54.6422 58.348 54.7782 57.948C54.9222 57.548 55.1182 57.208 55.3662 56.928C55.6222 56.64 55.9302 56.42 56.2902 56.268C56.6502 56.116 57.0502 56.04 57.4902 56.04C57.9222 56.04 58.3142 56.116 58.6662 56.268C59.0182 56.412 59.3182 56.62 59.5662 56.892C59.8142 57.164 60.0022 57.488 60.1302 57.864C60.2662 58.24 60.3342 58.656 60.3342 59.112V59.604H55.8942V59.808C55.8942 60.296 56.0462 60.696 56.3502 61.008C56.6542 61.312 57.0742 61.464 57.6102 61.464C58.0102 61.464 58.3502 61.38 58.6302 61.212C58.9182 61.036 59.1502 60.804 59.3262 60.516L60.1422 61.236C59.9342 61.596 59.6142 61.9 59.1822 62.148C58.7582 62.396 58.2262 62.52 57.5862 62.52ZM57.4902 57.036C57.2582 57.036 57.0422 57.076 56.8422 57.156C56.6502 57.236 56.4822 57.352 56.3382 57.504C56.2022 57.648 56.0942 57.82 56.0142 58.02C55.9342 58.22 55.8942 58.44 55.8942 58.68V58.764H59.0022V58.644C59.0022 58.156 58.8622 57.768 58.5822 57.48C58.3102 57.184 57.9462 57.036 57.4902 57.036Z" fill="black"/>
<path d="M48.0273 62.376V56.184H49.3353V57.24H49.3953C49.4593 57.08 49.5393 56.928 49.6353 56.784C49.7393 56.632 49.8633 56.504 50.0073 56.4C50.1513 56.288 50.3193 56.2 50.5113 56.136C50.7033 56.072 50.9273 56.04 51.1833 56.04C51.8073 56.04 52.3113 56.244 52.6953 56.652C53.0793 57.06 53.2713 57.64 53.2713 58.392V62.376H51.9633V58.584C51.9633 57.6 51.5353 57.108 50.6793 57.108C50.5113 57.108 50.3473 57.132 50.1873 57.18C50.0273 57.22 49.8833 57.284 49.7553 57.372C49.6273 57.46 49.5233 57.572 49.4433 57.708C49.3713 57.844 49.3353 58 49.3353 58.176V62.376H48.0273Z" fill="black"/>
<path d="M44.1561 62.376C43.6121 62.376 43.2121 62.232 42.9561 61.944C42.7001 61.648 42.5721 61.268 42.5721 60.804V57.24H40.6641V56.184H42.0201C42.2521 56.184 42.4161 56.14 42.5121 56.052C42.6081 55.956 42.6561 55.788 42.6561 55.548V54H43.8801V56.184H46.5201V57.24H43.8801V61.32H46.5201V62.376H44.1561Z" fill="black"/>
<path d="M34.2607 61.3201H35.9047V57.2401H34.2607V56.1841H37.2127V57.8281H37.2847C37.3407 57.6121 37.4207 57.4041 37.5247 57.2041C37.6287 57.0041 37.7607 56.8321 37.9207 56.6881C38.0807 56.5361 38.2767 56.4161 38.5087 56.3281C38.7407 56.2321 39.0127 56.1841 39.3247 56.1841H40.0687V57.4321H38.8447C38.3647 57.4321 37.9727 57.5761 37.6687 57.8641C37.3647 58.1441 37.2127 58.5241 37.2127 59.0041V61.3201H39.4567V62.3761H34.2607V61.3201Z" fill="black"/>
<path d="M32.4174 62.376C32.0414 62.376 31.7574 62.28 31.5654 62.088C31.3814 61.896 31.2694 61.644 31.2294 61.332H31.1694C31.0494 61.708 30.8294 62 30.5094 62.208C30.1974 62.416 29.7974 62.52 29.3094 62.52C28.6774 62.52 28.1734 62.356 27.7974 62.028C27.4214 61.692 27.2334 61.232 27.2334 60.648C27.2334 60.048 27.4534 59.592 27.8934 59.28C28.3414 58.96 29.0254 58.8 29.9454 58.8H31.1334V58.32C31.1334 57.48 30.6894 57.06 29.8014 57.06C29.4014 57.06 29.0774 57.14 28.8294 57.3C28.5814 57.452 28.3734 57.656 28.2054 57.912L27.4254 57.276C27.6014 56.94 27.8974 56.652 28.3134 56.412C28.7294 56.164 29.2654 56.04 29.9214 56.04C30.7054 56.04 31.3214 56.228 31.7694 56.604C32.2174 56.98 32.4414 57.524 32.4414 58.236V61.344H33.2214V62.376H32.4174ZM29.6814 61.56C30.1054 61.56 30.4534 61.464 30.7254 61.272C30.9974 61.08 31.1334 60.832 31.1334 60.528V59.628H29.9694C29.0254 59.628 28.5534 59.912 28.5534 60.48V60.72C28.5534 61 28.6534 61.212 28.8534 61.356C29.0534 61.492 29.3294 61.56 29.6814 61.56Z" fill="black"/>
<path d="M20.6855 62.376V54H23.8175C24.6175 54 25.2255 54.224 25.6415 54.672C26.0655 55.12 26.2775 55.736 26.2775 56.52C26.2775 57.304 26.0655 57.92 25.6415 58.368C25.2255 58.816 24.6175 59.04 23.8175 59.04H22.0295V62.376H20.6855ZM22.0295 57.924H23.6135C24.4455 57.924 24.8615 57.54 24.8615 56.772V56.256C24.8615 55.496 24.4455 55.116 23.6135 55.116H22.0295V57.924Z" fill="black"/>
<path d="M11.5511 62.376L10.9151 60.144H8.25107L7.61507 62.376H6.24707L8.69507 54H10.5311L12.9791 62.376H11.5511ZM9.63107 55.356H9.53507L8.50307 59.028H10.6631L9.63107 55.356Z" fill="black"/>
<path d="M1.344 54V59.148C1.344 59.492 1.352 59.804 1.368 60.084C1.392 60.364 1.452 60.604 1.548 60.804C1.644 60.996 1.788 61.144 1.98 61.248C2.172 61.352 2.436 61.404 2.772 61.404C3.108 61.404 3.372 61.352 3.564 61.248C3.756 61.144 3.9 60.996 3.996 60.804C4.092 60.604 4.148 60.364 4.164 60.084C4.188 59.804 4.2 59.492 4.2 59.148V54H5.544V58.908C5.544 59.508 5.508 60.036 5.436 60.492C5.372 60.94 5.24 61.316 5.04 61.62C4.84 61.916 4.556 62.14 4.188 62.292C3.828 62.444 3.356 62.52 2.772 62.52C2.188 62.52 1.712 62.444 1.344 62.292C0.984 62.14 0.704 61.916 0.504 61.62C0.304 61.316 0.168 60.94 0.096 60.492C0.0319999 60.036 0 59.508 0 58.908V54H1.344Z" fill="black"/>
<defs>
<clipPath id="clip0_842_185">
<rect width="56" height="44" fill="white" transform="translate(8.93066)"/>
</clipPath>
</defs>
</svg>
