<?xml version="1.0" encoding="UTF-8" standalone="no"?>
<!-- Created with Inkscape (http://www.inkscape.org/) -->

<svg
   xmlns:dc="http://purl.org/dc/elements/1.1/"
   xmlns:cc="http://creativecommons.org/ns#"
   xmlns:rdf="http://www.w3.org/1999/02/22-rdf-syntax-ns#"
   xmlns:svg="http://www.w3.org/2000/svg"
   xmlns="http://www.w3.org/2000/svg"
   xmlns:sodipodi="http://sodipodi.sourceforge.net/DTD/sodipodi-0.dtd"
   xmlns:inkscape="http://www.inkscape.org/namespaces/inkscape"
   width="270.41068"
   height="54.744019"
   viewBox="0 0 71.546157 14.484355"
   version="1.1"
   id="svg3927"
   inkscape:version="0.92.0 r15299"
   sodipodi:docname="european university assn.svg">
  <defs
     id="defs3921">
    <clipPath
       id="clipPath3540"
       clipPathUnits="userSpaceOnUse">
      <path
         inkscape:connector-curvature="0"
         id="path3538"
         d="M 0,0 H 595.276 V 841.89 H 0 Z" />
    </clipPath>
    <clipPath
       id="clipPath3504"
       clipPathUnits="userSpaceOnUse">
      <path
         inkscape:connector-curvature="0"
         id="path3502"
         d="M 0,0 H 595.276 V 841.89 H 0 Z" />
    </clipPath>
    <clipPath
       id="clipPath3474"
       clipPathUnits="userSpaceOnUse">
      <path
         inkscape:connector-curvature="0"
         id="path3472"
         d="M 0,0 H 595.276 V 841.89 H 0 Z" />
    </clipPath>
    <clipPath
       id="clipPath3448"
       clipPathUnits="userSpaceOnUse">
      <path
         inkscape:connector-curvature="0"
         id="path3446"
         d="M 0,0 H 595.276 V 841.89 H 0 Z" />
    </clipPath>
    <clipPath
       id="clipPath3412"
       clipPathUnits="userSpaceOnUse">
      <path
         inkscape:connector-curvature="0"
         id="path3410"
         d="M 0,0 H 595.276 V 841.89 H 0 Z" />
    </clipPath>
    <clipPath
       id="clipPath3388"
       clipPathUnits="userSpaceOnUse">
      <path
         inkscape:connector-curvature="0"
         id="path3386"
         d="M 0,0 H 595.276 V 841.89 H 0 Z" />
    </clipPath>
  </defs>
  <sodipodi:namedview
     id="base"
     pagecolor="#ffffff"
     bordercolor="#666666"
     borderopacity="1.0"
     inkscape:pageopacity="0.0"
     inkscape:pageshadow="2"
     inkscape:zoom="2.9879589"
     inkscape:cx="150.10247"
     inkscape:cy="26.371994"
     inkscape:document-units="mm"
     inkscape:current-layer="layer1"
     showgrid="false"
     fit-margin-top="0"
     fit-margin-left="0"
     fit-margin-right="0"
     fit-margin-bottom="0"
     units="px"
     inkscape:window-width="1280"
     inkscape:window-height="744"
     inkscape:window-x="-4"
     inkscape:window-y="-4"
     inkscape:window-maximized="1" />
  <metadata
     id="metadata3924">
    <rdf:RDF>
      <cc:Work
         rdf:about="">
        <dc:format>image/svg+xml</dc:format>
        <dc:type
           rdf:resource="http://purl.org/dc/dcmitype/StillImage" />
        <dc:title></dc:title>
      </cc:Work>
    </rdf:RDF>
  </metadata>
  <g
     inkscape:label="Layer 1"
     inkscape:groupmode="layer"
     id="layer1"
     transform="translate(-46.134362,-216.16586)">
    <g
       id="g4227"
       transform="translate(0.26458489,-0.26457869)">
      <path
         d="m 67.564589,227.13019 c -1.418872,0.7366 -3.465336,1.33703 -4.447822,1.33703 -0.845256,0 -1.282347,-0.3549 -1.282347,-1.22802 v -9.63683 l -2.180872,-0.90735 h -0.111125 v 10.57169 c 0,2.04647 0.764116,3.3835 2.892424,3.3835 1.582914,0 3.875264,-0.70979 5.348464,-1.41923 l 0.218017,1.14653 h 1.855964 v -12.74128 l -2.17417,-0.90416 -0.118533,-0.003 z"
         style="fill:#00b6ed;fill-opacity:1;fill-rule:nonzero;stroke:none;stroke-width:0.35277778"
         id="path3392"
         inkscape:connector-curvature="0" />
      <path
         d="m 56.340576,224.62 v -2.78377 c 0,-2.7566 -1.065036,-5.02179 -4.993922,-5.02179 -3.956756,0 -5.212292,2.21086 -5.212292,4.96711 v 3.98462 c 0,3.00109 1.337734,4.88386 5.265914,4.88386 1.265767,0 2.592564,-0.17357 3.707342,-0.46108 l 0.70238,-2.03694 -0.01588,-0.0942 c -1.445683,0.38206 -2.891719,0.6283 -4.201936,0.6283 -2.592916,0 -3.165827,-0.84667 -3.165827,-2.94781 V 224.62 Z m -7.914216,-3.00179 c 0,-1.85596 0.764116,-2.89277 2.920294,-2.89277 2.156178,0 2.783769,1.03681 2.783769,2.89277 v 1.09115 H 48.42636 Z"
         style="fill:#00b6ed;fill-opacity:1;fill-rule:nonzero;stroke:none;stroke-width:0.35277778"
         id="path3396"
         inkscape:connector-curvature="0" />
      <path
         d="m 77.784208,216.81441 c -1.218494,0 -2.468033,0.14676 -3.639608,0.40569 l -0.668161,1.93922 0.01623,0.0935 c 1.036814,-0.21837 2.87267,-0.47272 4.154664,-0.47272 2.155825,0 2.893131,0.57256 2.893131,2.23696 v 2.07398 h -3.547886 c -2.674761,0 -4.066117,0.98284 -4.066117,3.73874 0,2.34738 1.036814,3.82023 3.519664,3.82023 1.610783,0 3.138311,-0.43638 4.312003,-1.25483 l 0.136525,0.98213 h 1.937808 v -9.25089 c 0,-2.83809 -1.255536,-4.312 -5.04825,-4.312 m 2.756253,10.77948 c -1.00965,0.6544 -2.292703,1.0922 -3.439231,1.0922 -1.636536,0 -1.882775,-0.5461 -1.882775,-1.911 0,-1.33667 0.518584,-1.77341 1.937809,-1.77341 h 3.384197 z"
         style="fill:#00b6ed;fill-opacity:1;fill-rule:nonzero;stroke:none;stroke-width:0.35277778"
         id="path3400"
         inkscape:connector-curvature="0" />
      <path
         d="m 88.003574,217.00559 h 1.96215 v 0.38559 h -1.531761 v 1.04633 h 1.421342 v 0.38489 h -1.421342 v 1.13135 h 1.5367 v 0.38524 h -1.967089 z"
         style="fill:#005286;fill-opacity:1;fill-rule:nonzero;stroke:none;stroke-width:0.35277778"
         id="path3404"
         inkscape:connector-curvature="0" />
      <path
         d="m 93.168141,217.00558 v 2.39748 c 0,0.54574 -0.315383,0.98531 -1.180747,0.98531 -0.86607,0 -1.181453,-0.43957 -1.181453,-0.98531 v -2.39748 h 0.430742 v 2.37243 c 0,0.41028 0.225072,0.62583 0.750711,0.62583 0.525286,0 0.750358,-0.21555 0.750358,-0.62583 v -2.37243 z"
         style="fill:#005286;fill-opacity:1;fill-rule:nonzero;stroke:none;stroke-width:0.35277778"
         id="path3416"
         inkscape:connector-curvature="0" />
      <path
         d="m 95.364712,219.13272 h -0.816328 v 1.20615 h -0.430036 v -3.3334 h 1.271411 c 0.715434,0 0.965906,0.31044 0.965906,0.82091 v 0.48013 c 0,0.39582 -0.145345,0.66605 -0.530931,0.77647 l 0.86607,1.25589 h -0.495653 z m 0.0095,-1.74166 h -0.825853 v 1.36137 h 0.825853 c 0.410633,0 0.551039,-0.11501 0.551039,-0.44027 v -0.48084 c 0,-0.32984 -0.140406,-0.44026 -0.551039,-0.44026"
         style="fill:#005286;fill-opacity:1;fill-rule:nonzero;stroke:none;stroke-width:0.35277778"
         id="path3420"
         inkscape:connector-curvature="0" />
      <path
         d="m 99.657771,219.37801 c 0,0.55562 -0.345369,1.01036 -1.205794,1.01036 -0.861131,0 -1.2065,-0.45474 -1.2065,-1.01036 v -1.41111 c 0,-0.55598 0.345369,-1.01106 1.2065,-1.01106 0.860425,0 1.205794,0.45508 1.205794,1.01106 z m -1.981906,-0.01 c 0,0.41028 0.250825,0.64065 0.776112,0.64065 0.525638,0 0.775405,-0.23037 0.775405,-0.64065 v -1.391 c 0,-0.41063 -0.249767,-0.64135 -0.775405,-0.64135 -0.525287,0 -0.776112,0.23072 -0.776112,0.64135 z"
         style="fill:#005286;fill-opacity:1;fill-rule:nonzero;stroke:none;stroke-width:0.35277778"
         id="path3424"
         inkscape:connector-curvature="0" />
      <path
         d="m 100.55827,217.00558 h 1.20615 c 0.71578,0 0.96555,0.31044 0.96555,0.82056 v 0.49601 c 0,0.5154 -0.24977,0.82585 -0.96555,0.82585 h -0.77611 v 1.19098 h -0.43004 z m 1.19133,0.38559 h -0.76129 v 1.37089 h 0.76129 c 0.41063,0 0.55033,-0.11465 0.55033,-0.43991 v -0.49107 c 0,-0.32949 -0.1397,-0.43991 -0.55033,-0.43991"
         style="fill:#005286;fill-opacity:1;fill-rule:nonzero;stroke:none;stroke-width:0.35277778"
         id="path3428"
         inkscape:connector-curvature="0" />
      <path
         d="m 103.47044,217.00559 h 1.9618 v 0.38559 h -1.53176 v 1.04633 h 1.42134 v 0.38489 h -1.42134 v 1.13135 h 1.5367 v 0.38524 h -1.96674 z"
         style="fill:#005286;fill-opacity:1;fill-rule:nonzero;stroke:none;stroke-width:0.35277778"
         id="path3432"
         inkscape:connector-curvature="0" />
      <path
         d="m 108.90502,220.33902 h -0.43533 l -0.27552,-0.80081 h -1.4164 l -0.27023,0.80081 h -0.43497 l 1.12571,-3.3334 h 0.58067 z m -1.4164,-3.02331 -0.59549,1.84715 h 1.19133 z"
         style="fill:#005286;fill-opacity:1;fill-rule:nonzero;stroke:none;stroke-width:0.35277778"
         id="path3436"
         inkscape:connector-curvature="0" />
      <path
         d="m 110.00548,217.50156 v 2.83739 h -0.41063 v -3.3334 h 0.5909 l 1.45133,2.85257 v -2.85257 h 0.41028 v 3.3334 h -0.59055 z"
         style="fill:#005286;fill-opacity:1;fill-rule:nonzero;stroke:none;stroke-width:0.35277778"
         id="path3440"
         inkscape:connector-curvature="0" />
      <path
         d="m 90.341051,222.0061 v 2.39712 c 0,0.5461 -0.315383,0.98602 -1.181453,0.98602 -0.865716,0 -1.180747,-0.43992 -1.180747,-0.98602 v -2.39712 h 0.430389 v 2.37243 c 0,0.41028 0.225072,0.62583 0.750358,0.62583 0.525639,0 0.751064,-0.21555 0.751064,-0.62583 v -2.37243 z"
         style="fill:#005286;fill-opacity:1;fill-rule:nonzero;stroke:none;stroke-width:0.35277778"
         id="path3452"
         inkscape:connector-curvature="0" />
      <path
         d="m 91.701645,222.50187 v 2.83739 h -0.410281 v -3.33304 h 0.59055 l 1.450975,2.85256 v -2.85256 h 0.410987 v 3.33304 h -0.590903 z"
         style="fill:#005286;fill-opacity:1;fill-rule:nonzero;stroke:none;stroke-width:0.35277778"
         id="path3456"
         inkscape:connector-curvature="0" />
      <path
         inkscape:connector-curvature="0"
         id="path3458"
         style="fill:#005286;fill-opacity:1;fill-rule:nonzero;stroke:none;stroke-width:0.35277778"
         d="m 95.174526,225.33919 h -0.430389 v -3.33305 h 0.430389 z" />
      <path
         d="m 95.839694,222.00611 h 0.415219 l 0.975784,2.95804 0.976136,-2.95804 h 0.414866 l -1.100313,3.33304 h -0.580673 z"
         style="fill:#005286;fill-opacity:1;fill-rule:nonzero;stroke:none;stroke-width:0.35277778"
         id="path3462"
         inkscape:connector-curvature="0" />
      <path
         d="m 99.261743,222.00611 h 1.962507 v 0.38594 h -1.532118 v 1.04563 h 1.421698 v 0.38524 h -1.421698 v 1.13135 h 1.537048 v 0.38488 h -1.967437 z"
         style="fill:#005286;fill-opacity:1;fill-rule:nonzero;stroke:none;stroke-width:0.35277778"
         id="path3466"
         inkscape:connector-curvature="0" />
      <path
         d="m 103.33551,224.1337 h -0.81562 v 1.20544 h -0.43004 v -3.33304 h 1.27035 c 0.71614,0 0.96591,0.31009 0.96591,0.82056 v 0.48048 c 0,0.39547 -0.14464,0.66605 -0.53023,0.77611 l 0.86607,1.25589 h -0.4953 z m 0.0102,-1.74166 h -0.82585 v 1.36066 h 0.82585 c 0.41028,0 0.55033,-0.11501 0.55033,-0.43956 v -0.48084 c 0,-0.33055 -0.14005,-0.44026 -0.55033,-0.44026"
         style="fill:#005286;fill-opacity:1;fill-rule:nonzero;stroke:none;stroke-width:0.35277778"
         id="path3478"
         inkscape:connector-curvature="0" />
      <path
         d="m 106.24293,225.38941 c -0.32067,0 -0.70591,-0.06 -0.99095,-0.17533 l 0.0699,-0.35031 c 0.30515,0.0956 0.62547,0.14535 0.93098,0.14535 0.53551,0 0.64593,-0.14041 0.64593,-0.52035 0,-0.4505 -0.005,-0.49036 -0.69073,-0.64523 -0.80645,-0.18027 -0.901,-0.33585 -0.901,-1.02694 0,-0.58032 0.23989,-0.86007 1.06574,-0.86007 0.29069,0 0.63571,0.0399 0.901,0.10971 l -0.0349,0.36548 c -0.26564,-0.06 -0.58067,-0.0949 -0.85619,-0.0949 -0.54539,0 -0.64523,0.11007 -0.64523,0.4953 0,0.46003 0,0.48084 0.66075,0.64594 0.88583,0.21978 0.93063,0.34996 0.93063,1.00083 0,0.58067 -0.17004,0.91052 -1.08585,0.91052"
         style="fill:#005286;fill-opacity:1;fill-rule:nonzero;stroke:none;stroke-width:0.35277778"
         id="path3482"
         inkscape:connector-curvature="0" />
      <path
         inkscape:connector-curvature="0"
         id="path3484"
         style="fill:#005286;fill-opacity:1;fill-rule:nonzero;stroke:none;stroke-width:0.35277778"
         d="m 108.65911,225.33919 h -0.43039 v -3.33305 h 0.43039 z" />
      <path
         d="m 110.3306,222.39194 h -0.99624 V 222.006 h 2.42287 v 0.38594 h -0.99659 v 2.94746 h -0.43004 z"
         style="fill:#005286;fill-opacity:1;fill-rule:nonzero;stroke:none;stroke-width:0.35277778"
         id="path3488"
         inkscape:connector-curvature="0" />
      <path
         d="m 114.2985,222.00611 h 0.4505 l -1.10631,2.32727 v 1.00577 h -0.43004 v -1.00577 l -1.10596,-2.32727 h 0.45015 l 0.871,1.86196 z"
         style="fill:#005286;fill-opacity:1;fill-rule:nonzero;stroke:none;stroke-width:0.35277778"
         id="path3492"
         inkscape:connector-curvature="0" />
      <path
         d="m 90.551335,230.33985 h -0.435681 l -0.275166,-0.80045 h -1.416403 l -0.270228,0.80045 h -0.434975 l 1.125714,-3.3334 h 0.58032 z m -1.416756,-3.0226 -0.595136,1.84644 h 1.191331 z"
         style="fill:#005286;fill-opacity:1;fill-rule:nonzero;stroke:none;stroke-width:0.35277778"
         id="path3496"
         inkscape:connector-curvature="0" />
      <path
         d="m 92.107127,230.38968 c -0.320322,0 -0.705556,-0.0596 -0.990953,-0.17498 l 0.0702,-0.35031 c 0.305153,0.0953 0.625122,0.14535 0.930628,0.14535 0.535516,0 0.645583,-0.14005 0.645583,-0.5207 0,-0.45015 -0.0053,-0.49036 -0.690739,-0.64523 -0.805391,-0.18027 -0.900641,-0.33549 -0.900641,-1.02623 0,-0.58067 0.240241,-0.86043 1.065741,-0.86043 0.290336,0 0.635706,0.0399 0.900995,0.10972 l -0.03493,0.36547 c -0.265289,-0.0603 -0.58032,-0.0953 -0.855839,-0.0953 -0.545395,0 -0.645936,0.11007 -0.645936,0.4953 0,0.46073 0,0.48084 0.660752,0.64594 0.886178,0.21978 0.930981,0.34996 0.930981,1.00083 0,0.58103 -0.170039,0.91052 -1.08585,0.91052"
         style="fill:#005286;fill-opacity:1;fill-rule:nonzero;stroke:none;stroke-width:0.35277778"
         id="path3508"
         inkscape:connector-curvature="0" />
      <path
         d="m 94.934182,230.38968 c -0.320322,0 -0.705556,-0.0596 -0.990953,-0.17498 l 0.06985,-0.35031 c 0.305153,0.0953 0.625828,0.14535 0.930981,0.14535 0.535516,0 0.645936,-0.14005 0.645936,-0.5207 0,-0.45015 -0.0056,-0.49036 -0.690739,-0.64523 -0.806097,-0.18027 -0.900994,-0.33549 -0.900994,-1.02623 0,-0.58067 0.240241,-0.86043 1.066447,-0.86043 0.289983,0 0.635,0.0399 0.900994,0.10972 l -0.03563,0.36547 c -0.265289,-0.0603 -0.580673,-0.0953 -0.855486,-0.0953 -0.545748,0 -0.645937,0.11007 -0.645937,0.4953 0,0.46073 0,0.48084 0.6604,0.64594 0.886178,0.21978 0.930981,0.34996 0.930981,1.00083 0,0.58103 -0.170039,0.91052 -1.08585,0.91052"
         style="fill:#005286;fill-opacity:1;fill-rule:nonzero;stroke:none;stroke-width:0.35277778"
         id="path3512"
         inkscape:connector-curvature="0" />
      <path
         d="m 99.232673,229.37926 c 0,0.55562 -0.345722,1.01036 -1.206147,1.01036 -0.860778,0 -1.206147,-0.45474 -1.206147,-1.01036 v -1.41146 c 0,-0.55563 0.345369,-1.01071 1.206147,-1.01071 0.860425,0 1.206147,0.45508 1.206147,1.01071 z m -1.981906,-0.01 c 0,0.40993 0.250473,0.64029 0.775759,0.64029 0.525286,0 0.775758,-0.23036 0.775758,-0.64029 v -1.39171 c 0,-0.41028 -0.250472,-0.64064 -0.775758,-0.64064 -0.525286,0 -0.775759,0.23036 -0.775759,0.64064 z"
         style="fill:#005286;fill-opacity:1;fill-rule:nonzero;stroke:none;stroke-width:0.35277778"
         id="path3516"
         inkscape:connector-curvature="0" />
      <path
         d="m 100.48835,229.38377 c 0,0.46567 0.18027,0.6163 0.72566,0.6163 0.20038,0 0.52564,-0.0254 0.78105,-0.0705 l 0.0445,0.37077 c -0.23989,0.055 -0.59019,0.0893 -0.84031,0.0893 -0.81633,0 -1.14124,-0.34996 -1.14124,-0.98037 v -1.47179 c 0,-0.63006 0.32491,-0.98037 1.14124,-0.98037 0.25012,0 0.60042,0.0349 0.84031,0.0896 l -0.0445,0.37041 c -0.25541,-0.0452 -0.58067,-0.0699 -0.78105,-0.0699 -0.54539,0 -0.72566,0.15029 -0.72566,0.6156 z"
         style="fill:#005286;fill-opacity:1;fill-rule:nonzero;stroke:none;stroke-width:0.35277778"
         id="path3520"
         inkscape:connector-curvature="0" />
      <path
         inkscape:connector-curvature="0"
         id="path3522"
         style="fill:#005286;fill-opacity:1;fill-rule:nonzero;stroke:none;stroke-width:0.35277778"
         d="m 103.29512,230.33981 h -0.43003 v -3.33339 h 0.43003 z" />
      <path
         d="m 106.84311,230.33985 h -0.43533 l -0.27481,-0.80045 h -1.4164 l -0.27023,0.80045 h -0.43533 l 1.12571,-3.3334 h 0.58032 z m -1.4164,-3.0226 -0.59514,1.84644 h 1.19098 z"
         style="fill:#005286;fill-opacity:1;fill-rule:nonzero;stroke:none;stroke-width:0.35277778"
         id="path3526"
         inkscape:connector-curvature="0" />
      <path
         d="m 107.92913,227.3925 h -0.9966 v -0.38594 h 2.42253 v 0.38594 h -0.99589 v 2.94746 h -0.43004 z"
         style="fill:#005286;fill-opacity:1;fill-rule:nonzero;stroke:none;stroke-width:0.35277778"
         id="path3530"
         inkscape:connector-curvature="0" />
      <path
         inkscape:connector-curvature="0"
         id="path3532"
         style="fill:#005286;fill-opacity:1;fill-rule:nonzero;stroke:none;stroke-width:0.35277778"
         d="m 110.46075,230.33981 h -0.43039 v -3.33339 h 0.43039 z" />
      <path
         d="m 113.79848,229.37926 c 0,0.55562 -0.34537,1.01036 -1.20615,1.01036 -0.86077,0 -1.20614,-0.45474 -1.20614,-1.01036 v -1.41146 c 0,-0.55563 0.34537,-1.01071 1.20614,-1.01071 0.86078,0 1.20615,0.45508 1.20615,1.01071 z m -1.98191,-0.01 c 0,0.40993 0.25048,0.64029 0.77576,0.64029 0.52599,0 0.77576,-0.23036 0.77576,-0.64029 v -1.39171 c 0,-0.41028 -0.24977,-0.64064 -0.77576,-0.64064 -0.52528,0 -0.77576,0.23036 -0.77576,0.64064 z"
         style="fill:#005286;fill-opacity:1;fill-rule:nonzero;stroke:none;stroke-width:0.35277778"
         id="path3544"
         inkscape:connector-curvature="0" />
      <path
         d="m 115.10947,227.50239 v 2.83739 h -0.41028 v -3.3334 h 0.5902 l 1.45168,2.85292 v -2.85292 h 0.41028 v 3.3334 h -0.5902 z"
         style="fill:#005286;fill-opacity:1;fill-rule:nonzero;stroke:none;stroke-width:0.35277778"
         id="path3548"
         inkscape:connector-curvature="0" />
    </g>
  </g>
</svg>
