<?xml version="1.0" encoding="UTF-8"?>
<svg id="Layer_1" data-name="Layer 1" xmlns="http://www.w3.org/2000/svg" version="1.1" viewBox="0 0 2279.4 1523.5">
  <defs>
    <style>
      .cls-1 {
        fill: #d9782d;
      }

      .cls-1, .cls-2, .cls-3, .cls-4, .cls-5 {
        fill-rule: evenodd;
        stroke-width: 0px;
      }

      .cls-2 {
        fill: #005981;
      }

      .cls-3 {
        fill: #d7ddd8;
      }

      .cls-4 {
        fill: #f4cf53;
      }

      .cls-5 {
        fill: #fff;
      }
    </style>
  </defs>
  <path class="cls-2" d="M153.9,1332.9c1.7-5,10-8.4,20.1-8.4v-6.7h-61.9v6.7c8.4,0,15.1,1.7,18.4,5s5,10,5,20.1v102c0,20.1-3.3,35.1-8.4,43.5-6.7,11.7-18.4,18.4-36.8,18.4s-15.1-3.3-21.7-6.7c-13.4-8.4-20.1-26.8-20.1-55.2v-102c0-10,1.7-16.7,5-20.1s10-5,18.4-5v-6.7H0v6.7c6.7,0,10,0,13.4,1.7,6.7,1.7,10,10,10,23.4v102c0,15,1.7,28.4,5,38.5,6.7,23.4,26.8,33.4,60.2,33.4s43.5-6.7,51.8-20.1c6.7-10,10-28.4,10-51.8v-102c0-8.4,1.7-13.4,3.3-16.7h0ZM230.8,1521.8v-6.7h-10c-6.7-3.3-10-10-10-21.8v-36.8c0-10,1.7-20.1,5-30.1,3.3-8.4,6.7-15,11.7-21.7,6.7-8.4,11.7-11.7,18.4-11.7s15,3.3,16.7,11.7c1.7,3.3,1.7,11.7,1.7,26.7v61.9c0,8.4-1.7,13.4-5,16.7s-8.4,5-15,5v6.7h61.9v-6.7h-11.7c-6.7-3.3-10-10-10-21.8v-68.6c0-16.7,0-28.4-3.3-33.4-5-8.4-13.4-13.4-26.8-13.4-20.1,0-33.4,13.4-43.5,40.1v-40.1l-41.8,8.4v5c6.7,0,11.7,1.7,15.1,3.3,3.3,3.3,5,8.4,5,15v83.6c0,8.4-1.7,13.4-5,16.7s-8.4,5-15.1,5v6.7h61.9s0,0,0,0ZM381.3,1521.8v-6.7h-10c-6.7-3.3-10-10-10-21.8v-115.4l-41.8,8.4v5c6.7,0,11.7,1.7,15.1,3.3,3.3,3.3,5,8.4,5,15v83.6c0,8.4-1.7,13.4-5,16.7s-8.4,5-15.1,5v6.7h61.9s0,0,0,0ZM359.6,1344.6c3.3-3.3,5-6.7,5-11.7s-1.7-8.4-5-11.7c-1.7-3.3-6.7-5-10-5-5,0-8.4,1.7-11.7,5s-3.3,6.7-3.3,11.7,0,8.4,3.3,11.7,6.7,5,11.7,5,6.7-1.7,10-5ZM456.5,1523.5l38.5-110.4c3.3-10,6.7-16.7,8.4-20.1,3.3-3.3,10-6.7,16.7-6.7l1.7-5h-50.2v5c8.4,0,11.7,3.3,11.7,10s0,6.7-1.7,13.4l-28.4,81.9-30.1-83.6c-3.3-5-3.3-10-3.3-15s3.3-6.7,11.7-6.7v-5h-56.9v5c5,0,8.4,1.7,11.7,3.3,6.7,3.3,10,11.7,15.1,25.1l41.8,108.7h13.4s0,0,0,0ZM536.8,1409.8c5-15,13.4-21.7,25.1-21.7s11.7,1.7,16.7,5c6.7,6.7,10,18.4,10,31.8h-55.2c0-3.3,1.7-8.4,3.3-15.1ZM590.3,1513.5c-18.4,0-31.8-8.4-43.5-25.1-8.4-15-13.4-31.8-13.4-53.5h78.6v-6.7c0-10-1.7-20.1-5-28.4-8.4-13.4-21.7-21.7-40.1-21.7-36.8,0-55.2,23.4-55.2,68.6s1.7,31.8,6.7,43.5c10,23.4,30.1,33.4,58.5,33.4s23.4-1.7,31.8-5v-10c-5,3.3-10,5-18.4,5h0ZM687.3,1521.8v-6.7h-10c-6.7-3.3-10-10-10-21.8v-45.1c0-16.7,1.7-30.1,8.4-38.5,5-6.7,8.4-10,11.7-10s3.3,0,6.7,3.3c3.3,1.7,6.7,3.3,8.4,3.3,10,0,13.4-5,13.4-15s-1.7-6.7-3.3-10c-3.3-1.7-6.7-3.3-10-3.3-15.1,0-26.8,10-35.1,31.8v-31.8l-41.8,8.4v5c6.7,0,11.7,1.7,15,3.3,3.3,3.3,5,8.4,5,15v83.6c0,8.4-1.7,13.4-5,16.7-1.7,3.3-8.4,5-15,5v6.7h61.9s0,0,0,0ZM802.7,1383c-10.2-3.4-21-5.1-31.8-5-11.7,0-21.7,3.3-30.1,8.4-10,6.7-13.4,16.7-13.4,30.1s3.3,20.1,13.4,28.4c3.3,3.3,10,6.7,18.4,11.7,10,5,16.7,10,20.1,13.4,6.7,6.7,10,13.4,10,20.1s-1.7,13.4-8.4,16.7c-5,5-11.7,6.7-16.7,6.7-16.7,0-28.4-8.4-33.4-28.4h-6.7l3.3,33.4c8.4,3.3,20.1,5,33.4,5s25.1-1.7,35.1-8.4,15-18.4,15-31.8-1.7-18.4-6.7-25.1c-3.3-5-8.4-10-18.4-15.1-11.7-6.7-20.1-11.7-25.1-16.7-8.4-5-13.4-11.7-13.4-20.1s1.7-6.7,3.3-10c5.3-5.4,12.5-8.4,20.1-8.4,13.4,0,23.4,10,26.8,26.8h6.7l-1.7-31.8h0ZM886.3,1521.8v-6.7h-10c-6.7-3.3-10-10-10-21.8v-115.4l-41.8,8.4v5c6.7,0,11.7,1.7,15.1,3.3,3.3,3.3,5,8.4,5,15v83.6c0,8.4-1.7,13.4-5,16.7s-8.4,5-15.1,5v6.7h61.9s0,0,0,0ZM864.6,1344.6c3.3-3.3,5-6.7,5-11.7s-1.7-8.4-5-11.7c-1.7-3.3-6.7-5-10-5-5,0-8.4,1.7-11.7,5s-5,6.7-5,11.7,1.7,8.4,5,11.7,6.7,5,11.7,5,6.7-1.7,10-5ZM956.6,1513.5c-8.4,0-15.1-1.7-18.4-5s-5-11.7-5-21.8v-95.3h33.4v-10h-33.4v-45.1h-8.4c0,10,0,18.4-3.3,25.1-6.7,13.4-16.7,20.1-31.8,20.1v10h21.7v87c0,18.4,1.7,31.8,6.7,36.8s16.7,8.4,36.8,8.4h11.7v-10h-10ZM1043.5,1498.4c-6.7,8.4-13.4,13.4-21.7,13.4s-10-3.3-13.4-8.4c-3.3-6.7-5-11.7-5-18.4,0-20.1,15.1-30.1,46.8-31.8v18.4c0,10-1.6,20.1-6.7,26.8ZM1083.7,1516.8c-8.4,0-11.7-5-11.7-15v-75.3c0-10-1.7-18.4-3.3-25.1-5-15-18.4-23.4-40.1-23.4s-13.4,1.7-21.7,3.3c-15.1,5-23.4,15-23.4,26.7s3.3,13.4,11.7,13.4,13.4-5,13.4-15.1,1.7-11.7,5-15c4.2-2.1,8.7-3.2,13.4-3.3,6.7,0,13.4,1.7,16.7,6.7,5,5,6.7,18.4,6.7,36.8v11.7l-20.1,3.4c-10,0-16.7,1.7-25.1,5-16.7,6.7-26.8,20.1-26.8,38.5s1.7,11.7,5,16.7c6.7,11.7,15.1,16.7,28.4,16.7s28.4-6.7,38.5-21.7c0,15,6.7,21.7,20.1,21.7s13.4,0,20.1-1.7v-6.7c-3.3,0-5,1.7-6.7,1.7h0ZM1158.9,1513.5c-8.4,0-15.1-1.7-18.4-5s-5-11.7-5-21.8v-95.3h35.1v-10h-35.1v-45.1h-8.4c0,10,0,18.4-3.3,25.1-5,13.4-16.7,20.1-31.8,20.1v10h21.7v87c0,18.4,1.7,31.8,6.7,36.8s16.7,8.4,36.8,8.4h13.4v-10h-11.7ZM1279.4,1413.1c5-15.1,13.4-23.4,23.4-23.4s18.4,8.4,23.4,23.4c3.3,10,5,23.4,5,38.5s-1.7,26.7-5,38.5c-5,15.1-11.7,23.4-23.4,23.4s-13.4-3.3-16.7-10c-8.4-10-11.7-28.4-11.7-51.8,0-15.1,1.7-28.5,5-38.5ZM1373,1516.8v-5c-6.7,0-11.7-1.7-15-5-3.3-1.7-5-8.4-5-15.1v-182.3l-41.8,6.7v6.7c6.7,0,11.7,1.7,15.1,3.4,3.3,3.3,5,8.4,5,15v60.2c-6.7-15-16.7-23.4-31.8-23.4s-30.1,8.4-38.5,23.4c-6.7,11.7-10,28.4-10,50.2s3.3,36.8,10,50.2c8.4,15,21.7,21.7,38.5,21.7s13.4-1.7,20.1-6.7c5-3.3,10.1-10,11.7-15v21.7l41.8-6.7ZM1413.1,1371.3c6.7-11.7,11.7-23.4,11.7-35.1s-6.7-20.1-18.4-20.1-8.4,0-10,3.4c-3.3,3.3-5,8.4-5,13.4s0,8.4,3.3,10c1.7,3.3,5,3.3,8.4,5s5,1.7,5,5c0,8.4-3.3,18.4-11.7,28.4h8.4c3.3-1.7,5-5,8.4-10h0ZM1490.1,1521.8v-6.7c-3.3,0-6.7,0-10-1.7-5,0-8.4-3.3-8.4-10s0-6.7,3.3-13.4l11.7-36.8h66.9l13.4,38.5c1.7,5,1.7,10,1.7,13.4,0,6.7-5,10-18.4,10v6.7h70.2v-6.7c-5,0-10-1.7-15-3.3-5-5-11.7-13.4-16.7-28.4l-55.2-167.2h-15l-56.9,165.6c-3.3,8.4-5,16.7-8.4,20.1-3.3,8.4-11.7,13.4-23.4,13.4v6.7h60.2ZM1550.3,1441.6h-60.2l30.1-92,30.1,92ZM1700.8,1521.8v-6.7h-11.7c-6.7-3.3-10.1-10-10.1-21.8v-184l-41.8,6.7v6.7c8.4,0,13.4,1.7,15,3.4,5,3.3,6.7,8.4,6.7,15v152.2c0,8.4-1.7,13.4-5,16.7s-8.4,5-16.7,5v6.7h63.6,0ZM1772.7,1498.4c-6.7,8.4-13.4,13.4-21.8,13.4s-11.7-3.3-15-8.4c-3.3-6.7-3.3-11.7-3.3-18.4,0-20.1,15-30.1,46.8-31.8v18.4c0,10-3.4,20.1-6.7,26.8ZM1811.1,1516.8c-6.7,0-10-5-10-15v-75.3c0-10-1.7-18.4-5-25.1-3.3-15-16.7-23.4-40.2-23.4s-13.4,1.7-20.1,3.3c-16.7,5-25.1,15-25.1,26.7s5,13.4,13.4,13.4,13.4-5,13.4-15.1,1.7-11.7,5-15c1.7-1.7,6.7-3.3,13.4-3.3s11.7,1.7,15,6.7c5,5,8.4,18.4,8.4,36.8v11.7l-20.1,3.4c-10,0-18.4,1.7-25.1,5-18.4,6.7-26.7,20.1-26.7,38.5s1.7,11.7,5,16.7c5,11.7,15,16.7,26.7,16.7,16.7,0,30.1-6.7,38.5-21.7h1.7c0,15,6.7,21.7,20.1,21.7s13.4,0,20.1-1.7v-6.7c-3.3,0-6.7,1.7-8.3,1.7ZM1908.2,1513.5c-11.7,0-21.7-3.3-31.8-11.7-18.4-13.4-28.4-36.8-28.4-65.2s1.7-20.1,5-26.8c5-15,15.1-21.7,28.4-21.7s16.7,5,18.4,13.4c1.7,6.7,1.7,10,3.3,13.4,3.3,3.3,6.7,6.7,11.7,6.7,8.4,0,11.7-5,11.7-15.1s-5-18.4-15-23.4c-6.7-3.3-16.7-5-26.7-5s-25.1,3.3-33.5,8.4c-16.7,11.7-25.1,31.8-25.1,60.2s5,43.5,16.7,56.8c11.7,13.4,28.4,20.1,51.9,20.1s21.7-1.7,28.4-5v-8.4c-5,1.7-10,3.3-15,3.3h0ZM2006.8,1498.4c-5,8.4-13.4,13.4-21.7,13.4s-10-3.3-13.4-8.4c-3.3-6.7-5-11.7-5-18.4,0-20.1,15-30.1,46.8-31.8v18.4c0,10-1.7,20.1-6.7,26.8ZM2047,1516.8c-8.4,0-11.7-5-11.7-15v-75.3c0-10-1.7-18.4-3.3-25.1-5-15-18.4-23.4-40.1-23.4s-13.4,1.7-20.1,3.3c-16.7,5-25.1,15-25.1,26.7s3.3,13.4,13.4,13.4,11.7-5,11.7-15.1,1.7-11.7,5-15c3.3-1.7,8.4-3.3,15-3.3s11.7,1.7,15,6.7c5,5,6.7,18.4,6.7,36.8v11.7l-20.1,3.4c-8.4,0-16.7,1.7-25.1,5-16.7,6.7-25.1,20.1-25.1,38.5s0,11.7,3.3,16.7c6.7,11.7,15.1,16.7,28.4,16.7s30.1-6.7,38.5-21.7c0,15,6.7,21.7,21.7,21.7s13.4,0,18.4-1.7v-6.7c-3.3,0-5,1.7-6.7,1.7h0ZM2130.6,1521.8v-6.7h-10c-6.7-3.3-10-10-10-21.8v-36.8c0-10,1.7-20.1,5-30.1,3.3-8.4,6.7-15,11.7-21.7,6.7-8.4,11.7-11.7,18.4-11.7s15,3.3,16.7,11.7c1.7,3.3,1.7,11.7,1.7,26.7v61.9c0,8.4-1.7,13.4-5,16.7s-8.4,5-15,5v6.7h61.9v-6.7h-11.7c-6.7-3.3-8.4-10-8.4-21.8v-68.6c0-16.7-1.7-28.4-5-33.4-5-8.4-13.4-13.4-26.7-13.4-20.1,0-33.5,13.4-43.5,40.1v-40.1l-41.8,8.4v5c6.7,0,11.7,1.7,15,3.3,3.3,3.3,5,8.4,5,15v83.6c0,8.4-1.7,13.4-5,16.7s-8.4,5-15,5v6.7h61.9s0,0,0,0ZM2267.7,1513.5c-8.4,0-15-1.7-18.4-5s-5-11.7-5-21.8v-95.3h35.1v-10h-35.1v-45.1h-8.4c0,10,0,18.4-3.4,25.1-5,13.4-16.7,20.1-31.8,20.1v10h21.7v87c0,18.4,1.7,31.8,6.7,36.8,5,5,16.7,8.4,36.8,8.4h13.4v-10h-11.7s0,0,0,0Z"/>
  <path class="cls-3" d="M607.1,0h1070.3v1070.3H607.1V0Z"/>
  <path class="cls-5" d="M908.1,184l769.3,675.6v210.7H607.1v-152.2L908.1,184h0Z"/>
  <path class="cls-4" d="M1102.1,556.9l1.7,6.7c5,1.7,10,1.7,13.4,1.7v3.3h8.4l3.3,8.4,3.3,3.3s1.7-6.7,3.3-3.3l5,11.7c3.3-1.7,20.1,13.4,18.4,15.1l5,1.7,3.3,6.7h8.4c0,11.7,23.4,25.1,30.1,35.1h3.3v13.4c-23.4-1.7-140.5-3.3-163.9,1.7v-1.7l-8.4,1.7v-1.7l-1.7,5h-26.8c3.3-5-6.7-3.3-3.3,0-6.7-3.3-15.1-1.7-20.1,0l-1.7-5-6.7,3.3-1.7-3.3-3.3,5h-18.4l-1.7-5c-1.7,0-6.7,10-6.7,1.7-10,1.7-20.1,0-30.1,0v-16.7l3.3,1.7c5-6.7,6.7-15.1,5-23.4h3.3c5-11.7,10-23.4,8.4-36.8l3.3,1.7c3.3-3.3,6.7-8.4,5-11.7h3.3v-6.7c6.2-3.2,13.1-4.9,20.1-5l1.7,5,1.7-6.7c6.7,1.7,13.4,8.4,16.7,6.7,0-6.7,23.4-6.7,28.4-6.7v1.7l6.7-3.3c1.7-1.7,8.4,3.3,3.3,3.3l8.4,5,1.7-5c10-6.7,18.4,0,30.1-3.3l1.7,6.7,13.4,1.7,3.3-5,3.3,5,6.7-5-1.7-1.7,3.3-3.3,1.7,1.7,5-5h0Z"/>
  <path class="cls-1" d="M1351.3,769.3s-1.7,5,1.7,5,3.3,3.3,5,1.7c3.3,0,3.3,1.7,3.3,1.7,0,0,3.3,1.7,1.7,3.3l3.3,3.3h5l1.7,3.3s3.3,3.3,5,6.7c1.7,5,6.7,8.4,6.7,8.4l1.7-1.7,3.3-1.7s1.7,3.3,6.7,6.7c1.7,1.7,0,5,5,6.7,3.3,0,6.7,3.4,6.7,3.4l-1.7,3.3,5,3.3c1.7,10,8.4,6.7,8.4,6.7,0,0,1.7,1.7,0,5-3.3,5-1.7,6.7-1.7,6.7,0,0-1.7,6.7-1.7,10,1.7,5,3.3,8.4,3.3,8.4,0,0-8.4,0-13.4-3.3-3.3-3.3-6.7-3.3-8.4-5-3.3-5-6.7-1.7-6.7-1.7l-3.3,3.3c-1.7-3.3-3.3-5-16.7-1.7-13.4,5-8.4,1.7-13.4,3.3,0,0-5,0-11.7-1.7-5-1.7-8.4-3.3-8.4-3.3l-6.7,3.3-8.4,1.7v1.7l-10.1-3.3-8.4,1.7-3.3-3.3h-6.7l-6.7,1.7-3.3-3.3c-8.4,3.3-5,5-11.7,3.3,0,0-5-3.3-5,0l-3.3-1.7-3.3-1.7-1.7,3.3c-1.7-3.3-11.7-1.7-20.1,1.7l-8.4-1.7-6.7-1.7s-1.6-1.7-5,0c-3.3,1.7-8.4,1.7-8.4,1.7l-8.4,1.7-8.4-5c-3.3,1.7,5,6.7-8.4,1.7l-6.7-3.3c-3.3,8.4-13.4,5-13.4,5h-56.9v-1.7l-3.3,1.7c-13.4,3.3-16.7,1.7-48.5-3.3-3.3,3.3-5,5-8.4,3.3l-6.7-3.3c1.7,3.3,0,1.7-1.7,3.3,0,0-21.7-1.7-13.4-1.7l-3.3-3.3-1.7,3.3-10,1.7c-3.3-1.7-6.7,0-11.7,1.7v-1.7l-1.7-1.7v-1.7l-6.7,3.3v-1.7l-1.7-1.7-1.7,3.3h-25.1c-6.7-1.7-10,0-10,0l-3.3-3.3-5,5-8.4-1.7-5-3.3c-3.3,0-10,6.7-11.7,3.3,0,0-8.4-3.3-13.4-1.7-6.7,5-11.7,0-15,3.3-3.3,1.7-20.1-5-23.4-5l-5,3.3-8.4-3.3c-1.7,3.3-6.7,1.7-6.7,1.7l-3.3-1.7h-10s3.3-5,3.3-10,1.7-10,1.7-10c1.7-3.3,1.7-5,1.7-6.7l3.3-3.3v-8.4l1.7-13.4,11.7-5-1.7-1.7v-6.7l1.7-1.7c6.7-8.4,13.4-20.1,16.7-31.8l8.4-1.7q13.4,3.3,15,0l10,3.3,8.4-3.3,3.3,1.7h18.4l1.7-1.7c6.7,0,11.7-3.3,20.1,0,1.7,1.7,5,3.3,10,3.3,1.7-1.7,8.4-3.3,13.4,0l8.4,1.7c1.7,0,10-1.7,13.4,0,1.7,0,11.7,1.7,18.4-3.3,3.3,0,3.3-1.7,5-1.7l5,1.7s18.4,0,26.8-1.7c6.7-1.7,10,0,23.4,0l8.4,3.3s8.4,1.7,10-3.3c5,0,8.4,1.7,10,1.7,3.3,0,3.3-1.7,5-1.7,6.7-1.7,13.4,1.7,16.7,1.7l5-1.7,8.4,1.7,13.4-3.3,5,3.3c6.7,1.7,15,1.7,20.1-3.3,0,5,6.7-3.3,6.7,1.7s6.7,3.3,6.7,0l23.4-1.7v1.7l3.3-1.7h16.7l10-1.7,5-1.7,5,1.7,13.4-1.7,36.8-1.7c3.4,1.7-6.7,8.4,3.4,6.7,5-1.7,1.7,3.3,6.7,1.7,1.7,0,1.7,1.7,3.3,3.3l5,3.3,5,3.3s3.3,1.7,8.4,3.4l5,3.3,1.6,1.6h0Z"/>
  <path class="cls-3" d="M737.5,1053.6l8.4-5c1.7-3.3,0-3.3,0-5,3.3-5,8.4-11.7,10-18.4,3.3-11.7,5-21.7,15.1-28.4v-18.4c0-5,3.3-8.4,8.4-8.4h33.4l5,1.7c15.1,0,23.4-6.7,36.8-6.7l5,3.3c28.4,1.7,43.5-1.7,70.2,1.7l5,1.7c8.4,0,11.7-6.7,20.1-6.7s5,3.3,10,3.3,6.7-3.3,11.7-3.3,10,3.3,15,3.3,6.7-1.7,11.7-1.7l3.3-3.3c1.7,0,1.7,5,5,5,5,0,8.4-3.3,11.7-6.7,3.3,3.3,6.7,6.7,11.7,6.7,8.4,0,15.1,0,18.4-6.7l3.3,3.3h15.1c1.7,0,1.7-3.3,5-3.3l5,1.7,5-1.7v3.3h46.8c3.3,0,5,3.3,8.4,3.3s1.7-3.3,5-3.3l3.3,3.3c3.3,0,3.3-3.3,6.7-3.3h31.8c5,0,6.7,3.3,11.7,3.3s5-3.3,8.4-3.3,3.3,3.3,6.7,3.3,3.3-3.3,5-3.3c3.3,0,5,5,10.1,5s8.4-6.7,13.4-6.7,8.4,5,13.4,5,5-3.3,6.7-3.3l5,3.3c3.3,0,5-3.3,8.4-3.3,6.7,0,10,3.3,16.7,3.3s6.7-3.3,11.7-5c25.1,1.7,38.5-1.7,65.2,1.7,1.7,0,1.7,3.3,5,3.3s3.3-3.3,6.7-3.3,1.7,3.3,5,3.3,1.7-3.3,3.3-5c3.3,1.7,5,5,8.4,5l3.3-3.3c3.3,0,6.7,3.3,10.1,3.3,5,0,6.7-3.3,11.7-3.3l5,3.3,3.3-3.3c3.3,0,3.3,3.3,6.7,3.3h10c3.3,0,5-3.3,8.4-3.3l3.3,3.3c3.3,0,5-3.3,10-3.3l3.3,3.3c3.3,0,3.3-3.3,6.7-3.3h85.3c8.4,10,16.7,21.7,30.1,20.1,0,6.7,8.4,6.7,11.7,11.7,5,6.7,8.4,11.7,15,13.4,1.7,8.4,5,11.7,11.7,20.1,8.4,6.7,6.7,10,18.4,20.1l11.7,13.4,11.7,8.4h-939.8v-18.4h0Z"/>
  <path class="cls-2" d="M854.6,277.6h-1.7,1.7ZM1603.8,831.2c-1.7,1.7-3.3,1.7-5,0v-3.3l-1.7-1.7h-6.7v-5l-1.7-1.7c0,1.7-1.7,1.7-5,0v-5c-1.7-1.7-5-3.4-8.4-5-3.3-3.4-5-8.4-8.4-6.7v-8.4c-1.7,0-3.3,0-8.4-1.7l-1.7,1.7-1.7-1.7h-1.7l-1.7-3.3h-1.7c-10-16.7-11.7-5-15-11.7v-5h-1.7c-3.3-1.7-6.7-6.7-8.4-11.7-3.3,1.7-15-10-23.4-16.7h-1.7v-1.7l-1.6-1.7h-3.4l-3.3-3.3,1.7-1.7-6.7-1.7c1.7-3.3-16.7-13.4-8.4-13.4h-5v-3.3c-1.7,0-6.7,1.7-10-1.7l1.7-1.7-1.7-5-3.3,3.3c-3.3-6.7-6.7-11.7-10-13.4l-1.7-1.7c-5-3.3-8.4-5-13.4-11.7-1.7,0-5-3.3-6.7-6.7h-6.7c-1.7-1.7-10-13.4-8.4-16.7l-3.3-1.7-1.7,3.3c-8.4-11.7-16.7-15-25.1-21.7l-5,1.7c-1.7-1.7-1.7-5-3.3-6.7l-3.3,1.7,1.7-6.7c-1.7-1.7-3.3-3.3-5-6.7,0,15.1-6.7-13.4-16.7-11.7l-1.7-6.7-5-3.3c1.7,0,0-1.7-3.3-3.3l-1.7-1.7v-1.7l-1.7,6.7h-1.7c-1.7-5-1.7-11.7-8.4-8.4l-3.3-6.7-1.7,1.7-1.7-6.7h1.7c1.7-1.7-1.7-5-3.4-5-10-1.7-11.7-8.4-18.4-11.7l-3.3,3.3-1.7-6.7c-5,0-25.1-23.4-26.7-21.7l-1.7-1.7v-1.7c-3.3,0-6.7,0-11.7-3.3,0-1.7-3.3-8.4-1.7-8.4h-5v-3.3l-3.3-6.7-1.7-1.7c-5,1.7-13.4-6.7-23.4-16.7l1.7,3.3c-6.7-5-13.4-18.4-20.1-18.4v-3.3h-5l-1.7-5-1.7-1.7c-1.7,1.7-1.7,0-3.3-3.3v-3.2h-1.7v3.3h-3.3v-1.7c0-1.7,1.7,0,0-3.3-3.3-5-8.4-3.3-11.7,1.7-1.7-3.3,0-15.1-6.7-16.7,0,0-15-1.7-11.7-8.4l-3.3-5-5-1.7-1.7-6.7-5-5c1.7,1.7-1.7,6.7-5,1.7-1.7-1.7,1.7-3.3,1.7-5l-3.3-1.7v5h-1.7l-3.3-8.4v-1.7l-5,1.7-3.3-5h-1.7l-3.3-6.7,1.7,1.7,1.7-1.7c-5-3.3-8.4-5-11.7-8.4l-13.4-5c-1.7,0-1.7-3.3-1.7-6.7-5-3.3-8.4-6.7-11.7-8.4-1.7-3.3-3.3-5-5-5h-3.3l-3.3-5c-1.7-3.3-3.3-3.3-3.3-6.7l-1.7,3.3-1.7-3.3-3.3,1.7c-3.3-3.3-6.7-5-8.4-8.4-8.4-1.7-10-18.4-16.7-16.7-3.3-8.4-15-10-16.7-18.4-5-5-10-10-21.7-16.7h-3.3l-1.7-8.4-3.2,1.7v-3.3l-1.7,1.7v-8.4l-3.3,5-3.3-11.7c3.3,11.7-18.4-5-18.4-6.7l3.3-1.7h-3.3l-5-1.7-1.7-5h-1.7v5c-5,0-5-6.7-5-11.7l1.7-1.7-1.7-1.7v3.3l-3.3-1.7c-3.3-3.3-3.3-8.4-3.3-11.7-3.3,6.7-11.7-13.4-18.4-10,0,0-1.7-3.3-3.3-5-11.7,16.7-20.1,46.8-30.1,65.2l1.7,10c-10,5-3.3,11.7-8.4,18.4l-1.7-3.3-3.3,6.7c3.3,1.7-10,20.1-10,20.1l-3.3,6.7,5-1.7c-6.7,20.1-16.7,38.5-23.4,56.9,3.3,8.4-5,11.7-5,18.4-5,11.7-10,23.4-16.7,31.8l-10,28.4-3.3,3.3,1.7,1.7c-10,8.4-6.7,6.7-6.7,16.7l-5,5,1.7,11.7c-10,0-1.7,13.4-10,16.7v-1.7l-3.3,3.3c-1.7,1.7-3.3,13.4-3.3,16.7l-3.3,8.4c-15,26.8-26.8,75.3-33.4,80.3-3.3,1.7,0,6.7-1.7,11.7l-3.3,6.7,1.7,5,1.7-1.7c-1.7,5-6.7,5-6.7,10h3.3l-5,3.3c-1.7,5-3.3,10-6.7,15.1,6.7,5-15.1,15.1-8.4,16.7,0,3.3-5,15-6.7,15-3.3,6.7-6.7,15.1-6.7,23.4-5,1.7-6.7,16.7-10,21.7,0-1.7-3.3,3.4-6.7,3.4v1.7l1.7,1.7h-1.7c0,5-8.4,35.1-11.7,35.1l-1.7,6.7c-3.3-3.3-5,1.7,0,0l-3.3,5v1.7l-5,6.7,3.3,1.7h-3.3l-1.7,3.3-3.3,6.7h3.3l-1.7,3.3c-1.7,0-6.7,15.1-6.7,6.7,0,3.3-1.7,10-3.3,11.7l-1.7,1.7h-1.6v6.7l1.7-3.3v1.7l-3.3,10-1.7-1.7v5c-3.3,6.7-10,11.7-10,18.4-1.7,3.3,1.7,6.7-1.7,10-8.4,10-25.1,48.5-31.8,63.5v-95.3c5-5,8.4-13.4,11.7-21.7-1.7,3.3-3.3,5-5,1.7-1.7-6.7,3.3-10,5-10l-1.7-1.7,1.7-3.3c0-1.7,1.7-8.4,5-8.4,6.7-5,0-6.7,3.3-11.7h3.3c-1.7-3.3,8.4-36.8,13.4-43.5h1.7v-3.3h1.7l1.7-3.3,1.7-3.3,1.7-5v-1.7l1.7-5,1.7-1.7,1.7-1.7c-3.3,0-5,0-1.7-1.7l1.7,1.7v-1.7l1.7-1.7h-1.7l1.7-3.3-1.7-1.7,3.3-8.4,1.7,3.3,1.7-3.3-1.7-5h3.3l1.7-5v-5h3.3l5-11.7c-1.7-1.7-5-3.3,0-3.3l-1.7-6.7,5-5,3.3,1.7v-11.7q1.7,1.7,3.3-1.7v-1.7c6.7,1.7-1.7,3.3-1.7,5l1.7,1.7,1.7-5c0-1.7,1.7-1.7,1.7-5-3.3,8.4-1.7-6.7,0-11.7l1.7-1.7,1.7,3.3,3.3-3.3v-6.7,5h-1.7v-3.3h-1.7v-1.7h3.3c0-3.3-1.7-10,3.3-8.4v-6.7l3.3,1.7-1.7-5,1.7,1.7c1.7-3.3,0-5,0-6.7l3.3-6.7,1.7,1.7v-1.7c1.7,1.7,1.7,0,1.7-5l3.3-21.7h1.7c3.3,0,1.7,5,3.3,3.3,1.7-5,0-1.7,1.7-6.7v-5,1.7h3.3c1.7-3.3,0-1.7-1.7-3.3h-1.7l1.7-1.7,1.7-1.7,1.7,3.3s-3.3-10,0-11.7l1.7,1.7s3.3-1.7,5-1.7c6.7-11.7,3.3-25.1,13.4-26.8v-1.7l-3.3-3.3,1.7-6.7h-1.7c3.3-1.7,10-16.7,16.7-30.1,1.7-11.7,5-20.1,3.3-21.7,3.3-1.7,5-5,8.4-10l1.7-6.7,1.7-5,3.3-6.7-1.7-5c5,0,6.7-6.7,3.3-10,1.7,0,3.3-1.7,6.7-6.7,0-6.7,1.7-20.1,6.7-23.4,6.7-3.3,1.7-6.7,5-11.7l1.7-1.7v-1.7l1.7-1.7h1.7l-3.3-3.3,1.7-5v-1.7c3.3-1.7,21.7-41.8,23.4-48.5l1.7-1.7,3.3-8.4v-1.7h-1.7l1.7-8.4,5-5,3.3-6.7v-5h1.7c1.7-3.3,3.3-8.4,5-11.7-1.7,0-3.3-1.7,0-1.7v-8.4l5-5,3.3,3.3v-11.6l1.7-3.3,1.7,3.3,1.7-1.7,1.7-5c-5,10-1.7-11.7,0-13.4l3.3,1.7,3.3-1.7v-5l-1.7-1.7v3.3-1.7h-1.7v-1.7l3.3-1.7c0-1.7-1.7-10,1.7-6.7l1.7-6.7h3.3l-1.7-3.3h1.7v-6.7l3.3-5h1.7-1.7c1.7,0,6.7-3.3,5-6.7l-1.7,1.7c-3.3-1.7-1.7-5-1.7-5,5-1.7-1.7-8.4,5-1.7v-3.3c-1.7-3.3-3.3-6.7-1.7-8.4,13.4-10,10-25.1,11.7-26.8l3.3,1.7,1.7-6.7c1.7,1.7,3.3,3.3,6.7,5v-1.6l1.7,1.7,1.7,1.7c3.3-3.3,11.7,8.4,16.7,6.7l3.3,5,3.3,1.7,5,1.7,1.7,5h3.3v3.3c5,3.3,8.4,6.7,5,8.4h6.7l-1.7,3.3,5-1.7,8.4,3.3-1.7,3.3v1.7l3.3,3.3,1.7-3.3c0,20.1,16.7,8.4,15,20.1l5-1.7,1.7,6.7h1.7l1.7,10,5-3.3,1.7,8.4c0-5,6.7,1.7,6.7-3.3l3.3,5h5c1.7,3.3,3.3,6.7,1.7,10l6.7,1.7,3.3,6.7,8.4,5v3.3h5c0,1.7-3.3,5-1.7,6.7l8.4,1.7c-8.4,5,6.7,6.7,8.4,6.7l3.3,8.4c3.3,1.7,10,5,11.7,1.7l3.3,6.7c3.3,1.7,5,8.4,8.4,11.7-.1-4.7-1.3-9.2-3.3-13.4l5,5c1.7,1.7,6.7,6.7,11.7,15.1h5l1.7,8.4,6.7,5c-1.7,0,1.7-6.7,5-1.7l1.7,1.7v1.7l3.3-1.7,1.7,5c1.7,1.7,6.7,5,6.7,6.7h1.7c3.3-1.7,6.7,3.3,8.4,6.7v5c3.3,3.3,8.4,6.7,13.4,8.4l1.7,1.7c5,3.3,10,5,13.4,8.4l1.7,6.7h3.3l1.7,1.7c3.3,3.3,6.7,6.7,8.4,10l10,5c3.3,3.3,3.3,8.4,8.4,13.4h1.7v-3.4,1.7l3.3,3.3c3.3,0,6.7-1.7,11.7,3.3,1.7,3.3-1.7,10,1.7,10h6.7c-1.7,5,5,8.4,10,10l1.7,3.3,3.3,3.3v1.7l1.7,3.3v-1.7l5,1.7h-1.7l1.7,5,1.7-3.3c0,1.7,15,16.7,31.8,31.8l3.3,1.7h5l1.7,6.7,1.7,1.7h1.7v1.7h3.3v1.7l1.7,1.7h3.3c3.3,3.3,10,11.7,8.4,8.4h6.7c-1.7,3.3,5,11.7,8.4,13.4v1.7c1.7,1.7,3.3-3.3,5-1.7,3.3,1.7,3.3,5,3.3,6.7l3.3-1.7c2.1,2.3,3.3,5.3,3.3,8.4l3.3,5,3.3,1.7h3.3l1.7,8.4,5,3.3c1.7-1.7,3.3-3.3,6.7,0l-1.7,3.3,3.3,1.7v-3.3h1.7l5,10v1.7h5l5,6.7,3.3-1.7,1.7,8.4-1.7-1.7v3.3l1.7,3.3,1.7,1.7,5-1.7c6.7,3.3,6.7,6.7,16.7,10v3.3l5,3.3c0,1.7,0,6.7,3.3,10l13.4,3.3c-1.7,6.7,8.4,8.4,8.4,6.7v1.7l3.3-1.7v1.7c1.7,0,3.3,5,1.7,5v3.3c5,10,13.4-8.4,21.7,18.4h8.4v6.7h3.3l-3.3,6.7h1.7l6.7-3.3c1.7,1.7,3.3,6.7,3.3,10l5,1.7v3.3c1.7,0,5-1.7,8.4-3.3v6.7h1.6l1.7,3.3,3.4,1.7v-1.7,1.7l5,3.3v1.7h5l-1.7-1.7,1.7,1.7,1.7,6.7,1.7,1.7c3.3,0,6.7,1.7,6.7,5,5,0,6.7,1.7,6.7,5h5v3.3l3.3,5h1.7v1.7h3.3v10l1.7-6.7,3.3,1.7,1.7,10c0-3.3,6.7,1.7,8.4-3.3l3.3,5h3.3c10,16.7,10,5,15,11.7l1.7,8.4c0-3.4,3.3-5,5-1.7,3.4,5,8.4,15.1,10.1,21.8h1.7l3.3-5,1.7,8.4h3.3v-1.7l1.7,1.7,3.3,6.7h1.7l-1.7-1.7,1.7,1.7,5,5-1.7,1.7c3.3,3.3,5,5,6.7,3.3,3.3,0,3.3,6.7,5,3.3v3.4-1.7l6.7,1.7-3.3,1.7,1.7,3.4h3.3l-1.7,3.3,1.7,1.7c0,1.7,5,1.7,5,0l3.3,3.3v1.7h3.3c1.7,3.3,1.7,8.4,1.7,11.7l1.7,1.7,1.7,1.7,5-1.7,1.7,1.7,1.7-1.7c0,1.7,1.7,3.3,1.7,6.7h5l-1.7,5,3.3,5h1.7l3.3,5v45.2c-15-15.1-30.1-30.1-48.5-41.8l-1.7-8.4c0,5-3.3,3.3-6.7,1.7-1.7-3.3-10-18.4-11.7-21.7l-5.3-3.4h0Z"/>
  <path class="cls-2" d="M948.2,391.3c-13.4,16.7-8.4,46.8-30.1,55.2-3.3-8.4,10-13.4,5-21.7,6.7-6.7,1.7-20.1,15-23.4-3.3-6.7,3.3-10,3.3-16.7,5-3.3,3.3,3.4,6.7,6.7h0ZM918.1,458.2v8.4c-1.7,0-5,0-6.7-1.7-1.7-5,5-21.8,6.7-6.7ZM911.4,471.6c1.7,3.3-1.7,5-3.3,8.4,0,1.7,1.7,1.7,1.7,5-1.7,3.3-5,0-8.4,1.7,0-8.4,1.7-15.1,10-15.1h0ZM836.2,663.9c-11.7,0-1.7,13.4-10,16.7l-5-6.7c11.7-1.7-3.3-23.4,11.7-20.1l3.3,10h0ZM812.8,710.8c-8.4,6.7-1.7,13.4-6.7,16.7-3.3,10-11.7,18.4-11.7,30.1-11.7-5,3.3-13.4,1.7-23.4,3.3-6.7,8.4-16.7,10-23.4h6.7ZM719.1,956.6c-3.3,3.3-8.4,1.7-13.4,3.3-3.3-10,6.7-11.7,6.7-20.1,5,3.3,8.4,10,6.7,16.7h0ZM702.4,975c3.3,21.8-20.1,35.1-15.1,56.9-1.7,5-6.7,5-10,5-1.7-21.7,11.7-38.5,15.1-56.9,1.7-5,5-6.7,10-5ZM675.6,1056.9c0,1.7-1.7,3.3-1.7,3.3l-13.4-1.7c-3.3-10,15-11.7,15-1.7h0ZM727.5,924.8c0,8.4-3.3,11.7-13.4,11.7-5-3.3,0-6.7,1.7-10l3.3,3.3c3.3-5,3.3-10,8.4-5ZM953.2,366.3c0,6.7-1.7,10-6.7,13.4l-3.3-1.7c1.7-3.3,0-15.1,10-11.7ZM844.5,632.1c1.7,3.3,0,3.3-1.7,5h-3.3v-6.7c1.7,0,5,0,5,1.7ZM841.2,643.9c0,1.7,1.7,5-1.7,6.7-5,0-5-5-5-8.4,3.3,0,5-1.7,6.7,1.7ZM702.4,959.9c-3.3,0-5-1.7-6.7-3.3-1.7-3.4,3.3-6.7,6.7-6.7v10.1Z"/>
  <path class="cls-2" d="M792.7,755.9c1.7,1.7,0,3.3-1.7,5h-5v-6.7c3.3,0,5,0,6.7,1.7ZM789.4,767.6c0,1.7,0,5-1.7,5-5,1.7-5-5-5-8.4,1.7,0,5,0,6.7,3.3h0Z"/>
  <path class="cls-2" d="M821.1,689v10h-3.3c-1.7,5,1.7,13.4-5,13.4,1.7,3.3-1.7,5-3.3,6.7v13.4h-6.7c3.3,8.4-11.7,3.3-1.7,13.4-6.7-1.7-1.7,10-8.4,10h-3.3c-3.3-5,1.7-3.3,3.3-8.4,0-1.7,5,0,3.3-3.3-3.3,0-1.7-3.3-3.3-5l1.7-3.3c3.3,0,3.3-3.3,5-3.3l1.7-3.3c-1.7,0-5-1.7-5-3.3,3.3,0,0-6.7,3.3-5,3.3-5-1.7-15.1,5-15.1v-5l5-3.3v-3.3l3.3-3.3v-8.4c3.4,0,21.8-1.6,8.4,6.7h0ZM844.5,640.5v1.7c-5,0-3.3,5-8.4,5,0,1.7-1.7,1.7-1.7,3.3-1.7,1.7,0-3.3-1.7-1.7-3.3-6.7,5-1.7,3.3-8.4,5,1.7,1.7-5,5-3.3h1.7l1.7,3.3h0ZM774.3,796c0,5,6.7,3.3,5,10-3.3-1.7-3.3,3.4-5,3.4,0,3.3,0,6.7,1.7,10v5c-3.3-1.7-3.3,1.7-3.3,3.3,3.3,10-8.4,8.4-5,20.1h-3.3v6.7c-6.7-3.3-3.3,5-6.7,3.3l-1.7,3.4h3.3c1.7,3.3-1.7,3.3-3.3,5v6.7h-3.3v10c-3.3-1.7-3.3,1.7-5,1.7v5h-1.7v10c-5-1.7-8.4,10-11.7,8.4-1.7,3.3,1.7,10-3.3,11.7-3.3-1.7-1.7-8.4-1.7-11.7,10-1.7-1.7-8.4,1.7-11.7,3.3,1.7,1.7-5,6.7-3.3v-6.7c3.3,1.7,1.7-1.7,3.3-1.7v-11.7c8.4-1.7,1.7-15.1,6.7-18.4h1.7c0,1.7,0,3.3,1.7,3.3l1.7-3.3h3.3c1.7-5-1.7-16.7,5-16.7-1.7-1.7-1.7-3.3-3.3-1.7,0-3.3,0-5,3.3-3.3-1.7-8.4,3.3-8.4,5-15h1.7v-6.7l3.3-1.7c0-1.7-3.3-3.4-3.3-5,1.7,0,3.3,0,5,3.4,1.7-1.7,3.3-5,3.3-6.7h-5c0-3.3,1.7-5,3.4-5h0ZM898.1,491.7c0,3.3,0,6.7,3.3,8.4,0,1.7,0,3.3-3.3,1.7v-1.7c-3.3-1.7-1.7,1.7-3.3,1.7l1.7,3.3h-1.7c3.3,8.4-8.4,6.7-3.3,16.7,0,1.7-3.3,1.7-5,3.3-1.7,3.3,1.7,11.7-3.3,13.4v3.3c1.7,0,0,5,0,6.7l-1.7,1.7c-5,0,0,6.7-3.3,8.4-1.7,3.3,1.7,5,0,8.4l-1.7,10c-5,0-5,5-10,3.3-3.3,1.7-1.7,5-1.7,8.4-8.4-3.3-1.7,11.7-8.4,13.4,0,5,1.7,10-1.7,13.4-5-3.3-3.3,3.3-3.3,3.3,0,0-1.7,5-3.3,1.7s-3.3,0-3.3,0v-11.7c3.3,1.7,1.7-1.7,5-1.7,0-3.3-1.7-10,3.3-10,0-5-1.7-16.7,3.3-18.4,1.7-3.3-1.7-13.4,5-13.4v-3.3h5c1.7-3.3,0-6.7,5-6.7,0-3.3,1.7-8.4-1.7-10l1.7-1.7c0-3.3,1.7-3.3,3.3-3.3v-10h3.3c1.7-5,1.7-8.4,1.7-13.4,3.3,0,3.3-3.3,5-3.3,0-3.3,5-5,1.7-6.7-1.7-1.7,0,0-1.7-3.3,3.3,0,3.3,1.7,5,1.7l1.7-5c5,1.7,0-5,3.3-3.3v-5h3.3,0ZM710.7,973.3c-3.3,1.7-5,0-6.7-1.7,0-3.3,3.3-8.4,6.7-6.7v8.4ZM787.7,781c-3.3-1.7-1.7,3.3-3.3,3.3l-1.7,11.7c-5,1.7-5-3.3-3.3-6.7h-3.3v3.3l-3.3-1.7v-3.3h3.3c0-1.7-1.7-1.7-1.7-5,6.7,0,3.3-8.4,13.4-5v3.4h0,0Z"/>
</svg>