<svg width="27" height="23" viewBox="0 0 27 23" fill="none" xmlns="http://www.w3.org/2000/svg">
<g clip-path="url(#clip0_954_612)">
<path d="M-1.63762e-06 13.1829L-1.34337e-06 9.81709L3.44681 9.81709L3.44681 6.73172L6.89362 6.73172L6.89362 10.0976L27 10.0976L27 12.9025L6.89362 12.9025L6.89362 16.2683L3.44681 16.2683L3.44681 13.1829L-1.63762e-06 13.1829Z" fill="#16161D"/>
<path d="M6.89303 19.6342L10.3398 19.6342L10.3398 16.2683L6.89304 16.2683L6.89303 19.6342Z" fill="#16161D"/>
<path d="M10.3403 23L13.7871 23L13.7871 19.6341L10.3403 19.6341L10.3403 23Z" fill="#16161D"/>
<path d="M6.89303 6.73169L10.3398 6.73169L10.3398 3.36584L6.89304 3.36584L6.89303 6.73169Z" fill="#16161D"/>
<path d="M10.3403 3.36584L13.7871 3.36584L13.7871 -8.58307e-06L10.3403 -8.8844e-06L10.3403 3.36584Z" fill="#16161D"/>
</g>
<defs>
<clipPath id="clip0_954_612">
<rect width="27" height="23" fill="white" transform="translate(27 23) rotate(-180)"/>
</clipPath>
</defs>
</svg>
