<?xml version="1.0" encoding="UTF-8"?>
<svg id="Layer_1" data-name="Layer 1" xmlns="http://www.w3.org/2000/svg" version="1.1" viewBox="0 0 406.2 453.5">
  <defs>
    <style>
      .cls-1 {
        fill: #dee1fc;
      }

      .cls-1, .cls-2, .cls-3, .cls-4 {
        stroke-width: 0px;
      }

      .cls-2 {
        fill: #aaaaad;
      }

      .cls-3 {
        fill: #16161d;
      }

      .cls-4 {
        fill: #fff;
      }
    </style>
  </defs>
  <polygon class="cls-1" points="397.2 20.5 397.2 29.5 406.2 29.5 406.2 444.5 397.2 444.5 397.2 453.5 28.2 453.5 28.2 444.5 19.2 444.5 19.2 30.5 28.2 30.5 28.2 21.5 397.2 20.5"/>
  <g>
    <polygon class="cls-1" points="380 2 380 11 389 11 389 426 380 426 380 435 11 435 11 426 2 426 2 12 11 12 11 3 380 2"/>
    <path class="cls-3" d="M382,437H9v-9H0V10h9V1L382,0v9h9v419h-9v9ZM13,433h365v-9s9,0,9,0V13h-9V4L13,5v9H4v410h9v9Z"/>
  </g>
  <rect class="cls-4" x="46" y="74" width="243" height="37"/>
  <g>
    <path class="cls-3" d="M47.1,102.4h2.5v-20.6h-2.5v-1.9h9.2v1.9h-2.5v9h3.3l2.9-6.1c.5-1,.9-1.8,1.4-2.5.4-.7.9-1.2,1.3-1.6.4-.4.9-.7,1.4-.9.5-.2,1-.3,1.5-.3.9,0,1.6.3,2.1.8.5.5.7,1.2.7,1.9s-.2,1.4-.6,1.9c-.4.5-1,.7-1.7.7s-1.2-.2-1.6-.6c-.4-.4-.6-.9-.7-1.5h-.1c-.3.3-.5.8-.8,1.3s-.6,1.1-.8,1.7l-2.8,5.8c.7,0,1.4.3,1.9.7.5.4,1,1,1.4,1.8l5,8.5h2.3v1.9h-5.9l-6.7-11.5h-3.3v9.6h2.5v1.9h-9.2v-1.9Z"/>
    <path class="cls-3" d="M79.2,104.7c-1.3,0-2.4-.2-3.5-.7s-1.9-1.1-2.7-1.9c-.7-.8-1.3-1.8-1.7-3-.4-1.2-.6-2.5-.6-4s.2-2.8.6-4c.4-1.2,1-2.2,1.7-3,.7-.8,1.6-1.4,2.7-1.9,1-.4,2.2-.7,3.5-.7s2.4.2,3.5.7c1,.4,1.9,1.1,2.7,1.9.7.8,1.3,1.8,1.7,3,.4,1.2.6,2.5.6,4s-.2,2.8-.6,4c-.4,1.2-1,2.2-1.7,3-.7.8-1.6,1.4-2.7,1.9s-2.2.7-3.5.7ZM79.2,102.7c1.5,0,2.5-.5,3.2-1.4.7-.9,1-2.1,1-3.7v-4.9c0-1.5-.3-2.7-1-3.7-.7-.9-1.8-1.4-3.2-1.4s-2.5.5-3.2,1.4c-.7.9-1,2.1-1,3.7v4.9c0,1.5.3,2.7,1,3.7.7.9,1.8,1.4,3.2,1.4Z"/>
    <path class="cls-3" d="M99.3,104.7c-1.3,0-2.4-.2-3.5-.7s-1.9-1.1-2.7-1.9c-.7-.8-1.3-1.8-1.7-3-.4-1.2-.6-2.5-.6-4s.2-2.8.6-4c.4-1.2,1-2.2,1.7-3,.7-.8,1.6-1.4,2.7-1.9,1-.4,2.2-.7,3.5-.7s2.4.2,3.5.7c1,.4,1.9,1.1,2.7,1.9.7.8,1.3,1.8,1.7,3,.4,1.2.6,2.5.6,4s-.2,2.8-.6,4c-.4,1.2-1,2.2-1.7,3-.7.8-1.6,1.4-2.7,1.9s-2.2.7-3.5.7ZM99.3,102.7c1.5,0,2.5-.5,3.2-1.4.7-.9,1-2.1,1-3.7v-4.9c0-1.5-.3-2.7-1-3.7-.7-.9-1.8-1.4-3.2-1.4s-2.5.5-3.2,1.4c-.7.9-1,2.1-1,3.7v4.9c0,1.5.3,2.7,1,3.7.7.9,1.8,1.4,3.2,1.4Z"/>
    <path class="cls-3" d="M110.4,109.4h2.4v-20.5l-2.4-.5v-1.5l6.2-1.2v3.1h.2c.4-.8,1-1.6,1.8-2.2.8-.6,1.9-.9,3.3-.9s2.1.2,3,.6c.9.4,1.7,1.1,2.3,1.9.6.8,1.1,1.8,1.5,3,.3,1.2.5,2.5.5,4s-.2,2.8-.5,4c-.3,1.2-.8,2.2-1.5,3-.6.8-1.4,1.4-2.3,1.9s-1.9.6-3,.6-2.5-.3-3.3-.9c-.8-.6-1.4-1.4-1.8-2.2h-.2v7.8h3v1.9h-9.3v-1.9ZM120.7,102.2c1.3,0,2.4-.5,3.2-1.4.8-.9,1.2-2.2,1.2-3.8v-3.7c0-1.6-.4-2.9-1.2-3.8-.8-.9-1.8-1.4-3.2-1.4s-1,0-1.5.2c-.5.2-.9.4-1.3.7-.4.3-.7.7-.9,1.1-.2.4-.3.9-.3,1.4v7.1c0,.5.1,1,.3,1.4.2.4.5.8.9,1.1.4.3.8.5,1.3.7.5.2,1,.2,1.5.2Z"/>
    <path class="cls-3" d="M130.6,102.3h2.5c1.1-1.4,1.9-3.1,2.5-5.2.6-2,.9-4.5.9-7.4v-1.7h-2.6v-1.9h15.8v1.9h-2.4v14.3h3.5v7.3h-3.2v-5.2h-13.9v5.2h-3.3v-7.3ZM143.6,102.3v-14.1h-4.7v1.6c0,2.8-.3,5.2-.8,7.3-.6,2.1-1.3,3.9-2.3,5.2h7.8Z"/>
    <path class="cls-3" d="M153.4,102.4h2.4v-14.4h-2.4v-1.9h8.4v1.9h-2.3v6l-.3,4.5h.1l8-9.6v-.9h-2.3v-1.9h8.4v1.9h-2.4v14.4h2.4v1.9h-8.4v-1.9h2.3v-5.9l.3-4.6h-.1l-8,9.6v.9h2.3v1.9h-8.4v-1.9Z"/>
    <path class="cls-3" d="M176.6,102.4h2.4v-14.4h-2.4v-1.9h8.5v1.9h-2.3v6h7.6v-6h-2.3v-1.9h8.5v1.9h-2.4v14.4h2.4v1.9h-8.5v-1.9h2.3v-6.4h-7.6v6.4h2.3v1.9h-8.5v-1.9Z"/>
    <path class="cls-3" d="M205,104.7c-1.8,0-3.2-.4-4.1-1.3-.9-.9-1.4-2.1-1.4-3.7s.6-3.1,1.9-4c1.2-.9,3.3-1.4,6.1-1.4h2.5v-2.4c0-1.4-.3-2.5-.9-3.3-.6-.7-1.6-1.1-2.9-1.1s-2,.2-2.6.5h0c.3.3.5.5.7.8.2.3.3.7.3,1.2s-.2,1.2-.6,1.6c-.4.4-.9.6-1.6.6s-1.1-.2-1.5-.6c-.4-.4-.6-1-.6-1.7s.2-1.1.5-1.6c.3-.5.8-1,1.4-1.3.6-.4,1.3-.7,2.2-.9.9-.2,1.9-.4,3-.4,2.2,0,3.8.5,4.9,1.5,1.1,1,1.7,2.5,1.7,4.3v10.9h2.4v1.6c-.3.2-.7.3-1.2.5-.5.1-1.1.2-1.6.2-1.1,0-1.8-.3-2.3-.8-.5-.5-.7-1.3-.7-2.1v-.2h-.2c-.2.4-.4.8-.6,1.1-.3.4-.6.7-1,1-.4.3-.9.5-1.5.7-.6.2-1.3.3-2,.3ZM206.5,102.3c1,0,1.9-.2,2.5-.7.7-.5,1-1.3,1-2.4v-3.1h-2.1c-1.6,0-2.8.3-3.4.8-.6.5-1,1.3-1,2.3v.7c0,.8.3,1.5.8,1.9.5.4,1.3.6,2.2.6Z"/>
    <path class="cls-3" d="M221.6,102.4h2.8v-14.3h-4v3.3h-2.6v-5.4h17v5.4h-2.6v-3.3h-4v14.3h2.8v1.9h-9.4v-1.9Z"/>
    <path class="cls-3" d="M245.8,104.7c-1.3,0-2.4-.2-3.5-.7-1-.4-1.9-1.1-2.7-1.9-.7-.8-1.3-1.8-1.7-3-.4-1.2-.6-2.5-.6-4s.2-2.8.6-4c.4-1.2,1-2.2,1.7-3,.7-.8,1.6-1.4,2.7-1.9,1-.4,2.2-.7,3.5-.7s2.4.2,3.5.7c1,.4,1.9,1.1,2.7,1.9.7.8,1.3,1.8,1.7,3s.6,2.5.6,4-.2,2.8-.6,4-1,2.2-1.7,3c-.7.8-1.6,1.4-2.7,1.9s-2.2.7-3.5.7ZM245.8,102.7c1.5,0,2.5-.5,3.2-1.4.7-.9,1-2.1,1-3.7v-4.9c0-1.5-.3-2.7-1-3.7-.7-.9-1.8-1.4-3.2-1.4s-2.5.5-3.2,1.4c-.7.9-1,2.1-1,3.7v4.9c0,1.5.3,2.7,1,3.7.7.9,1.8,1.4,3.2,1.4Z"/>
    <path class="cls-3" d="M256.8,109.4h2.4v-20.5l-2.4-.5v-1.5l6.2-1.2v3.1h.2c.4-.8,1-1.6,1.8-2.2.8-.6,1.9-.9,3.3-.9s2.1.2,3,.6c.9.4,1.7,1.1,2.3,1.9.6.8,1.1,1.8,1.5,3,.3,1.2.5,2.5.5,4s-.2,2.8-.5,4c-.3,1.2-.8,2.2-1.5,3-.6.8-1.4,1.4-2.3,1.9-.9.4-1.9.6-3,.6s-2.5-.3-3.3-.9c-.8-.6-1.4-1.4-1.8-2.2h-.2v7.8h3v1.9h-9.3v-1.9ZM267.1,102.2c1.3,0,2.4-.5,3.2-1.4.8-.9,1.2-2.2,1.2-3.8v-3.7c0-1.6-.4-2.9-1.2-3.8-.8-.9-1.8-1.4-3.2-1.4s-1,0-1.5.2c-.5.2-.9.4-1.3.7s-.7.7-.9,1.1-.3.9-.3,1.4v7.1c0,.5.1,1,.3,1.4.2.4.5.8.9,1.1s.8.5,1.3.7c.5.2,1,.2,1.5.2Z"/>
    <path class="cls-3" d="M282.3,90.9c-.8,0-1.4-.2-1.9-.7-.5-.5-.7-1.1-.7-1.8v-.2c0-.7.2-1.3.7-1.8.5-.5,1.1-.7,1.9-.7s1.4.2,1.9.7c.5.5.7,1.1.7,1.8v.2c0,.7-.2,1.3-.7,1.8-.4.5-1.1.7-1.9.7ZM282.3,104.7c-.8,0-1.4-.2-1.9-.7-.5-.5-.7-1.1-.7-1.8v-.2c0-.7.2-1.3.7-1.8.5-.5,1.1-.7,1.9-.7s1.4.2,1.9.7c.5.5.7,1.1.7,1.8v.2c0,.7-.2,1.3-.7,1.8-.4.5-1.1.7-1.9.7Z"/>
  </g>
  <g>
    <path class="cls-3" d="M55.6,322.3l-5-6.7h-1.8v6.7h-1.7v-14.5h1.7v6.3h.8l5.8-6.3h2.1l-5.8,6.4,6,8.2h-2.1Z"/>
    <path class="cls-3" d="M61.4,319.8l5.2-8.4h1.9v10.9h-1.7v-8.4l-5.2,8.4h-1.9v-10.9h1.7v8.4Z"/>
    <path class="cls-3" d="M70.4,309.6c-.3,0-.6-.1-.8-.3-.2-.2-.3-.5-.3-.8s.1-.6.3-.8c.2-.2.5-.3.8-.3s.6.1.8.3c.2.2.3.5.3.8s-.1.6-.3.8c-.2.2-.5.3-.8.3ZM71.5,322.3v-10.9h1.7v10.9h-1.7ZM74.4,309.6c-.3,0-.6-.1-.8-.3-.2-.2-.3-.5-.3-.8s.1-.6.3-.8c.2-.2.5-.3.8-.3s.6.1.8.3c.2.2.3.5.3.8s-.1.6-.3.8c-.2.2-.5.3-.8.3Z"/>
    <path class="cls-3" d="M76.2,322.3v-10.9h4.4c1.2,0,2.1.3,2.8.8s1,1.2,1,2.1-.2,1.2-.6,1.5c-.4.4-.9.6-1.5.7.4,0,.8.2,1.2.4.4.2.7.5.9.9.2.4.4.9.4,1.5s-.1,1.1-.4,1.5c-.3.4-.7.8-1.2,1-.5.3-1.2.4-1.9.4h-5.1ZM77.8,316h2.8c.4,0,.8,0,1.1-.2.3-.1.6-.3.7-.5.2-.2.3-.5.3-.8,0-.5-.2-.8-.6-1.1-.4-.3-.9-.4-1.6-.4h-2.8v3ZM77.8,320.8h3.5c.6,0,1-.1,1.3-.4.3-.3.5-.6.5-1.1s-.2-1-.5-1.3c-.3-.3-.8-.5-1.3-.5h-3.5v3.4Z"/>
    <path class="cls-3" d="M91.7,322.5c-1,0-1.9-.2-2.6-.7-.7-.5-1.3-1.1-1.7-2-.4-.8-.6-1.8-.6-2.9s.2-2.1.6-2.9,1-1.5,1.7-2,1.6-.7,2.6-.7,1.4.1,2.1.4c.6.3,1.1.7,1.5,1.2.4.5.6,1.1.7,1.8h-1.7c-.1-.5-.4-.9-.8-1.3-.4-.4-1-.6-1.7-.6s-1.2.2-1.7.5c-.5.3-.9.8-1.1,1.4-.3.6-.4,1.3-.4,2.2s.1,1.6.4,2.2c.3.6.6,1.1,1.1,1.5.5.3,1.1.5,1.7.5s.8,0,1.2-.2c.4-.2.6-.4.9-.7.2-.3.4-.6.5-1h1.7c0,.6-.3,1.2-.7,1.7s-.9.9-1.5,1.2c-.6.3-1.3.5-2.1.5Z"/>
    <path class="cls-3" d="M99.8,315.3h3.1c1.3,0,2.2.3,2.9,1,.7.6,1,1.5,1,2.5s-.1,1.2-.4,1.8c-.3.5-.7,1-1.3,1.3-.6.3-1.3.5-2.1.5h-4.5v-10.9h1.7v9.3h2.9c.7,0,1.2-.2,1.6-.5.4-.4.6-.8.6-1.3s-.2-1-.6-1.4c-.4-.4-1-.5-1.6-.5h-3.1v-1.6Z"/>
    <path class="cls-3" d="M109.4,322.3v-10.9h1.7v4.7h1.1l3.9-4.7h2.1l-4.4,5.3,4.4,5.7h-2.1l-3.5-4.6h-1.5v4.6h-1.7Z"/>
    <path class="cls-3" d="M121.7,319.8l5.2-8.4h1.9v10.9h-1.7v-8.4l-5.2,8.4h-1.9v-10.9h1.7v8.4Z"/>
    <path class="cls-3" d="M133.5,319.8l5.2-8.4h1.9v10.9h-1.7v-8.4l-5.2,8.4h-1.9v-10.9h1.7v8.4ZM137.6,307.7h1.5c0,.8-.3,1.4-.8,1.9-.5.5-1.2.7-2.1.7s-1.6-.2-2.1-.7c-.5-.5-.8-1.1-.8-1.9h1.5c0,.4.1.7.3,1,.2.3.6.4,1,.4s.8-.1,1.1-.4.3-.6.3-1Z"/>
    <path class="cls-3" d="M149.4,322.3v-14.5h1.7v6.5h7.7v-6.5h1.7v14.5h-1.7v-6.5h-7.7v6.5h-1.7Z"/>
    <path class="cls-3" d="M167,322.5c-.7,0-1.3-.1-1.9-.4-.6-.3-1-.6-1.3-1.1-.3-.5-.5-1.1-.5-1.8s.1-1.1.4-1.5.6-.7,1-.9c.4-.2.9-.4,1.4-.5s1-.2,1.5-.3c.7,0,1.2-.2,1.6-.2s.7-.1.9-.2.3-.3.3-.6h0c0-.8-.2-1.3-.6-1.7s-.9-.6-1.7-.6-1.4.2-1.9.5c-.5.4-.8.7-.9,1.1l-1.6-.6c.3-.7.7-1.2,1.1-1.6.5-.4,1-.6,1.5-.8.6-.1,1.1-.2,1.7-.2s.7,0,1.2.1c.5,0,.9.3,1.3.5.4.3.8.6,1.1,1.2s.4,1.2.4,2.1v7.2h-1.7v-1.5h0c-.1.2-.3.5-.6.8-.3.3-.6.5-1,.7s-1,.3-1.6.3ZM167.3,321c.7,0,1.2-.1,1.7-.4.5-.3.8-.6,1-1,.2-.4.3-.8.3-1.3v-1.5c0,0-.2.2-.5.2-.2,0-.5.1-.8.2-.3,0-.6,0-.9.1s-.5,0-.7,0c-.4,0-.8.1-1.2.3-.4.1-.7.3-.9.6-.2.2-.3.6-.3,1s.2,1,.6,1.3c.4.3,1,.4,1.6.4Z"/>
    <path class="cls-3" d="M183.5,311.4v9.3h1.5v5.1h-1.7v-3.5h-8.4v-10.9h1.7v9.3h5.2v-9.3h1.7Z"/>
    <path class="cls-3" d="M189.2,319.8l5.2-8.4h1.9v10.9h-1.7v-8.4l-5.2,8.4h-1.9v-10.9h1.7v8.4Z"/>
    <path class="cls-3" d="M203.8,322.5c-1,0-1.8-.2-2.6-.7-.7-.5-1.3-1.1-1.7-2-.4-.8-.6-1.8-.6-3s.2-2.1.6-3c.4-.8,1-1.5,1.7-2,.7-.5,1.6-.7,2.6-.7s1.8.2,2.6.7c.7.5,1.3,1.1,1.7,2s.6,1.8.6,3-.2,2.1-.6,3c-.4.8-1,1.5-1.7,2-.7.5-1.6.7-2.6.7ZM203.8,321c.7,0,1.4-.2,1.8-.6.5-.4.8-.9,1.1-1.5.2-.6.3-1.3.3-2s-.1-1.4-.3-2c-.2-.6-.6-1.1-1.1-1.5-.5-.4-1.1-.6-1.8-.6s-1.4.2-1.8.6c-.5.4-.8.9-1.1,1.5-.2.6-.3,1.3-.3,2s.1,1.4.3,2c.2.6.6,1.1,1.1,1.5.5.4,1.1.6,1.8.6Z"/>
    <path class="cls-3" d="M212.9,311.4v10.9h-1.7v-10.9h1.7ZM218.4,316.1v1.6h-6v-1.6h6ZM219.7,311.4v10.9h-1.7v-10.9h1.7Z"/>
    <path class="cls-3" d="M225.9,322.5c-.7,0-1.3-.1-1.9-.4-.6-.3-1-.6-1.3-1.1-.3-.5-.5-1.1-.5-1.8s.1-1.1.4-1.5.6-.7,1-.9c.4-.2.9-.4,1.4-.5s1-.2,1.5-.3c.7,0,1.2-.2,1.6-.2s.7-.1.9-.2.3-.3.3-.6h0c0-.8-.2-1.3-.6-1.7s-.9-.6-1.7-.6-1.4.2-1.9.5c-.5.4-.8.7-.9,1.1l-1.6-.6c.3-.7.7-1.2,1.1-1.6.5-.4,1-.6,1.5-.8.6-.1,1.1-.2,1.7-.2s.7,0,1.2.1c.5,0,.9.3,1.3.5s.8.6,1.1,1.2.4,1.2.4,2.1v7.2h-1.7v-1.5h0c-.1.2-.3.5-.6.8-.3.3-.6.5-1,.7-.4.2-1,.3-1.6.3ZM226.2,321c.7,0,1.2-.1,1.7-.4.5-.3.8-.6,1-1,.2-.4.3-.8.3-1.3v-1.5c0,0-.2.2-.5.2-.2,0-.5.1-.8.2s-.6,0-.9.1c-.3,0-.5,0-.7,0-.4,0-.8.1-1.2.3-.4.1-.7.3-.9.6-.2.2-.3.6-.3,1s.2,1,.6,1.3c.4.3,1,.4,1.6.4Z"/>
    <path class="cls-3" d="M232.9,322.3v-1.6h.4c.3,0,.6,0,.8-.2.2-.1.4-.4.5-.7.1-.3.2-.8.3-1.4,0-.6.1-1.3.2-2.3l.2-4.8h7.2v10.9h-1.7v-9.3h-4l-.2,3.9c0,.9-.1,1.7-.2,2.4s-.3,1.2-.5,1.7c-.2.5-.6.8-1,1s-.9.3-1.5.3h-.6Z"/>
    <path class="cls-3" d="M247,315.3h3.1c1.3,0,2.2.3,2.9,1,.7.6,1,1.5,1,2.5s-.2,1.2-.4,1.8c-.3.5-.7,1-1.3,1.3-.6.3-1.3.5-2.1.5h-4.5v-10.9h1.7v9.3h2.9c.7,0,1.2-.2,1.6-.5.4-.4.6-.8.6-1.3s-.2-1-.6-1.4c-.4-.4-1-.5-1.6-.5h-3.1v-1.6Z"/>
    <path class="cls-3" d="M258.2,311.4v10.9h-1.7v-10.9h1.7ZM263.8,316.1v1.6h-6v-1.6h6ZM265,311.4v10.9h-1.7v-10.9h1.7Z"/>
    <path class="cls-3" d="M269.7,319.8l5.2-8.4h1.9v10.9h-1.7v-8.4l-5.2,8.4h-1.9v-10.9h1.7v8.4Z"/>
    <path class="cls-3" d="M281.5,319.8l5.2-8.4h1.9v10.9h-1.7v-8.4l-5.2,8.4h-1.9v-10.9h1.7v8.4ZM285.6,307.7h1.5c0,.8-.3,1.4-.8,1.9-.5.5-1.2.7-2.1.7s-1.6-.2-2.1-.7c-.5-.5-.8-1.1-.8-1.9h1.5c0,.4.1.7.3,1,.2.3.6.4,1,.4s.8-.1,1.1-.4.3-.6.3-1Z"/>
    <path class="cls-3" d="M47.9,351.5v-1.6h.9c.3,0,.6,0,.9-.2.2-.1.4-.3.6-.5.2-.2.3-.4.4-.7l.2-.5-5-11.1h1.9l4,9,3.6-9h1.9l-5,12.2c-.2.5-.4.9-.7,1.3-.3.4-.6.7-1,.9-.4.2-1,.4-1.7.4h-.9Z"/>
    <path class="cls-3" d="M60.1,340.4v10.9h-1.7v-10.9h1.7ZM65.7,345.1v1.6h-6v-1.6h6ZM67,340.4v10.9h-1.7v-10.9h1.7Z"/>
    <path class="cls-3" d="M70.9,338.6c-.3,0-.6-.1-.8-.3s-.3-.5-.3-.8.1-.6.3-.8.5-.3.8-.3.6.1.8.3.3.5.3.8-.1.6-.3.8-.5.3-.8.3ZM70,351.3v-10.9h1.7v10.9h-1.7Z"/>
    <path class="cls-3" d="M74.7,351.3v-10.9h4.4c1.2,0,2.1.3,2.8.8s1,1.2,1,2.1-.2,1.2-.6,1.5c-.4.4-.9.6-1.5.7.4,0,.8.2,1.2.4.4.2.7.5.9.9.2.4.4.9.4,1.5s-.1,1.1-.4,1.5c-.3.4-.7.8-1.2,1-.5.3-1.2.4-1.9.4h-5.1ZM76.3,345h2.8c.4,0,.8,0,1.1-.2.3-.1.6-.3.7-.5.2-.2.3-.5.3-.8,0-.5-.2-.8-.6-1.1-.4-.3-.9-.4-1.6-.4h-2.8v3ZM76.3,349.8h3.5c.6,0,1-.1,1.3-.4.3-.3.5-.6.5-1.1s-.2-1-.5-1.3c-.3-.3-.8-.5-1.3-.5h-3.5v3.4Z"/>
    <path class="cls-3" d="M90.4,351.5c-1,0-1.9-.2-2.7-.7s-1.3-1.1-1.7-2c-.4-.8-.6-1.8-.6-2.9s.2-2.1.6-3c.4-.9,1-1.5,1.7-2s1.6-.7,2.6-.7,1.1,0,1.7.3,1,.5,1.5.9c.5.4.8,1,1.1,1.7.3.7.4,1.6.4,2.6v.7h-8.3v-1.4h6.6c0-.6-.1-1.2-.4-1.6-.2-.5-.6-.9-1-1.1-.4-.3-1-.4-1.6-.4s-1.2.2-1.7.5c-.5.3-.8.8-1.1,1.3-.3.5-.4,1.1-.4,1.7v1c0,.8.1,1.5.4,2.1s.7,1,1.2,1.3c.5.3,1.1.4,1.8.4s.8,0,1.2-.2.7-.3.9-.6c.3-.3.5-.6.6-.9l1.6.5c-.2.5-.5,1-.9,1.4s-.9.7-1.5,1c-.6.2-1.2.3-2,.3Z"/>
    <path class="cls-3" d="M97.4,355.4v-15h1.6v1.7h.2c.1-.2.3-.4.5-.7.2-.3.5-.6.9-.8s1-.4,1.7-.4,1.7.2,2.4.7c.7.5,1.2,1.1,1.6,2,.4.8.6,1.8.6,3s-.2,2.2-.6,3c-.4.8-.9,1.5-1.6,2-.7.5-1.5.7-2.4.7s-1.2-.1-1.7-.4c-.4-.2-.7-.5-1-.8-.2-.3-.4-.5-.5-.7h-.1v5.8h-1.7ZM99,345.8c0,.8.1,1.5.4,2.2.2.6.6,1.1,1,1.5.5.4,1,.5,1.7.5s1.3-.2,1.7-.6c.5-.4.8-.9,1.1-1.5.2-.6.4-1.3.4-2.1s-.1-1.5-.3-2.1c-.2-.6-.6-1.1-1-1.5-.5-.4-1.1-.5-1.8-.5s-1.2.2-1.7.5-.8.8-1,1.4-.4,1.3-.4,2.1Z"/>
    <path class="cls-3" d="M113.8,351.5c-1,0-1.9-.2-2.6-.7-.7-.5-1.3-1.1-1.7-2-.4-.8-.6-1.8-.6-2.9s.2-2.1.6-2.9,1-1.5,1.7-2,1.6-.7,2.6-.7,1.4.1,2.1.4c.6.3,1.1.7,1.5,1.2.4.5.6,1.1.7,1.8h-1.7c-.1-.5-.4-.9-.8-1.3-.4-.4-1-.6-1.7-.6s-1.2.2-1.7.5c-.5.3-.9.8-1.1,1.4-.3.6-.4,1.3-.4,2.2s.1,1.6.4,2.2c.3.6.6,1.1,1.1,1.5.5.3,1.1.5,1.7.5s.8,0,1.2-.2c.4-.2.6-.4.9-.7.2-.3.4-.6.5-1h1.7c0,.6-.3,1.2-.7,1.7s-.9.9-1.5,1.2c-.6.3-1.3.5-2.1.5Z"/>
    <path class="cls-3" d="M122.1,348.8l5.2-8.4h1.9v10.9h-1.7v-8.4l-5.2,8.4h-1.9v-10.9h1.7v8.4Z"/>
    <path class="cls-3" d="M130.8,341.9v-1.6h8.8v1.6h-3.5v9.3h-1.7v-9.3h-3.6Z"/>
    <path class="cls-3" d="M146,351.5c-1,0-1.9-.2-2.7-.7s-1.3-1.1-1.7-2c-.4-.8-.6-1.8-.6-2.9s.2-2.1.6-3c.4-.9,1-1.5,1.7-2s1.6-.7,2.6-.7,1.1,0,1.7.3,1,.5,1.5.9c.5.4.8,1,1.1,1.7.3.7.4,1.6.4,2.6v.7h-8.3v-1.4h6.6c0-.6-.1-1.2-.4-1.6-.2-.5-.6-.9-1-1.1-.4-.3-1-.4-1.6-.4s-1.2.2-1.7.5c-.5.3-.8.8-1.1,1.3-.3.5-.4,1.1-.4,1.7v1c0,.8.1,1.5.4,2.1s.7,1,1.2,1.3c.5.3,1.1.4,1.8.4s.8,0,1.2-.2.7-.3.9-.6c.3-.3.5-.6.6-.9l1.6.5c-.2.5-.5,1-.9,1.4s-.9.7-1.5,1c-.6.2-1.2.3-2,.3Z"/>
    <path class="cls-3" d="M152,341.9v-1.6h8.8v1.6h-3.5v9.3h-1.7v-9.3h-3.6Z"/>
    <path class="cls-3" d="M170.7,336.7v14.5h-1.7v-14.5h1.7Z"/>
    <path class="cls-3" d="M175.6,340.4v10.9h-1.7v-10.9h1.7ZM179.9,349l3.8-8.6h1.6l-4.7,10.9h-1.4l-4.6-10.9h1.5l3.7,8.6ZM184.1,351.3v-10.9h1.7v10.9h-1.7Z"/>
    <path class="cls-3" d="M193.3,351.5c-1,0-1.9-.2-2.7-.7s-1.3-1.1-1.7-2c-.4-.8-.6-1.8-.6-2.9s.2-2.1.6-3c.4-.9,1-1.5,1.7-2s1.6-.7,2.6-.7,1.1,0,1.7.3,1,.5,1.5.9c.5.4.8,1,1.1,1.7.3.7.4,1.6.4,2.6v.7h-8.3v-1.4h6.6c0-.6-.1-1.2-.4-1.6-.2-.5-.6-.9-1-1.1-.4-.3-1-.4-1.6-.4s-1.2.2-1.7.5c-.5.3-.8.8-1.1,1.3-.3.5-.4,1.1-.4,1.7v1c0,.8.1,1.5.4,2.1s.7,1,1.2,1.3c.5.3,1.1.4,1.8.4s.8,0,1.2-.2.7-.3.9-.6c.3-.3.5-.6.6-.9l1.6.5c-.2.5-.5,1-.9,1.4s-.9.7-1.5,1c-.6.2-1.2.3-2,.3Z"/>
    <path class="cls-3" d="M202,340.4v10.9h-1.7v-10.9h1.7ZM207.6,345.1v1.6h-6v-1.6h6ZM208.8,340.4v10.9h-1.7v-10.9h1.7Z"/>
    <path class="cls-3" d="M212.7,338.6c-.3,0-.6-.1-.8-.3s-.3-.5-.3-.8.1-.6.3-.8.5-.3.8-.3.6.1.8.3.3.5.3.8-.1.6-.3.8-.5.3-.8.3ZM211.9,351.3v-10.9h1.7v10.9h-1.7Z"/>
    <path class="cls-3" d="M221.6,338.3v-1.6h10.8v1.6h-4.5v13h-1.7v-13h-4.5Z"/>
    <path class="cls-3" d="M236.6,351.5c-.7,0-1.3-.1-1.9-.4-.6-.3-1-.6-1.3-1.1s-.5-1.1-.5-1.8.1-1.1.4-1.5c.2-.4.6-.7,1-.9.4-.2.9-.4,1.4-.5.5-.1,1-.2,1.5-.3.7,0,1.2-.2,1.6-.2s.7-.1.9-.2.3-.3.3-.6h0c0-.8-.2-1.3-.6-1.7s-.9-.6-1.7-.6-1.4.2-1.9.5c-.5.4-.8.7-.9,1.1l-1.6-.6c.3-.7.7-1.2,1.1-1.6.5-.4,1-.6,1.5-.8.6-.1,1.1-.2,1.7-.2s.7,0,1.2.1c.5,0,.9.3,1.3.5s.8.6,1.1,1.2.4,1.2.4,2.1v7.2h-1.7v-1.5h0c-.1.2-.3.5-.6.8-.3.3-.6.5-1,.7-.4.2-1,.3-1.6.3ZM236.8,350c.7,0,1.2-.1,1.7-.4.5-.3.8-.6,1-1,.2-.4.3-.8.3-1.3v-1.5c0,0-.2.2-.5.2-.2,0-.5.1-.8.2s-.6,0-.9.1c-.3,0-.5,0-.7,0-.4,0-.8.1-1.2.3s-.7.3-.9.6c-.2.2-.3.6-.3,1s.2,1,.6,1.3c.4.3,1,.4,1.6.4Z"/>
    <path class="cls-3" d="M244.6,355.4v-15h1.6v1.7h.2c.1-.2.3-.4.5-.7.2-.3.5-.6.9-.8s1-.4,1.7-.4,1.7.2,2.4.7c.7.5,1.2,1.1,1.6,2,.4.8.6,1.8.6,3s-.2,2.2-.6,3-.9,1.5-1.6,2-1.5.7-2.4.7-1.2-.1-1.7-.4c-.4-.2-.7-.5-1-.8s-.4-.5-.5-.7h-.1v5.8h-1.7ZM246.2,345.8c0,.8.1,1.5.4,2.2.2.6.6,1.1,1,1.5.5.4,1,.5,1.7.5s1.3-.2,1.7-.6c.5-.4.8-.9,1.1-1.5.2-.6.4-1.3.4-2.1s-.1-1.5-.3-2.1-.6-1.1-1-1.5c-.5-.4-1.1-.5-1.8-.5s-1.2.2-1.7.5-.8.8-1,1.4-.4,1.3-.4,2.1Z"/>
    <path class="cls-3" d="M259.8,351.5c-.7,0-1.3-.1-1.9-.4-.6-.3-1-.6-1.3-1.1-.3-.5-.5-1.1-.5-1.8s.1-1.1.4-1.5c.2-.4.6-.7,1-.9.4-.2.9-.4,1.4-.5.5-.1,1-.2,1.5-.3.7,0,1.2-.2,1.6-.2s.7-.1.9-.2.3-.3.3-.6h0c0-.8-.2-1.3-.6-1.7s-.9-.6-1.7-.6-1.4.2-1.9.5c-.5.4-.8.7-.9,1.1l-1.6-.6c.3-.7.7-1.2,1.1-1.6.5-.4,1-.6,1.5-.8.6-.1,1.1-.2,1.7-.2s.7,0,1.2.1c.5,0,.9.3,1.3.5.4.3.8.6,1.1,1.2s.4,1.2.4,2.1v7.2h-1.7v-1.5h0c-.1.2-.3.5-.6.8-.3.3-.6.5-1,.7-.4.2-1,.3-1.6.3ZM260.1,350c.7,0,1.2-.1,1.7-.4.5-.3.8-.6,1-1,.2-.4.3-.8.3-1.3v-1.5c0,0-.2.2-.5.2-.2,0-.5.1-.8.2-.3,0-.6,0-.9.1-.3,0-.5,0-.7,0-.4,0-.8.1-1.2.3-.4.1-.7.3-.9.6-.2.2-.3.6-.3,1s.2,1,.6,1.3c.4.3,1,.4,1.6.4Z"/>
    <path class="cls-3" d="M272.2,351.5c-1,0-1.9-.2-2.6-.7-.7-.5-1.3-1.1-1.7-2-.4-.8-.6-1.8-.6-2.9s.2-2.1.6-2.9c.4-.9,1-1.5,1.7-2s1.6-.7,2.6-.7,1.4.1,2.1.4c.6.3,1.1.7,1.5,1.2.4.5.6,1.1.7,1.8h-1.7c-.1-.5-.4-.9-.8-1.3-.4-.4-1-.6-1.7-.6s-1.2.2-1.7.5-.9.8-1.1,1.4c-.3.6-.4,1.3-.4,2.2s.1,1.6.4,2.2.6,1.1,1.1,1.5,1.1.5,1.7.5.8,0,1.2-.2c.4-.2.6-.4.9-.7.2-.3.4-.6.5-1h1.7c0,.6-.3,1.2-.7,1.7-.4.5-.9.9-1.5,1.2s-1.3.5-2.1.5Z"/>
    <path class="cls-3" d="M282,351.5c-.7,0-1.3-.1-1.9-.4-.6-.3-1-.6-1.3-1.1-.3-.5-.5-1.1-.5-1.8s.1-1.1.4-1.5.6-.7,1-.9c.4-.2.9-.4,1.4-.5s1-.2,1.5-.3c.7,0,1.2-.2,1.6-.2s.7-.1.9-.2c.2-.1.3-.3.3-.6h0c0-.8-.2-1.3-.6-1.7-.4-.4-.9-.6-1.7-.6s-1.4.2-1.9.5c-.4.4-.8.7-.9,1.1l-1.6-.6c.3-.7.7-1.2,1.1-1.6.5-.4,1-.6,1.5-.8.6-.1,1.1-.2,1.7-.2s.7,0,1.2.1c.5,0,.9.3,1.3.5.4.3.8.6,1.1,1.2s.4,1.2.4,2.1v7.2h-1.7v-1.5h0c-.1.2-.3.5-.6.8s-.6.5-1,.7-1,.3-1.6.3ZM282.3,350c.7,0,1.2-.1,1.7-.4.5-.3.8-.6,1-1,.2-.4.3-.8.3-1.3v-1.5c0,0-.2.2-.5.2-.2,0-.5.1-.8.2s-.6,0-.9.1-.5,0-.7,0c-.4,0-.8.1-1.2.3-.4.1-.7.3-.9.6-.2.2-.3.6-.3,1s.2,1,.6,1.3,1,.4,1.6.4Z"/>
    <path class="cls-3" d="M47.2,365.7h1.7v12.9h5.1v-12.9h1.7v12.9h5.1v-12.9h1.7v14.5h-15.4v-14.5Z"/>
    <path class="cls-3" d="M70.3,380.5c-1,0-1.9-.2-2.7-.7s-1.3-1.1-1.7-2c-.4-.8-.6-1.8-.6-2.9s.2-2.1.6-3c.4-.9,1-1.5,1.7-2s1.6-.7,2.6-.7,1.1,0,1.7.3,1,.5,1.5.9c.5.4.8,1,1.1,1.7.3.7.4,1.6.4,2.6v.7h-8.3v-1.4h6.6c0-.6-.1-1.2-.4-1.6-.2-.5-.6-.9-1-1.1-.4-.3-1-.4-1.6-.4s-1.2.2-1.7.5c-.5.3-.8.8-1.1,1.3-.3.5-.4,1.1-.4,1.7v1c0,.8.1,1.5.4,2.1s.7,1,1.2,1.3c.5.3,1.1.4,1.8.4s.8,0,1.2-.2.7-.3.9-.6c.3-.3.5-.6.6-.9l1.6.5c-.2.5-.5,1-.9,1.4s-.9.7-1.5,1c-.6.2-1.2.3-2,.3Z"/>
    <path class="cls-3" d="M77.3,380.3v-10.9h4.4c1.2,0,2.1.3,2.8.8s1,1.2,1,2.1-.2,1.2-.6,1.5c-.4.4-.9.6-1.5.7.4,0,.8.2,1.2.4.4.2.7.5.9.9.2.4.4.9.4,1.5s-.1,1.1-.4,1.5c-.3.4-.7.8-1.2,1-.5.3-1.2.4-1.9.4h-5.1ZM78.9,374h2.8c.4,0,.8,0,1.1-.2.3-.1.6-.3.7-.5.2-.2.3-.5.3-.8,0-.5-.2-.8-.6-1.1-.4-.3-.9-.4-1.6-.4h-2.8v3ZM78.9,378.8h3.5c.6,0,1-.1,1.3-.4.3-.3.5-.6.5-1.1s-.2-1-.5-1.3c-.3-.3-.8-.5-1.3-.5h-3.5v3.4Z"/>
    <path class="cls-3" d="M96.1,374.6v1.6c-.4.1-.7.3-1.1.4-.4.1-.8.2-1.2.2-.4,0-.9,0-1.3,0-1.2,0-2.2-.3-2.9-1s-1.1-1.7-1.1-3v-3.5h1.7v3.5c0,.6.1,1,.3,1.4.2.4.5.6.9.8.4.2.8.3,1.2.3.7,0,1.3,0,1.9-.2.6-.1,1.1-.3,1.7-.5ZM96.7,369.4v10.9h-1.7v-10.9h1.7Z"/>
    <path class="cls-3" d="M104.3,380.5c-1,0-1.9-.2-2.7-.7s-1.3-1.1-1.7-2c-.4-.8-.6-1.8-.6-2.9s.2-2.1.6-3c.4-.9,1-1.5,1.7-2s1.6-.7,2.6-.7,1.1,0,1.7.3,1,.5,1.5.9c.5.4.8,1,1.1,1.7.3.7.4,1.6.4,2.6v.7h-8.3v-1.4h6.6c0-.6-.1-1.2-.4-1.6-.2-.5-.6-.9-1-1.1-.4-.3-1-.4-1.6-.4s-1.2.2-1.7.5c-.5.3-.8.8-1.1,1.3-.3.5-.4,1.1-.4,1.7v1c0,.8.1,1.5.4,2.1s.7,1,1.2,1.3c.5.3,1.1.4,1.8.4s.8,0,1.2-.2.7-.3.9-.6c.3-.3.5-.6.6-.9l1.6.5c-.2.5-.5,1-.9,1.4s-.9.7-1.5,1c-.6.2-1.2.3-2,.3Z"/>
    <path class="cls-3" d="M113,369.4v10.9h-1.7v-10.9h1.7ZM118.5,374.1v1.6h-6v-1.6h6ZM119.8,369.4v10.9h-1.7v-10.9h1.7Z"/>
    <path class="cls-3" d="M122.8,380.3v-10.9h1.7v4.7h1.1l3.9-4.7h2.1l-4.4,5.3,4.4,5.7h-2.1l-3.5-4.6h-1.5v4.6h-1.7Z"/>
    <path class="cls-3" d="M136.6,380.5c-.7,0-1.3-.1-1.9-.4-.6-.3-1-.6-1.3-1.1-.3-.5-.5-1.1-.5-1.8s.1-1.1.4-1.5.6-.7,1-.9c.4-.2.9-.4,1.4-.5s1-.2,1.5-.3c.7,0,1.2-.2,1.6-.2s.7-.1.9-.2.3-.3.3-.6h0c0-.8-.2-1.3-.6-1.7s-.9-.6-1.7-.6-1.4.2-1.9.5c-.5.4-.8.7-.9,1.1l-1.6-.6c.3-.7.7-1.2,1.1-1.6.5-.4,1-.6,1.5-.8.6-.1,1.1-.2,1.7-.2s.7,0,1.2.1c.5,0,.9.3,1.3.5.4.3.8.6,1.1,1.2s.4,1.2.4,2.1v7.2h-1.7v-1.5h0c-.1.2-.3.5-.6.8-.3.3-.6.5-1,.7s-1,.3-1.6.3ZM136.9,379c.7,0,1.2-.1,1.7-.4.5-.3.8-.6,1-1,.2-.4.3-.8.3-1.3v-1.5c0,0-.2.2-.5.2-.2,0-.5.1-.8.2-.3,0-.6,0-.9.1s-.5,0-.7,0c-.4,0-.8.1-1.2.3-.4.1-.7.3-.9.6-.2.2-.3.6-.3,1s.2,1,.6,1.3c.4.3,1,.4,1.6.4Z"/>
    <path class="cls-3" d="M150.8,373c0-1.8.2-3.4.7-4.9.5-1.5,1.1-2.9,2-4.2h1.5c-.3.5-.7,1-.9,1.7s-.5,1.4-.8,2.3c-.2.8-.4,1.7-.5,2.5s-.2,1.7-.2,2.6.1,2.3.3,3.4c.2,1.2.5,2.2.9,3.2.4,1,.8,1.8,1.2,2.4h-1.5c-.9-1.3-1.5-2.6-2-4.2-.5-1.5-.7-3.1-.7-4.9Z"/>
    <path class="cls-3" d="M158.4,380.5v-1.6h.9c.3,0,.6,0,.9-.2.2-.1.4-.3.6-.5.2-.2.3-.4.4-.7l.2-.5-5-11.1h1.9l4,9,3.6-9h1.9l-5,12.2c-.2.5-.4.9-.7,1.3-.3.4-.6.7-1,.9-.4.2-1,.4-1.7.4h-.9Z"/>
    <path class="cls-3" d="M168.9,380.3v-10.9h1.7v4.7h1.1l3.9-4.7h2.1l-4.4,5.3,4.4,5.7h-2.1l-3.5-4.6h-1.5v4.6h-1.7Z"/>
    <path class="cls-3" d="M179.6,384.4v-15h1.6v1.7h.2c.1-.2.3-.4.5-.7.2-.3.5-.6.9-.8s1-.4,1.7-.4,1.7.2,2.4.7c.7.5,1.2,1.1,1.6,2,.4.8.6,1.8.6,3s-.2,2.2-.6,3c-.4.8-.9,1.5-1.6,2-.7.5-1.5.7-2.4.7s-1.2-.1-1.7-.4c-.4-.2-.7-.5-1-.8-.2-.3-.4-.5-.5-.7h-.1v5.8h-1.7ZM181.2,374.8c0,.8.1,1.5.4,2.2.2.6.6,1.1,1,1.5.5.4,1,.5,1.7.5s1.3-.2,1.7-.6c.5-.4.8-.9,1.1-1.5.2-.6.4-1.3.4-2.1s-.1-1.5-.3-2.1c-.2-.6-.6-1.1-1-1.5-.5-.4-1.1-.5-1.8-.5s-1.2.2-1.7.5-.8.8-1,1.4-.4,1.3-.4,2.1Z"/>
    <path class="cls-3" d="M194.8,380.5c-.7,0-1.3-.1-1.9-.4-.6-.3-1-.6-1.3-1.1-.3-.5-.5-1.1-.5-1.8s.1-1.1.4-1.5.6-.7,1-.9c.4-.2.9-.4,1.4-.5s1-.2,1.5-.3c.7,0,1.2-.2,1.6-.2s.7-.1.9-.2.3-.3.3-.6h0c0-.8-.2-1.3-.6-1.7s-.9-.6-1.7-.6-1.4.2-1.9.5c-.5.4-.8.7-.9,1.1l-1.6-.6c.3-.7.7-1.2,1.1-1.6.5-.4,1-.6,1.5-.8.6-.1,1.1-.2,1.7-.2s.7,0,1.2.1c.5,0,.9.3,1.3.5.4.3.8.6,1.1,1.2s.4,1.2.4,2.1v7.2h-1.7v-1.5h0c-.1.2-.3.5-.6.8-.3.3-.6.5-1,.7s-1,.3-1.6.3ZM195.1,379c.7,0,1.2-.1,1.7-.4.5-.3.8-.6,1-1,.2-.4.3-.8.3-1.3v-1.5c0,0-.2.2-.5.2-.2,0-.5.1-.8.2-.3,0-.6,0-.9.1s-.5,0-.7,0c-.4,0-.8.1-1.2.3-.4.1-.7.3-.9.6-.2.2-.3.6-.3,1s.2,1,.6,1.3c.4.3,1,.4,1.6.4Z"/>
    <path class="cls-3" d="M201.6,367.6c-.3,0-.6-.1-.8-.3-.2-.2-.3-.5-.3-.8s.1-.6.3-.8c.2-.2.5-.3.8-.3s.6.1.8.3c.2.2.3.5.3.8s-.1.6-.3.8c-.2.2-.5.3-.8.3ZM202.8,380.3v-10.9h1.7v10.9h-1.7ZM205.7,367.6c-.3,0-.6-.1-.8-.3-.2-.2-.3-.5-.3-.8s.1-.6.3-.8c.2-.2.5-.3.8-.3s.6.1.8.3c.2.2.3.5.3.8s-.1.6-.3.8c-.2.2-.5.3-.8.3Z"/>
    <path class="cls-3" d="M209.1,369.4v10.9h-1.7v-10.9h1.7ZM214.7,374.1v1.6h-6v-1.6h6ZM216,369.4v10.9h-1.7v-10.9h1.7Z"/>
    <path class="cls-3" d="M222.2,380.5c-.7,0-1.3-.1-1.9-.4-.6-.3-1-.6-1.3-1.1-.3-.5-.5-1.1-.5-1.8s.1-1.1.4-1.5.6-.7,1-.9c.4-.2.9-.4,1.4-.5s1-.2,1.5-.3c.7,0,1.2-.2,1.6-.2s.7-.1.9-.2.3-.3.3-.6h0c0-.8-.2-1.3-.6-1.7s-.9-.6-1.7-.6-1.4.2-1.9.5c-.5.4-.8.7-.9,1.1l-1.6-.6c.3-.7.7-1.2,1.1-1.6.5-.4,1-.6,1.5-.8.6-.1,1.1-.2,1.7-.2s.7,0,1.2.1c.5,0,.9.3,1.3.5.4.3.8.6,1.1,1.2.3.5.4,1.2.4,2.1v7.2h-1.7v-1.5h0c-.1.2-.3.5-.6.8-.3.3-.6.5-1,.7s-1,.3-1.6.3ZM222.5,379c.7,0,1.2-.1,1.7-.4.5-.3.8-.6,1-1,.2-.4.3-.8.3-1.3v-1.5c0,0-.2.2-.5.2-.2,0-.5.1-.8.2-.3,0-.6,0-.9.1s-.5,0-.7,0c-.4,0-.8.1-1.2.3-.4.1-.7.3-.9.6-.2.2-.3.6-.3,1s.2,1,.6,1.3c.4.3,1,.4,1.6.4Z"/>
    <path class="cls-3" d="M233.7,374.2c0,1.8-.2,3.4-.7,4.9-.5,1.5-1.1,2.9-2,4.2h-1.5c.3-.5.7-1,.9-1.7s.5-1.4.8-2.3c.2-.8.4-1.7.5-2.5.1-.9.2-1.7.2-2.6s-.1-2.3-.3-3.4c-.2-1.2-.5-2.2-.9-3.2-.4-1-.8-1.8-1.2-2.4h1.5c.9,1.3,1.5,2.6,2,4.2.5,1.5.7,3.1.7,4.9Z"/>
  </g>
  <g>
    <path class="cls-3" d="M48.6,271h5.1v-41.6h-5.1v-4.3h20.1v4.3h-5.1v17.9h6.6l5.3-11.7c1-2.2,1.9-4,2.8-5.4.9-1.5,1.9-2.6,2.8-3.5.9-.9,1.9-1.5,3-1.9,1-.4,2.1-.5,3.3-.5,1.9,0,3.5.6,4.6,1.7,1.1,1.1,1.7,2.6,1.7,4.3s-.5,3.2-1.5,4.3-2.3,1.6-4,1.6-2.6-.4-3.5-1.3c-.8-.8-1.3-1.9-1.5-3.1h-.2c-.5.7-1.1,1.5-1.7,2.6-.6,1.1-1.2,2.2-1.7,3.4l-5,10.9c1.9.2,3.6.7,4.8,1.7,1.3.9,2.5,2.5,3.6,4.8l8.6,15.9h4.6v4.3h-13.5l-12.6-23.5h-6.6v19.2h5.1v4.3h-20.1v-4.3Z"/>
    <path class="cls-3" d="M100.6,271h5.1v-41.6h-5.1v-4.3h20.1v4.3h-5.1v17.9h20.8v-17.9h-5.1v-4.3h20.1v4.3h-5.1v41.6h5.1v4.3h-20.1v-4.3h5.1v-19.1h-20.8v19.1h5.1v4.3h-20.1v-4.3Z"/>
    <path class="cls-3" d="M171.6,276.2c-3.1,0-5.6-.8-7.3-2.3-1.7-1.5-2.6-3.3-2.6-5.3s.5-2.9,1.4-3.9c.9-1.1,2.2-1.6,3.8-1.6s2.6.4,3.5,1.3c.9.9,1.3,2,1.3,3.3s-.2,1.8-.6,2.4c-.4.7-.8,1.1-1.4,1.4v.3c.3.1.7.2,1.1.3.4,0,.7,0,1.1,0,.7,0,1.4,0,2-.3.6-.2,1.2-.5,1.8-1.1.6-.5,1.1-1.2,1.7-2.1.5-.9,1.1-2,1.6-3.3l.5-1.5-20-34.6h-3.7v-4.3h20.7v4.3h-5.9l8.6,15.7,4.2,8.2h.4l3.1-7.8,6.6-16.1h-5.8v-4.3h15.1v4.3h-3.8l-15.5,37.4c-.8,1.8-1.6,3.3-2.4,4.5-.9,1.2-1.8,2.2-2.7,2.9-1,.7-2,1.3-3.2,1.6-1.1.3-2.4.5-3.7.5Z"/>
  </g>
  <rect class="cls-2" x="46.4" y="177.5" width="298.6" height="2"/>
</svg>