<svg xmlns="http://www.w3.org/2000/svg" width="568" height="568" viewBox="0 0 568 568" fill="none">
    <path d="M454.243 113.437L454.243 340.708L568.001 340.708L568.001 113.437L454.243 113.437Z" fill="#F4F5D1"/>
    <path d="M226.663 113.238L226.663 340.508L340.421 340.508L340.421 113.238L226.663 113.238Z" fill="#F4F5D1"/>
    <path d="M113.534 568L341.05 568L341.05 454.365L113.534 454.365L113.534 568Z" fill="#F4F5D1"/>
    <path d="M113.104 340.533L340.62 340.533L340.62 226.898L113.104 226.898L113.104 340.533Z" fill="#F4F5D1"/>
    <path d="M341.018 340.419L341.018 454.054L454.776 454.054L454.776 340.418L341.018 340.419Z" fill="#F4F5D1"/>
    <path d="M-4.96715e-06 113.448L0 227.083L113.758 227.083L113.758 113.448L-4.96715e-06 113.448Z" fill="#F4F5D1"/>
    <path d="M113.767 0.000100021L113.767 113.635L227.525 113.635L227.525 9.50485e-05L113.767 0.000100021Z" fill="#F4F5D1"/>
</svg>