<?xml version="1.0" encoding="UTF-8"?>
<svg id="Layer_1" data-name="Layer 1" xmlns="http://www.w3.org/2000/svg" version="1.1" viewBox="0 0 406.2 453.5">
  <defs>
    <style>
      .cls-1 {
        fill: #dee1fc;
      }

      .cls-1, .cls-2, .cls-3, .cls-4, .cls-5 {
        stroke-width: 0px;
      }

      .cls-2 {
        fill: #feffe6;
      }

      .cls-3 {
        fill: #aaaaad;
      }

      .cls-4 {
        fill: #16161d;
      }

      .cls-5 {
        fill: #fff;
      }
    </style>
  </defs>
  <polygon class="cls-1" points="397.2 20.5 397.2 29.5 406.2 29.5 406.2 444.5 397.2 444.5 397.2 453.5 28.2 453.5 28.2 444.5 19.2 444.5 19.2 30.5 28.2 30.5 28.2 21.5 397.2 20.5"/>
  <g>
    <polygon class="cls-5" points="380 2 380 11 389 11 389 426 380 426 380 435 11 435 11 426 2 426 2 12 11 12 11 3 380 2"/>
    <path class="cls-4" d="M382,437H9v-9H0V10h9V1L382,0v9h9v419h-9v9ZM13,433h365v-9s9,0,9,0V13h-9V4L13,5v9H4v410h9v9Z"/>
  </g>
  <rect class="cls-2" x="46" y="74" width="205" height="37"/>
  <rect class="cls-2" x="46" y="115" width="154" height="37"/>
  <g>
    <path class="cls-4" d="M51.9,102.4h3.2v-20.5h-5.4v4.1h-3.2v-6.2h21.2v6.2h-3.2v-4.1h-5.4v20.5h3.2v1.9h-10.6v-1.9Z"/>
    <path class="cls-4" d="M69.5,109.4h2.4v-20.5l-2.4-.5v-1.5l6.2-1.2v3.1h.2c.4-.8,1-1.6,1.8-2.2.8-.6,1.9-.9,3.3-.9s2.1.2,3,.6c.9.4,1.7,1.1,2.3,1.9.6.8,1.1,1.8,1.5,3,.3,1.2.5,2.5.5,4s-.2,2.8-.5,4c-.3,1.2-.8,2.2-1.5,3-.6.8-1.4,1.4-2.3,1.9s-1.9.6-3,.6-2.5-.3-3.3-.9c-.8-.6-1.4-1.4-1.8-2.2h-.2v7.8h3v1.9h-9.3v-1.9ZM79.7,102.2c1.3,0,2.4-.5,3.2-1.4.8-.9,1.2-2.2,1.2-3.8v-3.7c0-1.6-.4-2.9-1.2-3.8-.8-.9-1.8-1.4-3.2-1.4s-1,0-1.5.2c-.5.2-.9.4-1.3.7-.4.3-.7.7-.9,1.1-.2.4-.3.9-.3,1.4v7.1c0,.5.1,1,.3,1.4.2.4.5.8.9,1.1.4.3.8.5,1.3.7.5.2,1,.2,1.5.2Z"/>
    <path class="cls-4" d="M91.4,102.4h2.4v-14.4h-2.4v-1.9h8.4v1.9h-2.3v6l-.3,4.5h.1l8-9.6v-.9h-2.3v-1.9h8.4v1.9h-2.4v14.4h2.4v1.9h-8.4v-1.9h2.3v-5.9l.3-4.6h-.1l-8,9.6v.9h2.3v1.9h-8.4v-1.9Z"/>
    <path class="cls-4" d="M114.5,102.4h2.4v-14.4h-2.4v-1.9h10.5c1.8,0,3.3.4,4.2,1.2s1.5,1.9,1.5,3.2-.3,2.2-1,2.9c-.7.6-1.6,1.1-2.7,1.3v.2c1.2.1,2.2.6,3.1,1.3.8.7,1.3,1.8,1.3,3.1s-.5,2.9-1.6,3.8c-1.1.9-2.6,1.3-4.7,1.3h-10.5v-1.9ZM124.1,94c.8,0,1.5-.2,1.9-.7.5-.4.7-1.1.7-1.9v-.9c0-.8-.2-1.4-.7-1.9-.5-.4-1.1-.7-2-.7h-3.2v5.9h3.3ZM124.2,102.3c1,0,1.8-.2,2.3-.7.5-.5.8-1.1.8-2v-.9c0-.8-.2-1.5-.7-2-.5-.5-1.2-.7-2.2-.7h-3.6v6.3h3.4Z"/>
    <path class="cls-4" d="M139.9,104.7c-1.8,0-3.2-.4-4.1-1.3-.9-.9-1.4-2.1-1.4-3.7s.6-3.1,1.9-4c1.2-.9,3.3-1.4,6.1-1.4h2.5v-2.4c0-1.4-.3-2.5-.9-3.3-.6-.7-1.6-1.1-2.9-1.1s-2,.2-2.6.5h0c.3.3.5.5.7.8.2.3.3.7.3,1.2s-.2,1.2-.6,1.6c-.4.4-.9.6-1.6.6s-1.1-.2-1.5-.6c-.4-.4-.6-1-.6-1.7s.2-1.1.5-1.6c.3-.5.8-1,1.4-1.3.6-.4,1.3-.7,2.2-.9.9-.2,1.9-.4,3-.4,2.2,0,3.8.5,4.9,1.5,1.1,1,1.7,2.5,1.7,4.3v10.9h2.4v1.6c-.3.2-.7.3-1.2.5-.5.1-1.1.2-1.6.2-1.1,0-1.8-.3-2.3-.8-.5-.5-.7-1.3-.7-2.1v-.2h-.2c-.2.4-.4.8-.6,1.1-.3.4-.6.7-1,1-.4.3-.9.5-1.5.7-.6.2-1.3.3-2,.3ZM141.5,102.3c1,0,1.9-.2,2.5-.7.7-.5,1-1.3,1-2.4v-3.1h-2.1c-1.6,0-2.8.3-3.4.8-.6.5-1,1.3-1,2.3v.7c0,.8.3,1.5.8,1.9.5.4,1.3.6,2.2.6Z"/>
    <path class="cls-4" d="M156,104.7c-1.1,0-2-.3-2.5-.9-.6-.6-.9-1.3-.9-2.2s.2-1.3.6-1.7c.4-.4.9-.6,1.6-.6s1.1.2,1.5.5c.4.4.5.8.5,1.4s0,.7-.3,1c-.2.3-.4.5-.6.6h0c0,.2.1.2.2.2h.2c.5,0,.9-.2,1.2-.5.3-.3.5-.6.7-1,.2-.4.4-1.1.6-2s.3-2,.4-3.4c0-1.4.1-3.2.1-5.4v-2.6h-2.6v-1.9h16v1.9h-2.4v14.4h2.4v1.9h-8.6v-1.9h2.4v-14.3h-4.9v2.3c0,2.2,0,4.1-.2,5.6-.1,1.5-.3,2.7-.5,3.7-.2,1-.4,1.8-.7,2.3-.3.6-.6,1.1-1,1.5-.4.4-.9.7-1.4.9-.6.2-1.2.3-1.9.3Z"/>
    <path class="cls-4" d="M175.8,102.4h2.4v-14.4h-2.4v-1.9h8.4v1.9h-2.3v6l-.3,4.5h.1l8-9.6v-.9h-2.3v-1.9h8.4v1.9h-2.4v14.4h2.4v1.9h-8.4v-1.9h2.3v-5.9l.3-4.6h-.1l-8,9.6v.9h2.3v1.9h-8.4v-1.9Z"/>
    <path class="cls-4" d="M207.4,104.7c-1.4,0-2.6-.2-3.6-.7-1.1-.5-1.9-1.1-2.7-2-.7-.8-1.3-1.8-1.6-3-.4-1.2-.6-2.5-.6-3.9s.2-2.8.7-4c.4-1.2,1.1-2.2,1.8-3,.8-.8,1.7-1.4,2.8-1.9,1.1-.4,2.2-.6,3.5-.6,2,0,3.5.4,4.7,1.3,1.1.8,1.7,1.9,1.7,3.2s-.2,1.5-.7,1.9c-.4.5-1,.7-1.8.7s-1.3-.2-1.7-.6c-.4-.4-.6-1-.6-1.6s.1-1,.4-1.4c.3-.4.6-.7,1.1-.9v-.2c-.3-.1-.6-.2-1-.3-.4-.1-.9-.2-1.6-.2s-1.5.1-2.1.4c-.6.3-1.2.7-1.6,1.2-.4.5-.8,1.1-1,1.8-.2.7-.4,1.5-.4,2.3v3c0,1.8.4,3.1,1.3,4.1.9,1,2,1.5,3.5,1.5s2.5-.3,3.2-.9c.8-.6,1.4-1.4,1.8-2.2l1.5.9c-.2.6-.5,1.2-.9,1.8-.4.6-.9,1.1-1.5,1.6-.6.5-1.3.9-2,1.2-.8.3-1.7.4-2.7.4Z"/>
    <path class="cls-4" d="M220.5,102.4h2.8v-14.3h-4v3.3h-2.6v-5.4h17v5.4h-2.6v-3.3h-4v14.3h2.8v1.9h-9.4v-1.9Z"/>
    <path class="cls-4" d="M236.3,102.4h2.4v-14.3h-2.4v-2h8.6v1.9h-2.4v4.8h4.3c1.9,0,3.4.5,4.5,1.5,1.1,1,1.6,2.4,1.6,4.3s-.5,3.3-1.6,4.3-2.6,1.5-4.5,1.5h-10.5v-1.9ZM245.7,102.3c1.1,0,1.9-.3,2.4-.8.5-.5.8-1.3.8-2.3v-1.3c0-1-.3-1.7-.8-2.3-.5-.5-1.3-.8-2.4-.8h-3.2v7.4h3.2Z"/>
    <path class="cls-4" d="M46.9,141.4h2.4v-14.4h-2.4v-1.9h20.1v1.9h-2.4v14.4h2.4v1.9h-8.5v-1.9h2.3v-14.3h-7.6v14.3h2.3v1.9h-8.5v-1.9Z"/>
    <path class="cls-4" d="M69.7,148.4h2.4v-20.5l-2.4-.5v-1.5l6.2-1.2v3.1h.2c.4-.8,1-1.6,1.8-2.2.8-.6,1.9-.9,3.3-.9s2.1.2,3,.6c.9.4,1.7,1.1,2.3,1.9.6.8,1.1,1.8,1.5,3,.3,1.2.5,2.5.5,4s-.2,2.8-.5,4c-.3,1.2-.8,2.2-1.5,3-.6.8-1.4,1.4-2.3,1.9s-1.9.6-3,.6-2.5-.3-3.3-.9c-.8-.6-1.4-1.4-1.8-2.2h-.2v7.8h3v1.9h-9.3v-1.9ZM80,141.2c1.3,0,2.4-.5,3.2-1.4.8-.9,1.2-2.2,1.2-3.8v-3.7c0-1.6-.4-2.9-1.2-3.8-.8-.9-1.8-1.4-3.2-1.4s-1,0-1.5.2c-.5.2-.9.4-1.3.7-.4.3-.7.7-.9,1.1-.2.4-.3.9-.3,1.4v7.1c0,.5.1,1,.3,1.4.2.4.5.8.9,1.1.4.3.8.5,1.3.7.5.2,1,.2,1.5.2Z"/>
    <path class="cls-4" d="M100.3,143.7c-1.3,0-2.4-.2-3.5-.7s-1.9-1.1-2.7-1.9c-.7-.8-1.3-1.8-1.7-3-.4-1.2-.6-2.5-.6-4s.2-2.8.6-4c.4-1.2,1-2.2,1.7-3,.7-.8,1.6-1.4,2.7-1.9,1-.4,2.2-.7,3.5-.7s2.4.2,3.5.7c1,.4,1.9,1.1,2.7,1.9.7.8,1.3,1.8,1.7,3,.4,1.2.6,2.5.6,4s-.2,2.8-.6,4c-.4,1.2-1,2.2-1.7,3-.7.8-1.6,1.4-2.7,1.9s-2.2.7-3.5.7ZM100.3,141.7c1.5,0,2.5-.5,3.2-1.4.7-.9,1-2.1,1-3.7v-4.9c0-1.5-.3-2.7-1-3.7-.7-.9-1.8-1.4-3.2-1.4s-2.5.5-3.2,1.4c-.7.9-1,2.1-1,3.7v4.9c0,1.5.3,2.7,1,3.7.7.9,1.8,1.4,3.2,1.4Z"/>
    <path class="cls-4" d="M120.7,143.7c-1.4,0-2.6-.2-3.7-.6-1.1-.4-2-1.1-2.7-1.9-.8-.8-1.3-1.8-1.7-3-.4-1.2-.6-2.5-.6-4s.2-2.8.6-4c.4-1.2,1-2.2,1.7-3,.7-.8,1.6-1.5,2.6-1.9,1-.4,2.1-.6,3.3-.6s2,.2,2.7.6c.7.4,1.2.9,1.5,1.5h.1v-1.6h2.6v5.5h-2.6v-.9c0-1-.3-1.8-1-2.3s-1.6-.8-2.7-.8-2.5.5-3.3,1.5c-.8,1-1.2,2.5-1.2,4.4v.5h6.5v2h-6.5v.9c0,1.9.4,3.3,1.3,4.4.9,1.1,2.2,1.6,3.9,1.6s1.3,0,1.9-.2c.5-.1.9-.3,1.3-.5h0c-.4-.3-.7-.6-.9-.9-.2-.4-.3-.8-.3-1.2s.2-1.1.6-1.5c.4-.4.9-.6,1.6-.6s1.2.2,1.6.6c.4.4.6,1,.6,1.8s-.2,1.1-.5,1.6c-.3.5-.8,1-1.4,1.4-.6.4-1.3.7-2.2,1-.9.2-1.9.4-3,.4Z"/>
    <path class="cls-4" d="M130.6,141.4h2.4v-14.4h-2.4v-1.9h8.5v1.9h-2.3v6.1h2.5l1.7-3.9c.7-1.7,1.5-2.8,2.3-3.5.8-.7,1.6-1,2.6-1s1.5.2,1.9.7c.5.5.7,1.1.7,1.8s-.2,1.4-.6,1.8c-.4.5-1,.7-1.6.7s-1.1-.2-1.5-.5c-.4-.4-.6-.9-.7-1.5h-.1c-.2.3-.4.6-.7,1-.2.4-.5.9-.7,1.4l-1.6,3.6c.7,0,1.4.3,1.9.6.5.3.9.9,1.3,1.6l3.2,5.5h1.7v1.9h-5.1l-4.7-8.3h-2.5v6.4h2.3v1.9h-8.5v-1.9Z"/>
    <path class="cls-4" d="M154.8,141.4h2.8v-14.3h-4v3.3h-2.6v-5.4h17v5.4h-2.6v-3.3h-4v14.3h2.8v1.9h-9.4v-1.9Z"/>
    <path class="cls-4" d="M173.6,150.7c-1.2,0-2.2-.3-2.8-.9-.6-.6-1-1.3-1-2.2s.2-1.3.6-1.7c.4-.4.9-.6,1.6-.6s1.1.2,1.5.6c.4.4.5.9.5,1.5s0,.7-.2.9c-.2.3-.3.5-.5.6h0c.1.2.2.2.3.2h.4c1.2,0,2.3-1.2,3.2-3.6l.6-1.6-6.6-17.1h-1.7v-1.9h8.2v1.9h-2.3l4.3,12.1h.2l4.3-12.1h-2.3v-1.9h6.3v1.9h-1.7l-7.2,18.8c-.3.6-.5,1.2-.9,1.8-.3.6-.7,1.1-1.2,1.6-.5.5-1,.8-1.5,1.1-.6.3-1.2.4-2,.4Z"/>
    <path class="cls-4" d="M193.4,129.9c-.8,0-1.4-.2-1.9-.7-.5-.5-.7-1.1-.7-1.8v-.2c0-.7.2-1.3.7-1.8.5-.5,1.1-.7,1.9-.7s1.4.2,1.9.7c.5.5.7,1.1.7,1.8v.2c0,.7-.2,1.3-.7,1.8-.5.5-1.1.7-1.9.7ZM193.4,143.7c-.8,0-1.4-.2-1.9-.7-.5-.5-.7-1.1-.7-1.8v-.2c0-.7.2-1.3.7-1.8.5-.5,1.1-.7,1.9-.7s1.4.2,1.9.7c.5.5.7,1.1.7,1.8v.2c0,.7-.2,1.3-.7,1.8-.5.5-1.1.7-1.9.7Z"/>
  </g>
  <rect class="cls-3" x="46.4" y="177.5" width="298.6" height="2"/>
  <g>
    <path class="cls-4" d="M92.4,268.3l14.8-14.8c2.2-2.3,4-4.5,5.4-6.8,1.4-2.3,2-4.8,2-7.6v-1.9c0-2.9-.8-5.1-2.3-6.6-1.5-1.5-3.6-2.3-6.2-2.3s-3.8.3-5.1.9v.4c.8.3,1.4.9,1.9,1.7s.7,1.7.7,2.7c0,1.5-.5,2.8-1.4,3.9-.9,1-2.2,1.5-3.9,1.5s-3-.5-4-1.6c-1-1.1-1.5-2.4-1.5-4.2s.3-2.5,1-3.7c.7-1.2,1.7-2.2,3-3,1.3-.9,2.9-1.5,4.7-2.1,1.9-.5,3.9-.8,6.3-.8,5.5,0,9.7,1.2,12.7,3.6,3,2.4,4.5,5.8,4.5,10.2s-.3,3.9-1,5.7c-.7,1.7-1.6,3.3-2.8,4.8-1.2,1.5-2.5,2.9-4,4.2-1.5,1.3-3.1,2.6-4.8,3.9l-13,10.3v.3h22.6v-6.6h4.7v14.8h-34.5v-7Z"/>
    <path class="cls-4" d="M151.1,276.2c-6.2,0-10.8-2.2-13.9-6.7-3.1-4.5-4.7-10.9-4.7-19.3s1.6-14.8,4.7-19.3c3.1-4.5,7.8-6.7,13.9-6.7s10.8,2.2,13.9,6.7c3.1,4.5,4.7,10.9,4.7,19.3s-1.6,14.8-4.7,19.3c-3.1,4.5-7.8,6.7-13.9,6.7ZM151.1,271.5c1.7,0,3.1-.4,4.1-1.1,1-.7,1.9-1.8,2.4-3.1s.9-3,1.1-5c.2-2,.3-4.3.3-6.8v-10.5c0-2.5,0-4.8-.3-6.8-.2-2-.6-3.7-1.1-5s-1.4-2.4-2.4-3.1c-1-.7-2.4-1.1-4.1-1.1s-3.1.4-4.1,1.1c-1,.7-1.9,1.8-2.4,3.1s-1,3-1.1,5c-.2,2-.3,4.3-.3,6.8v10.5c0,2.5,0,4.8.3,6.8.2,2,.6,3.7,1.1,5s1.4,2.4,2.4,3.1c1,.7,2.4,1.1,4.1,1.1Z"/>
    <path class="cls-4" d="M175.7,268.3l14.8-14.8c2.2-2.3,4-4.5,5.4-6.8,1.4-2.3,2-4.8,2-7.6v-1.9c0-2.9-.8-5.1-2.3-6.6-1.5-1.5-3.6-2.3-6.2-2.3s-3.8.3-5.1.9v.4c.8.3,1.4.9,1.9,1.7s.7,1.7.7,2.7c0,1.5-.5,2.8-1.4,3.9-.9,1-2.2,1.5-3.9,1.5s-3-.5-4-1.6c-1-1.1-1.5-2.4-1.5-4.2s.3-2.5,1-3.7c.7-1.2,1.7-2.2,3-3,1.3-.9,2.9-1.5,4.7-2.1,1.9-.5,3.9-.8,6.3-.8,5.5,0,9.7,1.2,12.7,3.6,3,2.4,4.5,5.8,4.5,10.2s-.3,3.9-1,5.7c-.7,1.7-1.6,3.3-2.8,4.8-1.2,1.5-2.5,2.9-4,4.2-1.5,1.3-3.1,2.6-4.8,3.9l-13,10.3v.3h22.6v-6.6h4.7v14.8h-34.5v-7Z"/>
    <path class="cls-4" d="M232.2,276.2c-2.5,0-4.7-.3-6.6-.8-1.9-.5-3.6-1.2-4.9-2.1-1.3-.9-2.4-1.9-3.1-3s-1.1-2.4-1.1-3.7.5-3.1,1.5-4.2c1-1.1,2.3-1.6,4-1.6s3,.5,3.9,1.5c.9,1,1.4,2.3,1.4,3.9s-.2,1.8-.7,2.7c-.5.8-1.1,1.4-1.9,1.7v.4c.8.3,1.6.6,2.6.7,1,.1,2,.2,3.1.2,3.4,0,5.9-.7,7.7-2.1,1.7-1.4,2.6-3.7,2.6-7v-2.4c0-3-.9-5.3-2.6-6.8-1.7-1.5-4.4-2.3-8-2.3h-4.8v-4.8h4.6c3.4,0,5.9-.7,7.5-2.2,1.6-1.5,2.4-3.5,2.4-5.9v-2c0-2.6-.8-4.6-2.3-6-1.5-1.4-3.6-2.1-6.2-2.1s-4.2.3-5.5.9v.4c.8.3,1.4.9,1.9,1.7s.7,1.7.7,2.7c0,1.5-.5,2.8-1.4,3.9-.9,1-2.2,1.5-3.9,1.5s-3-.5-4-1.6c-1-1.1-1.5-2.4-1.5-4.2s.3-2.4,1-3.6c.7-1.2,1.6-2.2,2.9-3,1.3-.9,2.9-1.6,4.7-2.1,1.9-.5,4-.8,6.5-.8,5.6,0,9.9,1,13,3.1,3,2.1,4.6,5.1,4.6,9.2s-.4,3.1-1.1,4.5c-.7,1.4-1.7,2.6-2.9,3.6-1.2,1-2.5,1.9-4,2.6-1.5.7-3.1,1.1-4.6,1.4v.4c1.7.2,3.3.7,4.9,1.3s3.1,1.4,4.3,2.4c1.3,1,2.3,2.2,3,3.7.8,1.5,1.1,3.2,1.1,5.1,0,4.5-1.6,8.1-4.9,10.7-3.3,2.6-8,4-14.1,4Z"/>
  </g>
  <g>
    <path class="cls-4" d="M92.4,347.3l14.8-14.8c2.2-2.3,4-4.5,5.4-6.8,1.4-2.3,2-4.8,2-7.6v-1.9c0-2.9-.8-5.1-2.3-6.6-1.5-1.5-3.6-2.3-6.2-2.3s-3.8.3-5.1.9v.4c.8.3,1.4.9,1.9,1.7s.7,1.7.7,2.7c0,1.5-.5,2.8-1.4,3.9-.9,1-2.2,1.5-3.9,1.5s-3-.5-4-1.6c-1-1.1-1.5-2.4-1.5-4.2s.3-2.5,1-3.7c.7-1.2,1.7-2.2,3-3,1.3-.9,2.9-1.5,4.7-2.1,1.9-.5,3.9-.8,6.3-.8,5.5,0,9.7,1.2,12.7,3.6,3,2.4,4.5,5.8,4.5,10.2s-.3,3.9-1,5.7c-.7,1.7-1.6,3.3-2.8,4.8-1.2,1.5-2.5,2.9-4,4.2-1.5,1.3-3.1,2.6-4.8,3.9l-13,10.3v.3h22.6v-6.6h4.7v14.8h-34.5v-7Z"/>
    <path class="cls-4" d="M151.1,355.2c-6.2,0-10.8-2.2-13.9-6.7-3.1-4.5-4.7-10.9-4.7-19.3s1.6-14.8,4.7-19.3c3.1-4.5,7.8-6.7,13.9-6.7s10.8,2.2,13.9,6.7c3.1,4.5,4.7,10.9,4.7,19.3s-1.6,14.8-4.7,19.3c-3.1,4.5-7.8,6.7-13.9,6.7ZM151.1,350.5c1.7,0,3.1-.4,4.1-1.1,1-.7,1.9-1.8,2.4-3.1s.9-3,1.1-5c.2-2,.3-4.3.3-6.8v-10.5c0-2.5,0-4.8-.3-6.8-.2-2-.6-3.7-1.1-5s-1.4-2.4-2.4-3.1c-1-.7-2.4-1.1-4.1-1.1s-3.1.4-4.1,1.1c-1,.7-1.9,1.8-2.4,3.1s-1,3-1.1,5c-.2,2-.3,4.3-.3,6.8v10.5c0,2.5,0,4.8.3,6.8.2,2,.6,3.7,1.1,5s1.4,2.4,2.4,3.1c1,.7,2.4,1.1,4.1,1.1Z"/>
    <path class="cls-4" d="M175.7,347.3l14.8-14.8c2.2-2.3,4-4.5,5.4-6.8,1.4-2.3,2-4.8,2-7.6v-1.9c0-2.9-.8-5.1-2.3-6.6-1.5-1.5-3.6-2.3-6.2-2.3s-3.8.3-5.1.9v.4c.8.3,1.4.9,1.9,1.7s.7,1.7.7,2.7c0,1.5-.5,2.8-1.4,3.9-.9,1-2.2,1.5-3.9,1.5s-3-.5-4-1.6c-1-1.1-1.5-2.4-1.5-4.2s.3-2.5,1-3.7c.7-1.2,1.7-2.2,3-3,1.3-.9,2.9-1.5,4.7-2.1,1.9-.5,3.9-.8,6.3-.8,5.5,0,9.7,1.2,12.7,3.6,3,2.4,4.5,5.8,4.5,10.2s-.3,3.9-1,5.7c-.7,1.7-1.6,3.3-2.8,4.8-1.2,1.5-2.5,2.9-4,4.2-1.5,1.3-3.1,2.6-4.8,3.9l-13,10.3v.3h22.6v-6.6h4.7v14.8h-34.5v-7Z"/>
    <path class="cls-4" d="M245.4,313.2h-23.2v7.8h-4.7v-16.9h33.9v7.5l-17,42.8h-9.4l20.5-41.1Z"/>
  </g>
  <path class="cls-4" d="M260.5,364.7h4.5v-36.9l-4.5-.8v-2.1l9.4-1.8v5.5h.2c.7-1.5,1.8-2.8,3.3-3.9,1.5-1.1,3.5-1.6,5.9-1.6,3.9,0,7,1.4,9.3,4.2,2.3,2.8,3.5,6.9,3.5,12.2s-1.2,9.4-3.5,12.2c-2.3,2.8-5.4,4.2-9.3,4.2s-4.4-.5-5.9-1.6-2.6-2.3-3.3-3.8h-.2v14.1h5.7v2.8h-15.1v-2.8ZM277.9,352.5c2.8,0,4.9-.9,6.5-2.8,1.5-1.9,2.3-4.4,2.3-7.6v-5.1c0-3.2-.8-5.7-2.3-7.6-1.6-1.9-3.7-2.8-6.5-2.8s-1.9.1-2.9.4c-1,.3-1.8.7-2.6,1.2-.7.5-1.3,1.2-1.8,2s-.7,1.7-.7,2.7v13.4c0,1,.2,1.9.7,2.7s1.1,1.5,1.8,2c.7.5,1.6.9,2.6,1.2,1,.3,1.9.4,2.9.4Z"/>
  <path class="cls-4" d="M298.5,364.7h4.5v-36.9l-4.5-.8v-2.1l9.4-1.8v5.5h.2c.7-1.5,1.8-2.8,3.3-3.9,1.5-1.1,3.5-1.6,5.9-1.6,3.9,0,7,1.4,9.3,4.2,2.3,2.8,3.5,6.9,3.5,12.2s-1.2,9.4-3.5,12.2c-2.3,2.8-5.4,4.2-9.3,4.2s-4.4-.5-5.9-1.6-2.6-2.3-3.3-3.8h-.2v14.1h5.7v2.8h-15.1v-2.8ZM315.9,352.5c2.8,0,4.9-.9,6.5-2.8,1.5-1.9,2.3-4.4,2.3-7.6v-5.1c0-3.2-.8-5.7-2.3-7.6-1.6-1.9-3.7-2.8-6.5-2.8s-1.9.1-2.9.4c-1,.3-1.8.7-2.6,1.2-.7.5-1.3,1.2-1.8,2s-.7,1.7-.7,2.7v13.4c0,1,.2,1.9.7,2.7s1.1,1.5,1.8,2c.7.5,1.6.9,2.6,1.2,1,.3,1.9.4,2.9.4Z"/>
  <rect class="cls-3" x="53" y="214" width="2" height="151.3"/>
  <rect class="cls-3" x="53" y="365" width="2" height="2"/>
  <rect class="cls-3" x="51" y="363" width="2" height="2"/>
  <rect class="cls-3" x="49" y="361" width="2" height="2"/>
  <rect class="cls-3" x="47" y="359" width="2" height="2"/>
  <rect class="cls-3" x="45" y="357" width="2" height="2"/>
  <rect class="cls-3" x="43" y="355" width="2" height="2"/>
  <rect class="cls-3" x="55" y="363" width="2" height="2"/>
  <rect class="cls-3" x="57" y="361" width="2" height="2"/>
  <rect class="cls-3" x="59" y="359" width="2" height="2"/>
  <rect class="cls-3" x="61" y="357" width="2" height="2"/>
  <rect class="cls-3" x="63" y="355" width="2" height="2"/>
</svg>