<svg width="21" height="21" viewBox="0 0 21 21" fill="none" xmlns="http://www.w3.org/2000/svg">
<g clip-path="url(#clip0_242_2324)">
<path d="M18.8356 0.5H1.79029C0.974063 0.5 0.3125 1.14133 0.3125 1.93289V19.0664C0.3125 19.858 0.974285 20.5 1.79029 20.5H18.8356C19.6518 20.5 20.3125 19.8578 20.3125 19.0664V1.93289C20.3125 1.14156 19.6518 0.5 18.8356 0.5ZM6.3759 17.2413H3.35409V8.21156H6.3759V17.2413ZM4.86522 6.978H4.84499C3.83165 6.978 3.17475 6.28489 3.17475 5.41733C3.17475 4.53222 3.85098 3.858 4.88433 3.858C5.9179 3.858 6.55368 4.532 6.57368 5.41733C6.57368 6.28511 5.91812 6.978 4.86522 6.978ZM17.2689 17.2413H14.248V12.4102C14.248 11.196 13.8102 10.3678 12.7177 10.3678C11.882 10.3678 11.386 10.9267 11.1682 11.466C11.0873 11.6589 11.0675 11.9282 11.0675 12.1976V17.2411H8.04703C8.04703 17.2411 8.08659 9.05822 8.04703 8.21133H11.0677V9.49156C11.4688 8.87644 12.1853 7.99889 13.7898 7.99889C15.778 7.99889 17.2689 9.28867 17.2689 12.0636V17.2413ZM11.0482 9.52022C11.0535 9.51178 11.0606 9.50133 11.0677 9.49156V9.52022H11.0482Z" fill="#16161D"/>
</g>
<defs>
<clipPath id="clip0_242_2324">
<rect width="20" height="20" fill="white" transform="translate(0.3125 0.5)"/>
</clipPath>
</defs>
</svg>
