<?xml version="1.0" encoding="UTF-8"?>
<svg id="Layer_1" data-name="Layer 1" xmlns="http://www.w3.org/2000/svg" xmlns:xlink="http://www.w3.org/1999/xlink" version="1.1" viewBox="0 0 755 379">
  <defs>
    <style>
      .cls-1 {
        fill: #c4c4c4;
      }

      .cls-1, .cls-2, .cls-3, .cls-4, .cls-5, .cls-6, .cls-7, .cls-8, .cls-9, .cls-10, .cls-11 {
        stroke-width: 0px;
      }

      .cls-2 {
        fill: url(#linear-gradient);
      }

      .cls-3 {
        fill: #fff8fd;
      }

      .cls-4 {
        fill: #ffe72c;
      }

      .cls-5 {
        fill: #aaaaad;
      }

      .cls-6 {
        fill: #000;
      }

      .cls-7 {
        fill: #d1d1d1;
      }

      .cls-8 {
        fill: #62626a;
      }

      .cls-9 {
        fill: #16161d;
      }

      .cls-12 {
        fill: none;
        stroke: #000;
        stroke-miterlimit: 10;
        stroke-width: 3px;
      }

      .cls-10 {
        fill: #fff;
      }

      .cls-11 {
        fill: #2f2f35;
      }
    </style>
    <linearGradient id="linear-gradient" x1="15" y1="44.5" x2="717" y2="44.5" gradientUnits="userSpaceOnUse">
      <stop offset="0" stop-color="#2a0a81"/>
      <stop offset="1" stop-color="#2b48ff"/>
    </linearGradient>
  </defs>
  <polygon class="cls-6" points="755 370 755 42 746 42 746 33 53 33 44 33 44 42 35 42 35 51 35 370 44 370 44 379 746 379 746 370 755 370"/>
  <g>
    <polygon class="cls-3" points="12 355 12 346 3 346 3 24 3 12 12 12 12 3 24 3 720 3 720 12 729 12 729 346 720 346 720 355 12 355"/>
    <path class="cls-9" d="M717,6v9h9v328h-9v9H15v-9H6V15s9,0,9,0V6s9,0,9,0h693ZM723,0H15s-6,0-6,0v6s0,2.9,0,2.9h-3s-6,0-6,0v6s0,9,0,9v325h9v9h714v-9h9V9h-9V0h0Z"/>
  </g>
  <polygon class="cls-2" points="712 21.1 712 16 20 16 20 21.1 15 21.1 15 67.9 15 73 717 73 717 21.1 712 21.1"/>
  <polygon class="cls-7" points="671 63 708 63 708 26 673.1 26 673.1 28.1 671 28.1 671 63"/>
  <polygon class="cls-5" points="671 63 708 63 708 26 671 63"/>
  <rect class="cls-10" x="675.1" y="30.1" width="28.8" height="28.8"/>
  <g>
    <g>
      <rect class="cls-8" x="680.3" y="50.7" width="3.1" height="3.1"/>
      <rect class="cls-8" x="683.3" y="47.6" width="3.1" height="3.1"/>
      <rect class="cls-8" x="686.4" y="44.5" width="3.1" height="3.1"/>
      <rect class="cls-8" x="689.5" y="41.4" width="3.1" height="3.1"/>
      <rect class="cls-8" x="692.6" y="38.3" width="3.1" height="3.1"/>
      <rect class="cls-8" x="695.7" y="35.2" width="3.1" height="3.1"/>
    </g>
    <g>
      <rect class="cls-8" x="695.7" y="50.7" width="3.1" height="3.1" transform="translate(645 749.4) rotate(-90)"/>
      <rect class="cls-8" x="692.6" y="47.6" width="3.1" height="3.1" transform="translate(645 743.2) rotate(-90)"/>
      <rect class="cls-8" x="689.5" y="44.5" width="3.1" height="3.1" transform="translate(645 737.1) rotate(-90)"/>
      <rect class="cls-8" x="686.4" y="41.4" width="3.1" height="3.1" transform="translate(645 730.9) rotate(-90)"/>
      <rect class="cls-8" x="683.3" y="38.3" width="3.1" height="3.1" transform="translate(645 724.7) rotate(-90)"/>
      <rect class="cls-8" x="680.3" y="35.2" width="3.1" height="3.1" transform="translate(645 718.6) rotate(-90)"/>
    </g>
  </g>
  <g>
    <path class="cls-10" d="M39.1,35.6h5.4c2.3,0,4,.8,5.2,2.3,1.1,1.5,1.7,3.8,1.7,6.8s-.6,5.2-1.7,6.8c-1.1,1.5-2.8,2.3-5.2,2.3h-5.4v-18.1ZM44.3,51.4c1.3,0,2.3-.4,3-1.3.6-.9,1-2.2,1-3.8v-3c0-1.7-.3-2.9-1-3.8-.6-.9-1.6-1.3-3-1.3h-2.3v13.4h2.3Z"/>
    <path class="cls-10" d="M55.7,53.8v-2.2h4.3v-13.7h-4.3v-2.2h11.4v2.2h-4.3v13.7h4.3v2.2h-11.4Z"/>
    <path class="cls-10" d="M81.4,51.3h-.2c-.2.4-.3.7-.6,1.1s-.5.6-.8.9c-.3.3-.7.5-1.2.6-.5.2-1,.2-1.6.2-1.9,0-3.3-.8-4.3-2.4s-1.4-3.9-1.4-6.8.5-5.4,1.6-7.1c1.1-1.6,2.8-2.4,5-2.4s1.7.1,2.3.4c.7.2,1.2.6,1.7,1,.5.4.9.9,1.2,1.4.3.5.6,1.1.8,1.7l-2.6.9c-.1-.4-.3-.8-.5-1.1-.2-.4-.4-.7-.6-.9-.3-.3-.6-.5-.9-.6-.4-.2-.8-.2-1.3-.2-1.3,0-2.2.5-2.7,1.5-.6,1-.8,2.3-.8,4v2.9c0,.8,0,1.6.2,2.3.1.7.3,1.3.6,1.8.3.5.7.9,1.1,1.2.5.3,1,.4,1.7.4,1.1,0,1.9-.3,2.4-.9.6-.6.8-1.4.8-2.4v-1.6h-3.5v-2.2h6.2v9.3h-2.7v-2.5Z"/>
    <path class="cls-10" d="M89,53.8v-2.2h4.3v-13.7h-4.3v-2.2h11.4v2.2h-4.3v13.7h4.3v2.2h-11.4Z"/>
    <path class="cls-10" d="M108.2,35.6v11.2c0,.7,0,1.4,0,2,0,.6.2,1.1.4,1.5s.5.8.9,1c.4.2,1,.3,1.7.3s1.3-.1,1.7-.3c.4-.2.7-.6.9-1s.3-.9.4-1.5c0-.6,0-1.3,0-2v-11.2h2.9v10.6c0,1.3,0,2.4-.2,3.4-.1,1-.4,1.8-.9,2.4s-1,1.1-1.8,1.5-1.8.5-3.1.5-2.3-.2-3.1-.5c-.8-.3-1.4-.8-1.8-1.5-.4-.6-.7-1.5-.9-2.4-.1-1-.2-2.1-.2-3.4v-10.6h2.9Z"/>
    <path class="cls-10" d="M124.8,39.8h-.2v14h-2.5v-18.1h3.7l5.3,14h.2v-14h2.5v18.1h-3.7l-5.3-14Z"/>
    <path class="cls-10" d="M138.9,53.8v-2.2h4.3v-13.7h-4.3v-2.2h11.4v2.2h-4.3v13.7h4.3v2.2h-11.4Z"/>
  </g>
  <g>
    <path class="cls-9" d="M63.6,158.2c-2,0-3.7-.3-5.1-1-1.4-.7-2.5-1.6-3.4-2.7l2.6-2.7c.9,1,1.8,1.7,2.8,2.2,1,.5,2.1.7,3.2.7s2.3-.3,3-.9c.7-.6,1.1-1.5,1.1-2.6s-.3-1.6-.8-2.1c-.5-.5-1.4-.8-2.7-1l-2.4-.4c-2.1-.4-3.7-1.1-4.6-2.3-.9-1.2-1.4-2.6-1.4-4.2s.7-3.9,2.1-5.1c1.4-1.2,3.4-1.8,5.9-1.8s3.4.3,4.7.9c1.3.6,2.4,1.3,3.2,2.3l-2.5,2.7c-.6-.7-1.4-1.3-2.2-1.7-.9-.4-1.9-.6-3-.6-2.5,0-3.8,1-3.8,3.1s.3,1.6.8,2c.5.5,1.4.8,2.7,1l2.4.4c2,.4,3.5,1.1,4.5,2.2,1,1.1,1.5,2.5,1.5,4.2s-.2,2.1-.6,3c-.4.9-.9,1.7-1.7,2.3-.7.6-1.6,1.1-2.7,1.5s-2.3.5-3.7.5Z"/>
    <path class="cls-9" d="M86.6,138.3v19.5h-4.3v-19.5h-6.9v-3.6h18.2v3.6h-6.9Z"/>
    <path class="cls-9" d="M110,157.8l-1.6-5.9h-6.8l-1.6,5.9h-4.4l6.5-23h6l6.5,23h-4.6ZM105.1,139h-.3l-2.5,9.4h5.3l-2.5-9.4Z"/>
    <path class="cls-9" d="M122.7,157.8h-4.3v-23h8.7c2.2,0,4,.6,5.1,1.9,1.2,1.3,1.8,3,1.8,5.2s-.4,3.1-1.2,4.3c-.8,1.2-1.9,1.9-3.3,2.2l4.9,9.4h-4.8l-4.4-8.9h-2.6v8.9ZM126.2,145.4c1.2,0,2-.2,2.5-.7.5-.5.8-1.2.8-2.3v-1.3c0-1-.3-1.8-.8-2.3-.5-.5-1.3-.7-2.5-.7h-3.5v7.2h3.5Z"/>
    <path class="cls-9" d="M148.4,138.3v19.5h-4.3v-19.5h-6.9v-3.6h18.1v3.6h-6.9Z"/>
    <path class="cls-9" d="M159.5,157.8v-3.2h5.2v-16.6h-5.2v-3.2h14.7v3.2h-5.2v16.6h5.2v3.2h-14.7Z"/>
    <path class="cls-9" d="M183.7,141.2h-.3v16.5h-3.7v-23h5.3l6,16.5h.3v-16.5h3.7v23h-5.3l-6-16.5Z"/>
    <path class="cls-9" d="M212,154.6h-.3c-.2.5-.4.9-.7,1.4-.3.4-.6.8-1.1,1.2s-.9.6-1.5.8c-.6.2-1.2.3-1.9.3-2.3,0-4.1-1-5.3-3.1-1.2-2.1-1.8-4.9-1.8-8.7s.7-6.9,2.1-9c1.4-2.1,3.6-3.1,6.5-3.1s2.2.2,3,.5,1.6.7,2.2,1.3,1.1,1.2,1.6,2c.4.8.7,1.6,1,2.5l-4,1.1c-.2-.5-.3-1-.5-1.4-.2-.5-.4-.9-.7-1.2-.3-.3-.7-.6-1.1-.8-.4-.2-.9-.3-1.6-.3-1.4,0-2.5.6-3.1,1.7-.6,1.1-.9,2.7-.9,4.7v3.7c0,1,0,1.9.2,2.7.1.8.4,1.5.7,2.1.3.6.8,1.1,1.3,1.4.5.3,1.2.5,2,.5,1.2,0,2.2-.4,2.8-1.1.6-.7,1-1.7,1-2.8v-1.9h-4.2v-3.1h8.1v12h-3.9v-3.2Z"/>
    <path class="cls-9" d="M254.1,157.8l-1.6-5.9h-6.8l-1.6,5.9h-4.4l6.5-23h6l6.5,23h-4.6ZM249.2,139h-.3l-2.5,9.4h5.3l-2.5-9.4Z"/>
    <path class="cls-9" d="M286.7,141.2h-.3v16.5h-3.7v-23h5.3l6,16.5h.3v-16.5h3.7v23h-5.3l-6-16.5Z"/>
    <path class="cls-9" d="M303.8,157.8v-23h14.6v3.6h-10.2v6h9.9v3.6h-9.9v6.3h10.2v3.6h-14.6Z"/>
    <path class="cls-9" d="M323.8,157.8l-1.6-23h3.7l.7,13.3.3,5.5h.3l2.3-13.4h4l2.3,13.4h.3l.3-5.5.7-13.3h3.6l-1.6,23h-5.6l-2-13h-.3l-2,13h-5.6Z"/>
    <path class="cls-9" d="M365.5,157.8v-23h8.7c2.2,0,4,.6,5.1,1.9,1.2,1.3,1.8,3,1.8,5.2s-.6,3.9-1.8,5.2c-1.2,1.3-2.9,1.9-5.1,1.9h-4.4v8.8h-4.3ZM369.8,145.4h3.5c1.2,0,2-.2,2.5-.7.5-.5.8-1.2.8-2.3v-1.3c0-1-.3-1.8-.8-2.3-.5-.5-1.3-.7-2.5-.7h-3.5v7.2Z"/>
    <path class="cls-9" d="M390.4,157.8h-4.3v-23h8.7c2.2,0,4,.6,5.1,1.9,1.2,1.3,1.8,3,1.8,5.2s-.4,3.1-1.2,4.3c-.8,1.2-1.9,1.9-3.3,2.2l4.9,9.4h-4.8l-4.4-8.9h-2.6v8.9ZM393.9,145.4c1.2,0,2-.2,2.5-.7.5-.5.8-1.2.8-2.3v-1.3c0-1-.3-1.8-.8-2.3-.5-.5-1.3-.7-2.5-.7h-3.5v7.2h3.5Z"/>
    <path class="cls-9" d="M413.9,158.2c-1.5,0-2.8-.3-3.9-.8-1.1-.5-2-1.3-2.7-2.3-.7-1-1.2-2.3-1.6-3.7-.3-1.5-.5-3.2-.5-5s.2-3.5.5-5c.3-1.5.9-2.7,1.6-3.7.7-1,1.6-1.8,2.7-2.3,1.1-.5,2.4-.8,3.9-.8,3,0,5.2,1,6.6,3.1,1.4,2.1,2.1,5,2.1,8.8s-.7,6.7-2.1,8.8c-1.4,2.1-3.6,3.1-6.6,3.1ZM413.9,154.7c.8,0,1.4-.1,1.9-.4.5-.3,1-.7,1.3-1.3.3-.6.5-1.2.7-2,.1-.8.2-1.7.2-2.7v-3.9c0-2-.3-3.6-.9-4.7-.6-1.1-1.7-1.7-3.2-1.7s-2.6.6-3.2,1.7c-.6,1.1-.9,2.7-.9,4.7v4c0,2,.3,3.6.9,4.7.6,1.1,1.7,1.7,3.2,1.7Z"/>
    <path class="cls-9" d="M441.2,134.7v16.7c0,1-.2,2-.5,2.8-.4.8-.9,1.5-1.5,2.1-.6.6-1.4,1-2.3,1.3s-1.9.5-3.1.5c-2.2,0-3.9-.5-5.1-1.6-1.2-1.1-2-2.6-2.4-4.4l4.1-.9c.2,1,.6,1.8,1.1,2.4.5.6,1.3.9,2.4.9s1.7-.3,2.3-.9c.5-.6.8-1.5.8-2.8v-12.7h-7.8v-3.6h12.1Z"/>
    <path class="cls-9" d="M447.9,157.8v-23h14.6v3.6h-10.2v6h9.9v3.6h-9.9v6.3h10.2v3.6h-14.6Z"/>
    <path class="cls-9" d="M476.3,158.2c-3,0-5.2-1-6.7-3.1-1.4-2.1-2.2-5-2.2-8.8s.7-6.7,2.2-8.8c1.4-2.1,3.7-3.1,6.7-3.1s2.2.2,3,.5,1.6.7,2.3,1.3c.6.5,1.2,1.2,1.6,1.9s.7,1.6,1,2.5l-4,1.1c-.2-.5-.3-1-.5-1.5-.2-.5-.4-.9-.7-1.2-.3-.3-.7-.6-1.1-.8-.4-.2-1-.3-1.6-.3-1.5,0-2.6.6-3.2,1.7-.6,1.1-1,2.7-1,4.7v4c0,2,.3,3.6,1,4.7.6,1.1,1.7,1.7,3.2,1.7s1.1,0,1.6-.3c.4-.2.8-.5,1.1-.8.3-.3.5-.7.7-1.2s.4-1,.5-1.5l4,1.1c-.2.9-.6,1.7-1,2.5-.4.8-.9,1.4-1.6,1.9-.6.5-1.4,1-2.3,1.3-.9.3-1.9.5-3,.5Z"/>
    <path class="cls-9" d="M498.4,138.3v19.5h-4.3v-19.5h-6.9v-3.6h18.1v3.6h-6.9Z"/>
    <path class="cls-9" d="M516.9,158.1c-1.1,0-2-.2-2.4-.7-.5-.5-.7-1.1-.7-1.8v-1c0-.7.2-1.3.7-1.8.5-.5,1.3-.7,2.4-.7s2,.2,2.4.7c.5.5.7,1.1.7,1.8v1c0,.7-.2,1.3-.7,1.8-.5.5-1.3.7-2.4.7Z"/>
    <path class="cls-9" d="M537.5,158.1c-1.1,0-2-.2-2.4-.7-.5-.5-.7-1.1-.7-1.8v-1c0-.7.2-1.3.7-1.8.5-.5,1.3-.7,2.4-.7s2,.2,2.4.7c.5.5.7,1.1.7,1.8v1c0,.7-.2,1.3-.7,1.8-.5.5-1.3.7-2.4.7Z"/>
    <path class="cls-9" d="M558.1,158.1c-1.1,0-2-.2-2.4-.7-.5-.5-.7-1.1-.7-1.8v-1c0-.7.2-1.3.7-1.8.5-.5,1.3-.7,2.4-.7s2,.2,2.4.7c.5.5.7,1.1.7,1.8v1c0,.7-.2,1.3-.7,1.8-.5.5-1.3.7-2.4.7Z"/>
  </g>
  <g>
    <path class="cls-8" d="M62.2,192.1c-.9,0-1.7-.2-2.5-.5-.7-.3-1.3-.8-1.8-1.5-.5-.6-.9-1.4-1.2-2.3-.3-.9-.4-1.9-.4-3s.1-2.1.4-3c.3-.9.7-1.7,1.2-2.3.5-.6,1.1-1.1,1.8-1.5.7-.3,1.5-.5,2.5-.5s1.7.2,2.5.5c.7.3,1.3.8,1.8,1.5.5.6.9,1.4,1.2,2.3.3.9.4,1.9.4,3s-.1,2.1-.4,3c-.3.9-.7,1.7-1.2,2.3-.5.6-1.1,1.1-1.8,1.5-.7.3-1.5.5-2.5.5ZM62.2,189.8c1,0,1.7-.3,2.3-1,.6-.7.9-1.6.9-2.9v-2.1c0-1.3-.3-2.3-.9-2.9-.6-.7-1.3-1-2.3-1s-1.7.3-2.3,1c-.6.7-.9,1.6-.9,2.9v2.1c0,1.3.3,2.3.9,2.9.6.7,1.3,1,2.3,1Z"/>
    <path class="cls-8" d="M72.2,177.9h2.6v2.4h.1c.4-.8.9-1.5,1.5-2,.6-.5,1.4-.7,2.3-.7,1.5,0,2.6.6,3.5,1.8.9,1.2,1.3,3,1.3,5.4s-.4,4.2-1.3,5.4c-.9,1.2-2,1.8-3.5,1.8s-1.7-.2-2.3-.7-1.1-1.1-1.5-2h-.1v7.7h-2.6v-19.2ZM77.6,189.7c1,0,1.8-.3,2.3-1,.5-.7.8-1.6.8-2.7v-2.3c0-1.1-.3-2-.8-2.7-.5-.7-1.3-1-2.3-1s-.7,0-1.1.2-.6.3-.9.5c-.3.2-.5.5-.6.8-.2.3-.2.7-.2,1.1v4.6c0,.4,0,.8.2,1.1s.4.6.6.8c.3.2.6.4.9.5s.7.2,1.1.2Z"/>
    <path class="cls-8" d="M93.1,192.1c-.9,0-1.8-.2-2.5-.5-.8-.3-1.4-.8-1.9-1.5-.5-.6-.9-1.4-1.2-2.3-.3-.9-.4-1.9-.4-3s.1-2.1.4-3c.3-.9.7-1.7,1.2-2.3s1.1-1.1,1.8-1.5c.7-.3,1.5-.5,2.4-.5s1.6.2,2.4.5c.7.3,1.3.8,1.8,1.4.5.6.9,1.3,1.1,2.2.3.8.4,1.8.4,2.8v1.1h-8.9v.5c0,1.1.3,2,.9,2.7.6.7,1.4,1,2.5,1s1.5-.2,2.1-.6c.6-.4,1-.9,1.4-1.5l1.6,1.6c-.4.8-1.1,1.5-1.9,2-.9.6-1.9.8-3.2.8ZM92.9,179.8c-.5,0-.9,0-1.3.3-.4.2-.7.4-1,.8-.3.3-.5.7-.7,1.2-.2.4-.2.9-.2,1.5v.2h6.2v-.3c0-1.1-.3-2-.8-2.6-.6-.7-1.3-1-2.2-1Z"/>
    <path class="cls-8" d="M103,191.8v-13.9h2.6v2.4h.1c.1-.4.3-.7.5-1,.2-.3.4-.6.7-.9.3-.2.6-.4,1-.6.4-.1.8-.2,1.3-.2,1.2,0,2.3.5,3,1.4.8.9,1.2,2.2,1.2,3.9v8.9h-2.6v-8.5c0-2.2-.9-3.3-2.6-3.3s-.7,0-1,.1c-.3,0-.6.2-.9.4-.3.2-.5.4-.6.8-.2.3-.2.7-.2,1v9.4h-2.6Z"/>
    <path class="cls-8" d="M117.7,196.6v-2.5h11.5v2.5h-11.5Z"/>
    <path class="cls-8" d="M141.5,189.4h-.1c-.4.8-.9,1.5-1.5,2-.6.5-1.4.7-2.3.7-1.5,0-2.6-.6-3.5-1.8-.9-1.2-1.3-3-1.3-5.4s.4-4.2,1.3-5.4c.9-1.2,2-1.8,3.5-1.8s1.7.2,2.3.7c.6.5,1.1,1.1,1.5,2h.1v-8.4h2.6v19.9h-2.6v-2.4ZM138.7,189.7c.4,0,.7,0,1.1-.2s.6-.3.9-.5.5-.5.6-.8.2-.7.2-1.1v-4.6c0-.4,0-.8-.2-1.1-.2-.3-.4-.6-.6-.8-.3-.2-.6-.4-.9-.5s-.7-.2-1.1-.2c-1,0-1.8.3-2.3,1-.5.7-.8,1.6-.8,2.7v2.3c0,1.1.3,2,.8,2.7.5.7,1.3,1,2.3,1Z"/>
    <path class="cls-8" d="M149.4,189.4h4.2v-9.1h-4.2v-2.4h6.8v11.5h4v2.4h-10.8v-2.4ZM154.9,175.4c-.7,0-1.1-.2-1.4-.5-.3-.3-.4-.7-.4-1.1v-.6c0-.4.1-.8.4-1.1.3-.3.7-.5,1.4-.5s1.1.2,1.4.5c.3.3.4.7.4,1.1v.6c0,.4-.1.8-.4,1.1-.3.3-.7.5-1.4.5Z"/>
    <path class="cls-8" d="M176,193.3c0,1.4-.5,2.5-1.6,3.2-1.1.7-2.7,1-4.9,1s-2,0-2.7-.2c-.7-.2-1.3-.4-1.8-.7-.5-.3-.8-.6-1-1-.2-.4-.3-.9-.3-1.4,0-.8.2-1.3.6-1.8.4-.4.9-.7,1.6-.9v-.3c-.4-.2-.7-.4-1-.8s-.4-.7-.4-1.3.2-1.2.6-1.5c.4-.3,1-.6,1.6-.8h0c-.8-.5-1.3-1.1-1.8-1.8-.4-.7-.6-1.6-.6-2.6s.1-1.4.4-2c.2-.6.6-1.1,1-1.5.4-.4,1-.7,1.6-1,.6-.2,1.3-.3,2.1-.3s1.6.2,2.3.5v-.5c0-.5.1-1,.4-1.3.3-.4.7-.5,1.2-.5h2.3v2.3h-2.9v.6c.5.4,1,.9,1.2,1.6.3.6.4,1.4.4,2.2s-.1,1.4-.4,2c-.2.6-.6,1.1-1,1.5-.4.4-1,.7-1.6,1-.6.2-1.3.3-2.1.3s-1.1,0-1.5-.2c-.3,0-.6.2-.9.5-.3.2-.4.5-.4.9s.2.7.6.8c.4.1.8.2,1.4.2h2.8c1.7,0,2.9.4,3.6,1.1.7.7,1.1,1.6,1.1,2.8ZM173.5,193.4c0-.5-.2-.8-.5-1.1-.3-.3-.9-.4-1.8-.4h-4.3c-.6.3-.9.8-.9,1.6s.2,1,.6,1.4c.4.4,1,.6,2,.6h1.9c1,0,1.7-.2,2.3-.5.5-.3.8-.8.8-1.4ZM169.4,185.2c.8,0,1.5-.2,1.9-.7.4-.4.6-1,.6-1.8v-.7c0-.8-.2-1.4-.6-1.8-.4-.4-1-.7-1.9-.7s-1.5.2-1.9.7c-.4.4-.6,1-.6,1.8v.7c0,.8.2,1.4.6,1.8.4.4,1,.7,1.9.7Z"/>
    <path class="cls-8" d="M180.1,189.4h4.2v-9.1h-4.2v-2.4h6.8v11.5h4v2.4h-10.8v-2.4ZM185.6,175.4c-.7,0-1.1-.2-1.4-.5-.3-.3-.4-.7-.4-1.1v-.6c0-.4.1-.8.4-1.1.3-.3.7-.5,1.4-.5s1.1.2,1.4.5c.3.3.4.7.4,1.1v.6c0,.4-.1.8-.4,1.1-.3.3-.7.5-1.4.5Z"/>
    <path class="cls-8" d="M200.9,191.8c-1.1,0-1.9-.3-2.4-1-.5-.7-.8-1.5-.8-2.5v-8h-3.8v-2.4h2.7c.5,0,.8-.1,1-.3.2-.2.3-.6.3-1.1v-3.5h2.4v4.9h5.3v2.4h-5.3v9.1h5.3v2.4h-4.7Z"/>
    <path class="cls-8" d="M220.1,191.8c-.8,0-1.3-.2-1.7-.6-.4-.4-.6-1-.7-1.7h-.1c-.2.8-.7,1.5-1.3,2-.6.5-1.4.7-2.4.7s-2.3-.4-3-1.1c-.8-.7-1.1-1.8-1.1-3.1s.4-2.4,1.3-3.1c.9-.7,2.3-1.1,4.1-1.1h2.4v-1.1c0-1.9-.9-2.8-2.7-2.8s-1.4.2-1.9.5c-.5.3-.9.8-1.2,1.4l-1.6-1.4c.4-.8.9-1.4,1.8-1.9.8-.5,1.9-.8,3.2-.8s2.8.4,3.7,1.3c.9.8,1.3,2.1,1.3,3.7v7h1.6v2.3h-1.6ZM214.7,189.9c.8,0,1.5-.2,2.1-.6s.8-1,.8-1.7v-2h-2.3c-1.9,0-2.8.6-2.8,1.9v.5c0,.6.2,1.1.6,1.4.4.3,1,.5,1.7.5Z"/>
    <path class="cls-8" d="M225.4,189.4h4.1v-15.1h-4.1v-2.4h6.7v17.5h4.1v2.4h-10.8v-2.4Z"/>
    <path class="cls-8" d="M240.4,196.6v-2.5h11.5v2.5h-11.5Z"/>
    <path class="cls-8" d="M264.1,189.4h-.1c-.1.4-.3.7-.5,1s-.4.6-.7.9c-.3.2-.6.4-1,.6-.4.1-.8.2-1.3.2-1.2,0-2.3-.5-3-1.4-.8-.9-1.2-2.2-1.2-3.9v-8.9h2.6v8.5c0,2.2.9,3.3,2.6,3.3s.7,0,1-.1c.3,0,.6-.2.9-.4.3-.2.5-.4.6-.7.2-.3.2-.6.2-1.1v-9.4h2.6v13.9h-2.6v-2.4Z"/>
    <path class="cls-8" d="M271.7,191.8v-13.9h2.6v2.4h.1c.1-.4.3-.7.5-1,.2-.3.4-.6.7-.9.3-.2.6-.4,1-.6.4-.1.8-.2,1.3-.2,1.2,0,2.3.5,3,1.4.8.9,1.2,2.2,1.2,3.9v8.9h-2.6v-8.5c0-2.2-.9-3.3-2.6-3.3s-.7,0-1,.1-.6.2-.9.4c-.3.2-.5.4-.6.8-.2.3-.2.7-.2,1v9.4h-2.6Z"/>
    <path class="cls-8" d="M287.4,189.4h4.2v-9.1h-4.2v-2.4h6.8v11.5h4v2.4h-10.8v-2.4ZM293,175.4c-.7,0-1.1-.2-1.4-.5-.3-.3-.4-.7-.4-1.1v-.6c0-.4.1-.8.4-1.1.3-.3.7-.5,1.4-.5s1.1.2,1.4.5c.3.3.4.7.4,1.1v.6c0,.4-.1.8-.4,1.1-.3.3-.7.5-1.4.5Z"/>
    <path class="cls-8" d="M305.9,191.8l-4.4-13.9h2.7l1.7,5.9,1.6,5.6h.1l1.6-5.6,1.7-5.9h2.6l-4.4,13.9h-3.2Z"/>
    <path class="cls-8" d="M323.1,192.1c-.9,0-1.8-.2-2.5-.5-.8-.3-1.4-.8-1.9-1.5-.5-.6-.9-1.4-1.2-2.3-.3-.9-.4-1.9-.4-3s.1-2.1.4-3c.3-.9.7-1.7,1.2-2.3s1.1-1.1,1.8-1.5c.7-.3,1.5-.5,2.4-.5s1.6.2,2.4.5,1.3.8,1.8,1.4c.5.6.9,1.3,1.1,2.2.3.8.4,1.8.4,2.8v1.1h-8.9v.5c0,1.1.3,2,.9,2.7.6.7,1.4,1,2.5,1s1.5-.2,2.1-.6c.6-.4,1-.9,1.4-1.5l1.6,1.6c-.4.8-1.1,1.5-1.9,2-.9.6-1.9.8-3.2.8ZM322.9,179.8c-.5,0-.9,0-1.3.3-.4.2-.7.4-1,.8-.3.3-.5.7-.7,1.2-.2.4-.2.9-.2,1.5v.2h6.2v-.3c0-1.1-.3-2-.8-2.6-.6-.7-1.3-1-2.2-1Z"/>
    <path class="cls-8" d="M332.8,189.4h3.3v-9.1h-3.3v-2.4h5.9v3.7h.1c.1-.5.3-.9.5-1.4.2-.4.5-.8.8-1.2.3-.3.7-.6,1.2-.8.5-.2,1-.3,1.6-.3h1.5v2.8h-2.4c-1,0-1.7.3-2.4,1-.6.6-.9,1.5-.9,2.6v5.2h4.5v2.4h-10.4v-2.4Z"/>
    <path class="cls-8" d="M353.6,192.1c-1.3,0-2.5-.2-3.5-.7-1-.5-1.7-1.1-2.3-1.9l1.6-1.6c.5.7,1.2,1.2,1.8,1.5.7.3,1.5.5,2.4.5s1.5-.2,2.1-.5c.5-.3.8-.8.8-1.5s0-.5-.1-.7c0-.2-.2-.4-.4-.5-.2-.1-.4-.2-.6-.3-.2,0-.5-.1-.7-.2l-2-.3c-.5,0-1-.2-1.5-.3-.5-.2-.9-.4-1.3-.7-.4-.3-.7-.7-1-1.1-.2-.5-.4-1.1-.4-1.8,0-1.4.5-2.5,1.5-3.2,1-.7,2.2-1.1,3.8-1.1s2.1.2,3,.6c.8.4,1.5.9,2.1,1.6l-1.5,1.7c-.3-.4-.8-.8-1.4-1.1-.6-.3-1.4-.5-2.4-.5-1.7,0-2.6.6-2.6,1.9s.2,1,.6,1.2.8.4,1.3.4l2,.3c.5,0,1,.2,1.5.3.5.1.9.4,1.3.7.4.3.7.7,1,1.1.2.5.4,1.1.4,1.8,0,1.4-.5,2.5-1.5,3.3-1,.8-2.3,1.2-4,1.2Z"/>
    <path class="cls-8" d="M364.1,189.4h4.2v-9.1h-4.2v-2.4h6.8v11.5h4v2.4h-10.8v-2.4ZM369.6,175.4c-.7,0-1.1-.2-1.4-.5-.3-.3-.4-.7-.4-1.1v-.6c0-.4.1-.8.4-1.1.3-.3.7-.5,1.4-.5s1.1.2,1.4.5c.3.3.4.7.4,1.1v.6c0,.4-.1.8-.4,1.1-.3.3-.7.5-1.4.5Z"/>
    <path class="cls-8" d="M385,191.8c-1.1,0-1.9-.3-2.4-1-.5-.7-.8-1.5-.8-2.5v-8h-3.8v-2.4h2.7c.5,0,.8-.1,1-.3.2-.2.3-.6.3-1.1v-3.5h2.4v4.9h5.3v2.4h-5.3v9.1h5.3v2.4h-4.7Z"/>
    <path class="cls-8" d="M403.2,177.9h2.6l-6,16.6c-.3.9-.7,1.6-1.3,2-.5.4-1.3.7-2.2.7h-2.1v-2.4h2.9l1.1-3.2-5-13.7h2.7l2,5.8,1.5,4.8h.1l1.5-4.8,2-5.8Z"/>
    <path class="cls-8" d="M414.9,192c-.8,0-1.3-.2-1.6-.5-.3-.4-.5-.8-.5-1.3v-.7c0-.5.2-1,.5-1.3.3-.4.9-.5,1.6-.5s1.3.2,1.6.5c.3.4.5.8.5,1.3v.7c0,.5-.2,1-.5,1.3-.3.4-.9.5-1.6.5Z"/>
    <path class="cls-8" d="M430.5,192.1c-.9,0-1.8-.2-2.5-.5-.8-.3-1.4-.8-1.9-1.5-.5-.6-.9-1.4-1.2-2.3-.3-.9-.4-1.9-.4-3s.1-2.1.4-3c.3-.9.7-1.7,1.2-2.3s1.1-1.1,1.8-1.5c.7-.3,1.5-.5,2.4-.5s1.6.2,2.4.5,1.3.8,1.8,1.4c.5.6.9,1.3,1.1,2.2.3.8.4,1.8.4,2.8v1.1h-8.9v.5c0,1.1.3,2,.9,2.7.6.7,1.4,1,2.5,1s1.5-.2,2.1-.6c.6-.4,1-.9,1.4-1.5l1.6,1.6c-.4.8-1.1,1.5-1.9,2-.9.6-1.9.8-3.2.8ZM430.3,179.8c-.5,0-.9,0-1.3.3-.4.2-.7.4-1,.8-.3.3-.5.7-.7,1.2-.2.4-.2.9-.2,1.5v.2h6.2v-.3c0-1.1-.3-2-.8-2.6-.6-.7-1.3-1-2.2-1Z"/>
    <path class="cls-8" d="M439.4,191.8l4.6-7-4.4-6.8h3l1.6,2.6,1.3,2.1h.1l1.3-2.1,1.6-2.6h2.8l-4.4,6.7,4.7,7.1h-3.1l-1.8-3-1.3-2h-.1l-1.2,2-1.8,3h-2.9Z"/>
    <path class="cls-8" d="M461.2,192.1c-.9,0-1.8-.2-2.5-.5-.8-.3-1.4-.8-1.9-1.5-.5-.6-.9-1.4-1.2-2.3-.3-.9-.4-1.9-.4-3s.1-2.1.4-3c.3-.9.7-1.7,1.2-2.3s1.1-1.1,1.8-1.5c.7-.3,1.5-.5,2.4-.5s1.6.2,2.4.5,1.3.8,1.8,1.4c.5.6.9,1.3,1.1,2.2.3.8.4,1.8.4,2.8v1.1h-8.9v.5c0,1.1.3,2,.9,2.7.6.7,1.4,1,2.5,1s1.5-.2,2.1-.6c.6-.4,1-.9,1.4-1.5l1.6,1.6c-.4.8-1.1,1.5-1.9,2-.9.6-1.9.8-3.2.8ZM461,179.8c-.5,0-.9,0-1.3.3-.4.2-.7.4-1,.8-.3.3-.5.7-.7,1.2-.2.4-.2.9-.2,1.5v.2h6.2v-.3c0-1.1-.3-2-.8-2.6-.6-.7-1.3-1-2.2-1Z"/>
  </g>
  <rect class="cls-1" x="496" y="239" width="179.7" height="56"/>
  <g>
    <rect class="cls-4" x="493.2" y="237" width="174.5" height="50.5"/>
    <path class="cls-9" d="M670.2,290h-179.5v-55.5h179.5v55.5ZM495.7,285h169.5v-45.5h-169.5v45.5Z"/>
  </g>
  <path class="cls-12" d="M462,284"/>
  <path class="cls-9" d="M57.5,290.9v-4h-4v-48h4v-4h408v55.5l-408,.5ZM58.5,281.9h4v4l398-.5v-45.5H62.5v4h-4v38Z"/>
  <g>
    <path class="cls-9" d="M528.8,272.8v-20.9h3.9v17.7h9.3v3.2h-13.2Z"/>
    <path class="cls-9" d="M557.7,272.8l-1.5-5.3h-6.2l-1.4,5.3h-4l5.9-20.9h5.5l5.9,20.9h-4.2ZM553.3,255.7h-.2l-2.3,8.5h4.9l-2.3-8.5Z"/>
    <path class="cls-9" d="M568.5,251.8v13.1c0,.8,0,1.5,0,2.1,0,.6.2,1.1.4,1.6.2.4.5.8,1,1,.4.2,1,.4,1.8.4s1.4-.1,1.8-.4c.4-.2.8-.6,1-1,.2-.4.3-1,.4-1.6s0-1.3,0-2.1v-13.1h3.9v12.4c0,1.5,0,2.8-.3,3.9-.2,1.1-.5,2-1.1,2.8-.5.7-1.2,1.3-2.2,1.7-.9.4-2.1.6-3.6.6s-2.7-.2-3.6-.6c-.9-.4-1.7-.9-2.2-1.7-.5-.7-.9-1.7-1-2.8-.2-1.1-.3-2.4-.3-3.9v-12.4h3.9Z"/>
    <path class="cls-9" d="M586.9,257.7h-.3v15h-3.4v-20.9h4.8l5.5,15h.3v-15h3.4v20.9h-4.8l-5.5-15Z"/>
    <path class="cls-9" d="M609.2,273.1c-2.7,0-4.8-.9-6.1-2.8-1.3-1.9-2-4.5-2-8s.7-6.1,2-8c1.3-1.9,3.3-2.8,6.1-2.8s2,.1,2.7.4,1.5.7,2.1,1.1,1.1,1.1,1.4,1.8.7,1.4.9,2.3l-3.6,1c-.1-.5-.3-.9-.5-1.3-.2-.4-.4-.8-.7-1.1-.3-.3-.6-.5-1-.7-.4-.2-.9-.3-1.4-.3-1.4,0-2.3.5-2.9,1.6-.6,1-.9,2.5-.9,4.3v3.6c0,1.8.3,3.2.9,4.3.6,1,1.6,1.6,2.9,1.6s1,0,1.4-.3c.4-.2.7-.4,1-.7.3-.3.5-.7.7-1.1.2-.4.3-.9.5-1.4l3.6,1c-.2.8-.5,1.6-.9,2.3s-.9,1.3-1.4,1.8c-.6.5-1.3.9-2.1,1.1s-1.7.4-2.7.4Z"/>
    <path class="cls-9" d="M630.2,263.8h-6.1v9h-3.9v-20.9h3.9v8.7h6.1v-8.7h3.9v20.9h-3.9v-9Z"/>
  </g>
  <polygon class="cls-9" points="150 247.9 150 253.9 144 253.9 144 259.9 138 259.9 138 265.9 132 265.9 132 271.9 126 271.9 126 277.9 94 277.9 94 271.9 100 271.9 100 265.9 106 265.9 106 259.9 112 259.9 112 253.9 118 253.9 118 247.9 150 247.9"/>
  <polygon class="cls-11" points="197 247.9 197 253.9 191 253.9 191 259.9 185 259.9 185 265.9 179 265.9 179 271.9 173 271.9 173 277.9 141 277.9 141 271.9 147 271.9 147 265.9 153 265.9 153 259.9 159 259.9 159 253.9 165 253.9 165 247.9 197 247.9"/>
  <polygon class="cls-8" points="241 248 241 254 235 254 235 260 229 260 229 266 223 266 223 272 217 272 217 278 188 278 188 272 194 272 194 266 200 266 200 260 206 260 206 254 212 254 212 248 241 248"/>
  <polygon class="cls-5" points="285 248 285 254 279 254 279 260 273 260 273 266 267 266 267 272 261 272 261 278 232 278 232 272 238 272 238 266 244 266 244 260 250 260 250 254 256 254 256 248 285 248"/>
  <polygon class="cls-7" points="326 248 326 254 320 254 320 260 314 260 314 266 308 266 308 272 302 272 302 278 276 278 276 272 282 272 282 266 288 266 288 260 294 260 294 254 300 254 300 248 326 248"/>
  <polygon class="cls-7" points="362 248 362 254 356 254 356 260 350 260 350 266 344 266 344 272 338 272 338 278 317 278 317 272 323 272 323 266 329 266 329 260 335 260 335 254 341 254 341 248 362 248"/>
  <polygon class="cls-9" points="103 247.9 103 253.9 97 253.9 97 259.9 91 259.9 91 265.9 85 265.9 85 271.9 79 271.9 79 277.9 71 277.9 71 247.9 103 247.9"/>
</svg>