<svg width="74" height="63" viewBox="0 0 74 63" fill="none" xmlns="http://www.w3.org/2000/svg">
<g clip-path="url(#clip0_842_186)">
<path d="M64.8278 41.2782H62.1181V43.9999H15.1504V40.8246H58.9568V38.103H61.6665V11.7937H64.8278V41.2782Z" fill="black" fill-opacity="0.2"/>
<path d="M58.9574 35.3815H56.2478V38.1031H14.2478V35.3815H11.5381V5.44333H14.2478V2.72168H47.2155V8.16498H56.2478V11.3402H58.9574V35.3815Z" fill="#1A29B1"/>
<path d="M61.6668 8.61856V38.1031H58.9572V40.8247H11.5378V38.1031H8.82812V2.76701L11.5378 2.72165V0H44.5055V2.72165H14.2475V5.4433H11.5378V35.3814H14.2475V38.1031H56.2475V35.3814H58.9572V11.3402H56.2475V8.16495H47.2152V5.4433H58.9572V8.61856H61.6668Z" fill="#0A178A"/>
<path d="M61.6667 38.103H58.957V40.8247V38.103H61.6667Z" fill="#0A178A"/>
<path d="M47.2155 2.72168H44.5059V5.44333H47.2155V2.72168Z" fill="#0A178A"/>
<path d="M30.8663 12.1567L31.1824 13.2H32.176L31.3631 13.8351L31.6792 14.8784L30.8663 14.2433L30.0534 14.8784L30.3695 13.8351L29.5566 13.2H30.5502L30.8663 12.1567Z" fill="#FFED00"/>
<path d="M30.8663 27.4888L31.1824 28.5321H32.176L31.3631 29.1671L31.6792 30.2104L30.8663 29.5754L30.0534 30.2104L30.3695 29.1671L29.5566 28.5321H30.5502L30.8663 27.4888Z" fill="#FFED00"/>
<path d="M35.3829 11.0681L35.699 12.1114H36.6926L35.8797 12.7465L36.1958 13.7898L35.3829 13.1547L34.57 13.7898L34.8861 12.7465L34.0732 12.1114H35.0668L35.3829 11.0681Z" fill="#FFED00"/>
<path d="M35.3829 28.5774L35.699 29.6207H36.6926L35.8797 30.2557L36.1958 31.299L35.3829 30.664L34.57 31.299L34.8861 30.2557L34.0732 29.6207H35.0668L35.3829 28.5774Z" fill="#FFED00"/>
<path d="M39.8985 12.1567L40.2147 13.2H41.2082L40.3953 13.8351L40.7114 14.8784L39.8985 14.2433L39.0856 14.8784L39.4018 13.8351L38.5889 13.2H39.5824L39.8985 12.1567Z" fill="#FFED00"/>
<path d="M44.0533 19.9136L44.3694 20.8662H45.4533L44.5501 21.4558L44.8662 22.4084L43.963 21.8187L43.0598 22.4084L43.3759 21.4558L42.4727 20.8662H43.5565L43.8727 19.9136H44.0533Z" fill="#FFED00"/>
<path d="M26.6666 19.9136L26.9827 20.8662H28.0666L27.1634 21.4558L27.4795 22.4084L26.5763 21.8187L25.673 22.4084L25.9892 21.4558L25.0859 20.8662H26.1698L26.4859 19.9136H26.6666Z" fill="#FFED00"/>
<path d="M43.0152 15.3774L43.3313 16.33H44.4152L43.512 16.9197L43.8281 17.8723L42.9249 17.2826L42.0217 17.8723L42.3378 16.9197L41.4346 16.33H42.5184L42.8346 15.3774H43.0152Z" fill="#FFED00"/>
<path d="M27.7056 15.3774L28.0218 16.33H29.1056L28.2024 16.9197L28.5185 17.8723L27.6153 17.2826L26.7121 17.8723L27.0282 16.9197L26.125 16.33H27.2089L27.525 15.3774H27.7056Z" fill="#FFED00"/>
<path d="M27.7056 24.4495L28.0218 25.402H29.1056L28.2024 25.9917L28.5185 26.9443L27.6153 26.3546L26.7121 26.9443L27.0282 25.9917L26.125 25.402H27.2089L27.525 24.4495H27.7056Z" fill="#FFED00"/>
<path d="M43.0152 24.4495L43.3313 25.402H44.4152L43.512 25.9917L43.8281 26.9443L42.9249 26.3546L42.0217 26.9443L42.3378 25.9917L41.4346 25.402H42.5184L42.8346 24.4495H43.0152Z" fill="#FFED00"/>
<path d="M39.8985 27.4888L40.2147 28.5321H41.2082L40.3953 29.1671L40.7114 30.2104L39.8985 29.5754L39.0856 30.2104L39.4018 29.1671L38.5889 28.5321H39.5824L39.8985 27.4888Z" fill="#FFED00"/>
</g>
<path d="M70.9333 62.52C70.2613 62.52 69.6813 62.412 69.1933 62.196C68.7133 61.98 68.3253 61.692 68.0293 61.332L68.8333 60.612C69.1053 60.908 69.4093 61.136 69.7453 61.296C70.0893 61.448 70.4933 61.524 70.9573 61.524C71.3813 61.524 71.7213 61.452 71.9773 61.308C72.2413 61.164 72.3733 60.94 72.3733 60.636C72.3733 60.508 72.3493 60.4 72.3013 60.312C72.2533 60.224 72.1853 60.152 72.0973 60.096C72.0093 60.04 71.9053 59.996 71.7853 59.964C71.6733 59.932 71.5533 59.908 71.4253 59.892L70.4413 59.736C70.2013 59.704 69.9573 59.652 69.7093 59.58C69.4613 59.508 69.2373 59.408 69.0373 59.28C68.8453 59.144 68.6853 58.972 68.5573 58.764C68.4373 58.556 68.3773 58.292 68.3773 57.972C68.3773 57.34 68.6173 56.86 69.0973 56.532C69.5853 56.204 70.2253 56.04 71.0173 56.04C71.5933 56.04 72.0893 56.128 72.5053 56.304C72.9293 56.472 73.2813 56.708 73.5613 57.012L72.8293 57.78C72.6693 57.596 72.4413 57.428 72.1453 57.276C71.8493 57.116 71.4573 57.036 70.9693 57.036C70.0973 57.036 69.6613 57.312 69.6613 57.864C69.6613 58.128 69.7533 58.312 69.9373 58.416C70.1293 58.512 70.3533 58.576 70.6093 58.608L71.5933 58.764C71.8413 58.804 72.0853 58.856 72.3253 58.92C72.5733 58.984 72.7933 59.084 72.9853 59.22C73.1853 59.348 73.3453 59.516 73.4653 59.724C73.5933 59.932 73.6573 60.196 73.6573 60.516C73.6573 61.14 73.4133 61.632 72.9253 61.992C72.4453 62.344 71.7813 62.52 70.9333 62.52Z" fill="black"/>
<path d="M61.3975 61.3201H63.0415V57.2401H61.3975V56.1841H64.3495V57.8281H64.4215C64.4775 57.6121 64.5575 57.4041 64.6615 57.2041C64.7655 57.0041 64.8975 56.8321 65.0575 56.6881C65.2175 56.5361 65.4135 56.4161 65.6455 56.3281C65.8775 56.2321 66.1495 56.1841 66.4615 56.1841H67.2055V57.4321H65.9815C65.5015 57.4321 65.1095 57.5761 64.8055 57.8641C64.5015 58.1441 64.3495 58.5241 64.3495 59.0041V61.3201H66.5935V62.3761H61.3975V61.3201Z" fill="black"/>
<path d="M57.3821 62.52C56.9101 62.52 56.4861 62.444 56.1101 62.292C55.7341 62.14 55.4181 61.924 55.1621 61.644C54.9061 61.364 54.7101 61.028 54.5741 60.636C54.4381 60.236 54.3701 59.788 54.3701 59.292C54.3701 58.796 54.4381 58.348 54.5741 57.948C54.7181 57.548 54.9141 57.208 55.1621 56.928C55.4181 56.64 55.7261 56.42 56.0861 56.268C56.4461 56.116 56.8461 56.04 57.2861 56.04C57.7181 56.04 58.1101 56.116 58.4621 56.268C58.8141 56.412 59.1141 56.62 59.3621 56.892C59.6101 57.164 59.7981 57.488 59.9261 57.864C60.0621 58.24 60.1301 58.656 60.1301 59.112V59.604H55.6901V59.808C55.6901 60.296 55.8421 60.696 56.1461 61.008C56.4501 61.312 56.8701 61.464 57.4061 61.464C57.8061 61.464 58.1461 61.38 58.4261 61.212C58.7141 61.036 58.9461 60.804 59.1221 60.516L59.9381 61.236C59.7301 61.596 59.4101 61.9 58.9781 62.148C58.5541 62.396 58.0221 62.52 57.3821 62.52ZM57.2861 57.036C57.0541 57.036 56.8381 57.076 56.6381 57.156C56.4461 57.236 56.2781 57.352 56.1341 57.504C55.9981 57.648 55.8901 57.82 55.8101 58.02C55.7301 58.22 55.6901 58.44 55.6901 58.68V58.764H58.7981V58.644C58.7981 58.156 58.6581 57.768 58.3781 57.48C58.1061 57.184 57.7421 57.036 57.2861 57.036Z" fill="black"/>
<path d="M47.8232 62.376V56.184H49.1312V57.24H49.1912C49.2552 57.08 49.3352 56.928 49.4312 56.784C49.5352 56.632 49.6592 56.504 49.8032 56.4C49.9472 56.288 50.1152 56.2 50.3072 56.136C50.4992 56.072 50.7232 56.04 50.9792 56.04C51.6032 56.04 52.1072 56.244 52.4912 56.652C52.8752 57.06 53.0672 57.64 53.0672 58.392V62.376H51.7592V58.584C51.7592 57.6 51.3312 57.108 50.4752 57.108C50.3072 57.108 50.1432 57.132 49.9832 57.18C49.8232 57.22 49.6792 57.284 49.5512 57.372C49.4232 57.46 49.3192 57.572 49.2392 57.708C49.1672 57.844 49.1312 58 49.1312 58.176V62.376H47.8232Z" fill="black"/>
<path d="M43.952 62.376C43.408 62.376 43.008 62.232 42.752 61.944C42.496 61.648 42.368 61.268 42.368 60.804V57.24H40.46V56.184H41.816C42.048 56.184 42.212 56.14 42.308 56.052C42.404 55.956 42.452 55.788 42.452 55.548V54H43.676V56.184H46.316V57.24H43.676V61.32H46.316V62.376H43.952Z" fill="black"/>
<path d="M34.0566 61.3201H35.7006V57.2401H34.0566V56.1841H37.0086V57.8281H37.0806C37.1366 57.6121 37.2166 57.4041 37.3206 57.2041C37.4246 57.0041 37.5566 56.8321 37.7166 56.6881C37.8766 56.5361 38.0726 56.4161 38.3046 56.3281C38.5366 56.2321 38.8086 56.1841 39.1206 56.1841H39.8646V57.4321H38.6406C38.1606 57.4321 37.7686 57.5761 37.4646 57.8641C37.1606 58.1441 37.0086 58.5241 37.0086 59.0041V61.3201H39.2526V62.3761H34.0566V61.3201Z" fill="black"/>
<path d="M32.2133 62.376C31.8373 62.376 31.5533 62.28 31.3613 62.088C31.1773 61.896 31.0653 61.644 31.0253 61.332H30.9653C30.8453 61.708 30.6253 62 30.3053 62.208C29.9933 62.416 29.5933 62.52 29.1053 62.52C28.4733 62.52 27.9693 62.356 27.5933 62.028C27.2173 61.692 27.0293 61.232 27.0293 60.648C27.0293 60.048 27.2493 59.592 27.6893 59.28C28.1373 58.96 28.8213 58.8 29.7413 58.8H30.9293V58.32C30.9293 57.48 30.4853 57.06 29.5973 57.06C29.1973 57.06 28.8733 57.14 28.6253 57.3C28.3773 57.452 28.1693 57.656 28.0013 57.912L27.2213 57.276C27.3973 56.94 27.6933 56.652 28.1093 56.412C28.5253 56.164 29.0613 56.04 29.7173 56.04C30.5013 56.04 31.1173 56.228 31.5653 56.604C32.0133 56.98 32.2373 57.524 32.2373 58.236V61.344H33.0173V62.376H32.2133ZM29.4773 61.56C29.9013 61.56 30.2493 61.464 30.5213 61.272C30.7933 61.08 30.9293 60.832 30.9293 60.528V59.628H29.7653C28.8213 59.628 28.3493 59.912 28.3493 60.48V60.72C28.3493 61 28.4493 61.212 28.6493 61.356C28.8493 61.492 29.1253 61.56 29.4773 61.56Z" fill="black"/>
<path d="M20.4824 62.376V54H23.6144C24.4144 54 25.0224 54.224 25.4384 54.672C25.8624 55.12 26.0744 55.736 26.0744 56.52C26.0744 57.304 25.8624 57.92 25.4384 58.368C25.0224 58.816 24.4144 59.04 23.6144 59.04H21.8264V62.376H20.4824ZM21.8264 57.924H23.4104C24.2424 57.924 24.6584 57.54 24.6584 56.772V56.256C24.6584 55.496 24.2424 55.116 23.4104 55.116H21.8264V57.924Z" fill="black"/>
<path d="M7.97486 54V59.148C7.97486 59.492 7.98286 59.804 7.99886 60.084C8.02286 60.364 8.08286 60.604 8.17886 60.804C8.27486 60.996 8.41886 61.144 8.61086 61.248C8.80286 61.352 9.06686 61.404 9.40286 61.404C9.73886 61.404 10.0029 61.352 10.1949 61.248C10.3869 61.144 10.5309 60.996 10.6269 60.804C10.7229 60.604 10.7789 60.364 10.7949 60.084C10.8189 59.804 10.8309 59.492 10.8309 59.148V54H12.1749V58.908C12.1749 59.508 12.1389 60.036 12.0669 60.492C12.0029 60.94 11.8709 61.316 11.6709 61.62C11.4709 61.916 11.1869 62.14 10.8189 62.292C10.4589 62.444 9.98686 62.52 9.40286 62.52C8.81886 62.52 8.34286 62.444 7.97486 62.292C7.61486 62.14 7.33486 61.916 7.13486 61.62C6.93486 61.316 6.79886 60.94 6.72686 60.492C6.66286 60.036 6.63086 59.508 6.63086 58.908V54H7.97486Z" fill="black"/>
<path d="M0 62.376V54H5.244V55.128H1.344V57.564H5.1V58.692H1.344V61.248H5.244V62.376H0Z" fill="black"/>
<defs>
<clipPath id="clip0_842_186">
<rect width="56" height="44" fill="white" transform="translate(8.82812)"/>
</clipPath>
</defs>
</svg>
